<svg width="124" height="38" viewBox="0 0 124 38" fill="none" xmlns="http://www.w3.org/2000/svg">
<path d="M38.3879 13.1641H40.5283C40.6251 13.1641 40.7031 13.0861 40.7031 12.9894V8.06885H45.5987V12.9894C45.5987 13.0861 45.6767 13.1641 45.7734 13.1641H47.9138C48.0106 13.1641 48.0886 13.0861 48.0886 12.9894V1.28865C48.0886 1.19192 48.0106 1.11391 47.9138 1.11391H45.7734C45.6767 1.11391 45.5987 1.19192 45.5987 1.28865V5.97519H40.7031V1.28865C40.7031 1.19192 40.6251 1.11391 40.5283 1.11391H38.3879C38.2911 1.11391 38.2131 1.19192 38.2131 1.28865V12.9863C38.21 13.0861 38.288 13.1641 38.3879 13.1641Z" fill="#16234F"/>
<path d="M52.5005 12.9894V8.55248H53.9826L56.1075 13.0643C56.1356 13.1267 56.198 13.1641 56.2666 13.1641H58.7222C58.7846 13.1641 58.8408 13.1329 58.872 13.0799C58.9032 13.0268 58.9063 12.9644 58.8814 12.9083L56.5474 8.18741C57.2807 7.90347 57.833 7.46977 58.198 6.89565C58.5881 6.27785 58.7846 5.58828 58.7846 4.84568C58.7846 4.16235 58.6255 3.52895 58.3104 2.96419C57.9952 2.39632 57.5116 1.94077 56.8751 1.6069C56.2448 1.27616 55.4398 1.11079 54.4787 1.11079H50.1822C50.0855 1.11079 50.0075 1.1888 50.0075 1.28552V12.9832C50.0075 13.0799 50.0855 13.1579 50.1822 13.1579H52.3227C52.4225 13.1641 52.5005 13.0861 52.5005 12.9894ZM54.329 3.25437C55.0123 3.25437 55.5053 3.40414 55.7986 3.70368C56.0981 4.00634 56.2417 4.40261 56.2417 4.91744C56.2417 5.44475 56.095 5.85038 55.7892 6.16552C55.4897 6.47442 55.0061 6.63043 54.3446 6.63043H52.4974V3.25437H54.329Z" fill="#16234F"/>
<path d="M66.2232 12.9052C66.9003 13.2109 67.6897 13.3638 68.5665 13.3638C69.4838 13.3638 70.2701 13.1985 70.9035 12.8677C71.5431 12.537 72.033 12.0877 72.3606 11.5385C72.6882 10.9894 72.8536 10.3872 72.8536 9.74439C72.8536 9.02363 72.6976 8.41831 72.3887 7.95028C72.0829 7.48849 71.6742 7.11094 71.1749 6.83324C70.6882 6.56178 70.1422 6.32153 69.5556 6.11872C69.0126 5.94086 68.529 5.77549 68.1078 5.61948C67.7084 5.47283 67.3901 5.29186 67.1655 5.07969C66.9564 4.88312 66.8535 4.62414 66.8535 4.28092C66.8535 3.87841 66.9876 3.58199 67.2591 3.37606C67.543 3.16076 67.8925 3.06092 68.3324 3.07028C68.8317 3.07028 69.2092 3.20757 69.4838 3.4915C69.7615 3.77856 69.9019 4.09682 69.9113 4.46813C69.9144 4.56485 69.9924 4.63974 70.086 4.63974H72.3762C72.423 4.63974 72.4698 4.62102 72.5042 4.5867C72.5385 4.55237 72.5541 4.50557 72.5541 4.45877C72.5291 3.738 72.3388 3.1046 71.98 2.57729C71.6243 2.05309 71.1281 1.6381 70.5041 1.34793C69.8863 1.06087 69.1687 0.914217 68.3668 0.914217C67.5742 0.914217 66.8628 1.05775 66.2544 1.33856C65.6366 1.62562 65.1436 2.03125 64.7879 2.55232C64.4291 3.07652 64.2512 3.70992 64.2637 4.43069C64.2637 5.28874 64.5196 5.98767 65.0219 6.50874C65.5118 7.01733 66.2325 7.43544 67.1561 7.75682L68.7256 8.29038C69.1905 8.44951 69.568 8.65544 69.8426 8.90506C70.1016 9.13907 70.2295 9.46357 70.2295 9.89416C70.2295 10.2998 70.086 10.6118 69.7927 10.8521C69.4932 11.0986 69.0751 11.2234 68.5509 11.2234C67.9455 11.2234 67.4681 11.0518 67.1312 10.7148C66.7879 10.3716 66.6101 9.95969 66.5883 9.45421C66.5851 9.36061 66.5071 9.28572 66.4135 9.28572H64.1576C64.1108 9.28572 64.064 9.30444 64.0328 9.33877C63.9985 9.37309 63.9829 9.41677 63.9829 9.46357C63.9954 10.2873 64.2013 10.9956 64.5976 11.576C64.9938 12.1532 65.5399 12.5994 66.2232 12.9052Z" fill="#16234F"/>
<path d="M82.3172 11.1953C82.7041 10.5213 82.9007 9.7288 82.9007 8.84266C82.9007 7.95652 82.7041 7.16711 82.3172 6.49002C81.9303 5.81294 81.3967 5.27627 80.7321 4.8956C80.0675 4.51494 79.3156 4.32148 78.4981 4.32148C77.6681 4.32148 76.9099 4.51494 76.2453 4.8956C75.5807 5.27627 75.044 5.81294 74.6509 6.49002C74.2577 7.16399 74.058 7.95652 74.058 8.84266C74.058 9.7288 74.2546 10.5182 74.6415 11.1953C75.0284 11.8724 75.562 12.4091 76.2266 12.7897C76.8912 13.1704 77.6494 13.3638 78.4794 13.3638C79.2968 13.3638 80.0519 13.1704 80.7228 12.7897C81.3936 12.4091 81.9303 11.8724 82.3172 11.1953ZM78.4794 11.1578C77.9676 11.1578 77.5371 10.9706 77.1595 10.5837C76.7882 10.2031 76.5979 9.61647 76.5979 8.84266C76.5979 8.06885 76.7851 7.48537 77.1595 7.10158C77.5339 6.71468 77.9708 6.52747 78.495 6.52747C78.9973 6.52747 79.4248 6.71468 79.8054 7.10158C80.183 7.48225 80.3733 8.06885 80.3733 8.83954C80.3733 9.61023 80.183 10.1968 79.8054 10.5775C79.4279 10.9706 78.9911 11.1578 78.4794 11.1578Z" fill="#16234F"/>
<path d="M88.6731 6.49626C89.0787 6.49626 89.4375 6.60235 89.7339 6.80828C90.0303 7.01421 90.2238 7.29191 90.3236 7.65386C90.3455 7.73186 90.4141 7.78179 90.4921 7.78179H92.748C92.8011 7.78179 92.851 7.75682 92.8853 7.71626C92.9197 7.6757 92.9321 7.62265 92.9196 7.56961C92.7106 6.56179 92.2238 5.75989 91.4656 5.18266C90.7137 4.60854 89.7776 4.31836 88.6855 4.31836C87.8119 4.31836 87.0287 4.51181 86.3579 4.89248C85.687 5.27626 85.1503 5.81606 84.7634 6.49626C84.3765 7.17647 84.18 7.96588 84.18 8.83953C84.18 9.71319 84.3765 10.5026 84.7634 11.1828C85.1503 11.863 85.687 12.4028 86.3579 12.7866C87.0287 13.1673 87.8119 13.3607 88.6855 13.3607C89.7776 13.3607 90.7168 13.0612 91.4688 12.4715C92.2238 11.8786 92.7106 11.0861 92.9196 10.1126C92.929 10.0595 92.9165 10.0065 92.8853 9.96593C92.851 9.92536 92.8011 9.9004 92.748 9.9004H90.4921C90.411 9.9004 90.3424 9.95345 90.3236 10.0315C90.2238 10.4059 90.0303 10.6836 89.7339 10.8833C89.4375 11.0861 89.0787 11.1859 88.6699 11.1859C88.127 11.1859 87.6746 10.9862 87.2939 10.5744C86.9133 10.1656 86.7229 9.58214 86.7229 8.83953C86.7229 8.09693 86.9164 7.51345 87.2939 7.1047C87.6808 6.69595 88.1301 6.49626 88.6731 6.49626Z" fill="#16234F"/>
<path d="M94.7418 4.52429C94.6451 4.52429 94.5671 4.6023 94.5671 4.69903V12.9894C94.5671 13.0861 94.6451 13.1641 94.7418 13.1641H96.8823C96.979 13.1641 97.057 13.0861 97.057 12.9894V4.69903C97.057 4.6023 96.979 4.52429 96.8823 4.52429H94.7418Z" fill="#16234F"/>
<path d="M95.8089 3.58823C96.2427 3.58823 96.6077 3.45406 96.8917 3.18885C97.1787 2.92051 97.3254 2.58041 97.3254 2.17478C97.3254 1.76915 97.1787 1.42905 96.8917 1.16696C96.6077 0.907979 96.2458 0.78005 95.8121 0.78005C95.3784 0.78005 95.0164 0.911099 94.7325 1.16696C94.4454 1.42905 94.2988 1.76915 94.2988 2.17478C94.2988 2.58041 94.4454 2.92363 94.7325 3.18885C95.0133 3.45406 95.3752 3.58823 95.8089 3.58823Z" fill="#16234F"/>
<path d="M106.901 12.9894V7.891C106.901 6.76148 106.539 5.87534 105.822 5.2513C105.11 4.6335 104.134 4.32148 102.914 4.32148C102.202 4.32148 101.547 4.44629 100.973 4.69591C100.389 4.94552 99.9089 5.31059 99.5438 5.77862C99.1725 6.24977 98.9541 6.80829 98.898 7.44169C98.8948 7.49161 98.9104 7.54153 98.9448 7.57586C98.9791 7.6133 99.0259 7.63202 99.0758 7.63202H101.166C101.251 7.63202 101.322 7.57274 101.338 7.48849C101.407 7.13279 101.578 6.87381 101.862 6.69284C102.155 6.50563 102.505 6.41202 102.904 6.41202C103.344 6.41202 103.7 6.53059 103.993 6.77396C104.277 7.00798 104.414 7.37304 104.414 7.891V7.91596H102.486C101.247 7.91596 100.299 8.17181 99.6687 8.67417C99.0259 9.18588 98.6983 9.86297 98.6983 10.6836C98.6983 11.1703 98.82 11.6228 99.0571 12.0253C99.2973 12.434 99.6655 12.7616 100.149 13.005C100.63 13.2453 101.244 13.367 101.984 13.367C102.705 13.367 103.31 13.2109 103.778 12.902C104.102 12.6899 104.377 12.434 104.602 12.1376L104.733 13.0144C104.745 13.1017 104.82 13.1641 104.907 13.1641H106.73C106.82 13.1641 106.901 13.0861 106.901 12.9894ZM104.324 9.60399C104.224 10.072 104.034 10.4745 103.756 10.8021C103.447 11.1641 103.026 11.3419 102.461 11.3419C102.099 11.3419 101.809 11.2639 101.597 11.1079C101.397 10.9644 101.301 10.7647 101.301 10.4995C101.301 10.253 101.4 10.0471 101.606 9.87545C101.818 9.69759 102.19 9.60711 102.714 9.60711H104.324V9.60399Z" fill="#16234F"/>
<path d="M108.764 13.1641H110.905C111.001 13.1641 111.079 13.0861 111.079 12.9894V0.954782C111.079 0.858055 111.001 0.78005 110.905 0.78005H108.764C108.667 0.78005 108.589 0.858055 108.589 0.954782V12.9894C108.586 13.0861 108.664 13.1641 108.764 13.1641Z" fill="#16234F"/>
<path d="M43.6516 17.3078C44.388 17.3078 44.984 17.4794 45.4239 17.8132C45.8607 18.1471 46.1509 18.6183 46.2851 19.208C46.3038 19.2891 46.3756 19.3453 46.4567 19.3453H48.8125C48.8655 19.3453 48.9154 19.3234 48.9466 19.2829C48.9809 19.2423 48.9934 19.1892 48.9841 19.1393C48.7532 17.8413 48.1666 16.8179 47.2399 16.0971C46.3163 15.3795 45.1181 15.0144 43.6797 15.0144C42.4722 15.0144 41.4176 15.2828 40.547 15.8069C39.6734 16.3343 38.9963 17.08 38.5251 18.0192C38.0571 18.9521 37.82 20.0411 37.82 21.2579C37.82 22.4748 38.0571 23.5607 38.5251 24.4874C38.9932 25.4203 39.6765 26.1598 40.547 26.6809C41.4176 27.2019 42.4722 27.4671 43.6797 27.4671C45.115 27.4671 46.3132 27.1114 47.2368 26.4125C48.1666 25.7105 48.7532 24.7214 48.9841 23.4795C48.9934 23.4265 48.9809 23.3734 48.9466 23.336C48.9123 23.2954 48.8624 23.2736 48.8093 23.2736H46.4536C46.3725 23.2736 46.3007 23.3298 46.282 23.4078C46.1478 23.9632 45.8607 24.4062 45.4239 24.7182C44.984 25.0334 44.3849 25.1956 43.6454 25.1956C42.6095 25.1956 41.8232 24.8587 41.2397 24.1629C40.6562 23.4702 40.3629 22.4935 40.3629 21.2579C40.3629 20.0255 40.6594 19.0457 41.2428 18.3468C41.8294 17.6479 42.6157 17.3078 43.6516 17.3078Z" fill="#16234F"/>
<path d="M56.8844 19.002C56.2198 18.6214 55.4678 18.4279 54.6503 18.4279C53.8204 18.4279 53.0622 18.6214 52.3976 19.002C51.733 19.3827 51.1963 19.9194 50.8031 20.5965C50.41 21.2704 50.2103 22.063 50.2103 22.9491C50.2103 23.8352 50.4069 24.6246 50.7938 25.3017C51.1807 25.9788 51.7142 26.5155 52.3788 26.8962C53.0434 27.2768 53.8017 27.4703 54.6316 27.4703C55.4491 27.4703 56.2042 27.2768 56.8751 26.8962C57.5459 26.5155 58.0826 25.9788 58.4695 25.3017C58.8564 24.6278 59.053 23.8352 59.053 22.9491C59.053 22.063 58.8564 21.2735 58.4695 20.5965C58.0826 19.9194 57.549 19.3827 56.8844 19.002ZM54.6316 25.2612C54.1199 25.2612 53.6893 25.074 53.3118 24.687C52.9405 24.3064 52.7501 23.7198 52.7501 22.946C52.7501 22.1722 52.9374 21.5887 53.3118 21.2049C53.6862 20.818 54.123 20.6308 54.6472 20.6308C55.1496 20.6308 55.577 20.818 55.9577 21.2049C56.3353 21.5856 56.5256 22.1722 56.5256 22.9429C56.5256 23.7135 56.3353 24.3001 55.9577 24.6808C55.577 25.074 55.1433 25.2612 54.6316 25.2612Z" fill="#16234F"/>
<path d="M65.6615 18.4279C64.9751 18.4279 64.3698 18.5839 63.8581 18.8866C63.4992 19.1019 63.1966 19.3733 62.9532 19.6947L62.844 18.7836C62.8346 18.6963 62.7566 18.6276 62.6693 18.6276H60.7815C60.6848 18.6276 60.6068 18.7056 60.6068 18.8023V27.0927C60.6068 27.1895 60.6848 27.2675 60.7815 27.2675H62.922C63.0187 27.2675 63.0967 27.1895 63.0967 27.0927V22.8149C63.0967 22.1066 63.2746 21.5512 63.6272 21.1612C63.9797 20.7743 64.4197 20.584 64.9751 20.584C65.5336 20.584 65.933 20.7462 66.1889 21.0832C66.4541 21.4296 66.5882 21.9444 66.5882 22.6152V27.0958C66.5882 27.1926 66.6662 27.2706 66.763 27.2706H68.9034C69.0002 27.2706 69.0782 27.1926 69.0782 27.0958V22.4155C69.0782 21.13 68.7755 20.1347 68.1827 19.4576C67.5836 18.7711 66.7349 18.4279 65.6615 18.4279Z" fill="#16234F"/>
<path d="M76.289 22.3375C75.8022 22.1753 75.2593 22.0255 74.6758 21.8882C74.1548 21.7697 73.7335 21.6386 73.4215 21.4982C73.0408 21.3266 73.0408 21.1363 73.0408 21.0739C73.0408 20.896 73.122 20.7556 73.2936 20.6308C73.4808 20.4966 73.7585 20.428 74.1173 20.428C74.8287 20.428 75.225 20.6838 75.3311 21.2049C75.3467 21.286 75.4216 21.3453 75.5027 21.3453H77.5246C77.5745 21.3453 77.6244 21.3235 77.6587 21.286C77.6931 21.2486 77.7055 21.1955 77.6993 21.1456C77.5807 20.3 77.2094 19.6261 76.5885 19.1425C75.9738 18.6619 75.147 18.4186 74.1329 18.4186C73.0377 18.4186 72.1672 18.6869 71.5525 19.2142C70.9285 19.7478 70.6133 20.4186 70.6133 21.2018C70.6133 21.6386 70.7194 22.013 70.9285 22.3126C71.1313 22.6059 71.4027 22.8493 71.7304 23.0333C72.0455 23.2112 72.3981 23.361 72.7756 23.4733C73.1407 23.5856 73.512 23.6823 73.8739 23.7604C74.4168 23.8789 74.8474 24.0037 75.147 24.1285C75.3935 24.2284 75.5058 24.4094 75.5058 24.6933C75.5058 24.8867 75.4184 25.0552 75.2406 25.2112C75.0565 25.3704 74.7507 25.4515 74.3295 25.4515C73.9051 25.4515 73.5557 25.3485 73.2936 25.1457C73.0315 24.9429 72.8723 24.7058 72.8162 24.4218C72.8006 24.3407 72.7257 24.2814 72.6446 24.2814H70.4885C70.4386 24.2814 70.3887 24.3033 70.3575 24.3407C70.3231 24.3782 70.3075 24.4281 70.3138 24.478C70.3856 25.0646 70.6008 25.5888 70.9534 26.0381C71.306 26.4843 71.7772 26.8338 72.3606 27.0865C72.9379 27.333 73.6118 27.4609 74.37 27.4609C75.1033 27.4609 75.7523 27.3392 76.2983 27.0958C76.8506 26.8494 77.2812 26.503 77.5745 26.0631C77.874 25.6231 78.0176 25.1208 78.0051 24.5778C78.0051 23.9444 77.8428 23.4452 77.5246 23.0957C77.2157 22.765 76.8007 22.5091 76.289 22.3375Z" fill="#16234F"/>
<path d="M87.6871 18.6276H85.5466C85.4499 18.6276 85.3719 18.7056 85.3719 18.8023V23.0801C85.3719 23.7884 85.194 24.3438 84.8415 24.7338C84.4889 25.1208 84.0552 25.3111 83.5091 25.3111C82.9381 25.3111 82.5356 25.1488 82.2798 24.8119C82.0146 24.4655 81.8804 23.9507 81.8804 23.2798V18.8023C81.8804 18.7056 81.8024 18.6276 81.7056 18.6276H79.5839C79.4872 18.6276 79.4092 18.7056 79.4092 18.8023V23.4826C79.4092 24.7682 79.7087 25.7635 80.2953 26.4406C80.8913 27.1239 81.7431 27.4703 82.8258 27.4703C83.4998 27.4703 84.102 27.3174 84.6137 27.0116C84.9725 26.7963 85.2752 26.5248 85.5185 26.2035L85.6277 27.1146C85.6371 27.2019 85.7151 27.2706 85.8025 27.2706H87.6902C87.7869 27.2706 87.8649 27.1926 87.8649 27.0958V18.8023C87.8649 18.7056 87.7869 18.6276 87.6871 18.6276Z" fill="#16234F"/>
<path d="M92.0179 14.8834H89.8775C89.7807 14.8834 89.7027 14.9614 89.7027 15.0581V27.0927C89.7027 27.1894 89.7807 27.2675 89.8775 27.2675H92.0179C92.1146 27.2675 92.1927 27.1894 92.1927 27.0927V15.0581C92.1927 14.9614 92.1146 14.8834 92.0179 14.8834Z" fill="#16234F"/>
<path d="M99.4034 18.6276H97.341V16.5808C97.341 16.484 97.263 16.406 97.1662 16.406H95.2785C95.188 16.406 95.1132 16.4747 95.1038 16.562L94.8698 18.6276H93.6061C93.5094 18.6276 93.4314 18.7056 93.4314 18.8023V20.5902C93.4314 20.6869 93.5094 20.765 93.6061 20.765H94.8511V24.1972C94.8511 25.3298 95.1381 26.1348 95.7029 26.5904C96.2551 27.0366 96.9946 27.2643 97.9026 27.2643H99.3566C99.4534 27.2643 99.5314 27.1863 99.5314 27.0896V25.2674C99.5314 25.1707 99.4534 25.0927 99.3566 25.0927H98.3207C97.9494 25.0927 97.678 25.0303 97.5438 24.9117C97.4127 24.7994 97.3441 24.5591 97.3441 24.2159V20.7681H99.4066C99.5033 20.7681 99.5813 20.6901 99.5813 20.5933V18.8055C99.5782 18.7056 99.5002 18.6276 99.4034 18.6276Z" fill="#16234F"/>
<path d="M103.466 18.6276H101.325C101.229 18.6276 101.151 18.7056 101.151 18.8023V27.0927C101.151 27.1894 101.229 27.2675 101.325 27.2675H103.466C103.563 27.2675 103.641 27.1894 103.641 27.0927V18.8023C103.641 18.7056 103.563 18.6276 103.466 18.6276Z" fill="#16234F"/>
<path d="M102.396 14.8834C101.962 14.8834 101.6 15.0144 101.316 15.2703C101.029 15.5324 100.882 15.8725 100.882 16.2781C100.882 16.6837 101.029 17.0269 101.316 17.2922C101.6 17.5574 101.962 17.6915 102.396 17.6915C102.829 17.6915 103.194 17.5574 103.475 17.2922C103.762 17.0238 103.909 16.6837 103.909 16.2781C103.909 15.8725 103.762 15.5324 103.475 15.2703C103.191 15.0144 102.826 14.8834 102.396 14.8834Z" fill="#16234F"/>
<path d="M110.583 18.4279C109.897 18.4279 109.291 18.5839 108.78 18.8866C108.421 19.1019 108.118 19.3733 107.875 19.6947L107.766 18.7836C107.756 18.6963 107.678 18.6276 107.591 18.6276H105.703C105.606 18.6276 105.528 18.7056 105.528 18.8023V27.0927C105.528 27.1895 105.606 27.2675 105.703 27.2675H107.844C107.94 27.2675 108.018 27.1895 108.018 27.0927V22.8149C108.018 22.1066 108.196 21.5512 108.549 21.1612C108.901 20.7743 109.341 20.584 109.897 20.584C110.455 20.584 110.855 20.7462 111.11 21.0832C111.376 21.4296 111.51 21.9444 111.51 22.6152V27.0958C111.51 27.1926 111.588 27.2706 111.685 27.2706H113.825C113.922 27.2706 114 27.1926 114 27.0958V22.4155C114 21.13 113.697 20.1347 113.104 19.4576C112.505 18.7711 111.656 18.4279 110.583 18.4279Z" fill="#16234F"/>
<path d="M123.819 18.6276H120.705C120.296 18.4934 119.847 18.4279 119.373 18.4279C118.633 18.4279 117.994 18.5683 117.469 18.8491C116.942 19.13 116.527 19.5169 116.24 20.0005C115.953 20.4841 115.806 21.0239 115.806 21.6105C115.806 22.4873 116.109 23.2268 116.702 23.8072L115.37 25.2144C115.338 25.2456 115.323 25.2892 115.323 25.3361V25.7198C115.323 25.7666 115.341 25.8103 115.373 25.8446C115.501 25.9726 115.653 26.0974 115.825 26.2159C115.928 26.2877 116.047 26.3595 116.175 26.425C115.554 26.9679 115.238 27.6044 115.238 28.3252C115.238 29.2675 115.632 29.9852 116.409 30.4563C117.157 30.9119 118.15 31.1427 119.357 31.1427C120.25 31.1427 120.995 30.9992 121.576 30.7153C122.159 30.4282 122.602 30.0476 122.886 29.5795C123.17 29.1146 123.314 28.6123 123.314 28.0943C123.314 27.2987 123.039 26.6621 122.499 26.2035C121.972 25.7573 121.129 25.4796 119.994 25.3766C119.279 25.3111 118.758 25.2456 118.443 25.18C118.253 25.1395 118.087 25.0958 117.947 25.0428L118.312 24.6777C118.643 24.7557 119.001 24.7931 119.379 24.7931C120.097 24.7931 120.727 24.6527 121.257 24.3719C121.791 24.0911 122.206 23.7011 122.49 23.2174C122.771 22.7369 122.914 22.194 122.914 21.6074C122.914 21.1643 122.833 20.7462 122.674 20.3624L123.838 20.2813C123.931 20.2751 124 20.1971 124 20.1066V18.8023C123.997 18.7056 123.919 18.6276 123.819 18.6276ZM120.565 28.8744C120.262 29.0709 119.856 29.1708 119.357 29.1708C118.833 29.1708 118.387 29.0741 118.028 28.8837C117.703 28.709 117.544 28.4563 117.544 28.113C117.544 27.9227 117.604 27.7417 117.725 27.5576C117.841 27.3829 118.034 27.2144 118.303 27.0615C118.683 27.1239 119.095 27.1707 119.529 27.2051C120.278 27.2581 120.59 27.4079 120.718 27.5264C120.899 27.6949 120.986 27.8977 120.986 28.1474C120.986 28.4531 120.849 28.6903 120.565 28.8744ZM120.34 22.4935C120.087 22.7026 119.769 22.8056 119.376 22.8056C118.964 22.8056 118.63 22.7026 118.387 22.4967C118.147 22.297 118.031 22.013 118.031 21.6292C118.031 21.2455 118.147 20.9615 118.387 20.7618C118.63 20.5559 118.964 20.4529 119.376 20.4529C119.772 20.4529 120.087 20.5559 120.34 20.765C120.583 20.9646 120.702 21.2486 120.702 21.6324C120.702 22.0099 120.583 22.2939 120.34 22.4935Z" fill="#16234F"/>
<path d="M42.9215 33.9977H42.3037C42.3256 33.8948 42.338 33.7949 42.338 33.692C42.338 33.096 41.87 32.8651 41.3365 32.8651C40.625 32.8651 40.0821 33.3113 39.9604 34.0165C39.8668 34.5438 39.7701 35.0804 39.6765 35.614C39.664 35.6889 39.6578 35.77 39.6578 35.8449C39.6578 36.4533 40.1321 36.7186 40.6937 36.7186C41.4269 36.7186 41.9137 36.3129 42.0291 35.5859H42.6376L42.6251 35.6889C42.4691 36.8621 41.5954 37.2864 40.572 37.2864C39.7451 37.2864 38.9869 36.9058 38.9869 35.9853C38.9869 35.8761 38.9932 35.77 39.015 35.6608C39.1024 35.1241 39.2054 34.5843 39.299 34.0477C39.4955 32.9649 40.3692 32.2941 41.455 32.2941C42.2476 32.2941 42.9777 32.6404 42.9777 33.5266C42.9777 33.6857 42.9496 33.848 42.9215 33.9977Z" fill="#23A638"/>
<path d="M49.4053 33.9697C49.3117 34.497 49.2306 35.0336 49.1214 35.561C48.8905 36.6998 48.0106 37.2896 46.9591 37.2896C46.1384 37.2896 45.3802 36.9089 45.3802 35.9884C45.3802 35.8792 45.3865 35.7731 45.4083 35.6639L45.6923 34.0508C45.8951 32.9337 46.7843 32.2972 47.8483 32.2972C48.6877 32.2972 49.4334 32.7185 49.4334 33.6389C49.4334 33.7544 49.4271 33.8604 49.4053 33.9697ZM47.7329 32.8651C47.0215 32.8651 46.4848 33.3175 46.3569 34.0165L46.0729 35.614C46.0604 35.6889 46.0542 35.7638 46.0542 35.8449C46.0542 36.4533 46.5347 36.7186 47.0901 36.7186C47.789 36.7186 48.3382 36.3067 48.4599 35.6078L48.7501 33.9541C48.7625 33.8792 48.7719 33.798 48.7719 33.7232C48.7688 33.1085 48.2883 32.8651 47.7329 32.8651Z" fill="#23A638"/>
<path d="M55.4086 37.2147H54.8594L53.1121 33.4891H53.0778L52.4194 37.2084H51.8172L52.6722 32.3783H53.2494L54.9842 36.0446H55.0186L55.6613 32.3783H56.2635L55.4086 37.2147Z" fill="#23A638"/>
<path d="M62.2574 32.94H59.8923L59.6208 34.4564H61.5585L61.4649 35.018H59.5272L59.1403 37.2053H58.4913L59.3463 32.3752H62.3541L62.2574 32.94Z" fill="#23A638"/>
<path d="M67.7022 32.94H66.66L66.0017 36.6468H67.0532L66.9502 37.2084H64.2138L64.3167 36.6468H65.3589L66.0173 32.94H64.9657L65.0687 32.3783H67.8051L67.7022 32.94Z" fill="#23A638"/>
<path d="M73.0003 37.2084L72.785 35.9354H70.866L70.2014 37.2084H69.5524L72.1734 32.3565H72.7819L73.668 37.2084H73.0003ZM72.3232 33.1834H72.2889L71.1437 35.3925H72.6945L72.3232 33.1834Z" fill="#23A638"/>
<path d="M79.9771 37.2147H79.4279L77.6806 33.4891H77.6463L76.9879 37.2084H76.3857L77.2406 32.3783H77.8179L79.5527 36.0446H79.587L80.2298 32.3783H80.832L79.9771 37.2147Z" fill="#23A638"/>
<path d="M86.8664 32.837L83.7026 36.6499H86.2018L86.0989 37.2053H82.8071L82.8944 36.7123L86.0458 32.9244H83.6745L83.7774 32.3752H86.9476L86.8664 32.837Z" fill="#23A638"/>
<path d="M92.0834 37.2084L91.8681 35.9354H89.9492L89.2846 37.2084H88.6356L91.2566 32.3565H91.865L92.7512 37.2084H92.0834ZM91.4064 33.1834H91.372L90.2269 35.3925H91.7777L91.4064 33.1834Z" fill="#23A638"/>
<path d="M3.74112 36.0976C1.67555 36.0976 0 34.4221 0 32.3565V13.42C0 11.3544 1.67555 9.67887 3.74112 9.67887C5.8067 9.67887 7.48225 11.3544 7.48225 13.42V32.3534C7.48537 34.4221 5.80982 36.0976 3.74112 36.0976Z" fill="#23A638"/>
<path d="M4.20604 7.48537C2.14046 7.48537 0.464912 5.80982 0.464912 3.74424C0.464912 1.67555 2.14046 0 4.20604 0C6.27161 0 7.94716 1.67555 7.94716 3.74112C7.94716 5.80982 6.27161 7.48537 4.20604 7.48537Z" fill="#23A638"/>
<path d="M14.3373 27.386C6.57115 27.386 0.255859 21.0676 0.255859 13.3045C0.255859 11.3794 1.81596 9.81928 3.74113 9.81928C5.66629 9.81928 7.22639 11.3794 7.22639 13.3045C7.22639 17.2235 10.4152 20.4155 14.3373 20.4155C16.2625 20.4155 17.8226 21.9756 17.8226 23.9008C17.8257 25.8259 16.2656 27.386 14.3373 27.386Z" fill="#23A638" fill-opacity="0.9"/>
<path d="M23.96 36.0976C26.0256 36.0976 27.7012 34.4221 27.7012 32.3565V13.42C27.7012 11.3544 26.0256 9.67887 23.96 9.67887C21.8945 9.67887 20.2189 11.3544 20.2189 13.42V32.3534C20.2189 34.4221 21.8945 36.0976 23.96 36.0976Z" fill="#23A638"/>
<path d="M23.4983 7.48537C25.5638 7.48537 27.2394 5.80982 27.2394 3.74424C27.2394 1.67555 25.5638 0 23.4983 0C21.4327 0 19.7571 1.67555 19.7571 3.74112C19.754 5.80982 21.4296 7.48537 23.4983 7.48537Z" fill="#23A638"/>
<path d="M13.3638 27.386C21.13 27.386 27.4453 21.0676 27.4453 13.3045C27.4453 11.3794 25.8852 9.81928 23.96 9.81928C22.0349 9.81928 20.4748 11.3794 20.4748 13.3045C20.4748 17.2235 17.2859 20.4155 13.3638 20.4155C11.4387 20.4155 9.87856 21.9756 9.87856 23.9008C9.87856 25.8259 11.4387 27.386 13.3638 27.386Z" fill="#23A638" fill-opacity="0.9"/>
</svg>
