<svg width="203" height="57" viewBox="0 0 203 57" fill="none" xmlns="http://www.w3.org/2000/svg">
<path d="M62.7968 20.0638H66.2983C66.4566 20.0638 66.5842 19.9449 66.5842 19.7975V12.2979H74.5926V19.7975C74.5926 19.9449 74.7202 20.0638 74.8785 20.0638H78.3799C78.5382 20.0638 78.6658 19.9449 78.6658 19.7975V1.96407C78.6658 1.81664 78.5382 1.69775 78.3799 1.69775H74.8785C74.7202 1.69775 74.5926 1.81664 74.5926 1.96407V9.10694H66.5842V1.96407C66.5842 1.81664 66.4566 1.69775 66.2983 1.69775H62.7968C62.6386 1.69775 62.511 1.81664 62.511 1.96407V19.7927C62.5059 19.9449 62.6335 20.0638 62.7968 20.0638Z" fill="white"/>
<path d="M85.8831 19.7973V13.0349H88.3076L91.7836 19.9115C91.8295 20.0066 91.9316 20.0636 92.0439 20.0636H96.0609C96.163 20.0636 96.2548 20.0161 96.3059 19.9352C96.3569 19.8544 96.362 19.7593 96.3212 19.6737L92.5032 12.4785C93.7027 12.0458 94.6062 11.3847 95.2034 10.5097C95.8414 9.5681 96.163 8.51712 96.163 7.38529C96.163 6.34382 95.9026 5.37844 95.3871 4.51768C94.8716 3.65217 94.0804 2.95785 93.0392 2.44901C92.0081 1.94492 90.6913 1.69287 89.1192 1.69287H82.0907C81.9325 1.69287 81.8049 1.81176 81.8049 1.95918V19.7878C81.8049 19.9352 81.9325 20.0541 82.0907 20.0541H85.5922C85.7555 20.0636 85.8831 19.9448 85.8831 19.7973ZM88.8742 4.95995C89.992 4.95995 90.7985 5.18822 91.2782 5.64475C91.7682 6.10604 92.003 6.71 92.003 7.49467C92.003 8.29836 91.7631 8.91659 91.2629 9.3969C90.7729 9.8677 89.9818 10.1055 88.8997 10.1055H85.878V4.95995H88.8742Z" fill="white"/>
<path d="M108.331 19.6692C109.439 20.1353 110.73 20.3683 112.165 20.3683C113.665 20.3683 114.951 20.1162 115.988 19.6122C117.034 19.1081 117.835 18.4233 118.371 17.5863C118.907 16.7493 119.178 15.8315 119.178 14.8518C119.178 13.7533 118.923 12.8307 118.417 12.1174C117.917 11.4135 117.248 10.8381 116.432 10.4149C115.635 10.0011 114.742 9.63496 113.783 9.32585C112.894 9.05478 112.103 8.80274 111.414 8.56496C110.761 8.34145 110.24 8.06562 109.873 7.74224C109.531 7.44264 109.362 7.04793 109.362 6.52482C109.362 5.91135 109.582 5.45957 110.026 5.1457C110.49 4.81757 111.062 4.66539 111.782 4.67965C112.598 4.67965 113.216 4.8889 113.665 5.32166C114.119 5.75917 114.349 6.24424 114.364 6.81015C114.37 6.95757 114.497 7.07171 114.65 7.07171H118.397C118.473 7.07171 118.55 7.04317 118.606 6.99086C118.662 6.93855 118.688 6.86722 118.688 6.79588C118.647 5.69735 118.336 4.73197 117.749 3.92827C117.167 3.12934 116.355 2.49685 115.334 2.05458C114.324 1.61707 113.15 1.39355 111.838 1.39355C110.541 1.39355 109.378 1.61231 108.382 2.04031C107.372 2.47783 106.565 3.09605 105.983 3.89023C105.396 4.68917 105.105 5.65455 105.126 6.75308C105.126 8.06087 105.544 9.12611 106.366 9.9203C107.168 10.6955 108.347 11.3327 109.857 11.8225L112.425 12.6357C113.185 12.8783 113.803 13.1921 114.252 13.5726C114.676 13.9292 114.885 14.4238 114.885 15.0801C114.885 15.6983 114.65 16.1739 114.171 16.5401C113.681 16.9157 112.997 17.106 112.139 17.106C111.149 17.106 110.368 16.8444 109.817 16.3308C109.255 15.8077 108.964 15.18 108.929 14.4096C108.923 14.2669 108.796 14.1528 108.643 14.1528H104.952C104.876 14.1528 104.799 14.1813 104.748 14.2336C104.692 14.2859 104.667 14.3525 104.667 14.4238C104.687 15.6793 105.024 16.7588 105.672 17.6433C106.32 18.5231 107.213 19.2032 108.331 19.6692Z" fill="white"/>
<path d="M134.659 17.063C135.292 16.0357 135.613 14.8278 135.613 13.4773C135.613 12.1267 135.292 10.9235 134.659 9.89155C134.026 8.85959 133.153 8.04163 132.066 7.46145C130.979 6.88127 129.749 6.58643 128.411 6.58643C127.053 6.58643 125.813 6.88127 124.726 7.46145C123.639 8.04163 122.761 8.85959 122.118 9.89155C121.475 10.9188 121.148 12.1267 121.148 13.4773C121.148 14.8278 121.47 16.031 122.102 17.063C122.735 18.0949 123.608 18.9129 124.695 19.493C125.783 20.0732 127.023 20.3681 128.381 20.3681C129.718 20.3681 130.953 20.0732 132.05 19.493C133.148 18.9129 134.026 18.0949 134.659 17.063ZM128.381 17.0059C127.543 17.0059 126.839 16.7205 126.222 16.1309C125.614 15.5507 125.303 14.6566 125.303 13.4773C125.303 12.2979 125.609 11.4086 126.222 10.8236C126.834 10.2339 127.549 9.94862 128.406 9.94862C129.228 9.94862 129.927 10.2339 130.55 10.8236C131.167 11.4038 131.479 12.2979 131.479 13.4725C131.479 14.6471 131.167 15.5412 130.55 16.1213C129.932 16.7206 129.218 17.0059 128.381 17.0059Z" fill="white"/>
<path d="M145.056 9.90093C145.72 9.90093 146.306 10.0626 146.791 10.3765C147.276 10.6904 147.593 11.1136 147.756 11.6653C147.792 11.7841 147.904 11.8602 148.032 11.8602H151.722C151.809 11.8602 151.89 11.8222 151.947 11.7604C152.003 11.6985 152.023 11.6177 152.003 11.5368C151.661 10.0008 150.865 8.77862 149.624 7.89884C148.394 7.02381 146.863 6.58154 145.076 6.58154C143.647 6.58154 142.366 6.87639 141.269 7.45657C140.171 8.0415 139.293 8.86422 138.66 9.90093C138.027 10.9376 137.706 12.1408 137.706 13.4724C137.706 14.8039 138.027 16.0071 138.66 17.0438C139.293 18.0805 140.171 18.9032 141.269 19.4882C142.366 20.0683 143.647 20.3632 145.076 20.3632C146.863 20.3632 148.399 19.9067 149.629 19.0079C150.865 18.1043 151.661 16.8964 152.003 15.4126C152.018 15.3318 151.998 15.251 151.947 15.1891C151.89 15.1273 151.809 15.0893 151.722 15.0893H148.032C147.899 15.0893 147.787 15.1701 147.756 15.289C147.593 15.8597 147.276 16.2829 146.791 16.5873C146.306 16.8964 145.72 17.0486 145.051 17.0486C144.163 17.0486 143.423 16.7442 142.8 16.1165C142.177 15.4935 141.866 14.6042 141.866 13.4724C141.866 12.3405 142.182 11.4512 142.8 10.8283C143.433 10.2053 144.168 9.90093 145.056 9.90093Z" fill="white"/>
<path d="M154.984 6.896C154.825 6.896 154.698 7.01489 154.698 7.16231V19.7979C154.698 19.9453 154.825 20.0642 154.984 20.0642H158.485C158.643 20.0642 158.771 19.9453 158.771 19.7979V7.16231C158.771 7.01489 158.643 6.896 158.485 6.896H154.984Z" fill="white"/>
<path d="M156.729 5.46898C157.439 5.46898 158.036 5.26449 158.5 4.86027C158.97 4.45129 159.21 3.93293 159.21 3.31471C159.21 2.69648 158.97 2.17812 158.5 1.77866C158.036 1.38394 157.444 1.18896 156.734 1.18896C156.025 1.18896 155.433 1.3887 154.968 1.77866C154.499 2.17812 154.259 2.69648 154.259 3.31471C154.259 3.93293 154.499 4.45604 154.968 4.86027C155.428 5.26449 156.02 5.46898 156.729 5.46898Z" fill="white"/>
<path d="M174.875 19.7974V12.0268C174.875 10.3053 174.283 8.9547 173.109 8.00359C171.945 7.06198 170.347 6.58643 168.352 6.58643C167.188 6.58643 166.116 6.77665 165.177 7.15709C164.222 7.53754 163.436 8.09394 162.839 8.80728C162.232 9.52537 161.874 10.3766 161.782 11.342C161.777 11.4181 161.803 11.4942 161.859 11.5465C161.915 11.6036 161.992 11.6321 162.073 11.6321H165.493C165.631 11.6321 165.748 11.5417 165.774 11.4133C165.886 10.8712 166.167 10.4765 166.631 10.2007C167.111 9.91533 167.683 9.77266 168.336 9.77266C169.056 9.77266 169.638 9.95337 170.118 10.3243C170.582 10.681 170.807 11.2374 170.807 12.0268V12.0648H167.652C165.626 12.0648 164.074 12.4548 163.043 13.2204C161.992 14.0004 161.456 15.0323 161.456 16.283C161.456 17.0249 161.655 17.7145 162.043 18.3279C162.436 18.9509 163.038 19.4502 163.829 19.8212C164.615 20.1874 165.621 20.3728 166.831 20.3728C168.01 20.3728 169 20.1351 169.765 19.6642C170.296 19.3409 170.745 18.9509 171.113 18.4991L171.327 19.8355C171.348 19.9686 171.47 20.0637 171.613 20.0637H174.594C174.742 20.0637 174.875 19.9448 174.875 19.7974ZM170.659 14.6376C170.495 15.3509 170.184 15.9644 169.73 16.4637C169.224 17.0154 168.535 17.2865 167.611 17.2865C167.019 17.2865 166.545 17.1676 166.198 16.9298C165.871 16.711 165.713 16.4067 165.713 16.0025C165.713 15.6268 165.876 15.3129 166.213 15.0513C166.56 14.7803 167.167 14.6424 168.025 14.6424H170.659V14.6376Z" fill="white"/>
<path d="M177.922 20.0638H181.423C181.582 20.0638 181.709 19.9449 181.709 19.7975V1.45528C181.709 1.30785 181.582 1.18896 181.423 1.18896H177.922C177.764 1.18896 177.636 1.30785 177.636 1.45528V19.7975C177.631 19.9449 177.759 20.0638 177.922 20.0638Z" fill="white"/>
<path d="M71.4076 26.3791C72.6122 26.3791 73.5871 26.6407 74.3068 27.1495C75.0214 27.6584 75.496 28.3765 75.7155 29.2753C75.7462 29.3989 75.8635 29.4845 75.9963 29.4845H79.8499C79.9367 29.4845 80.0184 29.4512 80.0694 29.3894C80.1255 29.3276 80.146 29.2467 80.1307 29.1707C79.7529 27.1923 78.7934 25.6325 77.2774 24.534C75.7666 23.4402 73.8066 22.8838 71.4535 22.8838C69.4782 22.8838 67.753 23.2928 66.3289 24.0917C64.8997 24.8954 63.7921 26.032 63.0214 27.4634C62.2558 28.8853 61.8679 30.545 61.8679 32.3997C61.8679 34.2544 62.2558 35.9093 63.0214 37.3217C63.787 38.7436 64.9049 39.8707 66.3289 40.6649C67.753 41.4591 69.4782 41.8633 71.4535 41.8633C73.8015 41.8633 75.7615 41.3211 77.2723 40.2559C78.7934 39.1859 79.7529 37.6784 80.1307 35.7857C80.146 35.7048 80.1255 35.624 80.0694 35.5669C80.0133 35.5051 79.9316 35.4718 79.8448 35.4718H75.9912C75.8584 35.4718 75.741 35.5574 75.7104 35.6763C75.4909 36.5228 75.0214 37.1981 74.3068 37.6736C73.5871 38.1539 72.6071 38.4012 71.3974 38.4012C69.7028 38.4012 68.4165 37.8876 67.4621 36.8271C66.5076 35.7714 66.0278 34.2829 66.0278 32.3997C66.0278 30.5212 66.5127 29.028 67.4672 27.9627C68.4267 26.8975 69.713 26.3791 71.4076 26.3791Z" fill="white"/>
<path d="M93.0545 28.9615C91.9673 28.3813 90.7372 28.0864 89.3999 28.0864C88.0421 28.0864 86.8018 28.3813 85.7146 28.9615C84.6274 29.5416 83.7495 30.3596 83.1064 31.3915C82.4633 32.4188 82.1366 33.6267 82.1366 34.9773C82.1366 36.3278 82.4582 37.531 83.0911 38.563C83.724 39.5949 84.5968 40.4129 85.684 40.993C86.7712 41.5732 88.0115 41.8681 89.3692 41.8681C90.7065 41.8681 91.9417 41.5732 93.0391 40.993C94.1365 40.4129 95.0145 39.5949 95.6474 38.563C96.2803 37.5357 96.6019 36.3278 96.6019 34.9773C96.6019 33.6267 96.2803 32.4235 95.6474 31.3915C95.0145 30.3596 94.1417 29.5416 93.0545 28.9615ZM89.3692 38.5011C88.5321 38.5011 87.8278 38.2158 87.2102 37.6261C86.6028 37.0459 86.2914 36.1519 86.2914 34.9725C86.2914 33.7931 86.5977 32.9038 87.2102 32.3189C87.8227 31.7292 88.5373 31.4439 89.3948 31.4439C90.2165 31.4439 90.9158 31.7292 91.5385 32.3189C92.1561 32.8991 92.4675 33.7931 92.4675 34.9677C92.4675 36.1424 92.1561 37.0364 91.5385 37.6166C90.9158 38.2158 90.2063 38.5011 89.3692 38.5011Z" fill="white"/>
<path d="M107.413 28.0864C106.29 28.0864 105.299 28.3242 104.462 28.7855C103.875 29.1136 103.38 29.5274 102.982 30.0172L102.803 28.6286C102.788 28.4954 102.661 28.3908 102.518 28.3908H99.4296C99.2713 28.3908 99.1437 28.5097 99.1437 28.6571V41.2927C99.1437 41.4401 99.2713 41.559 99.4296 41.559H102.931C103.089 41.559 103.217 41.4401 103.217 41.2927V34.7728C103.217 33.6932 103.508 32.8468 104.085 32.2523C104.661 31.6626 105.381 31.3725 106.29 31.3725C107.203 31.3725 107.857 31.6198 108.275 32.1334C108.709 32.6613 108.928 33.446 108.928 34.4684V41.2974C108.928 41.4448 109.056 41.5637 109.214 41.5637H112.716C112.874 41.5637 113.002 41.4448 113.002 41.2974V34.164C113.002 32.2047 112.507 30.6877 111.537 29.6558C110.557 28.6095 109.168 28.0864 107.413 28.0864Z" fill="white"/>
<path d="M124.797 34.0448C124.001 33.7975 123.113 33.5692 122.159 33.36C121.306 33.1793 120.617 32.9795 120.107 32.7655C119.484 32.504 119.484 32.2139 119.484 32.1188C119.484 31.8477 119.617 31.6337 119.897 31.4435C120.204 31.239 120.658 31.1344 121.245 31.1344C122.409 31.1344 123.057 31.5243 123.23 32.3185C123.256 32.4421 123.379 32.5325 123.511 32.5325H126.819C126.9 32.5325 126.982 32.4992 127.038 32.4421C127.094 32.3851 127.115 32.3042 127.105 32.2281C126.911 30.9394 126.303 29.9122 125.287 29.1751C124.282 28.4427 122.929 28.0718 121.27 28.0718C119.479 28.0718 118.055 28.4808 117.049 29.2844C116.028 30.0977 115.513 31.1201 115.513 32.3137C115.513 32.9795 115.686 33.5502 116.028 34.0067C116.36 34.4538 116.804 34.8247 117.34 35.1053C117.856 35.3763 118.433 35.6046 119.05 35.7758C119.647 35.947 120.255 36.0944 120.847 36.2133C121.735 36.394 122.439 36.5843 122.929 36.7745C123.333 36.9267 123.516 37.2025 123.516 37.6352C123.516 37.9301 123.373 38.1869 123.082 38.4247C122.781 38.6672 122.281 38.7908 121.592 38.7908C120.898 38.7908 120.326 38.6339 119.897 38.3248C119.469 38.0157 119.208 37.6543 119.117 37.2215C119.091 37.0979 118.968 37.0075 118.836 37.0075H115.309C115.227 37.0075 115.145 37.0408 115.094 37.0979C115.038 37.1549 115.013 37.231 115.023 37.3071C115.14 38.2011 115.493 39.0001 116.069 39.6849C116.646 40.3649 117.417 40.8976 118.371 41.2828C119.316 41.6584 120.418 41.8534 121.658 41.8534C122.858 41.8534 123.92 41.668 124.813 41.297C125.716 40.9213 126.421 40.3935 126.9 39.7229C127.39 39.0524 127.625 38.2867 127.605 37.4593C127.605 36.4939 127.339 35.733 126.819 35.2004C126.313 34.6963 125.635 34.3063 124.797 34.0448Z" fill="white"/>
<path d="M143.443 28.3911H139.942C139.783 28.3911 139.656 28.51 139.656 28.6574V35.1773C139.656 36.2568 139.365 37.1033 138.788 37.6978C138.211 38.2875 137.502 38.5775 136.609 38.5775C135.674 38.5775 135.016 38.3303 134.597 37.8167C134.164 37.2888 133.944 36.5041 133.944 35.4817V28.6574C133.944 28.51 133.817 28.3911 133.658 28.3911H130.187C130.029 28.3911 129.902 28.51 129.902 28.6574V35.7908C129.902 37.7501 130.392 39.2671 131.351 40.2991C132.326 41.3405 133.72 41.8684 135.491 41.8684C136.593 41.8684 137.578 41.6354 138.415 41.1693C139.002 40.8412 139.497 40.4275 139.896 39.9376L140.074 41.3263C140.09 41.4594 140.217 41.564 140.36 41.564H143.448C143.606 41.564 143.734 41.4452 143.734 41.2977V28.6574C143.734 28.51 143.606 28.3911 143.443 28.3911Z" fill="white"/>
<path d="M150.528 22.6841H147.026C146.868 22.6841 146.74 22.803 146.74 22.9504V41.2926C146.74 41.4401 146.868 41.559 147.026 41.559H150.528C150.686 41.559 150.814 41.4401 150.814 41.2926V22.9504C150.814 22.803 150.686 22.6841 150.528 22.6841Z" fill="white"/>
<path d="M162.609 28.3908H159.235V25.2712C159.235 25.1238 159.108 25.0049 158.95 25.0049H155.862C155.713 25.0049 155.591 25.1095 155.576 25.2427L155.193 28.3908H153.126C152.967 28.3908 152.84 28.5097 152.84 28.6572V31.3821C152.84 31.5295 152.967 31.6484 153.126 31.6484H155.162V36.8795C155.162 38.6058 155.632 39.8328 156.556 40.5271C157.459 41.2071 158.669 41.5543 160.154 41.5543H162.533C162.691 41.5543 162.819 41.4354 162.819 41.288V38.5107C162.819 38.3633 162.691 38.2444 162.533 38.2444H160.838C160.231 38.2444 159.787 38.1493 159.567 37.9686C159.353 37.7974 159.241 37.4312 159.241 36.9081V31.6532H162.614C162.773 31.6532 162.9 31.5343 162.9 31.3869V28.6619C162.895 28.5097 162.767 28.3908 162.609 28.3908Z" fill="white"/>
<path d="M169.255 28.3911H165.753C165.595 28.3911 165.468 28.51 165.468 28.6574V41.293C165.468 41.4404 165.595 41.5593 165.753 41.5593H169.255C169.413 41.5593 169.541 41.4404 169.541 41.293V28.6574C169.541 28.51 169.413 28.3911 169.255 28.3911Z" fill="white"/>
<path d="M167.504 22.6841C166.795 22.6841 166.203 22.8838 165.738 23.2738C165.269 23.6732 165.029 24.1916 165.029 24.8098C165.029 25.428 165.269 25.9512 165.738 26.3554C166.203 26.7596 166.795 26.9641 167.504 26.9641C168.214 26.9641 168.811 26.7596 169.27 26.3554C169.74 25.9464 169.98 25.428 169.98 24.8098C169.98 24.1916 169.74 23.6732 169.27 23.2738C168.806 22.8838 168.209 22.6841 167.504 22.6841Z" fill="white"/>
<path d="M180.898 28.0864C179.775 28.0864 178.784 28.3242 177.947 28.7855C177.36 29.1136 176.865 29.5274 176.467 30.0172L176.288 28.6286C176.273 28.4954 176.146 28.3908 176.003 28.3908H172.915C172.756 28.3908 172.629 28.5097 172.629 28.6571V41.2927C172.629 41.4401 172.756 41.559 172.915 41.559H176.416C176.574 41.559 176.702 41.4401 176.702 41.2927V34.7728C176.702 33.6932 176.993 32.8468 177.57 32.2523C178.146 31.6626 178.866 31.3725 179.775 31.3725C180.688 31.3725 181.342 31.6198 181.76 32.1334C182.194 32.6613 182.414 33.446 182.414 34.4684V41.2974C182.414 41.4448 182.541 41.5637 182.699 41.5637H186.201C186.359 41.5637 186.487 41.4448 186.487 41.2974V34.164C186.487 32.2047 185.992 30.6877 185.022 29.6558C184.042 28.6095 182.653 28.0864 180.898 28.0864Z" fill="white"/>
<path d="M202.55 28.3908H197.456C196.787 28.1863 196.052 28.0864 195.276 28.0864C194.066 28.0864 193.02 28.3004 192.163 28.7284C191.3 29.1564 190.621 29.7461 190.152 30.4832C189.682 31.2203 189.442 32.0431 189.442 32.9371C189.442 34.2734 189.937 35.4005 190.907 36.285L188.727 38.4298C188.676 38.4773 188.651 38.5439 188.651 38.6153V39.2002C188.651 39.2715 188.682 39.3381 188.733 39.3904C188.942 39.5854 189.192 39.7756 189.473 39.9563C189.641 40.0657 189.835 40.1751 190.044 40.275C189.029 41.1024 188.513 42.0726 188.513 43.1711C188.513 44.6073 189.156 45.7011 190.427 46.4192C191.652 47.1135 193.275 47.4654 195.251 47.4654C196.71 47.4654 197.93 47.2466 198.88 46.8139C199.834 46.3764 200.559 45.7962 201.023 45.0828C201.488 44.3743 201.723 43.6086 201.723 42.8192C201.723 41.6065 201.274 40.6364 200.391 39.9373C199.528 39.2573 198.15 38.834 196.292 38.6771C195.123 38.5772 194.271 38.4773 193.755 38.3775C193.444 38.3157 193.173 38.2491 192.944 38.1682L193.541 37.6118C194.082 37.7307 194.669 37.7878 195.286 37.7878C196.46 37.7878 197.491 37.5738 198.359 37.1458C199.232 36.7178 199.911 36.1233 200.375 35.3862C200.835 34.6539 201.069 33.8264 201.069 32.9324C201.069 32.2571 200.937 31.6198 200.676 31.0349L202.58 30.9112C202.733 30.9017 202.846 30.7828 202.846 30.6449V28.6571C202.841 28.5097 202.713 28.3908 202.55 28.3908ZM197.226 44.0081C196.731 44.3077 196.067 44.4599 195.251 44.4599C194.393 44.4599 193.663 44.3124 193.076 44.0223C192.545 43.756 192.285 43.3708 192.285 42.8477C192.285 42.5576 192.382 42.2818 192.581 42.0012C192.77 41.7349 193.086 41.4781 193.525 41.2451C194.148 41.3402 194.822 41.4115 195.531 41.4639C196.756 41.5447 197.267 41.773 197.476 41.9537C197.772 42.2105 197.915 42.5196 197.915 42.9C197.915 43.3661 197.69 43.7275 197.226 44.0081ZM196.858 34.2829C196.445 34.6016 195.924 34.7585 195.281 34.7585C194.607 34.7585 194.061 34.6016 193.663 34.2877C193.27 33.9833 193.081 33.5506 193.081 32.9656C193.081 32.3807 193.27 31.948 193.663 31.6436C194.061 31.3297 194.607 31.1728 195.281 31.1728C195.929 31.1728 196.445 31.3297 196.858 31.6484C197.257 31.9527 197.451 32.3855 197.451 32.9704C197.451 33.5458 197.257 33.9786 196.858 34.2829Z" fill="white"/>
<path d="M70.2132 51.8168H69.2026C69.2383 51.6598 69.2588 51.5076 69.2588 51.3507C69.2588 50.4424 68.4931 50.0905 67.6203 50.0905C66.4566 50.0905 65.5684 50.7705 65.3694 51.8453C65.2162 52.649 65.058 53.4669 64.9049 54.2801C64.8845 54.3943 64.8743 54.5179 64.8743 54.6321C64.8743 55.5594 65.6501 55.9636 66.5688 55.9636C67.7683 55.9636 68.5646 55.3454 68.7534 54.2373H69.7488L69.7283 54.3943C69.4731 56.1824 68.044 56.8291 66.3698 56.8291C65.0172 56.8291 63.7769 56.249 63.7769 54.8461C63.7769 54.6796 63.7871 54.5179 63.8228 54.3515C63.9657 53.5335 64.1341 52.7108 64.2873 51.8928C64.6088 50.2427 66.038 49.2202 67.8143 49.2202C69.1107 49.2202 70.3051 49.7481 70.3051 51.0987C70.3051 51.3412 70.2592 51.5885 70.2132 51.8168Z" fill="#23A638"/>
<path d="M80.8198 51.7736C80.6666 52.5773 80.5339 53.3952 80.3553 54.1989C79.9776 55.9347 78.5382 56.8335 76.8181 56.8335C75.4757 56.8335 74.2354 56.2533 74.2354 54.8504C74.2354 54.684 74.2456 54.5223 74.2813 54.3559L74.7458 51.8972C75.0775 50.1947 76.5322 49.2246 78.2728 49.2246C79.6458 49.2246 80.8657 49.8666 80.8657 51.2695C80.8657 51.4455 80.8555 51.6072 80.8198 51.7736ZM78.0839 50.0901C76.9202 50.0901 76.0422 50.7797 75.833 51.8449L75.3685 54.2798C75.3481 54.3939 75.3379 54.508 75.3379 54.6317C75.3379 55.559 76.1239 55.9633 77.0324 55.9633C78.1758 55.9633 79.0741 55.3355 79.2732 54.2703L79.7479 51.7498C79.7683 51.6357 79.7836 51.512 79.7836 51.3979C79.7785 50.4611 78.9925 50.0901 78.0839 50.0901Z" fill="#23A638"/>
<path d="M90.6402 56.7198H89.7419L86.8836 51.0416H86.8274L85.7504 56.7103H84.7653L86.1639 49.3486H87.1081L89.9461 54.9364H90.0022L91.0537 49.3486H92.0388L90.6402 56.7198Z" fill="#23A638"/>
<path d="M101.844 50.2045H97.9749L97.5309 52.5157H100.701L100.547 53.3717H97.3778L96.7448 56.7054H95.6832L97.0817 49.3438H102.002L101.844 50.2045Z" fill="#23A638"/>
<path d="M110.751 50.2046H109.046L107.969 55.8543H109.689L109.521 56.7103H105.044L105.213 55.8543H106.917L107.994 50.2046H106.274L106.443 49.3486H110.919L110.751 50.2046Z" fill="#23A638"/>
<path d="M119.418 56.7103L119.065 54.7701H115.926L114.839 56.7103H113.777L118.065 49.3154H119.06L120.51 56.7103H119.418ZM118.31 50.5757H118.254L116.381 53.9426H118.917L118.31 50.5757Z" fill="#23A638"/>
<path d="M130.831 56.7198H129.932L127.074 51.0416H127.018L125.941 56.7103H124.956L126.354 49.3486H127.299L130.136 54.9364H130.193L131.244 49.3486H132.229L130.831 56.7198Z" fill="#23A638"/>
<path d="M142.101 50.0476L136.925 55.8589H141.013L140.845 56.7054H135.46L135.603 55.954L140.758 50.1807H136.879L137.047 49.3438H142.233L142.101 50.0476Z" fill="#23A638"/>
<path d="M150.635 56.7103L150.283 54.7701H147.144L146.056 56.7103H144.995L149.282 49.3154H150.278L151.727 56.7103H150.635ZM149.527 50.5757H149.471L147.598 53.9426H150.135L149.527 50.5757Z" fill="#23A638"/>
<path d="M6.11992 55.0174C2.74095 55.0174 0 52.4636 0 49.3154V20.4539C0 17.3057 2.74095 14.752 6.11992 14.752C9.4989 14.752 12.2398 17.3057 12.2398 20.4539V49.3107C12.245 52.4636 9.504 55.0174 6.11992 55.0174Z" fill="#23A638"/>
<path d="M6.88042 11.4086C3.50145 11.4086 0.760498 8.85488 0.760498 5.70669C0.760498 2.55374 3.50145 0 6.88042 0C10.2594 0 13.0003 2.55374 13.0003 5.70193C13.0003 8.85488 10.2594 11.4086 6.88042 11.4086Z" fill="#23A638"/>
<path d="M23.4538 41.7397C10.7495 41.7397 0.418579 32.1097 0.418579 20.2778C0.418579 17.3436 2.97067 14.9658 6.11996 14.9658C9.26925 14.9658 11.8213 17.3436 11.8213 20.2778C11.8213 26.2508 17.0378 31.1157 23.4538 31.1157C26.6031 31.1157 29.1552 33.4935 29.1552 36.4277C29.1603 39.3619 26.6082 41.7397 23.4538 41.7397Z" fill="#23A638" fill-opacity="0.9"/>
<path d="M39.1951 55.0174C42.574 55.0174 45.315 52.4636 45.315 49.3154V20.4539C45.315 17.3057 42.574 14.752 39.1951 14.752C35.8161 14.752 33.0751 17.3057 33.0751 20.4539V49.3107C33.0751 52.4636 35.8161 55.0174 39.1951 55.0174Z" fill="#23A638"/>
<path d="M38.4396 11.4086C41.8186 11.4086 44.5596 8.85488 44.5596 5.70669C44.5596 2.55374 41.8186 0 38.4396 0C35.0607 0 32.3197 2.55374 32.3197 5.70193C32.3146 8.85488 35.0556 11.4086 38.4396 11.4086Z" fill="#23A638"/>
<path d="M21.8612 41.7397C34.5656 41.7397 44.8964 32.1097 44.8964 20.2778C44.8964 17.3436 42.3443 14.9658 39.1951 14.9658C36.0458 14.9658 33.4937 17.3436 33.4937 20.2778C33.4937 26.2508 28.2772 31.1157 21.8612 31.1157C18.7119 31.1157 16.1599 33.4935 16.1599 36.4277C16.1599 39.3619 18.7119 41.7397 21.8612 41.7397Z" fill="#23A638" fill-opacity="0.9"/>
</svg>
