<svg width="131" height="63" viewBox="0 0 131 63" fill="none" xmlns="http://www.w3.org/2000/svg">
<path d="M82.4556 17.1999C82.7446 17.1999 82.9613 17.1999 83.1781 17.1999C85.7381 17.1999 88.2981 17.1687 90.8581 17.2117C92.5628 17.239 94.2285 17.5319 95.818 18.1997C98.0285 19.1292 99.6004 20.6621 100.446 22.9312C100.829 23.9603 101.073 25.0069 101.184 26.0985C101.284 27.0963 101.286 28.0903 101.231 29.0842C101.143 30.7206 100.739 32.2906 99.9676 33.7336C99.0908 35.3719 97.8215 36.6627 96.2164 37.6195C94.9803 38.3557 93.6427 38.7736 92.2289 39.0001C91.4888 39.1192 90.7488 39.1895 90.0009 39.1856C87.6908 39.1778 85.3807 39.1837 83.0707 39.1817C82.9457 39.1817 82.8207 39.1837 82.6957 39.1778C82.5278 39.1719 82.4399 39.0782 82.436 38.9103C82.4321 38.8009 82.4341 38.6916 82.4341 38.5822C82.4341 31.6383 82.4341 24.6964 82.4341 17.7526C82.4321 17.5866 82.4458 17.4186 82.4556 17.1999ZM87.2104 28.2387C87.2104 30.5175 87.2085 32.7944 87.2124 35.0732C87.2124 35.5008 87.2944 35.6219 87.6693 35.6141C88.6808 35.5965 89.6962 35.702 90.7039 35.5301C91.4596 35.4012 92.1938 35.2138 92.8811 34.8642C94.3984 34.0949 95.2576 32.8119 95.7497 31.2302C96.1324 29.9961 96.2535 28.7288 96.2008 27.4478C96.15 26.2235 95.8922 25.044 95.324 23.9446C94.8221 22.9741 94.0957 22.2262 93.1213 21.7244C92.1352 21.2167 91.0768 20.9863 89.9774 20.9472C89.1671 20.9199 88.3547 20.9316 87.5443 20.9179C87.3295 20.914 87.2222 21.0038 87.2143 21.2147C87.2104 21.3397 87.2104 21.4647 87.2104 21.5897C87.2104 23.8079 87.2104 26.0243 87.2104 28.2387Z" fill="white"/>
<path d="M130.787 39.182C129.159 39.182 127.616 39.184 126.073 39.18C125.648 39.18 125.568 39.1156 125.443 38.7075C124.972 37.1746 124.503 35.6398 124.035 34.1069C123.886 33.6246 123.841 33.6285 123.355 33.6402C122.514 33.6617 121.67 33.6402 120.826 33.6343C120.379 33.6304 119.934 33.6167 119.487 33.6167C119.118 33.6167 118.747 33.6421 118.378 33.6304C117.97 33.6187 117.936 33.6304 117.85 34.0229C117.763 34.4174 117.677 34.8138 117.585 35.2063C117.352 36.2061 117.116 37.2058 116.888 38.2076C116.843 38.4048 116.814 38.604 116.788 38.8051C116.759 39.0453 116.624 39.1644 116.39 39.1761C116.296 39.182 116.202 39.18 116.109 39.18C114.75 39.18 113.392 39.18 112.033 39.18C111.924 39.18 111.813 39.1879 111.705 39.1722C111.541 39.1468 111.457 39.057 111.52 38.8774C111.596 38.6567 111.674 38.4361 111.74 38.2115C112.148 36.8231 112.551 35.4328 112.963 34.0444C113.441 32.4334 113.927 30.8224 114.408 29.2134C114.933 27.454 115.46 25.6926 115.98 23.9313C116.607 21.8126 117.226 19.6899 117.848 17.5712C117.95 17.2237 117.999 17.1944 118.372 17.1924C120.151 17.1885 121.93 17.1827 123.709 17.1768C124 17.1748 124.089 17.2451 124.187 17.5752C124.415 18.3348 124.636 19.0983 124.872 19.8559C125.282 21.1779 125.706 22.498 126.114 23.8219C126.673 25.636 127.22 27.454 127.778 29.268C128.163 30.5178 128.559 31.7636 128.948 33.0114C129.543 34.929 130.139 36.8485 130.729 38.768C130.764 38.8793 130.762 39.0004 130.787 39.182ZM123.058 29.7504C122.73 28.442 122.406 27.165 122.09 25.8859C121.738 24.4683 121.393 23.0486 121.047 21.629C121.016 21.4982 121.033 21.3439 120.836 21.3244C120.1 24.1461 119.364 26.958 118.628 29.7738C119.161 29.8851 122.678 29.8675 123.058 29.7504Z" fill="white"/>
<path d="M19.3008 25.5634C19.1738 25.5009 19.0742 25.4833 19.0235 25.4248C17.5882 23.7415 16.3912 21.906 15.575 19.8439C15.1434 18.7562 14.8818 17.6178 14.667 16.4676C14.4248 15.1691 14.4502 13.8568 14.5088 12.5524C14.5752 11.0547 14.915 9.596 15.3836 8.17052C16.1022 5.97956 17.2465 4.02294 18.7286 2.27135C19.3613 1.52346 20.0975 0.863437 20.7965 0.174127C21.0406 -0.0660573 21.1246 -0.0523883 21.3863 0.181938C23.175 1.79489 24.661 3.64021 25.7525 5.79601C26.6176 7.50464 27.2015 9.30505 27.4807 11.1972C27.6506 12.3532 27.7599 13.5249 27.6643 14.6906C27.5451 16.1318 27.3245 17.5572 26.8676 18.9456C26.0806 21.3397 24.8035 23.4369 23.1593 25.3271C23.1086 25.3857 23.0539 25.4423 22.9953 25.4931C22.9738 25.5107 22.9387 25.5107 22.8625 25.5322C22.8254 25.4521 22.759 25.3681 22.7454 25.2763C22.6809 24.8194 22.7044 24.3781 22.9719 23.9739C23.1496 23.7044 23.2824 23.4037 23.464 23.1381C23.7334 22.7456 23.7198 22.2809 23.8233 21.8454C23.835 21.7966 23.8018 21.7087 23.7588 21.6794C23.5206 21.5135 23.5792 21.2733 23.5811 21.0428C23.585 20.6211 23.5811 20.1993 23.5831 19.7775C23.587 18.5356 22.5657 17.5397 21.3433 17.4518C20.4099 17.3854 19.6073 17.6432 19.0352 18.4125C18.8633 18.6449 18.7325 18.9241 18.6486 19.2014C18.422 19.9454 18.4494 20.705 18.5665 21.5056C18.3322 21.6111 18.2404 21.7985 18.3595 22.0817C18.4123 22.2067 18.3888 22.3609 18.4318 22.4937C18.506 22.7261 18.549 22.9995 18.7013 23.1713C19.0352 23.5482 19.1719 24.011 19.3632 24.4484C19.5156 24.7921 19.4121 25.1455 19.3008 25.5634Z" fill="white"/>
<path d="M78.8116 21.2538C78.6613 21.2655 78.5109 21.287 78.3606 21.287C75.9255 21.289 73.4905 21.2831 71.0554 21.2968C70.8348 21.2987 70.5536 21.0898 70.4013 21.33C70.2997 21.4921 70.3427 21.7498 70.3407 21.9646C70.3329 23.1323 70.3329 24.3001 70.3232 25.4678C70.3212 25.6865 70.4052 25.788 70.6239 25.7841C70.7332 25.7822 70.8426 25.7841 70.9519 25.7841C73.1839 25.7841 75.4159 25.7841 77.6498 25.7841C77.8333 25.7841 78.0149 25.7841 78.2356 25.7841C78.2532 25.9736 78.2766 26.1083 78.2766 26.245C78.2805 27.2897 78.2805 28.3363 78.2766 29.381C78.2746 29.8263 78.261 29.8419 77.7865 29.8419C75.367 29.838 72.9476 29.8282 70.5282 29.8224C70.4852 29.8224 70.4403 29.8458 70.3564 29.8712C70.3466 30.1992 70.329 30.5351 70.3271 30.8729C70.3212 31.9801 70.3193 33.0873 70.3173 34.1945C70.3173 34.4113 70.3173 34.63 70.3251 34.8467C70.331 35.0244 70.4013 35.1338 70.6102 35.1299C71.5456 35.1103 72.4809 35.0947 73.4163 35.0908C74.6035 35.0849 75.7888 35.0889 76.9761 35.0889C77.5814 35.0889 78.1848 35.0889 78.7902 35.0889C79.2412 35.0908 79.251 35.1181 79.2529 35.5634C79.2569 36.6549 79.2725 37.7445 79.2959 38.8342C79.2998 39.0353 79.2041 39.1251 79.0401 39.1603C78.921 39.1857 78.7921 39.1759 78.6671 39.1759C74.4825 39.1759 70.2997 39.1759 66.115 39.1759C66.0213 39.1759 65.9276 39.1817 65.8339 39.172C65.5644 39.1427 65.496 39.0529 65.5117 38.7795C65.5234 38.594 65.5331 38.4065 65.5331 38.2191C65.5351 31.5095 65.5351 24.798 65.5331 18.0885C65.5331 17.903 65.5273 17.7135 65.498 17.5319C65.4609 17.3093 65.5409 17.2039 65.7596 17.1961C65.8846 17.1922 66.0096 17.1941 66.1346 17.1941C70.0068 17.1941 73.8771 17.1941 77.7494 17.1922C77.9993 17.1922 78.2473 17.1687 78.4972 17.1668C78.7667 17.1648 78.8644 17.241 78.8663 17.4734C78.8722 18.6587 78.8702 19.844 78.8683 21.0293C78.8644 21.0957 78.837 21.1542 78.8116 21.2538Z" fill="white"/>
<path d="M62.8093 17.8033C62.4519 19.1292 62.1024 20.4336 61.7372 21.7888C61.6123 21.7732 61.4892 21.781 61.3857 21.7419C59.9602 21.2108 58.4742 21.0467 56.9726 21.1444C54.4028 21.3123 52.5399 22.5484 51.4972 24.9424C51.0871 25.8836 50.8918 26.8815 50.8781 27.8949C50.8567 29.4962 51.0363 31.0759 51.9424 32.4643C52.7899 33.759 53.9146 34.6728 55.467 35.0302C56.7812 35.3328 58.0974 35.2918 59.4154 35.1805C60.0462 35.1278 60.671 34.9833 61.2959 34.8564C61.4931 34.8173 61.583 34.8408 61.6259 35.0458C61.8602 36.1393 62.0985 37.2328 62.3426 38.3244C62.3972 38.5665 62.3191 38.7345 62.1024 38.8126C61.7079 38.9532 61.3135 39.1075 60.9034 39.1836C60.1087 39.332 59.308 39.455 58.5055 39.5371C57.9646 39.5917 57.4139 39.5371 56.8671 39.5605C55.7228 39.6113 54.5942 39.5039 53.4772 39.2676C52.9617 39.1582 52.452 39.0001 51.96 38.8087C49.5191 37.8655 47.8202 36.1335 46.7599 33.7726C46.3439 32.849 46.0842 31.8609 45.971 30.8533C45.8714 29.959 45.7679 29.0529 45.803 28.1566C45.9046 25.536 46.5626 23.0776 48.2049 20.9686C49.8959 18.8011 52.1142 17.4889 54.8246 17.0124C56.09 16.7898 57.3612 16.7801 58.6402 16.8914C60.011 17.0105 61.3506 17.2741 62.6589 17.692C62.7019 17.7017 62.7351 17.7447 62.8093 17.8033Z" fill="white"/>
<path d="M1.31028 11.7537C2.44286 11.9314 3.51686 12.0934 4.56156 12.4137C5.65118 12.7476 6.71541 13.1401 7.73083 13.6595C9.6484 14.6398 11.2692 15.9774 12.6048 17.6665C13.505 18.8049 14.3427 19.9844 14.9696 21.3025C15.7331 22.9037 16.2193 24.585 16.4732 26.3385C16.5161 26.6353 16.4419 26.6959 16.1431 26.6021C15.3269 26.3444 14.622 25.8875 13.9659 25.3524C12.5072 24.1593 11.0563 22.9564 9.60739 21.7516C9.30863 21.5036 9.02939 21.2302 8.73257 20.9764C8.39085 20.6854 8.24244 20.3144 8.20534 19.877C8.14676 19.1838 8.0706 18.4925 8.0003 17.7934C7.7484 17.8051 7.72692 17.9535 7.7113 18.1156C7.68201 18.4242 7.65272 18.7346 7.61171 19.0412C7.6 19.1291 7.54532 19.2091 7.50041 19.3185C7.40277 19.2853 7.30709 19.2755 7.23679 19.2287C6.69393 18.8635 6.16084 18.4827 5.61017 18.1293C5.38952 17.9887 5.14347 17.8735 4.89157 17.7993C4.42097 17.6606 4.10853 18.0024 4.23741 18.4847C4.52837 19.5724 5.14152 20.4276 6.10616 21.0057C7.13134 21.6188 7.89681 22.5053 8.62908 23.4094C10.0975 25.2177 11.6636 26.9243 13.4894 28.3791C14.413 29.1153 15.3757 29.8046 16.3189 30.5174C16.3638 30.5505 16.3872 30.6111 16.438 30.6814C16.3658 30.7204 16.315 30.7712 16.2642 30.7712C15.0496 30.7653 13.8331 30.861 12.6283 30.6052C11.193 30.3006 9.79485 29.8749 8.44943 29.293C6.93802 28.6388 5.55354 27.7718 4.30771 26.6959C3.06773 25.6258 2.04841 24.3702 1.32591 22.8978C0.683461 21.5856 0.333924 20.1914 0.205044 18.7307C0.0995974 17.5259 0.195281 16.3465 0.3886 15.1553C0.54677 14.1828 0.788908 13.2377 1.08182 12.3024C1.1404 12.1266 1.22436 11.9607 1.31028 11.7537Z" fill="white"/>
<path d="M34.6589 19.3303C34.3543 18.846 34.5827 18.2446 34.2547 17.6959C34.1707 17.8501 34.0926 17.9322 34.0848 18.0181C34.0418 18.5453 33.9911 19.0725 33.9891 19.6017C33.9852 20.2637 33.704 20.7675 33.21 21.1776C31.8333 22.3238 30.4684 23.4837 29.078 24.6144C28.4141 25.1533 27.7189 25.6591 27.0101 26.1394C26.6293 26.3972 26.1978 26.5866 25.6608 26.6667C25.6608 26.487 25.6354 26.3386 25.6647 26.2019C25.8404 25.3798 25.9712 24.5441 26.229 23.7474C26.5239 22.8335 26.9027 21.9411 27.303 21.0663C27.8439 19.8849 28.5937 18.8226 29.4041 17.813C30.9468 15.8896 32.7901 14.3411 35.069 13.3374C36.3148 12.7887 37.5958 12.363 38.9217 12.0642C39.4665 11.9412 40.023 11.8651 40.5756 11.7752C40.81 11.7381 40.9291 11.8201 41.0013 12.1013C41.2181 12.9449 41.4563 13.7865 41.6184 14.6399C41.8351 15.7724 41.9621 16.9187 41.9152 18.0747C41.8605 19.4358 41.6282 20.7519 41.1458 22.0407C40.5991 23.5013 39.7496 24.755 38.7088 25.8817C37.9805 26.6706 37.1193 27.3247 36.2074 27.9067C35.1783 28.5628 34.1063 29.1291 32.9698 29.5723C31.6009 30.1035 30.1989 30.5272 28.7441 30.7303C27.8986 30.8475 27.0413 30.9509 26.1821 30.8435C26.0181 30.8221 25.858 30.783 25.6393 30.7401C25.7115 30.6346 25.733 30.5741 25.776 30.5467C27.1956 29.6055 28.5039 28.5257 29.779 27.4029C30.8589 26.4538 31.847 25.4189 32.7452 24.298C33.5166 23.3373 34.3504 22.4293 35.2545 21.5916C35.5376 21.3279 35.8774 21.1288 36.1859 20.8925C36.4203 20.7128 36.6487 20.5254 36.8772 20.336C37.4337 19.8751 37.6192 19.1956 37.8848 18.5687C37.9668 18.3735 37.9961 18.0962 37.7891 17.9126C37.5802 17.7271 37.3341 17.7154 37.0939 17.8501C36.6604 18.0923 36.225 18.3344 35.8012 18.5961C35.4966 18.7835 35.2115 19.0022 34.9128 19.2034C34.8425 19.2522 34.7565 19.2834 34.6589 19.3303Z" fill="white"/>
<path d="M104.179 17.2273C104.324 17.2175 104.445 17.2019 104.566 17.1999C105.925 17.1941 107.282 17.1882 108.641 17.1843C108.927 17.1843 108.973 17.241 108.96 17.5495C108.952 17.7213 108.948 17.8932 108.948 18.0631C108.948 24.7921 108.948 31.5212 108.948 38.2503C108.948 38.4358 108.962 38.6232 108.977 38.8088C108.997 39.0665 108.938 39.1524 108.69 39.1759C108.536 39.1895 108.378 39.1798 108.222 39.1798C107.081 39.1798 105.941 39.1798 104.8 39.1798C104.707 39.1798 104.613 39.1856 104.519 39.1778C104.211 39.1524 104.137 39.0763 104.138 38.7717C104.14 38.5217 104.166 38.2737 104.166 38.0238C104.168 32.6382 104.17 27.2526 104.166 21.865C104.166 20.3829 104.148 18.9008 104.14 17.4187C104.144 17.3757 104.16 17.3308 104.179 17.2273Z" fill="white"/>
<path d="M10.531 35.4851C6.83257 35.9733 3.64378 35.0028 0.755703 32.9193C0.482322 32.722 0.146454 32.5619 0 32.1753C0.999793 31.7476 1.98592 31.3786 3.01891 31.1481C3.74727 30.9861 4.47954 30.822 5.21767 30.7322C6.43812 30.5838 7.66443 30.5467 8.89659 30.6463C10.1737 30.7517 11.4254 30.9685 12.6517 31.3376C13.7569 31.6695 14.8251 32.0972 15.858 32.6146C16.0904 32.7318 16.192 32.8626 16.0963 33.1282C15.7819 34.0069 15.5183 34.9052 15.1648 35.7663C14.5849 37.1762 13.7491 38.4337 12.6927 39.5351C11.6011 40.6735 10.3026 41.4819 8.76576 41.8588C8.22681 41.9916 7.66052 42.0131 7.10595 42.0756C6.88724 42.099 6.79937 41.9994 6.86381 41.7612C7.0708 41.0133 7.24264 40.2498 7.52774 39.5292C8.02959 38.2541 8.80872 37.1469 9.78899 36.1842C9.92177 36.0534 10.0741 35.944 10.2127 35.819C10.2967 35.739 10.3728 35.6492 10.531 35.4851Z" fill="white"/>
<path d="M42.1298 32.2262C40.7102 33.5325 39.0973 34.4659 37.2734 35.0186C35.4711 35.5653 33.6374 35.8192 31.6886 35.4599C31.7531 35.5907 31.7687 35.6825 31.8234 35.7294C33.5066 37.1197 34.5201 38.9279 35.1293 40.9919C35.2035 41.2438 35.2406 41.5075 35.2836 41.7672C35.3187 41.9878 35.2231 42.0952 34.9965 42.0835C33.3875 41.9976 31.9171 41.5192 30.6127 40.5565C29.1091 39.4454 28.0624 37.9769 27.2325 36.3288C26.7248 35.3232 26.346 34.2707 26.0492 33.1889C26.014 33.058 26.0004 32.9213 25.973 32.7593C31.2942 30.0626 36.6603 29.9024 42.1298 32.2262Z" fill="white"/>
<path d="M36.1624 62.1146C36.0609 62.1302 35.9613 62.1615 35.8597 62.1615C33.7547 62.1634 31.6477 62.1634 29.5427 62.1654C29.2888 62.1654 29.0623 62.1166 28.8319 61.9877C27.3478 61.148 26.4632 59.8573 26.0102 58.2482C25.6509 56.9712 25.4791 55.6687 25.4068 54.3389C25.3365 53.0442 25.3092 51.7554 25.3697 50.4627C25.4244 49.2989 25.4556 48.1331 25.6275 46.9771C25.7915 45.8719 25.9165 44.7588 26.0844 43.6556C26.2543 42.5503 26.4496 41.449 26.6468 40.3496C26.7757 39.631 26.9221 38.9163 27.0705 38.2016C27.0842 38.1372 27.1584 38.0864 27.2463 37.9751C27.4982 38.434 27.7325 38.848 27.9493 39.2678C27.9864 39.34 27.9707 39.4533 27.9493 39.5412C27.6817 40.7265 27.5333 41.9294 27.4884 43.142C27.4513 44.1223 27.4005 45.1045 27.4357 46.0828C27.4689 46.9967 27.5997 47.9066 27.7032 48.8186C27.8985 50.5467 28.3671 52.2065 29.0213 53.8117C29.7419 55.5847 30.7124 57.2074 31.9855 58.6485C33.0244 59.826 34.2273 60.8083 35.5278 61.6753C35.7308 61.81 35.9613 61.9037 36.178 62.015C36.1722 62.0482 36.1683 62.0814 36.1624 62.1146Z" fill="white"/>
<path d="M6.52795 62.1303C6.60606 62.0268 6.62559 61.976 6.66074 61.9565C8.36546 61.0719 9.74408 59.7889 10.9665 58.3439C12.474 56.5611 13.5265 54.5166 14.1358 52.2612C14.4111 51.2419 14.6513 50.2089 14.8173 49.1662C14.9559 48.2933 14.9793 47.4028 15.0184 46.5183C15.0477 45.8504 15.0457 45.1787 15.0203 44.5089C14.9696 43.2357 14.8719 41.9645 14.6161 40.7109C14.538 40.3301 14.4521 39.9513 14.3877 39.5685C14.3642 39.4338 14.3525 39.2698 14.4091 39.1565C14.5966 38.7855 14.8173 38.432 15.0496 38.0337C15.1219 38.1138 15.2117 38.1665 15.2273 38.2348C15.5085 39.59 15.819 40.9393 16.0475 42.3043C16.2837 43.7122 16.4224 45.1377 16.6352 46.5495C16.8442 47.9379 16.9086 49.3341 16.934 50.7361C16.9457 51.3903 17.0082 52.0445 16.9867 52.6947C16.9262 54.5127 16.8578 56.3326 16.3658 58.1038C15.9557 59.5781 15.2605 60.8766 14.0401 61.851C13.7882 62.0522 13.5246 62.1693 13.1867 62.1674C11.0954 62.1576 9.004 62.1615 6.91264 62.1615C6.80719 62.1615 6.7037 62.1459 6.52795 62.1303Z" fill="white"/>
<path d="M21.472 29.2815C21.1088 29.4826 20.7358 29.6642 20.3882 29.8907C20.1851 30.0235 19.9879 30.2012 19.861 30.4023C19.6364 30.7558 19.7946 31.1717 20.1969 31.3025C20.5034 31.4021 20.8276 31.449 21.1478 31.4998C21.7024 31.5876 22.2492 31.6775 22.712 32.0446C23.2665 32.4839 23.3974 33.4056 22.9482 33.968C22.6827 34.3 22.3624 34.548 21.9192 34.6495C21.5599 34.7315 21.2064 34.8799 20.8842 35.0596C20.0172 35.5458 19.7653 36.6491 20.3062 37.479C20.6499 38.0082 21.1381 38.3558 21.7141 38.592C22.3722 38.8596 22.8487 39.3087 23.0264 40.0097C23.206 40.7107 23.1591 41.3981 22.7706 42.0347C22.3644 42.7006 21.8938 43.3196 21.3744 43.9034C21.1888 44.1124 21.0151 44.335 20.8608 44.5693C20.5776 44.997 20.6128 45.4383 20.9721 45.8034C21.1888 46.0241 21.4329 46.2252 21.6829 46.4068C22.2355 46.8091 22.5655 47.3715 22.8057 47.9846C22.958 48.3713 23.04 48.7872 23.1416 49.1934C23.2841 49.7636 23.167 50.3084 22.9365 50.8278C22.7862 51.1695 22.5889 51.4898 22.4269 51.8256C22.3136 52.0639 22.2043 52.306 22.1281 52.5579C22.05 52.8176 21.9055 52.9582 21.6321 52.9621C21.5071 52.9641 21.3822 52.9875 21.2591 52.9777C20.8803 52.9523 20.7905 52.8586 20.6597 52.5071C20.482 52.0268 20.2984 51.5444 20.0797 51.0816C19.738 50.3572 19.611 49.6386 19.9762 48.8829C20.0875 48.6544 20.0465 48.4318 19.8512 48.2443C19.7067 48.1037 19.5896 47.9358 19.4451 47.7933C18.828 47.1899 18.5839 46.4166 18.5507 45.5984C18.5312 45.0966 18.6952 44.5908 18.9862 44.1417C19.4041 43.4973 19.8942 42.9154 20.4273 42.3666C20.7085 42.0776 21.0033 41.7965 21.2513 41.4782C21.6614 40.9548 21.6145 40.6092 21.0873 40.2128C20.7651 39.9707 20.4156 39.7617 20.0719 39.5489C19.408 39.1349 18.8495 38.6291 18.6054 37.8578C18.1075 36.2761 18.5761 34.9815 19.9313 34.0891C20.2515 33.8782 20.6304 33.7552 20.9858 33.597C21.1557 33.5208 21.3373 33.4681 21.5091 33.3959C21.7005 33.3177 21.886 33.224 21.8977 32.9799C21.9094 32.7144 21.7219 32.5835 21.5189 32.5015C21.2611 32.3961 20.9877 32.3277 20.7182 32.2535C20.4488 32.1793 20.1637 32.15 19.9059 32.0465C19.0936 31.7204 18.8651 30.7987 19.447 30.1407C19.9762 29.5412 20.7065 29.3381 21.4466 29.176C21.4486 29.2073 21.4603 29.2444 21.472 29.2815Z" fill="white"/>
<path d="M7.65474 6.911C7.81877 6.90124 7.83634 6.77821 7.83829 6.64934C7.8422 6.39939 7.83048 6.14944 7.84415 5.90144C7.86954 5.41131 8.08629 5.04811 8.55104 4.83721C8.68187 4.77863 8.80489 4.66342 8.88495 4.5443C9.48639 3.6441 10.4022 3.29261 11.4001 3.08367C11.4821 3.06609 11.6363 3.13249 11.6715 3.20278C11.7984 3.46445 11.9761 3.53084 12.2417 3.43906C12.2788 3.42735 12.3296 3.46054 12.3745 3.47031C12.7689 3.54842 12.8041 3.62067 12.6322 3.98973C12.6205 4.01512 12.6225 4.04831 12.6127 4.1147C12.9173 4.2221 13.2317 4.33146 13.5969 4.45838C13.4914 4.61265 13.4172 4.72005 13.3411 4.8294C13.3508 4.85088 13.3567 4.88798 13.3762 4.89775C13.6027 5.00124 13.8331 5.09692 14.0597 5.20042C14.1436 5.23947 14.251 5.26876 14.2959 5.33711C14.3487 5.41522 14.3877 5.55191 14.3526 5.62416C14.3252 5.68079 14.169 5.71203 14.0811 5.69446C13.8839 5.65345 13.6984 5.57143 13.5031 5.51676C13.4367 5.49723 13.3606 5.51285 13.1809 5.51285C13.3372 5.65931 13.427 5.73156 13.5031 5.81357C13.7121 6.04009 13.6613 6.28418 13.3762 6.4111C13.3196 6.43649 13.2551 6.44039 13.1946 6.45406C12.6225 6.58099 12.3139 6.9481 12.2358 7.5183C12.1597 8.08068 11.9781 8.61182 11.7183 9.10976C11.5914 9.35385 11.4196 9.59208 11.2126 9.76978C11.0505 9.91038 10.8045 9.95529 10.5682 10.0529C10.5819 10.1232 10.578 10.2209 10.6209 10.2931C11.4333 11.6952 12.2475 13.0953 13.0677 14.4915C13.2258 14.759 13.4153 15.007 13.5754 15.2745C13.6105 15.3331 13.5734 15.4346 13.5695 15.5147C13.4992 15.5088 13.4114 15.5284 13.3606 15.4932C13.2337 15.4073 13.1087 15.3077 13.0071 15.1925C12.7513 14.8996 12.5092 14.595 12.2612 14.2942C12.1811 14.1986 12.1187 14.058 12.0152 14.0189C11.4547 13.8061 11.2907 13.2769 11.0251 12.8316C10.7127 12.3103 10.3885 11.8006 9.95114 11.3671C9.54302 10.9629 9.06656 10.6758 8.53346 10.4864C7.90859 10.2638 7.39698 9.92014 7.09236 9.30894C6.98105 9.08633 6.84045 8.87739 6.73891 8.65087C6.58465 8.3111 6.35618 8.05139 6.01055 7.90884C5.92463 7.87369 5.80161 7.84831 5.7235 7.8815C5.52042 7.96937 5.43645 7.85026 5.35053 7.71161C5.02638 7.1961 5.48917 5.97369 6.30346 6.00884C7.02596 6.04009 7.26419 6.15334 7.57077 6.85828C7.57858 6.88171 7.61959 6.88952 7.65474 6.911Z" fill="white"/>
<path d="M28.6796 15.5655C28.498 15.4679 28.5156 15.3624 28.5917 15.2374C29.16 14.3099 29.7341 13.3843 30.2906 12.449C30.7143 11.7401 31.1166 11.0176 31.5247 10.301C31.5677 10.2268 31.5989 10.1447 31.6497 10.0334C30.605 9.91042 30.4292 9.05708 30.1305 8.32676C30.0191 8.05729 29.9801 7.75657 29.9254 7.46561C29.8258 6.93838 29.5485 6.59079 29.0018 6.48535C28.8983 6.46582 28.7909 6.417 28.705 6.35647C28.498 6.21001 28.4824 5.97569 28.6698 5.79994C28.8026 5.67692 28.9549 5.57343 29.074 5.40354C28.7675 5.49337 28.4589 5.57733 28.1563 5.67887C28.0157 5.72574 27.8731 5.78823 27.797 5.61443C27.7247 5.4465 27.7911 5.32934 27.9805 5.25904C28.2539 5.1575 28.5175 5.02276 28.8163 4.88802C28.7382 4.76695 28.6698 4.66151 28.5937 4.54044C28.8592 4.25534 29.2459 4.30025 29.531 4.12646C29.5388 4.09912 29.5603 4.06202 29.5505 4.04249C29.3455 3.65 29.4333 3.45277 29.8649 3.4723C30.1461 3.48597 30.3335 3.46058 30.4878 3.20087C30.5327 3.12472 30.7397 3.09933 30.8588 3.11886C31.8703 3.28289 32.7159 3.72811 33.2997 4.60097C33.3563 4.68689 33.4403 4.78648 33.5301 4.81577C34.2468 5.03448 34.3464 5.591 34.3327 6.22173C34.3268 6.46191 34.3444 6.7021 34.3522 6.94033C34.6198 6.95205 34.6217 6.78021 34.6725 6.665C34.8775 6.20416 35.2095 6.01279 35.7992 6.02646C36.3284 6.03817 36.594 6.22368 36.7775 6.71967C36.8673 6.96376 37.004 7.19418 36.9025 7.48123C36.7853 7.80929 36.7463 7.81124 36.3577 7.87568C36.0628 7.9245 35.766 8.05338 35.6078 8.35605C35.479 8.60405 35.3364 8.84814 35.2114 9.09809C34.8892 9.73467 34.4206 10.2209 33.7371 10.4572C32.5967 10.8516 31.8313 11.6581 31.2416 12.6677C31.099 12.9098 30.9545 13.15 30.8198 13.396C30.6811 13.646 30.5327 13.8647 30.2379 13.9701C30.107 14.017 30.0133 14.1771 29.9118 14.2923C29.6052 14.6438 29.3103 15.0031 28.9979 15.3487C28.912 15.4425 28.7792 15.4991 28.6796 15.5655Z" fill="white"/>
<path d="M96.4565 41.9292C97.3216 41.853 98.1437 41.7612 98.956 41.9135C100.145 42.1362 100.928 42.9875 100.985 44.2451C101.018 44.9735 100.946 45.6686 100.522 46.3013C100.132 46.8852 99.5692 47.1898 98.9189 47.3421C98.2159 47.5042 97.4974 47.4847 96.7807 47.4261C96.4429 47.3968 96.3882 47.3206 96.4273 46.9828C96.4448 46.8285 96.4565 46.6743 96.4565 46.5181C96.4585 45.1609 96.4585 43.8057 96.4585 42.4486C96.4566 42.2787 96.4565 42.1108 96.4565 41.9292ZM97.4622 46.5825C97.8059 46.5825 98.1144 46.604 98.4171 46.5786C99.0009 46.5259 99.4325 46.233 99.6961 45.6979C99.9324 45.2214 100.007 44.7157 99.9382 44.2002C99.8484 43.5245 99.5126 42.9914 98.8369 42.7649C98.5655 42.6732 98.2589 42.6751 97.968 42.6536C97.4856 42.6165 97.427 42.6731 97.4251 43.1574C97.4212 44.1533 97.4231 45.1512 97.4251 46.147C97.4251 46.2837 97.4466 46.4185 97.4622 46.5825Z" fill="white"/>
<path d="M97.9835 51.6927C98.0186 51.7766 98.046 51.8469 98.0753 51.9172C98.0987 51.9719 98.126 52.0246 98.169 52.1144C98.954 51.5013 99.7116 51.3412 100.379 52.2472C100.563 52.1008 100.708 51.9582 100.875 51.8586C101.832 51.2845 102.816 51.8001 102.912 52.9463C102.979 53.7508 102.945 54.5632 102.951 55.3716C102.951 55.4614 102.922 55.5493 102.9 55.6664C102.608 55.6664 102.334 55.6664 102.026 55.6664C102.012 55.5532 101.989 55.4341 101.989 55.315C101.985 54.7682 101.994 54.2234 101.983 53.6766C101.979 53.4599 101.957 53.2412 101.907 53.0303C101.824 52.6788 101.522 52.4113 101.276 52.4386C100.954 52.4718 100.655 52.7784 100.618 53.1338C100.598 53.3193 100.612 53.5087 100.612 53.6942C100.612 54.2097 100.614 54.7233 100.61 55.2388C100.608 55.3735 100.585 55.5083 100.567 55.6957C100.319 55.6957 100.104 55.7035 99.8913 55.6938C99.6277 55.6801 99.5828 55.604 99.5867 55.3403C99.5925 54.6471 99.6043 53.9539 99.5769 53.2607C99.5574 52.7608 99.2528 52.4152 98.9208 52.4308C98.5927 52.4445 98.2491 52.878 98.2432 53.3271C98.2354 53.9656 98.2491 54.6061 98.2549 55.2447C98.2549 55.3657 98.2549 55.4868 98.2549 55.6528C97.9171 55.6528 97.6164 55.6528 97.2629 55.6528C97.2551 55.5122 97.2415 55.3618 97.2415 55.2115C97.2395 54.2449 97.2395 53.2783 97.2415 52.3097C97.2375 51.6497 97.2376 51.6497 97.9835 51.6927Z" fill="white"/>
<path d="M73.8791 56.3073C74.1114 56.3971 74.2989 56.4596 74.4805 56.5397C74.7871 56.6744 75.0858 56.6314 75.3905 56.5318C75.9177 56.3561 76.1579 55.8484 75.9665 55.245C75.8162 55.3563 75.6853 55.4891 75.5272 55.5652C74.9999 55.825 74.379 55.6707 73.8927 55.2548C73.1253 54.6006 73.0433 52.8256 74.0021 52.0191C74.6289 51.4899 75.3319 51.4997 76.0564 52.0504C76.2087 51.8121 76.4391 51.6911 76.7222 51.6774C76.9917 51.6637 77.0893 51.7555 77.0874 52.0308C77.0796 53.1204 77.0835 54.212 77.0542 55.3016C77.0386 55.8601 76.98 56.4186 76.5426 56.8521C75.9958 57.3949 75.3241 57.5023 74.6016 57.4223C74.3887 57.3988 74.1778 57.3227 73.9728 57.2504C73.633 57.1313 73.5842 57.02 73.7072 56.6881C73.7502 56.5748 73.8068 56.4655 73.8791 56.3073ZM76.0798 53.5989C76.0485 53.427 76.0368 53.1732 75.9548 52.9427C75.7342 52.3296 75.039 52.2261 74.6231 52.7318C74.3067 53.1165 74.2364 53.9757 74.4864 54.421C74.6602 54.7314 74.9296 54.9111 75.2811 54.9111C75.6209 54.9111 75.9255 54.6221 76.0192 54.2315C76.0603 54.0519 76.0564 53.8605 76.0798 53.5989Z" fill="white"/>
<path d="M51.5615 55.6762C51.4483 55.6859 51.3565 55.6976 51.2647 55.6996C50.7433 55.7113 50.7433 55.7113 50.5676 55.2036C50.3606 55.5453 50.0599 55.7015 49.7045 55.7855C49.1616 55.9124 48.691 55.7269 48.3513 55.3559C47.4608 54.3835 47.6209 52.7686 48.4294 52.0519C48.9878 51.5579 49.6752 51.472 50.3079 51.8703C50.3587 51.9016 50.4153 51.925 50.5168 51.9777C50.5559 51.8645 50.6125 51.7746 50.6125 51.6848C50.6067 51.1888 50.5891 50.6909 50.5696 50.1949C50.5598 49.9586 50.6633 49.8512 50.9035 49.861C51.1026 49.8688 51.3038 49.8629 51.4893 49.8629C51.6221 50.2378 51.6709 54.7018 51.5615 55.6762ZM50.591 53.6844C50.5813 53.6844 50.5735 53.6824 50.5637 53.6824C50.5637 53.5262 50.5813 53.37 50.5598 53.2177C50.4953 52.7627 50.138 52.4307 49.7279 52.4229C49.3257 52.4151 48.9722 52.749 48.8687 53.1943C48.7906 53.534 48.8121 53.8699 48.857 54.2038C48.9097 54.5846 49.2788 54.9205 49.6479 54.9498C50.0618 54.9829 50.3958 54.7564 50.5129 54.3288C50.5695 54.1218 50.5676 53.8992 50.591 53.6844Z" fill="white"/>
<path d="M69.5012 51.9523C69.5012 51.2552 69.5012 50.5971 69.5012 49.9859C69.5871 49.9234 69.6105 49.8922 69.6359 49.8883C70.6357 49.7985 70.5264 49.8727 70.5303 50.6811C70.5342 52.253 70.5361 53.825 70.5361 55.3989C70.5361 55.475 70.5185 55.5492 70.5068 55.6605C70.2413 55.6605 69.9855 55.6605 69.7238 55.6605C69.6672 55.5278 69.6105 55.393 69.548 55.2466C69.3586 55.395 69.2063 55.5551 69.0208 55.6547C68.2007 56.0921 67.3649 55.6 66.9685 54.9146C66.5448 54.1784 66.6756 52.874 67.1501 52.2589C67.5836 51.6965 68.6264 51.3743 69.2669 51.8879C69.3079 51.9191 69.3762 51.9191 69.5012 51.9523ZM69.4895 53.7332C69.4973 53.7332 69.5031 53.7332 69.5109 53.7332C69.4973 53.5165 69.5051 53.2958 69.4621 53.0849C69.3957 52.7568 69.1966 52.5108 68.8646 52.4405C68.5229 52.3663 68.2221 52.4659 68.0112 52.7744C67.6461 53.3114 67.6305 53.8777 67.8804 54.4557C68.0308 54.8033 68.4448 55.0025 68.8041 54.9419C69.1243 54.8892 69.4387 54.5592 69.4856 54.2019C69.507 54.0456 69.4895 53.8894 69.4895 53.7332Z" fill="white"/>
<path d="M72.6762 47.1352C72.6762 47.7913 72.6762 48.381 72.6762 49.0001C72.5278 49.0176 72.4107 49.045 72.2916 49.0469C71.6706 49.0586 71.6335 48.9708 71.6511 48.3498C71.6843 47.1118 71.6647 45.8718 71.6667 44.6318C71.6667 44.2491 71.6667 43.8664 71.6667 43.4426C71.9401 43.4426 72.1939 43.4426 72.4673 43.4426C72.5181 43.552 72.5747 43.673 72.645 43.8214C72.7426 43.7668 72.8246 43.7336 72.893 43.6808C73.7698 42.9935 74.9707 43.2923 75.3554 44.335C75.6385 45.1005 75.6698 45.8777 75.2265 46.6275C74.7129 47.4926 73.7991 47.7386 72.9242 47.2192C72.8774 47.1879 72.8149 47.1801 72.6762 47.1352ZM72.643 45.3719C72.6899 45.6629 72.7055 45.8816 72.7622 46.0886C72.8578 46.4439 73.1234 46.6275 73.4749 46.6724C73.8381 46.7193 74.1291 46.5455 74.297 46.2487C74.6192 45.6804 74.6016 45.1102 74.2853 44.5186C74.0139 44.0128 73.0355 44.0733 72.85 44.5889C72.7524 44.8603 72.7016 45.1493 72.643 45.3719Z" fill="white"/>
<path d="M96.56 55.651C95.5583 55.7955 95.5583 55.7955 95.2927 54.8992C95.283 54.8699 95.2732 54.8406 95.2654 54.8094C95.0232 54.0498 95.197 54.1025 94.2734 54.1083C94.166 54.1083 94.0586 54.1494 93.9512 54.1494C93.4298 54.1513 93.4279 54.1474 93.2775 54.6083C93.1682 54.948 93.0666 55.2917 92.9534 55.6627C92.6351 55.6627 92.3168 55.6627 91.9829 55.6627C91.9829 55.5553 91.9614 55.4596 91.9868 55.3776C92.4808 53.7862 92.9826 52.1986 93.4806 50.6091C93.6134 50.1814 93.6251 50.1717 94.0625 50.1697C94.2187 50.1697 94.3788 50.1873 94.5292 50.1619C94.7831 50.117 94.9022 50.2283 94.9744 50.4568C95.4997 52.1185 96.0308 53.7764 96.5581 55.4382C96.5756 55.4967 96.56 55.5631 96.56 55.651ZM94.2656 51.3218C94.2324 51.3218 94.2011 51.3199 94.1679 51.3199C93.9824 51.9662 93.7989 52.6126 93.5938 53.3253C94.0527 53.3487 94.4491 53.4327 94.8475 53.2745C94.6425 52.5891 94.455 51.9565 94.2656 51.3218Z" fill="white"/>
<path d="M50.7961 46.4203C50.8429 46.7308 50.882 46.9944 50.921 47.2463C50.1243 47.5529 49.3823 47.5959 48.6246 47.3635C47.7479 47.094 47.2031 46.5277 46.957 45.6392C46.7305 44.821 46.7969 44.04 47.1464 43.2764C47.5135 42.4778 48.1521 42.0326 48.9996 41.8646C49.5756 41.7514 50.1478 41.8197 50.718 41.9056C50.8703 41.9291 50.9523 42.0189 50.9347 42.1575C50.9035 42.3801 50.8429 42.5988 50.7902 42.839C49.7494 42.5793 48.7965 42.4915 48.1638 43.4971C47.7342 44.1806 47.7811 45.3405 48.2458 45.9341C48.9156 46.7874 49.8002 46.6996 50.7961 46.4203Z" fill="white"/>
<path d="M122.348 45.319C122.387 46.8207 121.367 47.5334 120.272 47.5119C119.649 47.4983 119.145 47.1995 118.782 46.6781C118.128 45.7428 118.345 44.2236 119.329 43.6085C120.541 42.8508 122.215 43.5343 122.322 45.0613C122.33 45.1706 122.344 45.278 122.348 45.319ZM121.375 45.405C121.278 45.0945 121.225 44.782 121.084 44.5145C120.745 43.8721 119.991 43.997 119.713 44.454C119.362 45.032 119.327 45.6959 119.672 46.2642C120.077 46.9281 120.661 46.9066 121.076 46.2837C121.241 46.0396 121.278 45.7096 121.375 45.405Z" fill="white"/>
<path d="M113.117 55.7934C112.205 55.8676 111.149 55.0787 111.17 53.7509C111.192 52.3976 111.988 51.5775 113.176 51.6029C114.382 51.6283 115.091 52.3273 115.123 53.6981C115.152 54.9576 114.228 55.8442 113.117 55.7934ZM114.088 53.6025C114.029 53.4111 113.98 53.0811 113.834 52.8018C113.545 52.2512 112.773 52.2453 112.465 52.7862C112.129 53.3779 112.098 53.9969 112.436 54.6022C112.734 55.1373 113.346 55.192 113.752 54.7292C114.004 54.4441 114.056 54.0945 114.088 53.6025Z" fill="white"/>
<path d="M65.3438 45.522C65.3691 44.9186 65.4668 44.409 65.8417 43.9852C66.4295 43.3233 67.359 43.1085 68.1889 43.4795C68.9797 43.8329 69.3605 44.616 69.2921 45.5669C69.2492 46.1508 69.0695 46.7015 68.5677 47.0764C67.8803 47.588 67.1305 47.6837 66.3728 47.2795C65.662 46.9026 65.373 46.2426 65.3438 45.522ZM66.365 45.442C66.4197 45.6646 66.4627 45.893 66.533 46.1098C66.656 46.4886 66.9508 46.7366 67.3238 46.7366C67.6968 46.7347 67.9819 46.4691 68.1225 46.1098C68.3314 45.5748 68.3158 45.0417 68.0405 44.532C67.7222 43.9442 66.9938 43.9247 66.6404 44.4949C66.4627 44.78 66.3748 45.0924 66.365 45.442Z" fill="white"/>
<path d="M130.834 45.3797C130.846 46.4537 130.342 47.184 129.325 47.4554C128.286 47.7327 127.13 47.1 126.956 45.8737C126.894 45.4363 126.909 44.9813 127.069 44.5361C127.384 43.6671 128.321 43.2219 129.073 43.3078C130.037 43.4191 130.524 43.8624 130.826 44.8661C130.875 45.0243 130.834 45.2098 130.834 45.3797ZM129.858 45.3719C129.834 44.9872 129.713 44.6552 129.487 44.3682C129.178 43.9776 128.567 43.9718 128.272 44.374C127.88 44.911 127.823 45.737 128.184 46.3092C128.348 46.5669 128.602 46.7681 128.915 46.7388C129.249 46.7075 129.536 46.5142 129.655 46.1783C129.748 45.9167 129.791 45.6394 129.858 45.3719Z" fill="white"/>
<path d="M127.598 51.64C128.397 51.5482 129.266 52.1223 129.461 53.0615C129.651 53.9774 129.539 54.7956 128.756 55.4146C127.913 56.0843 126.183 55.9613 125.708 54.4655C125.466 53.7001 125.677 52.4445 126.415 51.9797C126.798 51.7415 127.034 51.64 127.598 51.64ZM128.505 53.7489C128.505 53.292 128.454 53.085 128.29 52.8116C127.966 52.2707 127.237 52.2414 126.911 52.7764C126.554 53.3623 126.556 53.993 126.862 54.5925C127.157 55.1685 127.868 55.19 128.233 54.6569C128.428 54.3757 128.567 54.0633 128.505 53.7489Z" fill="white"/>
<path d="M56.6601 47.3401C56.5195 47.3811 56.4453 47.4182 56.3711 47.4201C55.504 47.4514 55.6329 47.3908 55.629 46.7425C55.6232 45.6978 55.6154 44.6512 55.6095 43.6065C55.6095 43.5635 55.6349 43.5205 55.6661 43.4268C55.8946 43.4171 56.1348 43.4053 56.3828 43.3936C56.4531 43.5596 56.5097 43.6943 56.5585 43.8135C56.8495 43.6553 57.1033 43.4776 57.3845 43.3702C58.0465 43.1144 58.8998 43.5557 59.0678 44.3993C59.2494 45.3131 59.1107 46.2348 59.1576 47.1507C59.1654 47.3166 59.0678 47.4104 58.8998 47.4221C58.8373 47.426 58.7749 47.424 58.7124 47.426C58.1656 47.4358 58.1226 47.3791 58.1402 46.8499C58.1597 46.2583 58.1676 45.6646 58.1519 45.071C58.1383 44.5203 57.8707 44.204 57.449 44.1806C57.0213 44.1571 56.6737 44.493 56.662 44.9792C56.6464 45.5885 56.6581 46.1977 56.6581 46.805C56.6601 46.973 56.6601 47.1428 56.6601 47.3401Z" fill="white"/>
<path d="M65.9511 55.6978C65.6426 55.6978 65.4102 55.6997 65.1798 55.6978C64.9787 55.6958 64.9142 55.5767 64.922 55.3912C64.9416 54.864 64.963 54.3348 64.9669 53.8076C64.9689 53.5928 64.9416 53.374 64.9045 53.1612C64.8283 52.7238 64.4905 52.3743 64.1898 52.4406C63.7797 52.5324 63.4634 52.8663 63.4692 53.2998C63.479 53.9852 63.479 54.6726 63.4809 55.358C63.4809 55.4478 63.4692 55.5377 63.4614 55.6451C63.1412 55.7388 62.8365 55.7095 62.4694 55.6626C62.4655 55.3229 62.4636 54.9889 62.4597 54.655C62.4499 53.7978 62.446 52.9425 62.4284 52.0853C62.4206 51.7377 62.4557 51.6849 62.8033 51.6732C62.8658 51.6713 62.9283 51.6713 62.9908 51.6732C63.0533 51.6771 63.1138 51.6849 63.188 51.6908C63.2564 51.8255 63.3247 51.9603 63.4204 52.1477C63.5434 52.0501 63.645 51.97 63.7465 51.888C64.3069 51.435 65.2579 51.5639 65.6367 52.1731C65.7715 52.3899 65.8828 52.6554 65.9023 52.9073C65.9609 53.6357 65.9726 54.366 65.9941 55.0963C66.0019 55.278 65.9706 55.4596 65.9511 55.6978Z" fill="white"/>
<path d="M76.447 44.3117C76.4118 44.134 76.3962 44.0579 76.3806 43.9817C76.3161 43.6322 76.3415 43.5716 76.6832 43.4877C77.1948 43.3627 77.6928 43.2475 78.2435 43.3725C78.8195 43.5013 79.2999 44.175 79.3057 44.7511C79.3135 45.4834 79.3292 46.2156 79.3331 46.9479C79.3331 47.108 79.4112 47.3482 79.1886 47.3873C78.9757 47.4244 78.7394 47.3677 78.5207 47.3189C78.4524 47.3033 78.4055 47.1822 78.3528 47.1139C78.0872 47.233 77.8431 47.3697 77.5815 47.4536C77.0582 47.6255 76.4411 47.3755 76.1658 46.9069C75.9002 46.4558 76.0056 45.704 76.3903 45.3486C76.8238 44.9503 77.3589 44.8116 77.9271 44.7862C78.0697 44.7804 78.2454 44.8233 78.2767 44.6554C78.2981 44.5421 78.2278 44.3723 78.14 44.2844C77.8724 44.009 77.5307 44.0032 77.1831 44.0969C76.9508 44.1633 76.7184 44.2336 76.447 44.3117ZM78.3079 45.4267C77.9955 45.4834 77.7514 45.5068 77.5209 45.5771C77.2905 45.6474 77.1402 45.8173 77.0445 46.0516C76.9547 46.2703 77.0406 46.4363 77.1831 46.5476C77.3159 46.6511 77.5131 46.7526 77.6694 46.735C78.0501 46.6921 78.302 46.3426 78.3059 45.9442C78.3098 45.8056 78.3079 45.6689 78.3079 45.4267Z" fill="white"/>
<path d="M104.1 52.544C104.053 52.376 103.992 52.1632 103.934 51.9582C104.549 51.593 105.176 51.5774 105.793 51.6672C106.335 51.7473 106.734 52.0812 106.863 52.6455C106.923 52.915 106.947 53.1962 106.956 53.4735C106.976 54.0788 106.978 54.6842 106.982 55.2895C106.982 55.4106 106.964 55.5316 106.954 55.68C106.583 55.6566 106.185 55.8831 105.97 55.4086C105.691 55.5414 105.441 55.7074 105.166 55.7796C104.654 55.9105 104.193 55.7484 103.898 55.3129C103.568 54.8287 103.541 54.4245 103.863 53.8738C104.121 53.4325 104.555 53.2665 105.023 53.1728C105.236 53.1298 105.455 53.1142 105.668 53.0712C105.929 53.0204 106.011 52.8213 105.818 52.6494C105.677 52.5245 105.472 52.4034 105.297 52.4034C104.928 52.4034 104.564 52.4854 104.1 52.544ZM105.951 54.1784C105.955 53.8425 105.859 53.6961 105.627 53.7469C105.386 53.7996 105.142 53.8796 104.929 53.9988C104.65 54.153 104.572 54.5201 104.722 54.7662C104.885 55.0337 105.193 55.1138 105.496 54.9751C105.841 54.8169 105.953 54.5318 105.951 54.1784Z" fill="white"/>
<path d="M91.5961 46.5414C91.6586 46.7426 91.725 46.9534 91.8012 47.1936C91.1373 47.4943 90.5007 47.5744 89.825 47.426C88.9658 47.2366 88.4347 46.354 88.4191 45.6627C88.4015 44.905 88.5909 44.2587 89.1513 43.7256C89.7782 43.1281 91.2642 43.0773 91.7621 44.2157C91.9281 44.5965 92.016 44.9773 91.9926 45.3913C91.9789 45.6197 91.8812 45.7389 91.6489 45.7369C91.026 45.733 90.403 45.7232 89.7801 45.7213C89.6805 45.7213 89.5126 45.7174 89.4931 45.7642C89.4521 45.8619 89.4501 46.0122 89.4989 46.1079C89.7215 46.5453 90.114 46.7133 90.5807 46.6879C90.901 46.6683 91.2193 46.598 91.5961 46.5414ZM90.2097 44.9871C90.3972 44.9871 90.5846 44.9968 90.7702 44.9851C91.024 44.9675 91.0923 44.8504 91.0123 44.6121C90.8873 44.2392 90.6217 44.038 90.2488 44.0361C89.9012 44.0341 89.5614 44.2958 89.4501 44.6512C89.3837 44.8601 89.456 44.9675 89.6942 44.9851C89.866 44.9988 90.0379 44.9871 90.2097 44.9871Z" fill="white"/>
<path d="M85.0487 47.0531C84.8984 47.1664 84.8164 47.2387 84.7265 47.2972C84.1583 47.6624 83.3577 47.5413 83.0023 47.0414C82.5961 46.4712 82.7289 45.6199 83.3011 45.2078C83.6779 44.9384 84.1095 44.8173 84.5703 44.7997C84.7461 44.7939 84.9882 44.8622 85.0273 44.6025C85.0605 44.374 84.8828 44.21 84.6875 44.1534C84.4727 44.0909 84.2325 44.0772 84.006 44.0889C83.84 44.0967 83.6799 44.1866 83.5139 44.2295C83.262 44.2959 83.1839 44.251 83.096 44.003C83.0101 43.757 83.0648 43.5714 83.2952 43.5148C83.8654 43.3762 84.4239 43.2063 85.0351 43.3898C85.5525 43.5441 85.8064 43.8897 85.9607 44.3467C86.029 44.5478 86.0446 44.7743 86.0485 44.9891C86.0661 45.6902 86.07 46.3912 86.0778 47.0922C86.0798 47.3636 86.031 47.4046 85.7498 47.4222C85.4569 47.4417 85.1932 47.4105 85.0487 47.0531ZM85.0155 45.4793C84.6152 45.4187 84.2813 45.5144 83.9845 45.737C83.7346 45.9245 83.6975 46.2545 83.8771 46.522C84.045 46.772 84.2735 46.8266 84.5664 46.6841C85.0097 46.4673 85.1444 46.1256 85.0155 45.4793Z" fill="white"/>
<path d="M53.9517 45.7019C53.5065 45.7019 53.0593 45.7077 52.6141 45.6999C52.37 45.696 52.2509 45.821 52.3544 46.0377C52.4852 46.3111 52.6922 46.5103 52.9929 46.6157C53.3815 46.7505 53.7565 46.6978 54.1392 46.6021C54.2642 46.5708 54.4926 46.5513 54.5161 46.5982C54.5961 46.772 54.6196 46.977 54.6371 47.1723C54.641 47.2191 54.5434 47.307 54.4809 47.3207C53.8912 47.4515 53.3112 47.6292 52.6942 47.4242C51.9619 47.182 51.5167 46.7017 51.3644 45.9538C51.2335 45.3172 51.3605 44.7196 51.6885 44.1631C52.1201 43.4309 52.9422 43.2004 53.5709 43.343C54.4497 43.5422 54.8148 44.2119 54.8676 44.9169C54.9359 45.8171 54.9105 45.7448 54.1411 45.7429C54.0787 45.7429 54.0162 45.7429 53.9537 45.7429C53.9517 45.7273 53.9517 45.7136 53.9517 45.7019ZM53.9283 44.9052C53.8678 44.3525 53.5514 43.9874 53.1784 44.003C52.7528 44.0225 52.3798 44.4287 52.3564 44.954C52.8836 44.993 53.4069 45.0555 53.9283 44.9052Z" fill="white"/>
<path d="M103.824 45.7564C103.482 45.7369 103.143 45.7212 102.801 45.6978C102.549 45.6802 102.451 45.8013 102.553 46.0298C102.737 46.4399 103.068 46.6566 103.506 46.6683C103.797 46.6761 104.092 46.6293 104.381 46.5765C104.664 46.5238 104.769 46.5648 104.824 46.8148C104.906 47.1858 104.869 47.2893 104.588 47.3381C104.176 47.4104 103.754 47.5353 103.348 47.5002C102.641 47.4396 102.035 47.1409 101.717 46.432C101.293 45.4889 101.555 44.2762 102.328 43.6728C103.176 43.0109 104.582 43.2374 104.943 44.3817C105.049 44.7156 105.134 45.0378 105.099 45.3854C105.07 45.6705 105.008 45.7291 104.715 45.7369C104.418 45.7466 104.123 45.7388 103.826 45.7388C103.824 45.7447 103.824 45.7505 103.824 45.7564ZM102.485 44.8093C102.524 44.8679 102.541 44.9128 102.559 44.9148C103.031 44.9382 103.504 44.9636 103.976 44.9616C104.029 44.9616 104.129 44.8035 104.127 44.7195C104.117 44.2098 103.488 43.8837 103.037 44.1298C102.758 44.2821 102.612 44.5203 102.485 44.8093Z" fill="white"/>
<path d="M111.391 47.4241C111.307 47.2835 111.239 47.1683 111.172 47.0589C110.92 47.1976 110.704 47.3499 110.465 47.4436C109.958 47.6389 109.292 47.4007 109.036 46.9594C108.714 46.4067 108.798 45.735 109.237 45.3386C109.651 44.9637 110.161 44.8465 110.694 44.7957C110.86 44.7801 111.059 44.8465 111.098 44.5985C111.131 44.3818 111.01 44.2177 110.821 44.167C110.586 44.1045 110.338 44.085 110.094 44.083C109.962 44.083 109.827 44.1553 109.694 44.1982C109.368 44.3017 109.303 44.2802 109.218 44.04C109.106 43.7237 109.145 43.6104 109.456 43.505C109.883 43.3605 110.325 43.2668 110.784 43.3078C111.596 43.3781 112.117 44.0108 112.133 44.7196C112.147 45.3113 112.135 45.9029 112.139 46.4946C112.141 46.6801 112.154 46.8656 112.17 47.0511C112.193 47.3343 112.135 47.4104 111.852 47.4241C111.709 47.43 111.569 47.4241 111.391 47.4241ZM110.981 45.405C110.748 45.4655 110.524 45.489 110.336 45.5827C110.169 45.6686 110.003 45.8112 109.905 45.9693C109.78 46.1724 109.842 46.4165 110.02 46.561C110.149 46.6665 110.36 46.7582 110.512 46.7309C111.112 46.6294 111.352 45.9596 110.981 45.405Z" fill="white"/>
<path d="M115.88 55.6997C115.868 55.4732 115.855 55.3228 115.853 55.1705C115.851 54.3445 115.855 53.5166 115.851 52.6906C115.849 52.4895 115.829 52.2883 115.814 52.0872C115.788 51.7923 115.867 51.7396 116.165 51.6927C116.513 51.6381 116.741 51.7181 116.812 52.1282C116.923 52.0638 117.005 52.0325 117.067 51.9778C117.856 51.2924 119.022 51.6185 119.296 52.6261C119.381 52.9464 119.354 53.2979 119.368 53.6377C119.381 54.0106 119.378 54.3836 119.393 54.7546C119.407 55.0612 119.465 55.3697 119.329 55.6743C119.016 55.6743 118.727 55.6743 118.384 55.6743C118.384 55.2955 118.384 54.9401 118.384 54.5867C118.384 54.1961 118.391 53.8056 118.38 53.417C118.376 53.2666 118.348 53.1065 118.29 52.9679C118.122 52.5656 117.921 52.4289 117.601 52.466C117.243 52.507 116.948 52.7902 116.894 53.169C116.872 53.3213 116.884 53.4795 116.884 53.6357C116.884 54.2137 116.878 54.7898 116.886 55.3678C116.888 55.604 116.79 55.7114 116.552 55.7017C116.349 55.6919 116.15 55.6997 115.88 55.6997Z" fill="white"/>
<path d="M53.3814 54.0048C53.3678 54.5203 53.6489 54.8816 54.1293 54.9421C54.432 54.9792 54.7425 54.9519 55.049 54.9363C55.2014 54.9304 55.3498 54.8894 55.5372 54.8581C55.5802 54.989 55.6251 55.1003 55.6505 55.2155C55.7091 55.4908 55.6583 55.6021 55.383 55.651C54.9709 55.7213 54.5491 55.7935 54.1352 55.7837C52.9518 55.7525 52.3269 54.7117 52.3426 53.8837C52.3582 53.0909 52.5613 52.4094 53.2232 51.9213C53.9614 51.3784 55.383 51.4858 55.7833 52.7297C55.8809 53.0343 55.877 53.3721 55.9082 53.6963C55.9278 53.9091 55.8184 54.0126 55.6036 54.0107C55.2287 54.0068 54.8538 54.0048 54.4788 54.0029C54.1235 54.0029 53.7681 54.0048 53.3814 54.0048ZM53.3853 53.255C53.8618 53.255 54.309 53.2647 54.7542 53.2491C54.9241 53.2432 54.9748 53.0909 54.9026 52.8878C54.7757 52.5227 54.4164 52.2806 54.0805 52.3352C53.6568 52.4036 53.4088 52.7043 53.3853 53.255Z" fill="white"/>
<path d="M78.8136 54.0281C78.8526 54.5339 79.1299 54.8717 79.5888 54.942C79.8134 54.9752 80.0477 54.9654 80.2742 54.9517C80.489 54.9381 80.6999 54.8912 80.9381 54.8561C80.9811 54.9225 81.0455 54.9928 81.0787 55.0748C81.2389 55.4731 81.1959 55.5805 80.7858 55.6606C80.4226 55.7309 80.0438 55.809 79.6806 55.7816C78.6515 55.7094 78.0891 55.315 77.8489 54.241C77.6849 53.5009 77.8606 52.7881 78.3684 52.1886C78.9268 51.5306 80.1902 51.429 80.7761 51.9953C81.276 52.4796 81.4087 53.083 81.3951 53.7411C81.3912 53.9344 81.2662 54.0125 81.0846 54.0125C80.7409 54.0125 80.3992 54.0164 80.0555 54.0125C79.6982 54.0086 79.3408 53.993 78.9854 53.9891C78.9268 53.9871 78.8702 54.0144 78.8136 54.0281ZM78.88 53.2529C79.2627 53.2529 79.6454 53.2529 80.0301 53.2529C80.077 53.2529 80.1238 53.2626 80.1688 53.2568C80.3855 53.2314 80.446 53.126 80.3738 52.9014C80.2508 52.5167 79.9188 52.2843 79.5693 52.3351C79.1377 52.3976 78.8565 52.7549 78.88 53.2529Z" fill="white"/>
<path d="M88.6378 55.3816C88.3117 55.6472 87.9915 55.8112 87.5931 55.7975C87.0132 55.778 86.564 55.4695 86.3941 54.9325C86.2457 54.4638 86.441 53.8643 86.8433 53.5538C87.1206 53.341 87.4271 53.2043 87.7786 53.1692C87.9954 53.1477 88.2082 53.1086 88.423 53.0735C88.6124 53.0422 88.6495 52.9075 88.587 52.763C88.5031 52.5736 88.3664 52.4076 88.1399 52.3998C87.8001 52.3881 87.4525 52.351 87.1381 52.5326C86.9819 52.6224 86.8472 52.6439 86.7515 52.4525C86.6207 52.1908 86.6363 51.9721 86.814 51.8667C86.9058 51.812 87.0151 51.7866 87.1186 51.7515C87.5892 51.5933 88.0754 51.6031 88.5519 51.6695C89.1065 51.7456 89.5536 52.2611 89.6103 52.8762C89.6532 53.3254 89.6318 53.7784 89.6474 54.2295C89.6591 54.6005 89.6825 54.9735 89.704 55.3445C89.7196 55.6022 89.6591 55.6862 89.3994 55.696C89.1084 55.7057 88.794 55.7643 88.6378 55.3816ZM88.6788 54.1768C88.6749 53.7472 88.6183 53.7003 88.2043 53.7979C88.0247 53.8409 87.8411 53.8858 87.6751 53.9659C87.3725 54.1123 87.2748 54.4658 87.433 54.7587C87.5892 55.0457 87.9446 55.1434 88.2336 54.9578C88.5226 54.7723 88.7198 54.5243 88.6788 54.1768Z" fill="white"/>
<path d="M85.5798 55.6744C85.2576 55.6744 84.9647 55.6744 84.6112 55.6744C84.6112 55.4557 84.6132 55.2624 84.6112 55.0671C84.6054 54.4325 84.6386 53.792 84.578 53.1613C84.5292 52.6653 84.2226 52.4095 83.8751 52.431C83.549 52.4505 83.1858 52.8371 83.1682 53.2511C83.1408 53.9053 83.1506 54.5614 83.1526 55.2156C83.1545 55.6686 83.1389 55.692 82.6898 55.6979C82.5218 55.6998 82.3539 55.6979 82.1469 55.6979C82.1352 55.4987 82.1196 55.3483 82.1196 55.198C82.1176 54.3251 82.1215 53.4503 82.1157 52.5774C82.1157 52.3919 82.0903 52.2064 82.0766 52.0209C82.059 51.7651 82.1215 51.6889 82.3832 51.6733C82.5374 51.6636 82.6937 51.6714 82.8675 51.6714C82.9319 51.8178 82.9905 51.9545 83.0647 52.1283C83.1662 52.0619 83.258 52.0131 83.3361 51.9467C83.7911 51.5601 84.3183 51.5171 84.8241 51.7553C85.3572 52.0053 85.613 52.4798 85.6149 53.0832C85.6188 53.8779 85.6364 54.6707 85.6423 55.4655C85.6462 55.5241 85.6091 55.5827 85.5798 55.6744Z" fill="white"/>
<path d="M108.946 54.8442C109.055 54.8696 109.139 54.9067 109.221 54.9048C109.68 54.895 110.141 54.8735 110.6 54.8598C110.793 54.854 110.885 54.9575 110.885 55.1469C110.885 55.2094 110.887 55.2719 110.885 55.3344C110.875 55.6468 110.84 55.6898 110.54 55.6976C110.213 55.7073 109.885 55.6995 109.557 55.6995C109.013 55.6995 108.466 55.7054 107.921 55.6976C107.564 55.6917 107.437 55.5257 107.554 55.1938C107.609 55.0376 107.718 54.897 107.821 54.7622C108.333 54.0963 108.85 53.4344 109.362 52.7685C109.395 52.7255 109.393 52.6572 109.411 52.5791C109.335 52.5537 109.28 52.5185 109.225 52.5185C108.825 52.5185 108.425 52.5263 108.024 52.5303C107.745 52.5322 107.667 52.4619 107.638 52.1866C107.605 51.8937 107.681 51.7414 107.939 51.7023C108.183 51.6652 108.435 51.6808 108.683 51.6808C109.239 51.6789 109.796 51.6964 110.35 51.6769C110.713 51.6632 110.864 51.7706 110.807 52.1241C110.782 52.2823 110.702 52.4482 110.604 52.5791C110.073 53.2879 109.528 53.987 108.989 54.69C108.973 54.7114 108.973 54.7466 108.946 54.8442Z" fill="white"/>
<path d="M106.845 47.5549C106.462 47.469 106.142 47.4124 105.832 47.3245C105.623 47.2659 105.58 46.9847 105.703 46.6782C105.792 46.4556 105.933 46.4712 106.115 46.563C106.396 46.7075 106.689 46.7914 107.009 46.7036C107.212 46.6489 107.333 46.5298 107.357 46.3169C107.38 46.1138 107.269 45.9947 107.107 45.9108C106.995 45.8541 106.878 45.8112 106.767 45.7565C106.574 45.6589 106.367 45.5749 106.193 45.448C105.388 44.8543 105.623 43.9697 106.281 43.5499C106.831 43.1984 107.443 43.2511 108.038 43.4659C108.106 43.4894 108.179 43.5987 108.187 43.6749C108.228 44.0654 107.968 44.2646 107.589 44.167C107.4 44.1182 107.191 44.0771 107.005 44.1123C106.882 44.1357 106.714 44.2861 106.695 44.3993C106.675 44.5146 106.786 44.6883 106.89 44.7801C107.013 44.8875 107.193 44.9324 107.345 45.0086C107.677 45.1726 108.007 45.3113 108.229 45.6589C108.626 46.2837 108.226 47.059 107.73 47.2933C107.443 47.4241 107.114 47.4768 106.845 47.5549Z" fill="white"/>
<path d="M62.0165 46.5999C62.2157 46.8928 62.1981 47.1505 62.0556 47.4376C61.6865 47.4317 61.3272 47.5821 60.9562 47.4103C60.6555 47.2697 60.4289 47.0783 60.3625 46.7463C60.3235 46.5491 60.2922 46.348 60.2864 46.1468C60.2747 45.6782 60.2844 45.2115 60.2825 44.7428C60.2805 44.2351 60.2805 44.2351 59.7631 44.1316C59.7631 43.9188 59.7631 43.6981 59.7631 43.4482C59.9134 43.4189 60.0599 43.3896 60.2454 43.3545C60.2454 43.165 60.2317 42.9854 60.2512 42.8077C60.263 42.6964 60.2962 42.5187 60.3665 42.4933C60.6476 42.3879 60.9406 42.2863 61.294 42.2941C61.2784 42.5499 61.2569 42.7589 61.2549 42.9698C61.251 43.4033 61.2745 43.4189 61.6963 43.4072C61.8193 43.4033 61.9403 43.4072 62.1005 43.4072C62.1239 43.5556 62.1532 43.6727 62.1571 43.7919C62.1649 44.1961 62.1454 44.2117 61.7451 44.1922C61.292 44.1687 61.2315 44.2488 61.2608 44.6882C61.2842 45.0416 61.2569 45.397 61.253 45.7504C61.251 45.8754 61.2452 46.0004 61.2569 46.1254C61.2901 46.4612 61.4287 46.594 61.7607 46.6135C61.8369 46.6135 61.915 46.6038 62.0165 46.5999Z" fill="white"/>
<path d="M125.076 54.8249C125.132 54.985 125.187 55.0963 125.21 55.2154C125.269 55.5279 125.201 55.6372 124.882 55.6958C124.625 55.7446 124.359 55.7934 124.097 55.7856C123.021 55.7583 122.223 55.1354 122.147 53.9364C122.09 53.0381 122.41 52.2922 123.262 51.8411C123.826 51.5424 124.416 51.64 125.001 51.6888C125.16 51.7025 125.244 51.8314 125.22 51.9954C125.199 52.1477 125.158 52.2961 125.115 52.5011C124.96 52.4875 124.812 52.4894 124.669 52.4601C124.015 52.3215 123.469 52.5968 123.275 53.1709C123.033 53.8973 123.248 54.6062 123.845 54.8542C124.088 54.9538 124.39 54.9167 124.666 54.9186C124.785 54.9186 124.904 54.8659 125.076 54.8249Z" fill="white"/>
<path d="M125.199 41.5835C125.521 41.5835 125.808 41.5835 126.128 41.5835C126.14 41.7456 126.159 41.8803 126.159 42.015C126.161 43.6827 126.163 45.3483 126.163 47.016C126.163 47.3811 126.134 47.4104 125.769 47.4241C125.659 47.428 125.55 47.426 125.441 47.4221C125.234 47.4143 125.136 47.3206 125.138 47.0999C125.148 45.3405 125.152 43.5792 125.158 41.8198C125.158 41.7592 125.177 41.6987 125.199 41.5835Z" fill="white"/>
<path d="M123.119 41.6519C123.387 41.4898 123.656 41.5582 123.912 41.5718C123.984 41.5758 124.074 41.6949 124.113 41.7788C124.148 41.8569 124.129 41.9624 124.129 42.0561C124.129 43.6749 124.132 45.2937 124.123 46.9125C124.123 47.0688 124.072 47.3402 123.996 47.3578C123.75 47.4163 123.48 47.391 123.222 47.3773C123.18 47.3753 123.125 47.264 123.111 47.1957C123.092 47.0902 123.099 46.9789 123.099 46.8696C123.099 45.2664 123.099 43.6632 123.099 42.06C123.101 41.9214 123.113 41.7847 123.119 41.6519Z" fill="white"/>
<path d="M92.7386 41.5775C93.0315 41.5639 93.2482 41.5541 93.463 41.5443C93.6583 41.5365 93.7462 41.6459 93.7599 41.8275C93.7677 41.9368 93.7677 42.0462 93.7677 42.1536C93.7677 43.7275 93.7677 45.3014 93.7677 46.8753C93.7677 46.969 93.7677 47.0627 93.7638 47.1565C93.756 47.3263 93.6544 47.4103 93.4943 47.4181C93.3224 47.4259 93.1506 47.4259 92.9807 47.4181C92.8108 47.4103 92.7327 47.299 92.7288 47.1389C92.7249 46.9827 92.7366 46.8284 92.7366 46.6722C92.7366 45.1608 92.7366 43.6494 92.7366 42.138C92.7386 41.97 92.7386 41.8021 92.7386 41.5775Z" fill="white"/>
<path d="M56.7129 49.8865C57.0253 49.8865 57.3162 49.8865 57.6463 49.8865C57.6638 50.0407 57.6892 50.1755 57.6892 50.3102C57.6912 51.9622 57.6931 53.6162 57.6892 55.2682C57.6892 55.7056 57.6736 55.7134 57.2479 55.6997C57.078 55.6939 56.9101 55.6997 56.7539 55.6997C56.6426 55.3365 56.6133 50.5738 56.7129 49.8865Z" fill="white"/>
<path d="M61.3016 55.6978C61.0478 55.6978 60.8173 55.6998 60.585 55.6978C60.3799 55.6959 60.3213 55.569 60.3233 55.3893C60.337 53.7549 60.3526 52.1205 60.3682 50.486C60.3682 50.3962 60.3936 50.3083 60.4112 50.1912C60.7021 50.1912 60.9775 50.1912 61.2528 50.1912C61.368 50.4997 61.411 54.7781 61.3016 55.6978Z" fill="white"/>
<path d="M80.2567 43.4328C80.5652 43.4328 80.8054 43.4328 81.0534 43.4328C81.1042 43.5851 81.1511 43.7277 81.2155 43.9151C81.3971 43.7413 81.5318 43.5734 81.7037 43.4621C81.8697 43.3547 82.0747 43.3098 82.311 43.218C82.3754 43.3488 82.4691 43.4621 82.4809 43.5832C82.4984 43.7804 82.4887 43.9893 82.436 44.1788C82.4164 44.2471 82.2387 44.3057 82.1313 44.3076C81.7232 44.3096 81.483 44.542 81.3854 44.8915C81.3073 45.1707 81.3034 45.4734 81.2956 45.7663C81.2838 46.1862 81.3073 46.6079 81.3014 47.0278C81.2975 47.3734 81.2545 47.4086 80.9363 47.4261C80.3172 47.4574 80.2294 47.3617 80.2723 46.7505C80.2919 46.4908 80.2704 46.2291 80.2762 45.9694C80.284 45.5496 80.3114 45.1297 80.3094 44.7119C80.3094 44.3076 80.2782 43.9054 80.2567 43.4328Z" fill="white"/>
<path d="M116.72 43.3976C116.773 43.5929 116.806 43.7198 116.851 43.8916C116.968 43.7979 117.044 43.7276 117.132 43.671C117.337 43.5382 117.536 43.3937 117.757 43.2921C117.942 43.2062 118.093 43.3078 118.122 43.5108C118.143 43.6632 118.128 43.8213 118.134 43.9775C118.142 44.208 118.054 44.3075 117.802 44.3017C117.401 44.2939 117.052 44.579 116.993 44.9851C116.943 45.3464 116.956 45.7174 116.954 46.0845C116.952 46.4106 116.982 46.7367 116.974 47.0628C116.968 47.3401 116.888 47.4026 116.599 47.4221C116.552 47.426 116.505 47.4221 116.458 47.4241C115.972 47.428 115.949 47.4085 115.947 46.9379C115.945 46.1587 115.951 45.3815 115.943 44.6024C115.941 44.3407 115.913 44.0771 115.888 43.8155C115.859 43.503 115.923 43.4152 116.228 43.3995C116.382 43.3917 116.536 43.3976 116.72 43.3976Z" fill="white"/>
<path d="M115.318 44.2746C115.146 44.296 115.011 44.3156 114.877 44.3292C114.523 44.3663 114.213 44.6221 114.179 44.9736C114.142 45.372 114.156 45.7743 114.154 46.1765C114.152 46.4831 114.162 46.7897 114.164 47.0982C114.164 47.1451 114.158 47.1939 114.142 47.2349C114.07 47.4223 113.76 47.4966 113.381 47.4204C113.166 47.3774 113.074 47.2525 113.08 47.0201C113.1 46.0867 113.121 45.1533 113.133 44.2179C113.135 44.048 113.096 43.8801 113.08 43.7102C113.063 43.5247 113.133 43.4076 113.336 43.4017C113.43 43.3997 113.523 43.4036 113.617 43.3997C113.859 43.39 114.019 43.4447 113.957 43.7434C113.943 43.804 114.002 43.8801 114.047 44.0031C114.156 43.8723 114.244 43.7883 114.304 43.6887C114.468 43.4212 114.752 43.3587 115.017 43.2865C115.203 43.2377 115.31 43.3587 115.316 43.5462C115.324 43.7747 115.318 44.007 115.318 44.2746Z" fill="white"/>
<path d="M63.8558 47.3713C63.7231 47.3947 63.6508 47.4182 63.5747 47.4221C62.8853 47.4553 62.899 47.4455 62.9029 46.7562C62.9068 45.8384 62.8658 44.9187 62.8502 43.999C62.8463 43.8173 62.8678 43.6357 62.8795 43.4268C63.1529 43.4268 63.3813 43.4268 63.645 43.4268C63.6703 43.5615 63.6957 43.706 63.7367 43.9228C63.8578 43.8349 63.9457 43.7685 64.0375 43.706C64.2405 43.5694 64.4358 43.4112 64.6545 43.3096C64.8888 43.2022 65.0353 43.3135 65.0607 43.5772C65.0724 43.7002 65.0665 43.8271 65.0626 43.9521C65.0509 44.2665 65.0509 44.2665 64.719 44.2821C64.3323 44.3016 64.0004 44.5574 63.9496 44.9636C63.8851 45.4869 63.8793 46.0161 63.8578 46.5453C63.8461 46.807 63.8558 47.0686 63.8558 47.3713Z" fill="white"/>
<path d="M71.5634 51.7632C71.8192 51.6089 72.0886 51.6734 72.3464 51.6909C72.4147 51.6949 72.4889 51.7944 72.5358 51.8667C72.5671 51.9116 72.5592 51.9878 72.5592 52.0483C72.5592 53.2004 72.5573 54.3525 72.5534 55.5046C72.5534 55.5476 72.526 55.5905 72.5007 55.6667C72.2019 55.6667 71.9012 55.6667 71.5634 55.6667C71.5634 54.3623 71.5634 53.0637 71.5634 51.7632Z" fill="white"/>
<path d="M121.309 55.6979C121.086 55.6979 120.856 55.6999 120.623 55.6979C120.428 55.696 120.358 55.5866 120.36 55.3972C120.371 54.2783 120.373 53.1594 120.383 52.0385C120.387 51.7085 120.434 51.6714 120.772 51.6773C120.879 51.6792 120.987 51.6734 121.094 51.6832C121.287 51.6988 121.414 51.7847 121.412 52.0014C121.404 53.1828 121.401 54.3642 121.393 55.5456C121.393 55.5691 121.365 55.5964 121.309 55.6979Z" fill="white"/>
<path d="M114.275 50.0742C113.996 50.4198 113.74 50.7889 113.428 51.1013C113.244 51.2849 112.967 51.3474 112.66 51.1365C112.877 50.7791 113.09 50.4296 113.305 50.082C113.328 50.0449 113.375 50.0039 113.414 50C113.679 49.9766 113.945 49.9629 114.211 49.9453C114.232 49.9883 114.254 50.0312 114.275 50.0742Z" fill="white"/>
<path d="M73.1742 49.9803C73.1352 50.0994 73.1313 50.1678 73.0961 50.2107C72.8716 50.49 72.645 50.7653 72.4127 51.0367C72.1764 51.3101 72.0065 51.3296 71.5828 51.1187C71.8132 50.7536 72.0397 50.3923 72.2701 50.033C72.2857 50.0096 72.3189 49.9842 72.3443 49.9842C72.6001 49.9783 72.8559 49.9803 73.1742 49.9803Z" fill="white"/>
<path d="M121.467 50.5973C121.481 50.8492 121.17 51.1792 120.903 51.1968C120.645 51.2144 120.311 50.9156 120.291 50.652C120.272 50.3669 120.534 50.074 120.826 50.0506C121.149 50.0252 121.449 50.2829 121.467 50.5973Z" fill="white"/>
</svg>
