<svg width="220" height="62" viewBox="0 0 220 62" fill="none" xmlns="http://www.w3.org/2000/svg">
<path d="M59.2191 23.0278C58.9596 21.8954 58.5915 20.7837 58.1952 19.6891C57.8516 18.7455 57.4203 17.8327 56.989 16.9234C56.2386 15.3347 55.3445 13.8249 54.2961 12.4044C53.8858 11.8485 53.4721 11.2926 53.0303 10.7608C52.5393 10.1671 52.0169 9.59068 51.5014 9.01765C51.2034 8.68481 50.9194 8.33824 50.5827 8.04658C49.6781 7.26767 48.7559 6.51277 47.8302 5.75445C46.3119 4.51231 44.5341 3.67849 42.8125 2.76576C41.9814 2.32312 41.0803 1.99371 40.1861 1.67116C39.2394 1.32803 38.2786 1.01578 37.3038 0.754998C36.4868 0.538824 35.6418 0.411865 34.8073 0.257455C34.2673 0.157946 33.7238 0.0275555 33.1803 0.0172615C31.5883 -0.0101891 29.9894 0.000104868 28.387 0.0138302C27.7488 0.0172615 27.1036 0.0172615 26.4724 0.103045C25.5643 0.223141 24.6596 0.405002 23.762 0.590294C23.229 0.700097 22.703 0.847644 22.1806 1.00205C21.318 1.25597 20.4273 1.45842 19.6103 1.81185C18.1201 2.45694 16.6299 3.12262 15.2133 3.91182C13.4004 4.9172 11.7314 6.14219 10.2096 7.54217C9.42762 8.26275 8.68075 9.02451 7.97245 9.81372C7.20103 10.675 6.41909 11.5431 5.7704 12.4936C4.90431 13.7632 4.09081 15.0808 3.38953 16.443C2.75486 17.6818 2.26045 18.9925 1.78007 20.2999C1.41189 21.3018 1.13138 22.3381 0.868393 23.3709C0.658006 24.1979 0.521255 25.0488 0.359959 25.8895C0.240739 26.5106 0.0654173 27.1282 0.0408722 27.7527C-0.0117244 29.0498 -0.0117244 30.3502 0.0303529 31.6473C0.0689238 32.8791 0.184636 34.1076 0.282817 35.336C0.321388 35.8061 0.366971 36.2796 0.475671 36.736C0.661513 37.5286 0.942028 38.3041 1.10332 39.1001C1.32423 40.1776 1.66786 41.2104 2.09915 42.2158C2.53395 43.2383 2.95122 44.2677 3.45615 45.2594C4.26964 46.8618 5.26547 48.3613 6.38753 49.7716C7.13441 50.7083 7.90232 51.6314 8.70529 52.5201C9.17516 53.0382 9.7432 53.4706 10.2446 53.9647C11.3842 55.0799 12.6816 55.9995 14.0035 56.8847C14.5681 57.2622 15.1747 57.5847 15.7848 57.8901C16.9524 58.4803 18.1096 59.1048 19.3228 59.5921C20.4554 60.0484 21.6406 60.4087 22.8293 60.6969C24.2669 61.0401 25.7256 61.3214 27.1878 61.5102C28.2502 61.6474 29.3407 61.5925 30.4207 61.6131C30.9712 61.6234 31.5252 61.6577 32.0687 61.6062C33.0014 61.517 33.9306 61.4004 34.8528 61.2357C35.7926 61.071 36.7288 60.8616 37.6545 60.6215C38.5872 60.3778 39.5234 60.1239 40.4211 59.7842C41.3889 59.4205 42.3356 58.9847 43.2578 58.518C44.2536 58.0171 45.2389 57.4852 46.1822 56.8882C47.0237 56.3563 47.8127 55.7421 48.5946 55.1279C49.359 54.5274 50.1339 53.9269 50.8212 53.2475C51.6382 52.4412 52.3991 51.573 53.1214 50.6843C53.9104 49.7201 54.6783 48.7319 55.362 47.6956C55.9897 46.7417 56.5227 45.7192 57.0416 44.7001C57.4729 43.856 57.8832 42.9913 58.1917 42.0991C58.602 40.9119 58.9561 39.6972 59.2437 38.4756C59.5487 37.182 59.8152 35.8747 59.9835 34.5571C60.1378 33.3458 60.1413 32.1139 60.222 30.6762C60.1343 29.5851 60.0712 28.2811 59.9064 26.991C59.7381 25.663 59.5207 24.3317 59.2191 23.0278ZM59.5628 32.8585C59.4961 33.9634 59.2752 35.0615 59.0929 36.1595C58.9526 37.007 58.8229 37.8614 58.588 38.6849C58.311 39.6594 57.9568 40.6202 57.5816 41.5638C57.1468 42.6584 56.7295 43.7736 56.1685 44.8064C55.3761 46.2613 54.517 47.6922 53.5737 49.0579C52.904 50.0289 52.0765 50.9039 51.256 51.7652C50.432 52.6264 49.5694 53.4603 48.6507 54.222C47.7846 54.9426 46.8484 55.5911 45.8946 56.195C44.8252 56.8744 43.7206 57.5058 42.5986 58.0994C41.2977 58.7857 39.9161 59.2867 38.489 59.6641C37.2758 59.9867 36.0626 60.3195 34.8353 60.5974C34.2883 60.721 33.7132 60.7518 33.1487 60.7862C31.9565 60.8582 30.7608 60.9646 29.5651 60.9371C28.401 60.9131 27.2333 60.7896 26.0832 60.618C24.7964 60.4259 23.5235 60.1445 22.2507 59.8803C21.9211 59.8117 21.609 59.6607 21.2829 59.5612C19.1089 58.8749 17.0436 57.9519 15.1361 56.7372C13.6003 55.7627 12.0855 54.7539 10.7425 53.5014C9.18918 52.0534 7.73752 50.5299 6.51026 48.8177C5.73534 47.7334 5.01301 46.5976 4.38536 45.4241C3.69809 44.1339 3.1055 42.7923 2.54798 41.4403C2.00097 40.1261 1.62578 38.7536 1.36981 37.3536C1.17696 36.2967 0.987612 35.233 0.871899 34.1659C0.745667 33.0027 0.707096 31.8326 0.629955 30.6659C0.679045 30.6659 0.728135 30.6625 0.777225 30.6625C0.777225 29.5576 0.707096 28.4458 0.798264 27.3478C0.878912 26.3768 1.12436 25.416 1.31371 24.4552C1.46098 23.6935 1.60825 22.9283 1.7976 22.1768C1.92033 21.6861 2.11669 21.216 2.29201 20.7391C2.57603 19.9739 2.84953 19.2053 3.16862 18.4538C3.42459 17.8499 3.72614 17.2666 4.03822 16.6867C4.43445 15.9455 4.80964 15.1838 5.28651 14.4906C6.11403 13.2862 6.98714 12.1127 7.88479 10.9598C8.36166 10.3456 8.89815 9.76225 9.47671 9.23725C10.9038 7.94364 12.2608 6.55052 13.9299 5.53828C15.1957 4.76966 16.4931 4.04221 17.8185 3.3731C18.6776 2.94076 19.5998 2.62851 20.5045 2.2888C21.2899 1.99371 22.0824 1.69518 22.8924 1.47558C23.6953 1.2594 24.5229 1.12901 25.3469 0.988329C25.9956 0.878526 26.6513 0.779017 27.3105 0.730979C28.1205 0.68294 28.9375 0.686371 29.751 0.655489C30.2349 0.638333 30.7258 0.555981 31.2061 0.597157C32.4159 0.696665 33.6326 0.782449 34.8213 1.00205C36.1888 1.25597 37.5493 1.58538 38.8712 2.00743C40.1371 2.4089 41.3748 2.91674 42.574 3.47948C43.7592 4.03535 44.9339 4.6427 46.0103 5.37357C47.2972 6.24856 48.5069 7.24022 49.6921 8.2456C51.1368 9.46715 52.3991 10.874 53.5036 12.3906C54.801 14.1681 56.0212 16.0004 56.8242 18.0626C57.1503 18.9033 57.5641 19.7131 57.8376 20.5709C58.2969 22.0121 58.8334 23.4327 59.0017 24.9562C59.1244 26.0645 59.3418 27.1625 59.4856 28.2674C59.5382 28.6895 59.4891 29.1218 59.4996 29.5473C59.5242 30.6488 59.6294 31.7605 59.5628 32.8585Z" fill="white"/>
<path d="M76.9933 46.7591C76.8109 46.5223 76.8776 46.3473 77.1651 46.2341C77.3369 46.1654 77.5087 46.0728 77.656 45.9561C78.3362 45.414 78.4484 44.6694 78.4309 43.8699C78.4099 42.8679 77.4842 41.8694 76.4638 41.7973C75.6994 41.7424 74.935 41.7184 74.1706 41.6772C74.1706 41.6875 74.1706 41.6978 74.1706 41.7116C73.7077 41.7116 73.2449 41.7356 72.7855 41.7047C72.3893 41.6772 72.2701 41.842 72.2841 42.1954C72.3192 43.0395 72.3683 43.8836 72.3648 44.7243C72.3613 45.8978 72.3051 47.0713 72.2911 48.2482C72.2771 49.1987 72.3332 49.2502 73.2975 49.185C73.4167 49.1781 73.613 49.0375 73.6271 48.9414C73.6867 48.5296 73.7112 48.1076 73.7182 47.6889C73.7288 46.6458 73.7217 46.6595 74.7667 46.639C75.0928 46.6321 75.3347 46.7213 75.5206 46.9684C75.9834 47.586 76.4252 48.2174 76.9126 48.8144C77.0599 48.9928 77.3194 49.1026 77.5508 49.185C77.7121 49.2433 77.9155 49.2125 78.0943 49.1919C78.2626 49.1713 78.4239 49.1095 78.5887 49.0683C78.5361 48.9071 78.5221 48.7183 78.4274 48.5914C77.9575 47.9703 77.4666 47.3698 76.9933 46.7591ZM75.5276 45.5649C75.0297 45.6198 74.5212 45.6027 74.0198 45.5581C73.8795 45.5444 73.6481 45.3248 73.6481 45.2012C73.6516 44.4429 73.7112 43.6846 73.7568 42.8611C74.5352 42.8611 75.3207 42.8027 76.0921 42.8816C76.597 42.9331 77.0634 43.3174 77.0949 43.9694C77.1546 45.1978 76.4287 45.4689 75.5276 45.5649Z" fill="white"/>
<path d="M91.468 43.5128C91.0367 43.4956 90.7772 43.5745 90.914 44.2437C89.3606 42.9878 88.0282 43.1868 86.8815 44.5285C86.2925 45.2181 86.2784 46.7931 86.7693 47.524C87.9405 49.2671 89.3606 49.4044 91.0402 48.0696C90.9946 48.6117 91.0121 49.1539 90.7667 49.5416C90.4441 50.0563 89.9111 50.3789 89.1958 50.3686C88.6488 50.3583 88.207 50.1936 87.7687 49.9191C87.6565 49.847 87.4215 49.775 87.3689 49.8264C87.1551 50.0357 86.9867 50.2931 86.7834 50.5573C87.0113 50.7254 87.1726 50.8867 87.3654 50.9828C88.0808 51.3362 88.8417 51.5078 89.6481 51.422C90.3845 51.3431 91.0227 51.048 91.5101 50.499C92.0465 49.8916 92.2043 49.1402 92.2113 48.3612C92.2289 47.0059 92.2148 45.6471 92.2148 44.2917C92.2219 43.5196 92.2219 43.5402 91.468 43.5128ZM89.2168 47.8054C88.3262 47.7711 87.695 47.0608 87.6775 46.0554C87.6565 44.8682 88.5646 44.3878 89.2905 44.3569C90.2232 44.3191 90.8789 45.0912 90.8789 46.1309C91.0542 47.15 90.0198 47.8363 89.2168 47.8054Z" fill="white"/>
<path d="M85.1598 28.7099C84.5357 28.6962 84.4901 28.7374 84.5637 29.3619C84.5708 29.4168 84.5673 29.4717 84.5673 29.5266C84.5673 30.9609 84.5708 32.3986 84.5602 33.8329C84.5602 34.0182 84.4726 34.2 84.3989 34.4814C83.6977 33.428 83.07 32.4741 82.4318 31.527C81.8743 30.6966 81.3133 29.8697 80.7452 29.0496C80.5243 28.7339 80.0334 28.6035 79.6477 28.7305C79.2269 28.8677 79.4584 29.1869 79.4373 29.4373C79.4338 29.4648 79.4373 29.4922 79.4373 29.5197C79.4373 31.5064 79.4373 33.4932 79.4373 35.4765C79.4373 35.6 79.4373 35.7235 79.4128 35.8436C79.3391 36.1971 79.4934 36.3618 79.9703 36.4201C80.2684 36.4578 80.5208 36.2657 80.5313 35.9775C80.5419 35.6206 80.5419 35.2637 80.5313 34.9103C80.5068 33.6956 80.4752 32.4844 80.4542 31.2697C80.4507 31.129 80.5068 30.9883 80.5348 30.8442C80.5909 30.8236 80.6471 30.803 80.7032 30.779C80.8083 30.9197 80.917 31.0604 81.0152 31.2045C82.0146 32.6971 83.0244 34.176 83.9922 35.6858C84.2692 36.1147 84.5006 36.4304 85.1002 36.3824C85.4614 36.3549 85.5911 36.2931 85.5876 35.9294C85.5771 33.6682 85.5771 31.4104 85.5876 29.1491C85.5841 28.8403 85.4789 28.7168 85.1598 28.7099Z" fill="white"/>
<path d="M185.521 23.3984C185.686 23.6455 186.422 23.8651 186.696 23.666C186.833 23.5665 186.819 23.2577 186.857 23.0381C186.875 22.9455 186.861 22.846 186.861 22.7499C186.861 20.7082 186.861 18.6666 186.861 16.6215C186.861 16.0622 186.531 15.8529 186.012 16.1102C185.896 16.1686 185.795 16.371 185.795 16.5083C185.795 17.4485 185.83 18.3886 185.844 19.3288C185.854 19.9225 185.854 20.5161 185.84 21.1097C185.837 21.3087 185.777 21.5077 185.725 21.8097C185.56 21.6347 185.493 21.5832 185.448 21.518C184.96 20.7563 184.49 19.9876 183.992 19.2328C183.361 18.2754 182.712 17.3284 182.064 16.3779C181.832 16.0382 181.008 15.9215 180.721 16.1926C180.672 16.2372 180.682 16.3607 180.689 16.4431C180.721 16.848 180.794 17.2494 180.794 17.6543C180.794 18.3372 180.731 19.02 180.724 19.7028C180.71 20.8832 180.728 22.067 180.717 23.2474C180.714 23.666 180.977 23.6901 181.292 23.7038C181.629 23.7175 181.829 23.6249 181.818 23.2508C181.804 22.6881 181.825 22.1254 181.811 21.5661C181.79 20.5847 181.755 19.6033 181.734 18.622C181.731 18.4779 181.78 18.3337 181.825 18.0627C182.025 18.2891 182.144 18.3989 182.232 18.5293C182.667 19.1504 183.098 19.7715 183.519 20.3994C184.192 21.3911 184.855 22.3964 185.521 23.3984Z" fill="white"/>
<path d="M211.872 35.5999C211.195 34.7352 210.866 33.6132 209.698 32.9647C210.084 32.8034 210.361 32.7005 210.627 32.5769C211.679 32.0965 212.019 31.1255 211.676 30.1235C211.325 29.101 210.47 28.7373 209.442 28.7167C208.443 28.6961 207.447 28.7132 206.448 28.7132C206.42 28.7132 206.392 28.7132 206.364 28.7132C205.585 28.7132 205.62 28.7132 205.62 29.4373C205.613 31.6093 205.575 33.7813 205.554 35.9499C205.554 36.0357 205.603 36.1833 205.655 36.197C205.939 36.2656 206.234 36.3342 206.521 36.3205C206.595 36.3171 206.707 36.0151 206.711 35.847C206.732 35.0132 206.707 34.1759 206.732 33.3421C206.735 33.198 206.847 32.975 206.963 32.9338C207.822 32.625 208.979 33.0333 209.495 33.8156C209.986 34.5568 210.452 35.3151 210.936 36.0632C211.115 36.3411 211.827 36.547 212.033 36.3857C212.44 36.0666 211.977 35.8813 211.9 35.6342C211.893 35.6239 211.879 35.6102 211.872 35.5999ZM207.405 32.1652C206.756 32.172 206.69 32.0759 206.711 31.4549C206.728 30.9916 206.735 30.525 206.707 30.0618C206.686 29.7083 206.854 29.6123 207.174 29.6191C207.538 29.6294 207.899 29.6225 208.264 29.6225C208.264 29.6088 208.268 29.5985 208.268 29.5848C208.762 29.6225 209.274 29.6054 209.751 29.7152C210.456 29.8765 210.806 30.3843 210.75 30.9951C210.704 31.4995 210.101 32.0416 209.488 32.0828C208.797 32.1309 208.099 32.1583 207.405 32.1652Z" fill="white"/>
<path d="M97.8636 34.0287C98.3651 34.7184 98.7999 35.4527 99.2802 36.1561C99.3469 36.2556 99.5047 36.3414 99.6309 36.3551C99.8939 36.386 100.16 36.3654 100.465 36.3654C100.465 36.259 100.486 36.1938 100.462 36.1527C100.287 35.8644 100.118 35.5762 99.9219 35.3017C99.445 34.6292 98.9787 33.9463 98.4597 33.3081C98.1687 32.9512 98.1582 32.8346 98.6175 32.6664C99.7466 32.2547 100.118 31.6233 99.971 30.4704C99.8272 29.3449 99.1996 29.0155 98.2949 28.8199C97.7584 28.7032 97.1729 28.8096 96.6118 28.7959C95.9842 28.7822 95.36 28.7307 94.7324 28.7204C93.9049 28.7067 93.9049 28.717 93.9084 29.5268C93.9084 31.6645 93.9084 33.8022 93.9084 35.9399C93.9084 36.3414 94.0381 36.4478 94.5255 36.4478C94.8586 36.4478 95.0164 36.3037 95.0094 35.9434C94.9884 35.1095 95.0024 34.2723 95.0024 33.4351C95.0024 32.9512 95.1707 32.8311 95.6651 32.9478C95.7843 32.9753 95.9106 32.9753 96.0333 32.989C96.3383 33.0199 96.703 32.9547 96.9309 33.1022C97.2886 33.3321 97.6077 33.6753 97.8636 34.0287ZM95.5669 32.1655C95.048 32.1758 94.8832 31.9115 94.9533 31.4174C95.0094 31.0194 94.9954 30.6042 94.9498 30.2027C94.9042 29.8013 95.0164 29.6228 95.4302 29.6228C95.7948 29.6194 96.1595 29.6228 96.5207 29.6228C96.5207 29.6091 96.5242 29.5988 96.5242 29.5851C97.0466 29.6263 97.5761 29.6434 98.0951 29.7121C98.4878 29.7635 98.9121 30.2096 98.9506 30.5424C99.0278 31.1978 98.8525 31.6508 98.3826 31.8601C98.1021 31.9836 97.7865 32.0591 97.4814 32.0865C96.8468 32.1346 96.2051 32.1552 95.5669 32.1655Z" fill="white"/>
<path d="M131.925 21.0168C131.929 21.6962 131.866 22.3756 131.848 23.055C131.834 23.731 131.845 23.7138 132.546 23.7035C132.876 23.7001 132.897 23.5114 132.893 23.2849C132.883 22.3962 132.868 21.5075 132.858 20.6222C132.854 20.3648 132.953 20.2139 133.254 20.2413C133.475 20.2585 133.707 20.2688 133.927 20.2413C134.688 20.1418 135.225 20.5261 135.639 21.0545C136.052 21.583 136.392 22.1731 136.733 22.753C137.052 23.2918 137.297 23.9094 138.135 23.7001C138.23 23.6761 138.384 23.652 138.402 23.5937C138.43 23.5011 138.409 23.3535 138.346 23.2746C137.616 22.3653 137.185 21.2433 136.256 20.4746C136.049 20.3031 136.094 20.1452 136.375 20.0766C136.547 20.0354 136.743 20.0114 136.873 19.9119C137.192 19.6614 137.564 19.4212 137.753 19.0884C138.055 18.5599 138.111 17.9869 137.844 17.3658C137.479 16.5183 136.403 15.9556 135.477 16.0585C134.471 16.1717 133.44 16.1031 132.42 16.1168C132.209 16.1203 131.999 16.1306 131.774 16.134C131.81 16.3673 131.841 16.4977 131.845 16.6281C131.876 18.0933 131.915 19.555 131.925 21.0168ZM132.949 17.1257C132.967 17.033 133.117 16.8958 133.209 16.8958C133.987 16.8992 134.762 16.9198 135.537 16.9575C136.136 16.985 136.62 17.2011 136.869 17.7982C137.08 18.2992 136.778 19.0335 136.252 19.2428C135.39 19.5893 134.499 19.5344 133.605 19.459C133.387 19.4418 133.04 19.4693 132.984 19.3629C132.861 19.1296 132.886 18.8207 132.854 18.5428C132.844 18.4467 132.854 18.3506 132.854 18.2546C132.84 18.2546 132.83 18.2511 132.816 18.2511C132.858 17.8737 132.883 17.4962 132.949 17.1257Z" fill="white"/>
<path d="M171.159 28.8061C170.675 28.7477 170.177 28.7889 169.686 28.7752C169.132 28.7615 168.578 28.7237 168.024 28.7169C167.382 28.7066 167.358 28.7443 167.425 29.3722C167.435 29.4683 167.428 29.5644 167.428 29.6605C167.428 30.6212 167.428 31.5786 167.428 32.5394C167.425 32.5394 167.425 32.5394 167.421 32.5394C167.421 33.6511 167.449 34.7594 167.404 35.8677C167.389 36.2315 167.453 36.3653 167.814 36.3653C168.852 36.3619 169.89 36.3893 170.927 36.355C171.646 36.3344 172.281 36.0668 172.824 35.5795C173.382 35.0785 173.659 34.4232 173.803 33.7506C174.048 32.5977 174.024 31.4345 173.438 30.3536C172.954 29.4649 172.183 28.933 171.159 28.8061ZM172.32 34.6771C171.965 35.2776 171.369 35.48 170.724 35.5315C170.139 35.5761 169.546 35.5246 168.96 35.5452C168.547 35.5589 168.417 35.3839 168.434 35.0065C168.455 34.5433 168.438 34.0766 168.438 33.6099C168.424 33.6099 168.413 33.6099 168.399 33.6065C168.438 32.982 168.501 32.3541 168.512 31.7261C168.522 31.2492 168.487 30.7688 168.434 30.2953C168.382 29.832 168.55 29.6056 169.03 29.6193C169.725 29.6364 170.419 29.6845 171.113 29.6948C171.706 29.7051 172.12 30.0619 172.351 30.4874C173.119 31.8702 173.14 33.2874 172.32 34.6771Z" fill="white"/>
<path d="M146.354 35.8675C146.985 35.5758 147.385 35.2052 147.241 34.464C147.21 34.3062 147.238 34.1346 147.238 33.9734C147.238 33.6302 147.22 33.2871 147.241 32.9474C147.262 32.6351 147.08 32.5425 146.824 32.5047C146.715 32.4876 146.6 32.4945 146.487 32.5013C146.032 32.5253 145.576 32.5631 145.12 32.5802C144.825 32.5905 144.527 32.5871 144.233 32.5734C143.928 32.5596 143.784 32.7243 143.886 32.9714C143.956 33.1464 144.166 33.3729 144.335 33.3866C144.773 33.4278 145.218 33.3557 145.66 33.3523C145.902 33.3489 146.126 33.4312 146.137 33.7263C146.147 34.0145 146.165 34.3028 146.137 34.5876C146.126 34.6974 146.028 34.814 145.94 34.8964C145.274 35.5209 144.443 35.6822 143.567 35.6204C142.848 35.5689 142.182 35.3047 141.712 34.766C141.196 34.1758 141.024 33.4243 141.024 32.666C141.024 32.2199 141.189 31.7739 141.256 31.3244C141.333 30.7959 141.677 30.4459 142.052 30.1097C142.69 29.5401 143.479 29.444 144.268 29.5607C145.011 29.667 145.716 29.9347 145.909 30.8062C145.969 31.0773 146.358 31.2283 146.659 31.0876C146.884 30.9847 147.045 30.8303 146.94 30.5043C146.631 29.5607 145.912 29.0563 145.008 28.8195C144.499 28.6857 143.935 28.7234 143.395 28.7234C142.234 28.7234 141.33 29.293 140.712 30.1749C140.001 31.1871 139.804 32.3709 140.099 33.5753C140.541 35.3905 141.873 36.3787 143.735 36.4542C144.671 36.4885 145.52 36.2518 146.354 35.8675Z" fill="white"/>
<path d="M206.08 23.7241C206.872 23.6864 207.682 23.7344 208.45 23.5869C208.958 23.4874 209.488 23.1888 209.867 22.8354C210.378 22.3584 210.673 21.7168 210.799 20.9996C211.038 19.6271 210.978 18.3129 210.063 17.1703C209.551 16.5286 208.864 16.1512 208.005 16.134C206.918 16.11 205.831 16.0791 204.744 16.0517C204.4 16.0414 204.323 16.2369 204.365 16.5252C204.396 16.7516 204.446 16.9781 204.442 17.2046C204.421 19.2119 204.393 21.2192 204.358 23.2266C204.351 23.5491 204.47 23.7104 204.817 23.7001C205.238 23.6898 205.659 23.6967 206.076 23.6967C206.076 23.707 206.076 23.7138 206.08 23.7241ZM205.445 22.3859C205.469 21.5658 205.452 20.7423 205.452 19.9188C205.452 19.0952 205.466 18.2752 205.445 17.4516C205.438 17.0673 205.568 16.8992 205.974 16.9472C206.655 17.0296 207.335 16.8683 208.026 17.009C209.046 17.2183 209.6 17.8462 209.716 18.7864C209.81 19.5585 209.874 20.382 209.702 21.1266C209.449 22.2178 208.769 22.7839 207.566 22.8663C207.023 22.904 206.472 22.8457 205.929 22.88C205.526 22.9075 205.434 22.7531 205.445 22.3859Z" fill="white"/>
<path d="M104.154 23.6249C104.894 23.8033 105.606 23.769 106.36 23.6455C107.107 23.5254 107.703 23.1823 108.299 22.8082C108.586 22.6298 108.618 22.3107 108.597 21.9847C108.562 21.4563 108.523 20.921 108.562 20.396C108.597 19.9465 108.562 19.8401 108.099 19.8333C107.692 19.8264 107.285 19.8333 106.879 19.8333C106.447 19.8333 106.009 19.8024 105.581 19.8504C105.434 19.8676 105.185 20.1078 105.203 20.2107C105.234 20.3994 105.41 20.6877 105.56 20.7117C105.953 20.7735 106.37 20.7494 106.767 20.6877C107.1 20.6328 107.303 20.7392 107.447 21.0034C107.731 21.5146 107.51 22.1837 106.984 22.4754C106.307 22.8529 105.578 23.1033 104.806 22.9421C104.105 22.7945 103.411 22.5852 102.959 21.9264C102.408 21.12 102.324 20.2279 102.415 19.322C102.485 18.6392 102.734 17.9289 103.274 17.5034C103.982 16.9475 104.838 16.5907 105.809 16.8858C106.475 17.0882 107.068 17.3696 107.282 18.1073C107.405 18.5294 107.555 18.5843 108.015 18.4333C108.365 18.3166 108.358 17.9975 108.264 17.7882C107.889 16.9475 107.285 16.2887 106.321 16.1515C105.662 16.0588 104.971 16.0931 104.301 16.1446C103.418 16.2132 102.671 16.6318 102.177 17.3284C101.258 18.6186 101.093 20.046 101.644 21.5284C102.078 22.6813 102.952 23.3332 104.154 23.6249Z" fill="white"/>
<path d="M119.267 43.2728C119.782 43.6777 119.761 43.6605 120.259 43.2247C120.578 42.9468 120.582 42.638 120.203 42.3909C119.341 41.8282 118.436 41.437 117.345 41.5331C116.346 41.6223 115.473 41.9551 114.74 42.6071C113.955 43.3071 113.629 44.2301 113.601 45.2424C113.587 45.7227 113.59 46.2443 113.765 46.6766C114.281 47.96 115.221 48.8315 116.637 49.1644C118.029 49.4903 119.207 49.0614 120.263 48.2036C120.421 48.0766 120.487 47.8708 120.259 47.682C120.059 47.5139 119.895 47.3046 119.695 47.0987C119.551 47.1879 119.421 47.2428 119.327 47.332C118.632 48.0046 117.787 48.1418 116.886 47.9222C115.045 47.4693 114.579 45.6164 115.2 44.2267C115.862 42.734 117.973 42.2571 119.267 43.2728Z" fill="white"/>
<path d="M135.604 36.4478C136.508 36.3448 137.318 36.0223 137.893 35.3257C138.195 34.962 138.395 34.5091 138.605 34.0767C139.201 32.8517 138.97 31.6268 138.377 30.5047C137.753 29.3175 136.68 28.6998 135.021 28.6964C134.481 28.6072 133.735 28.8096 133.121 29.2626C131.547 30.4258 131.164 32.2067 131.704 33.9189C132.237 35.6243 133.759 36.6537 135.604 36.4478ZM132.588 32.4297C132.637 31.9321 132.658 31.4518 132.844 30.9679C133.342 29.6606 135.305 29.091 136.557 29.8974C137.546 30.5356 137.767 31.4929 137.83 32.2959C137.83 33.4934 137.62 34.3753 136.859 35.0375C135.856 35.9091 134.05 35.8507 133.205 34.7252C132.679 34.0287 132.5 33.2841 132.588 32.4297Z" fill="white"/>
<path d="M124.362 31.7847C124.106 30.3538 123.32 29.3347 121.914 28.8612C121.448 28.7033 120.904 28.7308 120.396 28.7239C119.341 28.7102 118.503 29.1666 117.875 29.9798C117.412 30.5803 117.174 31.2425 117.089 32.0146C116.974 33.0543 117.118 34.0185 117.675 34.8729C118.352 35.9091 119.365 36.4719 120.673 36.4993C121.15 36.4273 121.665 36.4444 122.093 36.2626C123.924 35.4837 124.691 33.6307 124.362 31.7847ZM119.902 35.5248C118.895 35.2092 118.169 34.2415 118.134 33.1847C118.117 32.6631 118.047 32.121 118.152 31.62C118.324 30.7965 118.762 30.0965 119.621 29.7671C119.958 29.6367 120.319 29.5612 120.67 29.4617C121.981 29.5372 122.903 30.2612 123.184 31.493C123.268 31.8705 123.436 32.2513 123.415 32.6254C123.362 33.5827 123.121 34.4989 122.293 35.1234C121.581 35.6621 120.743 35.789 119.902 35.5248Z" fill="white"/>
<path d="M86.4642 17.6337C85.7664 16.5906 84.7846 15.9661 83.4276 15.973C82.9332 16.0725 82.4037 16.0965 81.9444 16.2852C80.7242 16.7828 80.0299 17.7264 79.7809 18.9891C79.4899 20.4508 79.844 21.7445 80.8784 22.8356C81.4535 23.4395 82.2319 23.6866 83.0454 23.7724C83.7081 23.841 84.3779 23.7586 84.9775 23.467C86.1486 22.8974 86.8359 21.9744 87.0358 20.6945C87.2006 19.6033 87.0813 18.5533 86.4642 17.6337ZM85.7103 21.5283C85.1247 22.6092 84.1429 23.117 82.8491 22.9523C82.004 22.8425 81.0678 21.916 80.8714 21.0033C80.7978 20.6636 80.7873 20.3067 80.7347 19.871C80.8013 19.4695 80.8188 18.9719 80.9661 18.519C81.187 17.8499 81.6428 17.397 82.3371 17.071C83.3365 16.6043 84.192 16.8274 84.995 17.3798C85.5771 17.7813 85.8821 18.4126 85.9523 19.1023C86.0399 19.9224 86.1241 20.77 85.7103 21.5283Z" fill="white"/>
<path d="M106.002 36.3585C106.833 36.1561 107.577 35.758 108.025 35.0409C108.478 34.3169 108.87 33.538 108.688 32.6252C108.734 32.6184 108.783 32.6081 108.828 32.6012C108.678 31.9973 108.597 31.3591 108.355 30.7895C107.934 29.7978 107.156 29.1047 106.093 28.8165C105.613 28.6861 105.076 28.7375 104.565 28.7204C103.975 28.6998 103.467 28.9606 103.001 29.2557C102.352 29.6674 101.917 30.2508 101.647 30.9782C101.275 31.9733 101.293 32.9615 101.57 33.9566C101.763 34.6566 102.163 35.2571 102.745 35.7031C103.709 36.4374 104.81 36.6468 106.002 36.3585ZM104.14 35.4835C102.955 34.9963 102.45 34.0836 102.408 32.886C102.391 32.4262 102.401 31.9527 102.503 31.5101C102.699 30.6659 103.204 30.0414 104.06 29.7052C105.143 29.2831 106.339 29.5954 106.963 30.364C107.457 30.9782 107.762 31.7125 107.703 32.536C107.731 33.3252 107.517 34.0424 107.04 34.6875C106.437 35.5041 105.09 35.8713 104.14 35.4835Z" fill="white"/>
<path d="M155.113 30.1203C154.349 29.0532 152.603 28.4252 151.291 28.7409C150.695 28.885 150.159 29.1149 149.706 29.5439C149.145 30.0688 148.753 30.6556 148.57 31.4174C148.209 32.9169 148.43 34.2585 149.51 35.408C150.366 36.3207 151.481 36.5678 152.694 36.4374C153.374 36.3653 153.991 36.0977 154.503 35.6379C155.39 34.8418 155.843 33.8708 155.741 32.7178C155.748 31.7193 155.485 30.6419 155.113 30.1203ZM153.767 35.0374C153.104 35.6242 151.856 35.8438 151.039 35.3874C149.752 34.6668 149.173 33.3938 149.493 31.9526C149.608 31.4242 149.731 30.9301 150.075 30.4703C150.874 29.3963 152.596 29.2659 153.63 29.9728C154.296 30.4291 154.777 31.5375 154.728 32.5909C154.752 33.5345 154.507 34.382 153.767 35.0374Z" fill="white"/>
<path d="M115.557 23.6727C116.343 23.8889 117.142 23.8237 117.875 23.556C119 23.1409 119.702 22.3311 120.042 21.1575C120.371 20.0252 120.291 18.9203 119.779 17.939C119.13 16.6934 118.019 15.9556 116.476 15.9865C116.044 16.062 115.599 16.0895 115.185 16.2199C113.99 16.5904 113.313 17.4895 113.018 18.6012C112.752 19.61 112.713 20.6394 113.201 21.6654C113.699 22.7154 114.449 23.3673 115.557 23.6727ZM114.025 18.7282C114.281 17.3042 116.321 16.3571 117.479 17.0091C118.012 17.311 118.457 17.6473 118.765 18.1311C118.962 18.4365 119.064 18.8208 119.134 19.1845C119.316 20.1247 119.165 21.0237 118.639 21.8404C118.148 22.609 117.408 22.9521 116.497 22.9659C115.203 23.0173 113.983 21.8438 113.937 20.6051C113.913 19.9806 113.913 19.3424 114.025 18.7282Z" fill="white"/>
<path d="M161.088 32.169C160.292 31.8979 159.419 31.9048 158.669 31.469C158.003 31.0847 157.904 30.5254 158.441 29.9764C158.921 29.4822 159.538 29.5337 160.149 29.5371C160.815 29.5406 161.407 29.8803 161.59 30.4842C161.734 30.968 162.032 31.0469 162.459 31.0195C162.74 31.0023 162.817 30.841 162.757 30.6111C162.579 29.9214 162.249 29.3621 161.541 29.0293C161.008 28.7788 160.478 28.6587 159.837 28.7342C159.132 28.5523 158.462 28.8543 157.869 29.242C157.21 29.6744 156.912 30.371 157.102 31.1293C157.273 31.8121 157.792 32.2822 158.494 32.4984C159.328 32.7557 160.166 32.9959 161.004 33.2293C161.523 33.3734 161.884 33.7062 161.937 34.2038C161.982 34.6464 161.677 35.0101 161.313 35.2881C160.839 35.6449 160.289 35.6518 159.731 35.6209C158.911 35.5763 158.21 35.0067 157.996 34.2518C157.957 34.1111 157.901 33.9636 157.806 33.8503C157.603 33.6101 157.329 33.5724 157.066 33.7337C156.937 33.8126 156.74 34.0116 156.768 34.0905C157.091 34.9792 157.466 35.8611 158.49 36.1939C159.696 36.5851 160.892 36.6297 162.021 35.9229C162.684 35.5077 163.157 34.5091 162.908 33.7062C162.638 32.8106 161.909 32.4469 161.088 32.169Z" fill="white"/>
<path d="M142.161 23.6764C143.619 23.9818 144.903 23.6593 145.881 22.5029C146.147 22.1872 146.442 21.8338 146.54 21.4495C146.691 20.849 146.817 20.228 146.744 19.5863C146.628 18.5912 146.389 17.6922 145.569 16.9785C144.847 16.3471 144.079 15.9731 143.076 16.052C141.757 15.9525 140.698 16.5015 140.032 17.5961C139.212 18.9446 139.145 20.3995 139.853 21.8373C140.32 22.798 141.084 23.45 142.161 23.6764ZM140.586 18.8108C140.716 17.8192 141.414 17.301 142.308 16.951C143.56 16.4569 145.117 17.3182 145.509 18.5535C145.73 19.25 145.877 20.0118 145.6 20.7873C145.485 21.1098 145.411 21.4358 145.253 21.7549C144.945 22.376 144.349 22.6024 143.802 22.8907C143.598 22.997 143.318 22.9559 143.069 22.9833C141.943 23.1446 140.463 21.7892 140.509 20.6534C140.534 20.0358 140.506 19.4182 140.586 18.8108Z" fill="white"/>
<path d="M167.789 21.3602C167.607 20.2622 166.839 19.7681 165.826 19.497C165.051 19.2911 164.272 19.075 163.515 18.8142C163.024 18.6461 162.859 18.1348 163.013 17.6819C163.224 17.0642 163.813 16.8995 164.307 16.8172C165.149 16.6765 166.211 16.9956 166.527 18.0696C166.6 18.3201 167.161 18.5122 167.407 18.3235C167.54 18.2206 167.614 17.8912 167.551 17.723C167.431 17.4039 167.228 17.0951 167 16.8343C166.408 16.1652 165.608 16.0108 164.665 16.0485C163.799 15.9833 163.006 16.2167 162.316 16.9304C161.909 17.349 161.846 18.6358 162.165 18.9926C162.54 19.4112 162.968 19.7612 163.543 19.9157C164.335 20.125 165.128 20.3343 165.91 20.5813C166.758 20.8524 167.007 21.6965 166.457 22.3073C165.64 23.2132 164.262 23.1411 163.427 22.4686C163.027 22.1494 162.835 21.7514 162.708 21.2882C162.589 20.8421 162.203 20.9759 161.912 20.9965C161.625 21.0171 161.569 21.2779 161.635 21.4975C161.825 22.1426 162.105 22.774 162.666 23.1651C163.574 23.7965 164.605 23.8891 165.699 23.697C166.415 23.5735 166.958 23.2303 167.389 22.6985C167.701 22.3142 167.873 21.8715 167.789 21.3602Z" fill="white"/>
<path d="M173.768 23.3365C174.578 23.7826 175.454 23.8855 176.366 23.6968C177.611 23.436 178.54 22.7841 178.947 21.5762C179.129 21.0341 179.189 20.4542 179.304 19.8915C179.311 18.5052 178.82 17.6199 178.2 17.0297C177.123 16.0038 175.777 15.7876 174.364 16.2165C172.705 16.7175 172.095 18.0866 171.895 19.4763C171.804 20.1008 171.923 20.7012 172.134 21.3017C172.435 22.1767 172.94 22.8836 173.768 23.3365ZM173.01 19.1263C173.147 18.5086 173.319 17.9116 173.845 17.4621C175.177 16.316 177.358 16.7964 177.874 18.3165C178.049 18.8312 178.161 19.3665 178.301 19.8915C178.266 19.9017 178.231 19.9086 178.2 19.9189C178.221 20.811 178.035 21.6311 177.341 22.2762C176.429 23.1238 175.005 23.2645 173.999 22.4169C172.954 21.5419 172.726 20.3924 173.01 19.1263Z" fill="white"/>
<path d="M94.4834 23.1206C94.4764 23.5564 94.6131 23.7039 95.1075 23.7005C95.893 23.6936 96.6784 23.7005 97.4638 23.7005C98.2493 23.7005 99.0347 23.6902 99.8202 23.7074C100.125 23.7142 100.378 23.6593 100.371 23.3231C100.364 22.9971 100.178 22.8598 99.7991 22.8667C98.5508 22.8941 97.3026 22.8736 96.0543 22.8804C95.7422 22.8804 95.5634 22.7878 95.5634 22.4446C95.5599 21.8064 95.5283 21.1716 95.5283 20.5334C95.5283 20.4373 95.616 20.2932 95.7036 20.2589C95.8649 20.1937 96.0507 20.1662 96.2261 20.1662C97.3341 20.1594 98.4421 20.1559 99.5502 20.1662C99.7991 20.1697 100.003 20.101 99.9464 19.8471C99.8973 19.6104 99.8798 19.2741 99.4906 19.2775C98.3334 19.2947 97.1763 19.3153 96.0157 19.3393C95.7176 19.3461 95.5844 19.2089 95.5879 18.9207C95.5949 18.4128 95.5949 17.905 95.5879 17.4006C95.5809 17.0918 95.7141 16.9476 96.0332 16.9545C96.5522 16.9648 97.0711 16.9579 97.5901 16.9579C98.3054 16.9579 99.0207 16.9545 99.736 16.9579C100.066 16.9614 100.157 16.7315 100.209 16.4878C100.269 16.2202 100.122 16.1173 99.8552 16.1241C99.4169 16.1344 98.9786 16.1413 98.5438 16.131C97.3587 16.1104 96.177 16.0692 94.9918 16.0624C94.7884 16.0624 94.4623 16.0109 94.4693 16.3952C94.4834 17.1913 94.4939 17.9873 94.4974 18.7834C94.4974 20.2246 94.5114 21.6726 94.4834 23.1206Z" fill="white"/>
<path d="M203.713 35.5386C202.436 35.5489 201.16 35.5352 199.887 35.5489C199.526 35.5523 199.386 35.4117 199.396 35.0617C199.41 34.4852 199.4 33.9122 199.4 33.3357C199.4 32.9514 199.6 32.8141 200.003 32.8279C201.128 32.869 202.258 32.8999 203.383 32.8965C203.513 32.8965 203.762 32.6323 203.744 32.5328C203.699 32.3097 203.723 31.9597 203.313 31.9666C202.152 31.9838 200.992 31.9906 199.828 32.0078C199.53 32.0112 199.393 31.8842 199.396 31.5892C199.403 31.095 199.396 30.6009 199.4 30.1102C199.4 29.7637 199.554 29.6093 199.936 29.6161C201.143 29.6367 202.349 29.6196 203.551 29.6264C203.828 29.6264 204 29.5578 204.028 29.249C204.063 28.875 203.888 28.7103 203.53 28.7206C202.847 28.7377 202.166 28.796 201.483 28.7926C200.592 28.7892 199.698 28.7549 198.807 28.7103C198.464 28.6931 198.376 28.8201 198.379 29.1392C198.397 30.2612 198.386 31.3867 198.386 32.5122C198.386 33.6651 198.397 34.8146 198.379 35.9675C198.376 36.2661 198.474 36.3896 198.779 36.3896C200.42 36.3793 202.058 36.369 203.699 36.3759C204.007 36.3759 204.186 36.2764 204.19 35.9675C204.19 35.6553 204.032 35.5352 203.713 35.5386Z" fill="white"/>
<path d="M180.654 35.5419C179.364 35.5384 178.077 35.5281 176.787 35.5487C176.425 35.5556 176.32 35.4321 176.338 35.0992C176.362 34.6497 176.345 34.1968 176.345 33.7438C176.345 32.8963 176.345 32.9032 177.169 32.91C178.161 32.9169 179.153 32.9066 180.146 32.9135C180.437 32.9135 180.689 32.8586 180.707 32.5257C180.724 32.1929 180.5 32.0076 180.118 32.0076C179.01 32.0076 177.905 31.9939 176.797 32.0145C176.439 32.0213 176.334 31.8806 176.338 31.5649C176.348 31.0434 176.352 30.5218 176.334 30.0037C176.324 29.7223 176.418 29.6091 176.72 29.6194C177.295 29.6365 177.87 29.6228 178.442 29.6262C179.115 29.6297 179.788 29.5988 180.454 29.6606C180.798 29.6914 180.914 29.5713 180.959 29.3071C181.022 28.9503 180.851 28.7169 180.531 28.7238C180.23 28.7307 179.925 28.7993 179.623 28.7959C178.354 28.7787 177.088 28.7581 175.819 28.7101C175.43 28.6964 175.314 28.8096 175.317 29.1939C175.335 31.3179 175.328 33.4419 175.328 35.5659C175.328 35.8267 175.328 36.0909 175.328 36.3688C177.179 36.3688 178.985 36.3757 180.791 36.3551C180.907 36.3551 181.089 36.1595 181.121 36.0291C181.208 35.6928 181.043 35.5419 180.654 35.5419Z" fill="white"/>
<path d="M217.731 23.7042C218.089 23.7076 218.138 23.4537 218.124 23.2615C218.11 23.0557 218.04 22.8395 217.658 22.8498C216.357 22.8944 215.053 22.8738 213.748 22.8669C213.457 22.8669 213.285 22.7057 213.282 22.4106C213.275 21.7929 213.268 21.1719 213.285 20.5542C213.289 20.4478 213.376 20.2934 213.468 20.2523C213.622 20.1836 213.811 20.1596 213.987 20.1596C215.063 20.163 216.143 20.1802 217.219 20.1802C217.44 20.1802 217.759 20.1871 217.71 19.8542C217.675 19.6106 217.651 19.3052 217.205 19.3224C216.073 19.3567 214.937 19.3361 213.801 19.3327C213.443 19.3327 213.278 19.1062 213.31 18.7562C213.345 18.3787 213.373 17.9944 213.345 17.617C213.303 17.0851 213.401 16.9513 213.955 16.9513C215.119 16.9513 216.28 16.941 217.444 16.9582C217.791 16.9616 217.959 16.7592 217.956 16.5018C217.952 16.3543 217.728 16.1415 217.556 16.0866C217.367 16.0249 217.128 16.1244 216.911 16.1244C215.845 16.1278 214.783 16.1209 213.717 16.1175C213.243 16.1175 212.77 16.1175 212.261 16.1175C212.261 16.7111 212.251 17.2327 212.265 17.7542C212.275 18.2724 212.328 18.7905 212.328 19.3086C212.328 19.8782 212.279 20.4444 212.268 21.014C212.254 21.7346 212.279 22.4552 212.254 23.1723C212.24 23.5532 212.419 23.6904 212.766 23.6904C214.425 23.6973 216.08 23.687 217.731 23.7042Z" fill="white"/>
<path d="M154.812 16.8754C154.812 17.8739 154.812 18.8759 154.812 19.8744C154.812 20.9415 154.822 22.0121 154.808 23.0793C154.798 23.6248 154.826 23.6935 155.345 23.6935C156.954 23.7003 158.567 23.6935 160.177 23.6969C160.468 23.6969 160.615 23.5871 160.618 23.2886C160.622 22.9866 160.506 22.8631 160.173 22.8665C158.925 22.8837 157.68 22.8734 156.432 22.8734C155.934 22.8734 155.822 22.7636 155.818 22.2798C155.815 21.7273 155.832 21.1749 155.815 20.6224C155.801 20.2072 156.06 20.1592 156.383 20.1592C157.533 20.1592 158.679 20.1523 159.83 20.1626C160.163 20.1661 160.247 20.0219 160.198 19.7371C160.152 19.4592 160.022 19.3254 159.7 19.3288C158.606 19.346 157.515 19.3357 156.421 19.3357C155.948 19.3357 155.829 19.2224 155.822 18.7626C155.815 18.32 155.815 17.8774 155.822 17.4347C155.825 17.1225 155.941 16.9372 156.32 16.944C157.526 16.9612 158.729 16.9612 159.935 16.9406C160.107 16.9372 160.348 16.8274 160.429 16.6936C160.647 16.3264 160.338 16.021 159.83 16.045C159.135 16.0793 158.437 16.1239 157.743 16.1239C156.923 16.1239 156.102 16.0725 155.285 16.0519C154.896 16.0416 154.759 16.2063 154.812 16.5872C154.819 16.6798 154.812 16.7793 154.812 16.8754Z" fill="white"/>
<path d="M219.572 29.1256C219.569 28.9883 219.411 28.7447 219.313 28.7413C219.029 28.7241 218.685 28.58 218.468 28.906C218.433 28.9609 218.447 29.0535 218.45 29.129C218.457 29.2354 218.489 29.3417 218.489 29.4481C218.492 30.8721 218.496 32.2996 218.485 33.7236C218.482 33.9912 218.478 34.2829 218.377 34.5231C218.023 35.3466 216.616 35.8132 215.743 35.4804C214.877 35.1544 214.513 34.5608 214.534 33.679C214.551 32.9652 214.537 32.2549 214.537 31.5412C214.537 30.7589 214.523 29.98 214.544 29.1976C214.555 28.7721 214.327 28.7035 213.966 28.7104C213.629 28.7172 213.426 28.7619 213.436 29.1805C213.485 30.8584 213.531 32.5398 213.517 34.2211C213.51 34.976 214.33 35.9745 214.979 36.2181C215.891 36.5613 216.823 36.551 217.728 36.3314C218.18 36.2216 218.615 35.8613 218.955 35.5181C219.506 34.9657 219.558 34.2005 219.576 33.4765C219.611 32.025 219.593 30.577 219.572 29.1256Z" fill="white"/>
<path d="M81.6043 43.585C80.5384 43.9007 79.6232 44.9747 79.6898 46.3507C79.6197 47.1262 79.9002 47.8502 80.5138 48.3786C81.8883 49.5624 83.2278 49.559 84.7461 48.5399C84.8618 48.4609 84.9109 48.1212 84.8373 47.9703C84.697 47.6683 84.2973 47.5791 84.0869 47.7301C83.5644 48.1041 83.0139 48.3683 82.3372 48.207C81.8077 48.0835 81.3729 47.809 81.0468 47.3972C80.8224 47.1159 80.9661 46.8208 81.2993 46.8139C81.72 46.8002 82.1443 46.8105 82.5686 46.8208C83.361 46.8414 84.1535 46.8825 84.946 46.8791C85.1002 46.8791 85.3702 46.7281 85.3843 46.6183C85.4859 45.9389 85.5175 45.2492 85.0792 44.6487C84.2832 43.5473 83.0174 43.1698 81.6043 43.585ZM83.9045 45.884C82.9333 45.9115 81.962 45.8977 80.9696 45.8977C80.9451 45.2698 81.3554 44.7139 81.976 44.5561C82.4844 44.4257 83.049 44.3296 83.5153 44.6762C83.7748 44.8683 83.9642 45.16 84.15 45.4276C84.3323 45.6919 84.1149 45.8772 83.9045 45.884Z" fill="white"/>
<path d="M125.06 43.4988C124.106 43.3925 123.317 43.5332 122.51 44.0959C121.392 44.8748 121.241 46.9336 121.921 47.9424C122.514 48.8208 123.948 49.5449 125.168 49.188C125.6 49.061 126.024 48.8826 126.417 48.6733C126.641 48.5532 126.851 48.2958 126.634 48.0351C126.473 47.8429 126.304 47.4517 125.947 47.7022C125.529 47.9905 125.112 48.1723 124.593 48.2375C124.06 48.3061 122.987 47.8223 122.773 47.2356C122.693 47.0125 122.738 46.7792 123.085 46.8135C123.317 46.8341 123.548 46.8856 123.783 46.8924C124.446 46.9027 125.105 46.8959 125.768 46.8959C126.118 46.8959 126.469 46.9096 126.816 46.889C126.95 46.8787 127.188 46.7895 127.191 46.7243C127.219 46.2199 127.367 45.6366 127.167 45.2214C126.76 44.3704 126.189 43.6258 125.06 43.4988ZM125.561 45.9042C125.154 45.9042 124.751 45.9042 124.344 45.9042C123.923 45.9042 123.503 45.9145 123.085 45.9008C122.745 45.8871 122.616 45.6572 122.773 45.3792C123.366 44.3189 125.035 44.1405 125.722 44.988C125.841 45.1356 125.908 45.338 125.95 45.5268C126.017 45.8184 125.817 45.9042 125.561 45.9042Z" fill="white"/>
<path d="M115.996 31.6575C116.273 30.882 116.101 30.1683 115.568 29.5403C115.052 28.933 114.344 28.734 113.58 28.7203C113.082 28.7134 112.584 28.7889 112.082 28.7889C111.612 28.7889 111.139 28.7477 110.669 28.71C110.262 28.6791 110.133 28.8575 110.136 29.2384C110.15 30.7962 110.143 32.354 110.143 33.9153C110.143 34.5604 110.143 35.202 110.143 35.8471C110.143 36.3138 110.234 36.3859 110.795 36.3927C111.171 36.3996 111.248 36.1868 111.241 35.8712C111.23 35.1712 111.237 34.4746 111.237 33.7746C111.237 33.2187 111.3 33.157 111.896 33.1535C112.5 33.1501 113.103 33.1467 113.702 33.1535C114.796 33.1707 115.596 32.7761 115.996 31.6575ZM111.669 32.3369C111.374 32.3403 111.234 32.2134 111.234 31.9217C111.237 31.2938 111.241 30.6624 111.234 30.0345C111.23 29.7394 111.374 29.6158 111.669 29.6193C112.033 29.6261 112.398 29.6193 112.759 29.6193V29.6227C113.166 29.6227 113.58 29.5712 113.976 29.633C115.059 29.7943 115.291 31.0639 114.775 31.7982C114.481 32.2202 114.035 32.2888 113.597 32.3232C112.959 32.3678 112.31 32.33 111.669 32.3369Z" fill="white"/>
<path d="M195.013 28.7957C194.547 28.7923 194.081 28.806 193.618 28.7923C193.064 28.7752 192.506 28.7271 191.952 28.7168C191.142 28.7031 191.149 28.7134 191.153 29.458C191.156 30.4565 191.153 31.455 191.153 32.457C191.153 33.5241 191.167 34.5913 191.146 35.6584C191.132 36.2898 191.107 36.2898 191.686 36.4202C192.008 36.4922 192.233 36.3584 192.236 36.053C192.24 35.2364 192.198 34.4197 192.166 33.603C192.159 33.4075 192.162 33.2462 192.425 33.229C192.604 33.2187 192.78 33.1604 192.958 33.157C193.579 33.1467 194.203 33.1124 194.82 33.1638C195.956 33.253 197.096 32.2511 197.068 30.906C197.043 29.9041 196.191 28.8095 195.013 28.7957ZM195.199 32.2099C194.291 32.5393 193.365 32.2683 192.447 32.306C192.362 32.3094 192.198 31.98 192.187 31.8016C192.152 31.256 192.194 30.707 192.169 30.158C192.155 29.8389 192.31 29.6227 192.653 29.6193C193.004 29.6158 193.351 29.6193 193.702 29.6193C193.702 29.609 193.702 29.5952 193.705 29.585C194.189 29.6227 194.68 29.6193 195.153 29.705C195.637 29.7908 196.027 30.333 196.034 30.8237C196.044 31.5134 195.718 32.0212 195.199 32.2099Z" fill="white"/>
<path d="M124.607 23.2232C124.586 23.6007 124.804 23.6933 125.119 23.6968C125.424 23.7002 125.754 23.7448 125.719 23.2644C125.691 22.8835 125.712 22.4992 125.712 22.1149C125.708 22.1149 125.705 22.1149 125.705 22.1149C125.705 21.7855 125.705 21.4561 125.705 21.1267C125.701 20.5708 125.701 20.5811 126.28 20.5708C127.1 20.5537 127.938 20.6017 128.741 20.4679C129.793 20.2894 130.347 19.5929 130.558 18.5429C130.709 17.7846 130.091 16.7174 129.401 16.3571C128.92 16.1067 128.44 16.141 127.949 16.1272C127.016 16.0964 126.084 16.0792 125.151 16.0518C124.793 16.0415 124.604 16.1959 124.618 16.5459C124.628 16.8272 124.691 17.112 124.695 17.3934C124.705 18.5223 124.709 19.6512 124.695 20.7767C124.681 21.5899 124.649 22.4066 124.607 23.2232ZM125.722 17.3248C125.729 17.1944 125.954 16.9919 126.101 16.9713C126.473 16.9199 126.855 16.9542 127.311 16.9542C127.805 17.0091 128.401 16.8238 128.938 17.1841C129.369 17.4723 129.607 18.0419 129.481 18.6081C129.369 19.1091 128.952 19.5448 128.464 19.5792C127.675 19.6341 126.883 19.6581 126.094 19.6512C125.964 19.6512 125.729 19.4248 125.722 19.2944C125.684 18.6355 125.684 17.9767 125.722 17.3248Z" fill="white"/>
<path d="M146.978 43.4374C145.067 43.4272 143.91 44.7448 143.886 46.5291C143.865 47.9599 145.376 49.2741 146.964 49.2741C148.528 49.2741 150.141 47.8845 150.092 46.5154C150.033 44.8683 148.872 43.3791 146.978 43.4374ZM146.94 48.207C146.084 48.1898 145.173 47.4796 145.173 46.6629C145.173 46.0075 145.078 45.2423 145.863 44.8031C146.495 44.4497 147.133 44.3605 147.785 44.6659C148.465 44.985 148.798 45.5443 148.756 46.3712C148.753 47.3286 147.897 48.2276 146.94 48.207Z" fill="white"/>
<path d="M99.5993 43.4373C97.8251 43.2657 96.5978 44.8681 96.4996 46.1103C96.3488 48.0078 98.067 49.3117 99.5783 49.2534C101.419 49.1847 102.569 48.0284 102.636 46.3745C102.699 44.7755 101.265 43.324 99.5993 43.4373ZM99.5748 48.2171C98.5299 48.1897 97.776 47.4245 97.776 46.3196C97.776 45.122 98.4036 44.5078 99.6169 44.5078C100.665 44.5078 101.353 45.2902 101.405 46.4054C101.444 47.1911 100.462 48.2411 99.5748 48.2171Z" fill="white"/>
<path d="M192.387 21.3058C192.716 21.2989 192.916 21.4293 193.032 21.7073C193.221 22.1671 193.47 22.6166 193.561 23.0935C193.656 23.5911 193.937 23.7009 194.361 23.6974C194.824 23.7009 194.943 23.5808 194.81 23.2788C194.259 22.0298 193.716 20.774 193.172 19.5215C192.72 18.475 192.289 17.4215 191.815 16.3818C191.745 16.2309 191.507 16.0833 191.328 16.0593C190.819 15.9975 190.556 16.2309 190.399 16.7215C190.251 17.1779 190.08 17.6274 189.897 18.0735C189.592 18.8284 189.287 19.5833 188.961 20.3279C188.526 21.3195 188.067 22.2975 187.632 23.2891C187.59 23.3818 187.608 23.5671 187.674 23.6288C187.937 23.8724 188.67 23.6631 188.8 23.32C189 22.795 189.221 22.2769 189.371 21.7382C189.466 21.4122 189.634 21.3024 189.953 21.3058C190.763 21.3195 191.573 21.3264 192.387 21.3058ZM189.999 20.1289C190.434 19.2367 190.798 18.3205 191.068 17.3701C191.086 17.3117 191.146 17.2637 191.272 17.0956C191.454 17.5622 191.605 17.9362 191.752 18.3137C191.973 18.873 192.201 19.4323 192.411 19.995C192.555 20.3828 192.478 20.4892 192.075 20.4926C191.489 20.496 190.9 20.4857 190.315 20.496C190.041 20.496 189.88 20.3725 189.999 20.1289Z" fill="white"/>
<path d="M72.4384 35.9879C72.6277 35.4869 72.8206 34.9894 72.9889 34.485C73.1081 34.1281 73.301 33.9565 73.7112 33.9703C74.423 33.9943 75.1419 34.0011 75.8537 33.9497C76.1798 33.9256 76.4428 33.9359 76.5725 34.2345C76.7934 34.7354 77.0038 35.2433 77.1616 35.7648C77.3614 36.4271 77.8979 36.6467 78.4905 36.259C78.2451 35.6379 78.0171 35.0374 77.7717 34.4472C77.4666 33.7198 77.144 32.9958 76.832 32.2717C76.3796 31.2218 75.9378 30.1718 75.4855 29.1218C75.3873 28.8919 75.2716 28.6963 74.9455 28.7135C74.6159 28.7272 74.3354 28.7821 74.2021 29.1115C74.0759 29.4203 73.9672 29.7394 73.841 30.0482C73.5534 30.7414 73.2589 31.4345 72.9679 32.1276C72.6874 32.7899 72.4138 33.4556 72.1263 34.1178C71.8423 34.7698 71.5443 35.4114 71.2637 36.0634C71.2322 36.1389 71.2532 36.2967 71.3093 36.3344C71.6039 36.5403 72.3122 36.3207 72.4384 35.9879ZM73.6551 32.711C73.9917 31.8257 74.3564 30.9507 74.7176 30.0757C74.7491 29.9968 74.8158 29.9316 74.9139 29.7909C75.0928 30.2335 75.2471 30.6075 75.3943 30.985C75.5942 31.4928 75.766 32.011 75.9939 32.5051C76.2078 32.9717 76.1167 33.157 75.6117 33.1605C75.0647 33.1605 74.5212 33.1502 73.9742 33.1639C73.6095 33.1708 73.564 32.9511 73.6551 32.711Z" fill="white"/>
<path d="M109.207 45.3521C109.081 44.2369 108.429 43.3996 107.11 43.4305C106.486 43.4442 105.936 43.5575 105.515 44.0482C105.455 44.1168 105.325 44.1614 105.231 44.1545C105.182 44.1511 105.108 44.0104 105.108 43.9315C105.105 43.5609 104.94 43.4099 104.572 43.4648C104.435 43.4854 104.298 43.5197 104.161 43.5129C103.891 43.4991 103.828 43.633 103.832 43.8663C103.842 44.4736 103.835 45.0776 103.835 45.6849C103.835 46.6868 103.839 47.6922 103.835 48.6942C103.835 49.0888 104.06 49.1986 104.421 49.1952C105.034 49.1917 105.171 49.1197 105.178 48.701C105.189 48.2069 105.182 47.7162 105.182 47.2221C105.182 46.8104 105.154 46.3986 105.192 45.9903C105.217 45.7055 105.29 45.407 105.417 45.1496C105.683 44.6006 106.377 44.357 107.107 44.508C107.496 44.5903 108.029 45.2285 108.039 45.6849C108.057 46.6011 108.071 47.5207 108.036 48.4368C108.004 49.1883 107.994 49.2089 108.755 49.1917C109.137 49.1814 109.333 48.9309 109.309 48.5501C109.267 47.9496 109.242 47.3491 109.225 46.7486C109.207 46.2854 109.26 45.8153 109.207 45.3521Z" fill="white"/>
<path d="M78.2241 21.137C77.7717 20.9895 77.5508 21.1096 77.4561 21.5556C77.4316 21.6792 77.3159 21.7821 77.2493 21.8988C76.7689 22.7223 76.015 23.0551 75.0858 22.9453C74.3144 22.8561 73.6376 22.5198 73.308 21.789C73.1011 21.3326 72.9293 20.8248 72.9013 20.3341C72.8382 19.2361 72.8732 18.114 73.869 17.3523C74.8614 16.5905 76.1132 16.5425 77.0108 17.5925C77.1581 17.764 77.2142 18.0111 77.3615 18.1826C77.4632 18.3027 77.67 18.4434 77.7893 18.4125C78.0242 18.3542 78.2311 18.1861 78.4415 18.0523C78.466 18.0385 78.466 17.9562 78.4485 17.9184C78.1224 17.2733 77.7051 16.7209 77.0284 16.3675C76.3411 16.0072 75.6082 15.9935 74.8824 16.0586C73.6692 16.1684 72.754 16.8101 72.2561 17.8773C71.9791 18.4709 71.9125 19.1606 71.7512 19.8091C71.7792 19.8194 71.8073 19.8297 71.8353 19.84C71.8739 20.19 71.8809 20.5468 71.958 20.8865C72.0983 21.5145 72.2947 22.1115 72.7365 22.6296C73.301 23.2885 73.9988 23.7037 74.8579 23.7414C75.5101 23.7689 76.2149 23.7551 76.8145 23.5458C77.656 23.2507 78.196 22.5473 78.5431 21.7341C78.6974 21.3669 78.6027 21.2605 78.2241 21.137Z" fill="white"/>
<path d="M132.041 43.4272C131.192 43.386 130.502 43.6571 129.934 44.2781C129.888 44.2678 129.842 44.2575 129.797 44.2472C129.797 44.1066 129.807 43.9659 129.793 43.8252C129.783 43.7291 129.748 43.5541 129.716 43.5541C129.369 43.537 129.018 43.5267 128.675 43.5713C128.64 43.5747 128.654 43.9487 128.65 44.1477C128.647 44.2301 128.65 44.3124 128.65 44.3948C128.65 45.8188 128.65 47.2462 128.65 48.6702C128.65 49.1438 128.706 49.1918 129.225 49.1918C129.783 49.1918 129.825 49.1575 129.825 48.6531C129.825 47.7472 129.814 46.8448 129.828 45.9389C129.835 45.4276 130.056 44.9987 130.495 44.7173C131.354 44.1615 132.374 44.5046 132.609 45.4619C132.732 45.9663 132.746 46.4982 132.753 47.0198C132.763 47.5894 132.697 48.159 132.69 48.732C132.686 49.0614 132.949 49.1884 133.468 49.1952C133.801 49.1987 133.952 49.0786 133.952 48.7389C133.941 47.5859 133.959 46.4364 133.945 45.2835C133.938 44.3776 132.956 43.4718 132.041 43.4272Z" fill="white"/>
<path d="M148.076 23.2612C148.069 23.6009 148.272 23.6867 148.542 23.6936C148.837 23.7005 149.237 23.7725 149.244 23.3402C149.261 22.5235 149.23 21.7 149.177 20.8833C149.149 20.4441 149.279 20.2451 149.734 20.2417C150.618 20.2382 151.498 20.2485 152.382 20.2314C152.54 20.2279 152.75 20.149 152.831 20.0324C152.901 19.9294 152.887 19.6618 152.799 19.5863C152.676 19.4765 152.455 19.4422 152.27 19.4319C152.066 19.4216 151.863 19.4971 151.66 19.4936C151 19.4902 150.341 19.4799 149.682 19.4456C149.436 19.4319 149.166 19.3976 149.17 19.0441C149.177 18.4917 149.163 17.9427 149.173 17.3902C149.18 17.0917 149.317 16.9236 149.668 16.9407C150.197 16.9647 150.734 16.9476 151.263 16.9476C151.838 16.9476 152.413 16.9476 152.985 16.9476C153.262 16.9476 153.409 16.8138 153.458 16.5461C153.514 16.2476 153.36 16.0966 153.094 16.0795C152.838 16.0623 152.575 16.1241 152.315 16.1275C151.53 16.1344 150.748 16.1378 149.962 16.1275C149.549 16.1206 149.135 16.0863 148.721 16.0486C148.237 16.0074 148.058 16.2133 148.15 16.704C148.171 16.8241 148.16 16.951 148.157 17.0745C148.139 19.1368 148.114 21.199 148.076 23.2612Z" fill="white"/>
<path d="M138.174 48.0901C137.939 48.2343 137.756 48.2995 137.507 48.1348C137.259 47.9701 137.045 47.8225 137.052 47.4759C137.069 46.7108 137.059 45.9421 137.059 45.177C137.055 44.3877 137.052 44.398 137.862 44.4975C138.107 44.5284 138.444 44.6108 138.545 44.2814C138.609 44.0755 138.609 43.7873 138.5 43.6157C138.43 43.5059 138.111 43.499 137.914 43.523C137.181 43.6123 137.031 43.4922 137.059 42.775C137.062 42.7201 137.059 42.6652 137.059 42.6103C137.069 41.4848 137.041 41.749 136.147 41.7044C135.807 41.6873 135.695 41.8383 135.716 42.1334C135.737 42.4216 135.758 42.7064 135.8 42.9912C135.842 43.2863 135.733 43.4853 135.428 43.5093C135.186 43.5299 135.018 43.5539 135.039 43.849C135.056 44.1098 135.011 44.35 135.386 44.4461C135.554 44.4907 135.775 44.7515 135.779 44.9162C135.796 45.4617 135.726 46.0073 135.688 46.5563C135.698 46.5563 135.709 46.5563 135.716 46.5563C135.716 46.7897 135.684 47.0264 135.723 47.2529C135.772 47.5274 135.873 47.7916 135.965 48.0593C136.27 48.9583 137.371 49.5004 138.258 49.1745C138.517 49.0784 138.857 48.9549 138.956 48.749C139.04 48.574 138.875 48.2343 138.728 48.0284C138.675 47.9563 138.324 47.9975 138.174 48.0901Z" fill="white"/>
<path d="M92.2498 28.7172C91.5029 28.7069 90.7561 28.7137 90.0127 28.7137C89.0028 28.7137 87.9895 28.7 86.9796 28.7309C86.8464 28.7343 86.643 28.9402 86.6009 29.0877C86.5378 29.3279 86.5869 29.6162 86.9446 29.6127C87.5126 29.6093 88.0807 29.5475 88.6487 29.5647C88.803 29.5681 89.0449 29.7225 89.0905 29.8598C89.1641 30.0863 89.1045 30.3539 89.1115 30.601C89.1361 31.2769 89.1922 31.9563 89.1887 32.6323C89.1817 33.7372 89.1501 34.8421 89.1045 35.9436C89.0835 36.4823 89.5393 36.369 89.8058 36.4205C90.0934 36.4754 90.2161 36.2524 90.2091 35.9504C90.1915 34.9931 90.2021 34.0323 90.2021 33.075C90.2021 32.0764 90.2091 31.0745 90.1985 30.076C90.195 29.7431 90.3388 29.6093 90.6754 29.6162C91.2505 29.6265 91.8255 29.6162 92.3971 29.6196C92.6706 29.6196 92.8038 29.4995 92.8108 29.225C92.8249 28.8441 92.7127 28.724 92.2498 28.7172Z" fill="white"/>
<path d="M186.868 35.5349C185.942 35.5521 185.016 35.5315 184.094 35.5452C183.701 35.5521 183.561 35.4286 183.572 35.0271C183.6 34.0835 183.582 33.1364 183.582 32.1894C183.582 31.1737 183.579 30.1615 183.582 29.1458C183.586 28.6894 183.26 28.7203 182.948 28.71C182.621 28.6963 182.474 28.8164 182.478 29.1664C182.492 31.2629 182.488 33.3595 182.488 35.456C182.488 35.5521 182.495 35.6482 182.478 35.7443C182.39 36.2246 182.492 36.3619 182.979 36.3619C184.283 36.3653 185.588 36.355 186.889 36.3688C187.222 36.3722 187.362 36.2178 187.359 35.9398C187.355 35.655 187.187 35.5281 186.868 35.5349Z" fill="white"/>
<path d="M92.86 22.8698C91.8922 22.8801 90.9279 22.8766 89.9602 22.8732C89.585 22.8698 89.4202 22.6708 89.4482 22.3482C89.4903 21.8438 89.5184 21.3394 89.5254 20.835C89.5324 20.2448 89.5008 19.6512 89.5008 19.061C89.5043 18.1894 89.5324 17.3179 89.5184 16.4463C89.5148 16.3159 89.3535 16.086 89.2448 16.0757C88.9924 16.0483 88.7154 16.0895 88.484 16.1855C88.4068 16.2164 88.4489 16.5115 88.4384 16.6865C88.4349 16.7689 88.4384 16.8512 88.4384 16.9336C88.4384 18.9889 88.4384 21.0443 88.4384 23.0997C88.4384 23.6384 88.5015 23.7002 89.0695 23.7002C89.6867 23.7002 90.3038 23.7002 90.9209 23.7002C91.5661 23.7002 92.2113 23.6933 92.853 23.7036C93.1686 23.707 93.3299 23.6247 93.3299 23.2644C93.3299 22.9007 93.1545 22.8663 92.86 22.8698Z" fill="white"/>
<path d="M200.662 23.2955C200.669 22.8219 200.333 22.8734 200.024 22.8734C199.154 22.8734 198.285 22.8734 197.415 22.8734C197.054 22.8734 196.861 22.7567 196.865 22.3484C196.882 20.8695 196.872 19.3872 196.872 17.9083C196.872 17.4999 196.865 17.0882 196.875 16.6798C196.882 16.4877 197.114 16.2406 196.77 16.1411C196.567 16.0828 196.335 16.0622 196.125 16.0897C195.862 16.1205 195.7 16.2338 195.764 16.5735C195.848 17.0367 195.862 17.5171 195.858 17.9906C195.844 19.7097 195.806 21.4322 195.781 23.1513C195.774 23.6077 195.865 23.6901 196.342 23.6935C196.973 23.6969 197.604 23.6935 198.236 23.6935C198.839 23.6935 199.442 23.6935 200.045 23.6935C200.343 23.7004 200.652 23.7381 200.662 23.2955Z" fill="white"/>
<path d="M127.258 35.5456C127.034 35.5456 126.879 35.5182 126.879 35.2437C126.886 33.2432 126.886 31.2462 126.876 29.2457C126.876 29.0879 126.809 28.8134 126.725 28.7962C126.473 28.7413 126.185 28.7447 125.933 28.8099C125.863 28.8271 125.852 29.1291 125.838 29.3006C125.828 29.4344 125.866 29.5717 125.866 29.7055C125.87 30.6491 125.866 31.5962 125.866 32.5398C125.838 32.5398 125.81 32.5398 125.782 32.5398C125.782 33.6824 125.785 34.8285 125.778 35.9711C125.778 36.2559 125.908 36.3966 126.196 36.3932C127.511 36.3829 128.826 36.3692 130.14 36.3692C130.446 36.3692 130.663 36.328 130.663 35.9608C130.663 35.604 130.46 35.5354 130.147 35.5388C129.19 35.5456 128.222 35.5388 127.258 35.5456Z" fill="white"/>
<path d="M142.651 43.4716C142.308 43.6569 142.01 43.928 141.691 44.1579C141.603 44.2231 141.505 44.2746 141.41 44.3329C141.361 44.2299 141.301 44.1304 141.27 44.0241C141.249 43.9486 141.256 43.8594 141.266 43.7804C141.305 43.5437 141.112 43.3927 140.968 43.4579C140.66 43.5952 140.2 43.3172 140.018 43.777C140.015 43.7873 140.022 43.8045 140.022 43.8182C140.043 44.9608 140.067 46.1069 140.085 47.2495C140.092 47.6476 140.12 48.049 140.074 48.4402C140.001 49.0235 140.123 49.1951 140.726 49.1951C141.263 49.1951 141.263 49.1951 141.263 48.6838C141.263 47.9735 141.259 47.2598 141.263 46.5495C141.27 45.8221 141.827 44.9471 142.431 44.7241C142.581 44.6657 142.771 44.6692 142.893 44.5799C143.013 44.4942 143.104 44.3363 143.153 44.1922C143.191 44.0755 143.142 43.9314 143.135 43.7976C143.128 43.4716 142.939 43.3172 142.651 43.4716Z" fill="white"/>
<path d="M110.34 23.5634C110.603 23.6389 110.897 23.6595 111.167 23.6218C111.262 23.608 111.392 23.3644 111.392 23.2272C111.392 22.6027 111.318 21.9747 111.328 21.3502C111.342 20.4787 111.402 19.6105 111.444 18.739C111.43 18.739 111.416 18.739 111.406 18.739C111.406 18.0253 111.416 17.315 111.399 16.6013C111.395 16.4469 111.318 16.1689 111.244 16.1586C110.946 16.1174 110.631 16.138 110.333 16.1895C110.294 16.1964 110.305 16.5155 110.301 16.6905C110.298 16.8003 110.312 16.9101 110.312 17.0165C110.312 18.0973 110.312 19.1816 110.312 20.2625C110.312 20.4718 110.308 20.6777 110.301 20.887C110.28 21.6213 110.252 22.3556 110.245 23.0899C110.238 23.2546 110.263 23.5394 110.34 23.5634Z" fill="white"/>
<path d="M169.83 23.7005C170.145 23.6867 170.482 23.7314 170.454 23.2681C170.44 23.0142 170.373 22.7603 170.377 22.5064C170.391 21.6726 170.436 20.8387 170.45 20.0049C170.458 19.6549 170.405 19.3049 170.387 18.9515C170.377 18.7559 170.38 18.5603 170.38 18.3647C170.38 17.7746 170.387 17.1844 170.384 16.5942C170.384 16.4363 170.37 16.1584 170.314 16.1447C170.058 16.0863 169.777 16.0761 169.518 16.1138C169.448 16.1241 169.371 16.3677 169.367 16.505C169.356 17.6407 169.36 18.7765 169.36 19.9123C169.36 21.0343 169.378 22.1564 169.349 23.2784C169.346 23.6559 169.511 23.7176 169.83 23.7005Z" fill="white"/>
<path d="M94.9288 43.5335C94.6062 43.4786 94.2731 43.482 93.9049 43.4614C93.9049 45.2938 93.8979 47.03 93.9084 48.7628C93.912 49.1437 94.0873 49.2158 94.6728 49.202C95.041 49.1952 95.1217 48.9481 95.1252 48.6942C95.1462 47.0781 95.1532 45.4653 95.1497 43.8492C95.1497 43.7359 95.0235 43.5472 94.9288 43.5335Z" fill="white"/>
<path d="M94.4554 41.0526C94.1539 41.0698 93.6384 41.5708 93.663 41.8178C93.6945 42.1575 94.2906 42.71 94.6132 42.5865C94.9463 42.4595 95.2058 42.1369 95.4267 41.9551C95.3951 41.509 94.7885 41.0321 94.4554 41.0526Z" fill="white"/>
<path d="M99.9674 41.485C99.6449 41.8487 99.3538 42.2399 99.0347 42.6448C99.0803 42.6894 99.1084 42.7443 99.1364 42.7443C99.4836 42.7546 99.8763 42.8678 100.164 42.7408C100.55 42.5693 100.865 42.2261 101.181 41.9276C101.219 41.8899 101.125 41.6119 101.03 41.5605C100.83 41.4575 100.592 41.4061 100.364 41.382C100.237 41.3683 100.045 41.3992 99.9674 41.485Z" fill="white"/>
<path d="M215.75 28.202C216.059 28.4697 216.374 28.4354 216.623 28.106C216.771 27.9104 216.914 27.7182 217.062 27.5226C217.205 27.3305 217.353 27.1418 217.528 26.9153C216.441 26.7231 216.473 26.6717 215.75 28.202Z" fill="white"/>
<path d="M120.238 28.3429C120.364 28.3292 120.536 28.3601 120.61 28.2914C120.978 27.9517 121.325 27.588 121.662 27.2209C121.732 27.1419 121.732 27.0012 121.774 26.8571C120.785 26.7645 120.67 26.8331 120.34 27.6395C120.294 27.7527 120.217 27.8591 120.2 27.9723C120.186 28.0924 120.224 28.2194 120.238 28.3429Z" fill="white"/>
<path d="M47.22 45.3212C47.0623 45.2628 46.7782 45.3383 46.6415 45.455C45.9963 46.0177 45.3757 46.6079 44.7585 47.2015C44.0327 47.8981 43.3419 48.629 42.5915 49.3015C41.9218 49.902 41.224 50.4853 40.4772 50.9932C39.4533 51.6931 38.3908 52.3382 37.3178 52.9627C36.1186 53.6593 34.8002 54.0779 33.4467 54.373C32.7384 54.5274 32.0126 54.675 31.2903 54.7024C30.1998 54.7436 29.1022 54.7333 28.0188 54.6338C27.321 54.5686 26.6337 54.3353 25.9605 54.1191C24.9997 53.8137 24.0004 53.5667 23.1238 53.1C21.7037 52.3451 20.3396 51.477 19.0142 50.5711C18.0184 49.8917 17.0751 49.1265 16.188 48.3202C15.1747 47.4006 14.2419 46.3952 13.2882 45.4172C12.9446 45.0672 12.6465 44.6726 12.3134 44.3124C11.9557 43.9212 11.5876 43.5437 11.2264 43.1594C11.1878 43.1766 11.1493 43.1903 11.1107 43.2075C11.1282 43.3344 11.1142 43.4751 11.1668 43.5849C11.549 44.3844 11.9102 45.1942 12.3485 45.9663C12.8779 46.903 13.4214 47.8398 14.0631 48.701C14.6487 49.4868 15.3745 50.1696 16.0337 50.9039C17.1558 52.1495 18.4882 53.1583 19.9119 54.0367C21.5073 55.0215 23.2535 55.7044 25.0804 56.1813C25.5432 56.3014 26.0026 56.4352 26.4759 56.5039C27.0755 56.5931 27.6856 56.6171 28.2888 56.6754C28.8393 56.7269 29.3898 56.847 29.9368 56.8299C30.6521 56.8058 31.3604 56.648 32.0757 56.6068C33.4467 56.5245 34.7616 56.1951 36.0555 55.797C37.5247 55.3441 38.8852 54.675 40.1826 53.848C41.2065 53.1961 42.283 52.6333 43.1105 51.7137C43.8994 50.8353 44.7901 50.0427 45.5369 49.1334C46.3259 48.176 47.0237 47.1432 47.4024 45.9388C47.4865 45.654 47.483 45.4138 47.22 45.3212Z" fill="white"/>
<path d="M16.2792 13.1146C15.4728 13.9931 14.6207 14.8372 13.9124 15.7842C13.2041 16.7347 12.636 17.7881 12.0399 18.8141C11.6542 19.4798 11.3211 20.1729 10.9775 20.8592C10.9319 20.9484 10.9635 21.0719 10.9565 21.1783C11.0757 21.1474 11.1984 21.1234 11.3106 21.0822C11.3562 21.065 11.3913 21.0067 11.4263 20.9655C12.4362 19.8435 13.4285 18.7008 14.4664 17.6028C15.0555 16.9783 15.7042 16.3984 16.3564 15.8323C17.0612 15.2215 17.7905 14.6381 18.5269 14.072C19.8243 13.0769 21.1883 12.1813 22.6715 11.4676C23.2956 11.1691 23.9163 10.85 24.572 10.6304C25.5257 10.3147 26.5075 10.0745 27.4788 9.81369C28.4957 9.53919 29.5371 9.54948 30.575 9.61811C31.1606 9.65928 31.7462 9.76222 32.3247 9.87546C33.2083 10.0505 34.113 10.1774 34.9546 10.4759C35.8838 10.8088 36.7709 11.2754 37.644 11.7455C38.6013 12.2637 39.5866 12.7749 40.4386 13.4372C41.736 14.4391 42.9422 15.5577 44.166 16.6455C44.8848 17.2803 45.5686 17.9528 46.2663 18.6082C46.326 18.6665 46.3785 18.7626 46.4487 18.7729C46.6626 18.8038 46.8975 18.8518 47.0904 18.7901C47.157 18.7695 47.1745 18.4298 47.1219 18.2651C46.8589 17.4415 46.4872 16.6661 45.9297 15.9867C45.2144 15.1117 44.5412 14.1989 43.7592 13.3823C42.788 12.37 41.6869 11.471 40.4456 10.7916C39.1448 10.0779 37.8228 9.38135 36.4588 8.79802C35.6313 8.44459 34.7126 8.27303 33.815 8.10489C32.5351 7.86127 31.2377 7.69313 29.9964 7.50098C29.1479 7.61421 28.3695 7.7995 27.5875 7.7995C26.1674 7.79607 24.849 8.24214 23.5271 8.61273C22.4471 8.91812 21.4197 9.44654 20.4274 9.98526C18.895 10.8259 17.4644 11.821 16.2792 13.1146Z" fill="white"/>
<path d="M14.6557 44.0413C15.1431 44.8648 15.6411 45.6849 16.1846 46.4741C16.5983 47.0746 17.0787 47.6373 17.5591 48.1898C17.8957 48.5741 18.2779 48.9172 18.6531 49.2672C19.0388 49.6275 19.4175 50.0015 19.8383 50.3241C20.1714 50.5814 20.5746 50.7495 20.9147 50.9966C22.0859 51.8407 23.4219 52.3657 24.7683 52.853C25.2627 53.0314 25.7957 53.1309 26.3217 53.2098C27.2053 53.3471 28.0959 53.45 28.9831 53.5495C29.1549 53.5701 29.3407 53.4706 29.5125 53.4878C30.7784 53.6284 32.0267 53.5941 33.2504 53.2235C33.3802 53.1858 33.5169 53.1721 33.6502 53.1412C34.2498 53.0039 34.8739 52.9319 35.4419 52.7123C36.28 52.3897 37.0759 51.9677 37.8859 51.5765C39.2184 50.9314 40.4597 50.1662 41.48 49.0888C41.8412 48.7079 42.2374 48.3545 42.6056 47.9805C43.3875 47.1844 43.9486 46.2408 44.3799 45.232C44.443 45.081 44.2747 44.7859 44.1344 44.6212C44.0748 44.5491 43.7697 44.5903 43.647 44.6761C43.1596 45.0295 42.6863 45.4035 42.2339 45.7981C41.487 46.4501 40.7893 47.1569 40.0143 47.778C39.2079 48.4265 38.3523 49.0167 37.4967 49.6035C36.4834 50.3 35.3543 50.7804 34.1901 51.1853C33.6502 51.3741 33.0996 51.549 32.5351 51.6451C31.8689 51.7584 31.1781 51.7309 30.5154 51.8544C29.9438 51.9608 29.3898 51.9162 28.8533 51.8098C27.6506 51.5662 26.4023 51.3878 25.2803 50.9348C23.9198 50.3858 22.5978 49.6755 21.3811 48.8589C19.7787 47.7849 18.2569 46.5873 16.949 45.1565C16.1425 44.2746 15.2764 43.4511 14.4313 42.6036C14.3261 42.4972 14.1894 42.4183 14 42.2776C14 42.4972 13.9615 42.631 14.0071 42.7305C14.2139 43.1766 14.4103 43.6227 14.6557 44.0413Z" fill="white"/>
<path d="M43.7171 19.7475C43.8889 19.6205 44.0783 19.5279 44.1834 19.3837C44.2466 19.2945 44.229 19.1024 44.1764 18.9857C44.0502 18.7078 43.8679 18.4539 43.7276 18.1793C43.1771 17.0813 42.3531 16.1652 41.466 15.3588C40.1054 14.1235 38.5661 13.0975 36.8585 12.3392C35.0562 11.5363 33.1732 10.9701 31.2026 10.8946C29.5335 10.8329 27.8364 10.675 26.1884 11.1897C25.5116 11.4025 24.7893 11.4814 24.1301 11.725C23.3552 12.0132 22.6118 12.3907 21.8754 12.7681C20.4098 13.5196 19.0878 14.4872 17.9552 15.6436C17.0751 16.5392 16.3107 17.5617 15.6129 18.6048C14.9572 19.5862 14.4523 20.6636 13.8913 21.7033C13.8317 21.8131 13.8527 21.9675 13.8352 22.1014C13.9649 22.0499 14.1297 22.0293 14.2244 21.9435C14.4804 21.7033 14.7048 21.4357 14.9432 21.1818C15.5568 20.5264 16.1459 19.847 16.7876 19.219C17.3907 18.6289 18.0324 18.0764 18.6776 17.5308C19.2807 17.0196 19.8978 16.5152 20.536 16.0451C21.1181 15.6196 21.7317 15.2387 22.3418 14.8475C22.7556 14.5833 23.1588 14.2916 23.6041 14.0926C24.2879 13.7872 25.0067 13.5676 25.701 13.2897C27.0334 12.7544 28.4395 12.5417 29.8526 12.5417C30.9712 12.5417 32.1178 12.5726 33.1978 12.9774C33.8184 13.2108 34.446 13.4304 35.0737 13.65C36.7778 14.2505 38.2365 15.2627 39.6321 16.3436C40.8734 17.3078 41.9989 18.4161 43.1876 19.4524C43.3103 19.569 43.4962 19.6308 43.7171 19.7475Z" fill="white"/>
<path d="M32.1108 27.681C32.6543 28.7104 33.1172 29.6059 33.5976 30.4878C33.6747 30.6285 33.8746 30.8412 33.9517 30.8172C34.2007 30.7417 34.2322 30.5118 34.1376 30.2785C33.9798 29.8804 33.822 29.479 33.6572 29.0844C33.3381 28.3192 33.0015 27.5574 32.6894 26.7888C32.493 26.305 32.3808 25.7834 32.1319 25.3271C31.9846 25.0594 31.6795 24.7918 31.392 24.706C30.8976 24.5585 30.7293 24.4143 31.0063 23.9991C31.3394 23.4982 31.1606 23.0898 30.8836 22.6746C30.6487 22.3212 30.2524 22.28 29.9193 22.5546C29.4144 22.9732 29.2671 23.481 29.474 24.1192C29.6213 24.579 29.5371 24.7369 29.0743 24.8467C28.941 24.8776 28.8043 24.8947 28.6745 24.929C28.408 24.9977 28.1801 25.0697 28.0819 25.3957C27.868 26.1128 27.5945 26.8094 27.3491 27.5163C27.2088 27.9212 27.0861 28.3295 26.9388 28.731C26.7355 29.2834 26.497 29.8255 26.3112 30.3849C26.2691 30.5118 26.3883 30.6868 26.4339 30.8378C26.6022 30.7692 26.8652 30.7451 26.9213 30.6285C27.321 29.7501 27.6752 28.8545 28.0504 27.9692C28.089 27.88 28.1731 27.8079 28.2362 27.7256C28.3134 27.7873 28.4396 27.8388 28.4606 27.9177C28.5869 28.3261 28.7482 28.7344 28.7867 29.1564C28.8604 29.9697 28.7201 30.7692 28.5623 31.5755C28.3344 32.749 28.2362 33.9466 28.0258 35.1235C27.847 36.1358 27.591 37.1377 27.3842 38.1465C27.3596 38.2598 27.4438 38.3902 27.4788 38.5137C27.5384 38.5205 27.6016 38.5308 27.6612 38.5377C28.4992 36.8049 29.2145 35.0137 30.0035 33.2054C30.1087 33.3324 30.1858 33.3976 30.2279 33.4799C30.5154 34.0564 30.8029 34.6328 31.0729 35.2162C31.6129 36.3828 32.1389 37.5529 32.6789 38.7196C32.7175 38.7985 32.8262 38.8465 32.9033 38.9083C32.9664 38.8328 33.0506 38.7642 33.0821 38.675C33.1137 38.5892 33.0997 38.4828 33.0856 38.3902C33.005 37.8583 32.9068 37.3299 32.8402 36.798C32.742 36.05 32.6824 35.2951 32.5737 34.5471C32.3914 33.2706 32.1845 31.9941 31.9951 30.7177C31.925 30.251 31.8479 29.7844 31.8373 29.3143C31.8233 28.8819 31.8864 28.4462 31.9285 28.0138C31.932 27.9315 32.0127 27.8525 32.1108 27.681Z" fill="white"/>
<path d="M18.1201 43.9626C18.4918 44.5253 18.9161 45.0641 19.3438 45.589C20.3607 46.8346 21.588 47.864 22.9976 48.6429C23.9338 49.1611 24.9436 49.5763 25.9605 49.916C27.1246 50.3037 28.3484 50.4718 29.5897 50.4615C30.0876 50.4238 30.5925 50.3243 31.0869 50.3586C32.4965 50.4581 33.7588 49.9434 35.0387 49.5111C36.3045 49.0856 37.4125 48.365 38.5136 47.6376C39.4533 47.0165 40.116 46.1552 40.7963 45.3042C41.0452 44.992 40.8874 44.6557 40.4912 44.594C40.1651 44.5425 39.853 44.5459 39.5725 44.7793C39.1833 45.1018 38.7906 45.4209 38.3698 45.6988C37.3354 46.3817 36.3185 47.0954 35.235 47.6993C33.9867 48.3959 32.6227 48.8454 31.1781 48.9449C30.2664 49.0067 29.3302 49.0581 28.4396 48.9071C27.051 48.6772 25.7361 48.1557 24.4983 47.4969C22.994 46.6939 21.6406 45.6783 20.3712 44.5459C19.5647 43.8253 18.7232 43.1425 17.8887 42.4528C17.8115 42.391 17.6432 42.367 17.5556 42.4048C17.4995 42.4288 17.4574 42.6209 17.4924 42.7033C17.6853 43.1356 17.8606 43.5749 18.1201 43.9626Z" fill="white"/>
<path d="M40.1861 19.8953C40.379 19.6483 40.6525 19.4458 40.6174 19.3154C40.5438 19.0169 40.3579 18.7218 40.1476 18.485C38.8221 16.9718 37.1986 15.8464 35.3297 15.0537C33.8815 14.4395 32.3597 14.0689 30.7924 14.0106C29.4424 13.9591 28.0679 13.8527 26.7459 14.3125C26.3111 14.4635 25.8693 14.6385 25.4135 14.7003C24.5299 14.8238 23.7584 15.215 23.0361 15.6645C22.2016 16.1826 21.3986 16.7625 20.6587 17.4007C19.9364 18.0252 19.2456 18.7081 18.6601 19.4561C18.1411 20.1184 17.7799 20.9007 17.3592 21.6384C17.3171 21.7105 17.3101 21.8786 17.3557 21.9061C17.4328 21.9576 17.5836 21.9781 17.6607 21.937C17.9448 21.7757 18.2323 21.6076 18.4777 21.3948C19.3158 20.6811 20.1117 19.9228 20.9673 19.2296C21.7282 18.612 22.5101 18.0081 23.3447 17.4934C24.081 17.0405 24.9086 16.7316 25.6765 16.3302C26.7249 15.7846 27.8645 15.541 29.0146 15.4037C30.3891 15.239 31.7636 15.4209 33.068 15.8498C33.9692 16.1449 34.8493 16.5635 35.6663 17.0439C36.6972 17.6512 37.6475 18.3924 38.6503 19.0444C39.1061 19.3497 39.6111 19.5831 40.1861 19.8953Z" fill="white"/>
<path d="M36.8936 19.5519C36.1467 18.3303 34.8914 17.7504 33.6817 17.1088C33.1838 16.8446 32.6087 16.8514 32.1178 16.6558C31.1886 16.2887 30.2278 16.2921 29.2881 16.3299C28.394 16.3642 27.4718 16.5392 26.6337 16.8411C25.4976 17.2495 24.3861 17.7744 23.5025 18.6357C23.222 18.9068 22.9485 19.1882 22.703 19.4901C22.2822 20.0117 21.872 20.5401 21.4828 21.0857C21.3565 21.2607 21.3741 21.47 21.6405 21.5523C21.9316 21.3396 22.2226 21.1372 22.5031 20.921C23.2816 20.3171 24.0074 19.6342 24.8419 19.1092C26.1428 18.2891 27.5103 17.6338 29.0988 17.4176C30.6591 17.2048 32.0617 17.5617 33.3977 18.2342C34.3444 18.7112 35.207 19.3494 36.1292 19.8779C36.4342 20.0528 36.8059 20.1043 37.1495 20.2141C37.1881 20.1627 37.2267 20.1112 37.2688 20.0631C37.1425 19.8916 37.0023 19.7303 36.8936 19.5519Z" fill="white"/>
<path d="M22.0368 42.9605C21.9631 42.9022 21.879 42.8232 21.7948 42.8164C21.6896 42.8095 21.5564 42.8404 21.4827 42.9056C21.4407 42.9433 21.4652 43.1046 21.5143 43.1732C22.163 44.0482 22.6855 44.9953 23.6077 45.6918C24.4562 46.3301 25.2452 46.9923 26.2761 47.3629C27.5103 47.809 28.7586 48.056 30.298 48.0389C31.4516 48.1692 32.7069 47.6992 33.9482 47.2291C34.8248 46.8962 35.5997 46.3781 36.2624 45.7158C36.557 45.4242 36.869 45.1497 37.132 44.834C37.1951 44.7585 37.1425 44.5114 37.0619 44.4085C36.8831 44.1889 36.6551 44.2438 36.4342 44.3948C35.3402 45.1291 34.2322 45.8359 33.0084 46.3747C32.0442 46.7967 31.0624 47.0232 30.0244 47.0506C29.1093 47.0747 28.2116 46.9237 27.3806 46.5291C26.6302 46.1756 25.8378 45.8771 25.1645 45.4105C24.081 44.6556 23.0782 43.784 22.0368 42.9605Z" fill="white"/>
<path d="M28.5097 45.0776C30.0701 45.4482 31.5779 45.2938 32.998 44.5355C33.1382 44.46 33.3065 44.2061 33.268 44.0997C33.1733 43.8389 32.9524 43.9556 32.7525 44.0448C30.8029 44.9061 28.913 44.7894 27.0826 43.6982C26.7775 43.5164 26.469 43.3379 26.1499 43.1904C26.0201 43.1321 25.8518 43.1561 25.5994 43.1355C26.3813 44.2267 27.3491 44.8031 28.5097 45.0776Z" fill="white"/>
<path d="M38.8993 6.81109C38.9729 6.85913 39.1798 6.77335 39.2885 6.69443C39.3586 6.64296 39.3551 6.49884 39.3937 6.3959C39.5199 6.05963 39.6637 6.03218 39.9828 6.20718C40.3685 6.41649 40.4106 6.8008 40.5438 7.14393C40.642 7.39099 40.7227 7.75814 41.0768 7.63118C41.452 7.49393 41.1715 7.18854 41.0943 6.9758C40.94 6.55031 40.9751 6.46796 41.3819 6.24493C41.5607 6.14885 41.6834 5.95326 41.8517 5.78513C41.715 5.52435 41.6519 5.32876 41.5256 5.18464C41.1049 4.69396 40.4632 4.59445 39.8881 4.38857C39.7689 4.34397 39.4673 4.48465 39.4147 4.60818C39.1553 5.19494 38.9379 5.80228 38.738 6.41649C38.7029 6.52973 38.7976 6.74247 38.8993 6.81109ZM39.9302 5.15376C39.9688 5.08513 40.1301 5.01308 40.2037 5.0371C40.4702 5.12974 40.7332 5.24641 40.9716 5.39395C41.0417 5.43856 41.0873 5.62729 41.0487 5.71307C41.0067 5.80571 40.8594 5.85718 40.6946 5.97042C40.4351 5.78856 40.1897 5.63415 39.9688 5.44542C39.9056 5.39395 39.8881 5.22582 39.9302 5.15376Z" fill="white"/>
<path d="M32.9208 19.9018C32.1669 19.6342 31.4095 19.3219 30.624 19.1984C29.6948 19.0509 28.7481 19.1847 27.8505 19.5107C27.1422 19.7715 26.5075 20.1523 25.9605 20.6602C25.978 20.7288 25.999 20.7974 26.0166 20.866C26.2515 20.8455 26.525 20.8935 26.7179 20.7906C27.5384 20.3582 28.3519 19.9362 29.3091 19.8607C30.1998 19.792 31.0834 19.72 31.939 20.0803C32.2896 20.2278 32.6648 20.3308 33.026 20.4543C33.0575 20.4131 33.0891 20.3719 33.1206 20.3308C33.061 20.1832 33.0295 19.9396 32.9208 19.9018Z" fill="white"/>
<path d="M3.43508 25.6733C3.92949 25.8277 4.42389 25.9889 4.92181 26.1331C5.15674 26.2017 5.44427 26.2291 5.52492 25.9615C5.55648 25.8551 5.33557 25.6081 5.17427 25.5223C4.51857 25.1791 4.48 25.0385 5.03752 24.5203C5.1883 24.3796 5.40219 24.287 5.60557 24.2184C5.93517 24.1017 6.08244 23.9198 5.93868 23.4944C5.75985 23.5424 5.57751 23.5596 5.43024 23.6385C5.00246 23.8684 4.89726 23.8546 4.62376 23.4635C4.29766 22.9968 3.77871 23.014 3.56832 23.5424C3.36845 24.0502 3.29482 24.6027 3.11599 25.1174C2.98976 25.4674 3.15456 25.584 3.43508 25.6733ZM3.82079 24.1189C3.89442 24.0091 4.06273 23.9576 4.18896 23.8787C4.24857 24.0296 4.36078 24.1841 4.35727 24.3316C4.35377 24.5066 4.27312 24.6988 4.17494 24.8497C4.1013 24.9595 3.91546 25.0934 3.82079 25.0693C3.70858 25.0419 3.64196 24.8497 3.56131 24.7399C3.65248 24.5032 3.70507 24.2904 3.82079 24.1189Z" fill="white"/>
<path d="M49.7763 11.1041C49.6711 10.9051 49.5834 10.7267 49.7833 10.5105C49.8464 10.4419 49.8289 10.2291 49.7658 10.1365C49.7272 10.0782 49.5308 10.1228 49.4081 10.1228C49.2118 10.1228 48.9873 10.1845 48.8225 10.1159C47.8477 9.70758 46.9676 10.2737 46.9676 11.3683C46.908 11.8625 47.2061 12.2262 47.5637 12.5624C48.0301 13.0051 48.6928 13.1355 49.0995 12.8472C49.7868 12.3566 50.1024 11.7183 49.7763 11.1041ZM48.5034 12.4286C47.995 12.4286 47.4761 11.9139 47.4726 11.4095C47.469 10.936 47.8758 10.5345 48.3597 10.538C48.819 10.538 49.3169 11.0458 49.324 11.5193C49.324 11.9688 48.9102 12.4286 48.5034 12.4286Z" fill="white"/>
<path d="M5.05859 38.5341C5.57755 38.2974 5.86858 37.8616 5.90715 37.2886C5.94923 36.6503 5.74936 36.0842 5.283 35.6347C4.97444 35.3361 4.25562 35.4357 4.20653 35.7891C4.16094 36.1151 4.26263 36.4685 4.33626 36.8013C4.35029 36.8631 4.53964 36.9317 4.64133 36.9214C4.70795 36.9146 4.7921 36.7807 4.80963 36.6915C4.83769 36.5474 4.81665 36.3964 4.81665 36.1116C4.98496 36.2146 5.11119 36.2489 5.16379 36.3278C5.41625 36.7258 5.40573 37.1685 5.23742 37.5734C5.02703 38.0778 4.44847 38.1601 4.04172 37.7861C3.63498 37.4121 3.53329 36.9763 3.73316 36.4582C3.78225 36.3278 3.74718 36.1562 3.71913 36.0087C3.71562 35.9847 3.50173 35.9504 3.46667 35.9915C3.36147 36.1013 3.25979 36.242 3.23173 36.3827C3.19316 36.5954 3.22122 36.8185 3.22122 37.0381C3.22122 37.8445 3.50524 38.3042 4.28367 38.5822C4.50808 38.6645 4.83418 38.6337 5.05859 38.5341Z" fill="white"/>
<path d="M57.6483 29.4579C57.6413 28.9501 57.4905 28.7854 56.9891 28.7991C56.4736 28.8128 55.9582 28.8231 55.4497 28.8952C55.299 28.9158 55.0675 29.1285 55.0605 29.2624C55.0395 29.7599 55.0325 30.278 55.1482 30.7584C55.2429 31.1564 55.5058 31.5579 56.0038 31.5785C56.5192 31.5991 57.1469 31.7775 57.4169 31.1153C57.5711 30.7378 57.6343 30.3295 57.7359 29.9349C57.7079 29.928 57.6763 29.9212 57.6483 29.9143C57.6483 29.7599 57.6483 29.6089 57.6483 29.4579ZM56.5402 31.0604C56.4245 31.0947 56.2773 31.0501 56.151 31.0123C55.7723 30.8922 55.3971 30.302 55.4638 29.9212C55.5023 29.7016 55.5865 29.5025 55.888 29.5334C56.0388 29.5506 56.1931 29.5369 56.3474 29.5369C56.3614 29.5369 56.3754 29.5334 56.3895 29.5369C56.663 29.5849 57.0627 29.3447 57.1399 29.8491C57.231 30.4599 57.0136 30.9231 56.5402 31.0604Z" fill="white"/>
<path d="M52.0449 43.8459C51.9468 43.7875 51.775 43.8459 51.6382 43.8493C51.6522 44.0003 51.6382 44.1616 51.6908 44.2988C51.7224 44.3846 51.8486 44.4429 51.9362 44.5081C52.2588 44.7346 52.2378 44.9027 51.9362 45.1704C51.6347 45.4414 51.3051 45.5101 50.9089 45.5101C50.7441 45.5101 50.4635 45.6851 50.439 45.8189C50.3759 46.1449 50.6915 46.0797 50.8773 46.0625C51.2876 46.0248 51.5015 46.1895 51.6557 46.5635C51.7399 46.7625 52.0064 46.886 52.1817 47.037C52.4236 46.9341 52.641 46.9066 52.7322 46.7865C53.0758 46.3233 53.3949 45.8395 53.6825 45.3419C53.7421 45.2356 53.6965 44.9679 53.6018 44.8959C53.1039 44.5218 52.5779 44.1753 52.0449 43.8459ZM52.4727 46.289C52.4307 46.3336 52.2483 46.3027 52.1747 46.2512C52.1081 46.2032 52.0414 46.0454 52.073 45.987C52.2273 45.7228 52.4026 45.4655 52.599 45.2287C52.6445 45.1738 52.8164 45.1601 52.897 45.1978C52.9742 45.2356 53.0057 45.3625 53.1004 45.5238C52.8935 45.7846 52.6971 46.0488 52.4727 46.289Z" fill="white"/>
<path d="M26.6022 4.52257C26.6127 5.43874 26.6057 5.43874 27.5279 5.46275C27.8855 5.42501 28.2502 5.42158 28.5973 5.33923C28.7551 5.30148 28.8744 5.11619 29.0111 4.99952C28.8708 4.92747 28.7341 4.80394 28.5903 4.79364C28.3168 4.77306 28.0398 4.83825 27.7663 4.83139C27.5559 4.82796 27.3 4.83139 27.2719 4.52943C27.2439 4.23434 27.4542 4.20346 27.6822 4.20346C27.9206 4.20346 28.1661 4.23777 28.394 4.18973C28.5377 4.16228 28.6605 4.01473 28.7902 3.91866C28.664 3.85003 28.5447 3.72993 28.415 3.71621C28.1099 3.68532 27.7979 3.72993 27.4928 3.69562C27.3596 3.67846 27.2439 3.54121 27.1176 3.45543C27.2263 3.34905 27.321 3.22553 27.4437 3.14661C27.5139 3.102 27.6331 3.13288 27.7312 3.12945C28.0118 3.11915 28.2923 3.12259 28.5693 3.08484C28.6534 3.07455 28.7832 2.93386 28.7762 2.8618C28.7692 2.78288 28.6324 2.65249 28.5518 2.64906C28.0468 2.63534 27.5349 2.60445 27.037 2.66965C26.532 2.73828 26.4409 2.91327 26.518 3.42797C26.5706 3.7917 26.5987 4.15885 26.6022 4.52257Z" fill="white"/>
<path d="M23.5726 5.5042C23.6497 5.9091 23.9513 6.11155 24.3475 5.96743C24.5509 5.89537 24.7578 5.82332 24.9681 5.77185C25.6905 5.60028 26.0166 5.20568 26.0166 4.48853C26.1709 3.65814 25.2451 2.94443 24.6035 3.06452C24.2423 3.13315 23.8917 3.25325 23.5445 3.36648C23.1343 3.49687 23.0852 3.66501 23.2149 4.0699C23.3622 4.53657 23.4814 5.02038 23.5726 5.5042ZM24.0144 3.80569C24.337 3.73363 24.7052 3.60667 24.9927 3.69589C25.2872 3.78854 25.5011 4.11108 25.431 4.45421C25.431 4.95862 25.2311 5.24342 24.7788 5.33607C24.4667 5.40126 24.1687 5.36695 24.0845 4.96891C24.0249 4.68411 23.9302 4.40274 23.8882 4.11451C23.8671 4.01843 23.9443 3.81942 24.0144 3.80569Z" fill="white"/>
<path d="M14.4103 8.3623C14.6487 8.81524 14.8661 9.2819 15.1466 9.71082C15.2238 9.82748 15.4833 9.82748 15.6586 9.88238C15.6621 9.71425 15.6761 9.54611 15.6656 9.38141C15.6621 9.32308 15.5814 9.27847 15.5499 9.21671C15.4026 8.9422 15.2589 8.66769 15.1151 8.39319C15.1572 8.35201 15.1992 8.3074 15.2378 8.26623C15.6025 8.4275 15.9812 8.56475 16.3248 8.75691C16.8403 9.04514 17.3136 8.97994 17.4854 8.60593C17.3136 8.28338 17.1699 7.99172 17.0086 7.71378C16.8332 7.41182 16.6509 7.10987 16.4475 6.82164C16.3283 6.65693 16.1495 6.46478 15.9356 6.65007C15.8655 6.7084 15.9286 6.96232 15.9882 7.103C16.0583 7.27457 16.2091 7.41182 16.2933 7.57653C16.3669 7.71721 16.3984 7.87849 16.4686 8.09809C16.2722 8.06035 16.174 8.05692 16.0864 8.0226C15.7042 7.87505 15.336 7.6829 14.9433 7.57653C14.7329 7.5182 14.4839 7.60398 14.2525 7.62457C14.277 7.79613 14.2946 7.9677 14.3261 8.13584C14.3402 8.21476 14.3752 8.29025 14.4103 8.3623Z" fill="white"/>
<path d="M33.8395 5.09233C33.8746 4.86586 33.8851 4.63596 33.9307 4.41292C33.9517 4.30998 34.0359 4.22077 34.092 4.12469C34.1796 4.18989 34.2989 4.24135 34.355 4.32714C34.6074 4.7286 34.8634 5.13007 35.0738 5.55556C35.2105 5.83006 35.4385 5.81634 35.6278 5.74428C35.74 5.7031 35.8101 5.49036 35.8522 5.34281C35.9013 5.17811 35.8908 4.99625 35.9223 4.82468C35.989 4.43008 36.0801 4.03548 36.1292 3.63744C36.1433 3.52421 36.0661 3.35264 35.9749 3.29431C35.9013 3.24284 35.6629 3.28058 35.6313 3.34235C35.5401 3.52421 35.5261 3.73695 35.4665 3.93597C35.4104 4.12469 35.3298 4.30655 35.2596 4.48841C35.1264 4.37518 34.9546 4.28596 34.8704 4.14528C34.6916 3.84675 34.5829 3.50705 34.397 3.21196C34.3059 3.06784 34.12 2.9649 33.9552 2.89627C33.8956 2.87225 33.7168 2.97862 33.6817 3.06098C33.3556 3.81244 33.3241 4.60164 33.3346 5.40115C33.7694 5.43546 33.7904 5.42516 33.8395 5.09233Z" fill="white"/>
<path d="M52.5989 18.5705C52.3254 19.3906 52.6621 20.3891 53.4405 20.8215C53.6439 20.9347 54.0156 20.873 54.254 20.77C54.4644 20.6808 54.5205 20.4166 54.3767 20.1695C54.2961 20.0323 54.2855 19.847 54.1839 19.7303C54.0822 19.6137 53.9104 19.5519 53.7 19.4249C53.7 19.8092 53.7 20.0632 53.7 20.3926C53.2126 20.0529 52.9847 19.7029 53.0197 19.2019C53.0478 18.7764 53.43 18.3784 53.8683 18.3509C54.1909 18.3303 54.6572 18.7181 54.6993 19.0749C54.7274 19.3186 54.6888 19.5725 54.7133 19.8161C54.7239 19.9328 54.794 20.1112 54.8746 20.1352C54.9728 20.1627 55.1516 20.0906 55.2253 20.0048C55.3129 19.9019 55.3831 19.7338 55.369 19.5999C55.3164 18.996 54.9693 18.5431 54.5801 18.0867C54.0191 17.4382 52.8444 17.8397 52.5989 18.5705Z" fill="white"/>
<path d="M7.00815 40.4141C6.82582 39.9405 6.59089 39.4876 6.4331 39.0072C6.35596 38.7773 6.23674 38.6881 6.05791 38.7807C5.97726 38.8219 5.9457 39.0587 5.98077 39.1856C6.06843 39.5082 6.19466 39.8204 6.33141 40.1258C6.4331 40.3489 6.48219 40.5685 6.22622 40.6851C5.92116 40.8224 5.85804 40.5239 5.76337 40.3489C5.6196 40.0778 5.52844 39.7793 5.37065 39.5185C5.31454 39.4258 5.12519 39.4121 4.99896 39.3641C4.98494 39.4979 4.92883 39.6454 4.97091 39.7621C5.07961 40.0641 5.26195 40.3454 5.34961 40.6508C5.38818 40.7778 5.26896 40.9528 5.22337 41.1038C5.09013 41.0386 4.93935 40.9871 4.82715 40.8979C4.76403 40.8498 4.76754 40.7263 4.73247 40.6405C4.63429 40.3935 4.56066 40.1258 4.41689 39.9062C4.34326 39.793 4.13638 39.7655 3.98911 39.6969C3.98911 39.8582 3.93651 40.0366 3.99261 40.1739C4.18547 40.6337 4.40988 41.0797 4.64481 41.5224C4.71494 41.6562 4.85169 41.7591 4.9639 41.8792C5.21636 41.7797 5.36714 41.7248 5.51441 41.6596C5.90362 41.4915 6.28583 41.3062 6.67855 41.1484C7.09932 40.9734 7.17646 40.8464 7.00815 40.4141Z" fill="white"/>
<path d="M12.9341 11.7699C13.7406 11.8763 14.6663 10.7645 14.6558 10.1469C14.6452 9.43659 13.993 8.75032 13.3303 8.7263C12.5624 8.70228 11.6402 9.60129 11.6297 10.3939C11.6227 11.0665 12.2924 11.7699 12.9341 11.7699ZM13.1866 9.30277C13.6038 9.30277 14.0702 9.77972 14.0702 10.2086C14.0702 10.7062 13.5617 11.2003 13.0533 11.1969C12.6746 11.1934 12.1206 10.665 12.1416 10.3287C12.1767 9.83119 12.7097 9.3062 13.1866 9.30277Z" fill="white"/>
<path d="M54.9377 42.0615C54.8466 42.0032 54.7554 41.9414 54.6607 41.8865C54.2295 41.6498 53.8052 41.4061 53.3634 41.1934C53.2792 41.1522 53.0653 41.2003 53.0232 41.2723C52.6831 41.8213 52.357 42.3841 52.0555 42.9537C51.9327 43.187 52.1045 43.314 52.3149 43.2522C52.4587 43.211 52.599 43.0635 52.6761 42.9262C52.8234 42.6723 52.8865 42.3669 53.0548 42.1302C53.1284 42.0272 53.3669 42.0375 53.5317 41.9963C53.5562 42.161 53.6474 42.3532 53.5913 42.487C53.458 42.8061 53.2406 43.0944 53.0969 43.41C53.0548 43.5061 53.1389 43.6571 53.167 43.7841C53.2196 43.7875 53.2757 43.7909 53.3283 43.7978C53.4265 43.6983 53.5457 43.6091 53.6123 43.4924C53.7736 43.2145 53.8858 42.9056 54.0611 42.638C54.1243 42.5419 54.3136 42.5282 54.4433 42.4767C54.4749 42.6243 54.5766 42.8027 54.5275 42.9194C54.4013 43.211 54.1804 43.4615 54.0506 43.7532C53.991 43.8836 54.0611 44.0654 54.0717 44.2267C54.2224 44.1684 54.4433 44.1512 54.5135 44.0414C54.7414 43.6777 54.8922 43.2694 55.1201 42.9056C55.341 42.5488 55.2814 42.288 54.9377 42.0615Z" fill="white"/>
<path d="M9.52928 45.5682C9.62395 45.1804 9.35396 44.8785 9.12954 44.5593C8.58955 43.7873 7.77956 43.6878 7.08529 44.3054C6.54179 44.7892 6.53127 45.5579 7.04321 46.3162C7.48502 46.975 7.95138 47.1328 8.63513 46.9578C9.20669 46.8103 9.52928 46.3059 9.52928 45.5682ZM8.10216 46.474C7.74099 46.5083 7.17645 45.8392 7.17295 45.4172C7.16944 44.9505 7.61125 44.5113 8.08813 44.5079C8.57202 44.501 9.02435 45.0054 9.02435 45.5476C9.09799 46.1618 8.52994 46.4294 8.10216 46.474Z" fill="white"/>
<path d="M56.74 32.1621C56.3298 32.1792 55.9125 32.1243 55.4988 32.0866C55.2428 32.0626 55.0815 32.1689 55.0499 32.4057C54.9798 32.9375 54.9377 33.4763 54.8676 34.0081C54.8325 34.2655 54.9623 34.4336 55.1797 34.437C55.2708 34.437 55.4286 34.1831 55.4462 34.0321C55.4882 33.7096 55.4321 33.3733 55.4742 33.0508C55.4882 32.9375 55.6741 32.8449 55.7793 32.7454C55.8669 32.8518 56.0247 32.9547 56.0317 33.0679C56.0458 33.3321 55.9581 33.6032 55.9721 33.8709C55.9827 34.0493 56.0878 34.2312 56.172 34.3993C56.1895 34.4336 56.3719 34.437 56.3754 34.4233C56.442 34.2243 56.5121 34.0218 56.5402 33.816C56.5682 33.5964 56.5156 33.3665 56.5647 33.1537C56.5928 33.037 56.7576 32.9547 56.8628 32.8552C56.9539 32.9856 57.1152 33.1091 57.1258 33.2464C57.1433 33.4968 57.0732 33.7508 57.0556 33.8846C57.0556 34.0493 57.0521 34.0905 57.0556 34.1316C57.0696 34.3101 56.989 34.5468 57.3011 34.5537C57.6131 34.5606 57.55 34.3307 57.5641 34.1454C57.5886 33.8228 57.6272 33.5003 57.6447 33.1777C57.6903 32.2513 57.4799 32.1312 56.74 32.1621Z" fill="white"/>
<path d="M43.4857 8.97288C44.208 8.97288 44.7726 8.38955 44.7761 7.63466C44.7796 6.85231 43.889 5.99791 43.079 6.01164C42.3952 6.02193 41.7465 6.70134 41.7465 7.40819C41.75 8.17681 42.6337 8.97288 43.4857 8.97288ZM43.2157 6.5881C43.7312 6.58467 44.1905 7.04447 44.1905 7.55231C44.187 8.05671 43.8118 8.47533 43.3595 8.47877C42.844 8.48563 42.3356 7.98122 42.3391 7.46995C42.3426 6.97927 42.7318 6.59153 43.2157 6.5881Z" fill="white"/>
<path d="M55.7968 25.2511C55.7933 25.2648 55.7968 25.2785 55.7933 25.2923C55.7653 25.5736 55.7583 25.8584 55.6987 26.1329C55.6706 26.2633 55.5654 26.3972 55.4532 26.4726C55.4111 26.5001 55.1762 26.3834 55.1657 26.3148C55.1271 26.0334 55.1236 25.7452 55.1446 25.4638C55.1552 25.3403 55.2884 25.2271 55.313 25.1001C55.3375 24.9834 55.2954 24.8531 55.2849 24.7295C55.1657 24.7604 54.9939 24.7535 54.9413 24.829C54.7484 25.107 54.5941 25.4089 54.4434 25.6766C54.5906 26.0918 54.6467 26.4383 54.8256 26.7094C55.0044 26.9805 55.2533 27.303 55.6601 27.2172C55.9967 27.1452 56.1054 26.8604 56.1405 26.5378C56.1755 26.2187 56.2351 25.903 56.2983 25.5908C56.3193 25.4879 56.3929 25.3918 56.442 25.2923C56.5262 25.3472 56.6805 25.3986 56.684 25.4604C56.698 25.7246 56.705 25.9991 56.6454 26.2565C56.6033 26.4452 56.3929 26.6614 56.7015 26.7437C56.8277 26.778 57.0767 26.6099 57.1784 26.4692C57.4659 26.0712 57.3467 25.6388 57.2029 25.2133C57.0662 24.805 56.7401 24.4825 56.414 24.5271C56.0213 24.5888 55.8985 24.9182 55.7968 25.2511Z" fill="white"/>
<path d="M4.69744 33.6375C5.11822 33.3355 5.48639 32.4845 5.17081 31.7983C4.93238 31.2733 4.59926 30.8444 3.99966 30.7826C3.15812 30.6934 2.54799 31.3659 2.46735 32.337C2.57605 32.6321 2.65319 32.9478 2.80396 33.2223C3.21422 33.9634 4.01018 34.135 4.69744 33.6375ZM3.92252 31.3488C4.36784 31.3247 4.73602 31.8051 4.73602 32.3816C4.73602 32.9786 4.43095 33.3149 3.89798 33.3183C3.39655 33.3183 3.06695 32.9375 3.04942 32.3713C3.02838 31.7056 3.46668 31.3762 3.92252 31.3488Z" fill="white"/>
<path d="M54.0086 21.6107C53.5282 22.1871 53.7561 22.7327 54.0051 23.3298C54.24 23.8994 54.9939 24.2185 55.5058 24.1052C56.1124 23.9714 56.4701 23.4876 56.5262 22.7807C56.4526 22.4582 56.407 22.1219 56.2913 21.8131C56.1124 21.3327 55.7267 21.0514 55.2113 20.9862C54.6713 20.9175 54.3206 21.2366 54.0086 21.6107ZM56.0493 22.5749C56.0528 23.0861 55.6706 23.5151 55.1902 23.5322C54.7589 23.5494 54.2084 22.9763 54.2014 22.5097C54.1979 22.1288 54.7414 21.5626 55.1166 21.5592C55.5584 21.5523 56.0458 22.0842 56.0493 22.5749Z" fill="white"/>
<path d="M50.9299 16.6491C51.1087 16.9716 51.4103 17.2393 51.6943 17.4932C51.8451 17.627 52.073 17.7677 52.2588 17.7608C53.0723 17.7437 53.6088 17.1672 53.6088 16.378C53.6088 15.3349 52.9917 14.755 51.9327 14.7207C51.3927 14.7035 51.1087 15.002 50.8948 15.3864C50.6634 15.7981 50.716 16.2613 50.9299 16.6491ZM52.1186 15.2251C52.7708 15.2216 53.0302 15.6471 53.0969 16.2888C53.1424 16.7211 52.6796 17.1192 52.2062 17.1157C51.7293 17.1089 51.3366 16.6834 51.3366 16.1721C51.3401 15.5854 51.6312 15.2285 52.1186 15.2251Z" fill="white"/>
<path d="M4.88323 22.7364C5.59153 23.1036 6.30334 22.7536 6.72762 21.8511C6.83982 21.6109 6.98359 21.3467 6.97307 21.0997C6.95203 20.4889 6.53827 20.084 6.00529 19.8541C5.75984 19.7477 5.38114 19.7409 5.14621 19.8541C4.49051 20.1766 4.14337 20.7394 4.13986 21.4737C4.14687 22.009 4.44843 22.5134 4.88323 22.7364ZM5.54244 20.4065C6.08594 20.4065 6.42256 20.7188 6.41905 21.2129C6.41204 21.7722 5.96672 22.3006 5.50387 22.2972C5.03751 22.2972 4.6518 21.8854 4.6518 21.3948C4.6518 20.784 4.99193 20.4065 5.54244 20.4065Z" fill="white"/>
<path d="M6.99414 16.5666C7.42894 16.8686 7.88127 17.15 8.32659 17.4416C8.52295 17.5686 8.69126 17.5514 8.8245 17.3558C9.1506 16.8755 9.48371 16.3985 9.79579 15.9078C9.84137 15.8392 9.8028 15.7157 9.8028 15.6196C9.6941 15.6299 9.53631 15.599 9.48371 15.6573C9.25229 15.9284 9.05943 16.2338 8.83151 16.5083C8.69126 16.6833 8.54048 16.9235 8.25295 16.7279C7.95841 16.5255 8.15477 16.3367 8.29152 16.148C8.47035 15.8941 8.6632 15.647 8.81047 15.3794C8.85606 15.2936 8.77541 15.1392 8.75437 15.0157C8.64567 15.0466 8.52645 15.0569 8.43529 15.1152C8.36165 15.1598 8.31957 15.2593 8.26347 15.3348C8.09516 15.5647 7.94088 15.8049 7.74802 16.0108C7.67439 16.0863 7.50608 16.076 7.38335 16.1034C7.36231 15.9696 7.30621 15.8289 7.32725 15.7054C7.34829 15.599 7.46049 15.5098 7.53413 15.4103C7.76555 15.098 8.05308 14.8098 8.01101 14.3809C7.97243 14.3363 7.93386 14.2951 7.89529 14.2505C7.74101 14.3809 7.55166 14.4873 7.43595 14.6417C7.22206 14.9333 7.06427 15.2696 6.85739 15.5647C6.56986 15.9799 6.5909 16.2818 6.99414 16.5666Z" fill="white"/>
<path d="M8.87714 14.0548C9.15414 14.0754 9.45921 14.024 9.71518 13.921C9.96063 13.8215 10.1465 13.5916 10.3814 13.4578C10.5006 13.3926 10.6689 13.4166 10.8162 13.4029C10.8022 13.5642 10.8513 13.7906 10.7601 13.873C10.5392 14.0789 10.2517 14.2092 10.0027 14.3842C9.86245 14.4838 9.74673 14.6141 9.6205 14.7274C9.7818 14.8372 9.93258 14.9916 10.1114 15.0396C10.2201 15.0705 10.3989 14.9641 10.5076 14.8715C10.7215 14.6965 10.9354 14.5078 11.1002 14.2916C11.272 14.0617 11.3913 13.7941 11.5841 13.4509C11.3702 13.2039 11.2054 12.9397 10.967 12.7715C10.7215 12.5965 10.4656 12.696 10.2376 12.9156C10.0343 13.1147 9.78881 13.2725 9.54687 13.4269C9.46622 13.4784 9.2909 13.5058 9.24882 13.4612C9.18921 13.396 9.17869 13.2519 9.19973 13.1524C9.27336 12.8058 9.58544 12.7372 9.86595 12.6274C9.99218 12.5794 10.1535 12.4902 10.185 12.3872C10.2131 12.298 10.1009 12.099 10.0062 12.0612C9.8905 12.0166 9.70816 12.0578 9.58544 12.1196C9.05246 12.3838 8.75792 12.8573 8.54753 13.3789C8.42831 13.6602 8.60013 14.0377 8.87714 14.0548Z" fill="white"/>
<path d="M17.6748 8.40328C18.071 8.33122 18.2428 8.12191 18.2779 7.7925C18.348 7.14398 18.9371 6.87634 19.4981 7.2332C19.5788 7.28467 19.6524 7.35672 19.7401 7.38418C19.8277 7.40819 19.9645 7.42192 20.0101 7.37388C20.0732 7.31555 20.1118 7.17486 20.0802 7.09594C20.0276 6.9484 19.9435 6.78712 19.8242 6.69105C19.3368 6.29644 18.8319 5.92243 18.334 5.53812C18.0465 5.31508 17.6292 5.42832 17.6082 5.77488C17.5696 6.50919 17.5906 7.24349 17.5977 7.9778C17.6047 8.11162 17.6467 8.24887 17.6748 8.40328ZM18.5234 6.40968C18.5128 6.55036 18.5023 6.69448 18.4918 6.83516C18.4147 6.83859 18.3375 6.84546 18.2604 6.84889C18.2288 6.70477 18.1973 6.56066 18.1622 6.41654C18.2849 6.41654 18.4041 6.41311 18.5234 6.40968Z" fill="white"/>
<path d="M2.88809 28.7788C3.44912 28.8989 4.02067 28.9778 4.58521 29.0704C4.58521 29.0601 4.58871 29.0533 4.58871 29.043C4.64482 29.043 4.70793 29.0601 4.75352 29.0396C4.89027 28.9847 5.0165 28.9126 5.14974 28.8508C5.05156 28.7239 4.9639 28.5866 4.8552 28.4734C4.80611 28.4219 4.70443 28.391 4.62728 28.3945C4.27664 28.4048 4.29768 28.1783 4.31872 27.9484C4.34326 27.7082 4.40287 27.4646 4.38534 27.2278C4.34326 26.6822 4.0908 26.3871 3.67704 26.3288C3.36496 26.2842 2.96172 26.5518 2.84952 26.9876C2.72679 27.4646 2.68121 27.9621 2.63913 28.4562C2.63913 28.5626 2.78289 28.7548 2.88809 28.7788ZM3.23522 27.3342C3.30535 27.2004 3.45613 27.1043 3.56834 26.9911C3.67704 27.1112 3.79275 27.2244 3.88742 27.3548C3.91898 27.3994 3.89093 27.4886 3.89093 27.5538C3.90496 27.5572 3.91898 27.5607 3.9295 27.5675C3.8769 27.7288 3.85587 27.9175 3.75418 28.0445C3.68756 28.1303 3.47016 28.2023 3.38951 28.1611C3.2773 28.0994 3.17912 27.9312 3.15458 27.7974C3.13003 27.6499 3.1651 27.468 3.23522 27.3342Z" fill="white"/>
<path d="M56.0002 39.0865C55.4637 38.8532 54.9132 38.6542 54.3592 38.462C54.254 38.4243 54.0261 38.4586 54.0015 38.5204C53.9525 38.637 53.984 38.8052 54.0296 38.9321C54.0541 38.9973 54.1769 39.0488 54.261 39.0728C54.6082 39.1655 54.6888 39.3473 54.545 39.6767C54.4399 39.9204 54.3978 40.1914 54.3417 40.4522C54.2786 40.7404 54.5205 41.2586 54.8291 41.3375C55.0465 41.3924 55.4041 41.3684 55.5339 41.2311C55.9687 40.7576 56.2562 40.1914 56.3158 39.3919C56.2562 39.337 56.1545 39.1552 56.0002 39.0865ZM55.3796 40.5757C55.3165 40.665 55.1026 40.7164 54.9939 40.6787C54.9202 40.6547 54.8606 40.4419 54.8782 40.3252C54.9062 40.1331 54.9798 39.9375 55.0745 39.7625C55.1376 39.6527 55.2744 39.5807 55.3796 39.4949C55.4813 39.6184 55.5865 39.7419 55.6952 39.8723C55.5794 40.1503 55.5128 40.387 55.3796 40.5757Z" fill="white"/>
<path d="M44.6078 9.80707C44.6989 9.85511 44.8848 9.79335 44.99 9.72472C45.0846 9.66296 45.1057 9.47766 45.2004 9.43992C45.3371 9.38159 45.5405 9.34727 45.6562 9.40904C45.8841 9.536 46.0489 9.79335 46.2838 9.88942C46.5118 9.98207 46.8379 10.0301 47.0412 9.93403C47.2621 9.83109 47.3919 9.53943 47.5462 9.34384C47.448 9.09336 47.4269 8.91149 47.3218 8.80856C46.9501 8.4414 46.5679 8.08454 46.1541 7.76886C46.0594 7.6968 45.8 7.76886 45.6527 7.84092C45.53 7.90268 45.4563 8.06052 45.3687 8.18405C45.0741 8.60268 44.7726 9.01444 44.5061 9.44678C44.4605 9.53257 44.5306 9.76933 44.6078 9.80707ZM45.9928 8.40023C46.2523 8.36248 46.8799 8.89091 46.8764 9.17914C46.8098 9.34041 46.7327 9.56345 46.4592 9.4159C46.2137 9.28208 45.9788 9.10708 45.7789 8.91149C45.5966 8.7262 45.7298 8.43797 45.9928 8.40023Z" fill="white"/>
<path d="M30.4452 5.09566C30.6101 5.02017 30.7608 4.90007 30.8976 4.77654C30.9923 4.69076 31.0308 4.51919 31.136 4.47116C31.4656 4.31675 32.0442 4.55008 32.2511 4.88978C32.3212 5.00644 32.3913 5.12654 32.4895 5.21575C32.5596 5.28438 32.7034 5.3633 32.7665 5.33242C32.8542 5.29124 32.8963 5.15742 32.9138 5.12654C32.9138 4.98242 32.9278 4.92409 32.9103 4.87605C32.6824 4.24812 32.4755 3.60646 32.1985 2.99911C32.1213 2.83441 31.8443 2.69029 31.6409 2.66627C31.5182 2.64912 31.3289 2.85843 31.2307 3.00255C30.873 3.55499 30.5364 4.11773 30.2033 4.68733C30.1542 4.76968 30.1297 4.9138 30.1717 4.98586C30.2138 5.05448 30.3821 5.12654 30.4452 5.09566ZM31.676 3.49666C31.7672 3.56185 31.8583 3.62705 32.0091 3.73685C31.8689 3.8741 31.7847 3.95302 31.7006 4.03538C31.6304 3.94273 31.5112 3.85352 31.5007 3.75401C31.4902 3.67509 31.6129 3.58244 31.676 3.49666Z" fill="white"/>
<path d="M10.0623 46.5872C9.96062 46.5701 9.75374 46.7279 9.72218 46.8377C9.69413 46.9407 9.80283 47.1328 9.90802 47.2049C10.0448 47.3009 10.2446 47.3009 10.4024 47.373C10.8267 47.5652 11.0441 47.9666 10.9565 48.3612C10.8933 48.6426 10.4691 49.0029 10.2061 49.0338C9.69413 49.0887 9.39258 48.8794 9.2418 48.3715C9.19622 48.2205 9.23479 48.0421 9.1857 47.8911C9.15063 47.7916 9.02791 47.7196 8.94375 47.6338C8.8596 47.7196 8.6948 47.8156 8.70531 47.8843C8.76492 48.2308 8.8035 48.6151 8.97882 48.9068C9.33647 49.497 10.0027 49.7818 10.462 49.6445C11.009 49.4798 11.4684 48.8725 11.4684 48.3098C11.4649 47.5068 10.8372 46.7176 10.0623 46.5872Z" fill="white"/>
<path d="M50.5337 46.7246C50.2321 46.4879 49.8604 46.481 49.601 46.7521C49.3099 47.0541 49.0504 47.3903 48.819 47.7369C48.6402 48.008 48.6752 48.3202 48.9032 48.5638C49.2433 48.9276 49.5974 49.281 49.9761 49.6001C50.0813 49.6893 50.3654 49.7236 50.4565 49.6516C50.6459 49.5075 50.5161 49.3187 50.3654 49.1815C50.0778 48.9241 49.7728 48.6874 49.5063 48.4129C49.2258 48.1246 49.2643 47.7197 49.5624 47.4349C49.8674 47.1398 50.1795 47.1364 50.5091 47.4315C50.6915 47.5928 50.8422 47.7918 51.0386 47.9325C51.2314 48.0697 51.4664 48.1521 51.6803 48.2619C51.7259 48.2207 51.7679 48.1761 51.8135 48.1349C51.7259 47.9393 51.6873 47.6991 51.5435 47.5585C51.235 47.2565 50.8773 46.9957 50.5337 46.7246Z" fill="white"/>
<path d="M5.60558 18.9824C6.07544 19.3049 6.58037 19.5794 7.08179 19.8539C7.15893 19.8951 7.33075 19.8608 7.39737 19.799C7.46049 19.7373 7.48503 19.5726 7.44646 19.4902C7.37984 19.3495 7.27464 19.1917 7.1414 19.1196C6.80829 18.9378 6.84335 18.7422 7.00465 18.4608C7.14491 18.2172 7.21854 17.9392 7.33776 17.6407C6.84686 17.5687 6.74517 17.8192 6.62595 18.0937C6.52777 18.327 6.35946 18.6427 6.0544 18.4814C5.73532 18.3133 6.01232 18.0731 6.11051 17.8638C6.22622 17.6133 6.3279 17.3559 6.40855 17.0917C6.42609 17.0402 6.3279 16.9201 6.25778 16.8893C6.2157 16.8721 6.09648 16.9545 6.05791 17.0197C5.85453 17.3662 5.6722 17.7265 5.46883 18.0731C5.23039 18.4814 5.23389 18.7319 5.60558 18.9824Z" fill="white"/>
<path d="M37.2828 4.08672C37.381 4.17937 37.5142 4.34751 37.4862 4.44358C37.3635 4.89309 37.2162 5.33573 37.0268 5.76121C36.9252 5.98768 36.9532 6.17297 37.1601 6.21758C37.2863 6.24503 37.5353 6.10778 37.5984 5.98082C37.7527 5.672 37.8999 5.3323 37.921 4.99946C37.9561 4.47446 38.2436 4.40241 38.6714 4.45045C38.7134 4.45388 38.7625 4.46417 38.7941 4.44701C38.8923 4.39211 38.9834 4.32349 39.0781 4.25829C39.0115 4.16908 38.9659 4.02839 38.8818 3.99751C38.2786 3.7882 37.6685 3.60291 36.9742 3.3833C36.9637 3.39016 36.82 3.41418 36.7989 3.47938C36.7674 3.57202 36.7884 3.72643 36.8515 3.79163C36.9707 3.91516 37.1566 3.97006 37.2828 4.08672Z" fill="white"/>
<path d="M56.9154 35.2845C56.3439 35.2193 55.7758 35.1267 55.2148 34.9997C54.9378 34.938 54.773 34.9929 54.7098 35.2468C54.6082 35.6483 54.524 36.0532 54.4539 36.4615C54.4258 36.6331 54.4504 36.8115 54.4504 36.9796C54.7975 37.0929 54.9658 36.9659 55.0114 36.6674C55.0359 36.5061 55.043 36.3414 55.0395 36.1801C55.0359 35.8438 55.1762 35.6483 55.5444 35.7032C55.9652 35.7649 56.3789 35.8747 56.7997 35.9056C56.9364 35.9159 57.1609 35.7752 57.2099 35.6517C57.2801 35.4767 57.1959 35.3189 56.9154 35.2845Z" fill="white"/>
<path d="M49.0574 14.0344C49.3309 14.4324 49.5974 14.8407 49.8849 15.2285C49.9305 15.2903 50.0918 15.3108 50.183 15.2903C50.2461 15.2731 50.3338 15.129 50.3162 15.0741C50.2566 14.9059 50.176 14.7309 50.0568 14.6006C49.6009 14.103 49.636 13.8011 50.1795 13.4099C50.467 13.204 50.7335 12.9604 50.993 12.7202C51.0736 12.6447 51.1788 12.4697 51.1473 12.4285C51.0771 12.3359 50.9334 12.2947 50.8001 12.2261C50.6739 12.2913 50.5547 12.329 50.4635 12.4011C50.0357 12.7373 49.6079 13.077 49.1977 13.4339C49.0189 13.5849 48.8856 13.7839 49.0574 14.0344Z" fill="white"/>
<path d="M20.3993 6.84885C20.4519 6.97238 20.6237 7.04444 20.785 7.17826C21.2479 6.94836 21.6722 6.74935 22.0859 6.52631C22.1701 6.4817 22.2122 6.35817 22.2718 6.26896C22.1561 6.21063 22.0439 6.11798 21.9211 6.10769C21.8089 6.09739 21.6792 6.15573 21.5775 6.21406C20.9323 6.58807 20.8622 6.56405 20.6308 5.89838C20.5045 5.53465 20.3748 5.1675 20.196 4.8278C20.1363 4.71113 19.9189 4.67339 19.7752 4.5979C19.7436 4.76604 19.6454 4.95819 19.698 5.09887C19.9049 5.68906 20.1434 6.27239 20.3993 6.84885Z" fill="white"/>
<path d="M8.02852 42.6653C7.8567 42.329 7.6919 41.9893 7.48853 41.6702C7.41489 41.5535 7.23957 41.4952 7.10983 41.4128C7.09581 41.5981 7.07477 41.7869 7.07477 41.9721C7.07477 42.0099 7.1484 42.0511 7.18697 42.0888C7.59022 42.528 7.49203 42.8746 6.94503 43.1148C6.58737 43.2726 6.25777 43.4991 5.92816 43.7187C5.8405 43.777 5.73881 43.9589 5.76686 44.0069C5.82647 44.103 5.97725 44.1442 6.08946 44.2094C6.23322 44.1579 6.35244 44.127 6.45763 44.0721C6.90295 43.8354 7.33424 43.5711 7.79008 43.355C8.14423 43.1903 8.1828 42.9638 8.02852 42.6653Z" fill="white"/>
<path d="M3.33697 35.0925C3.88398 35.0479 4.43449 35.0376 4.97097 34.9415C5.13578 34.9106 5.3672 34.6567 5.38123 34.492C5.40577 34.1626 5.09019 34.2003 4.86578 34.2312C4.33981 34.2999 3.81034 34.3651 3.29139 34.4851C3.11256 34.5263 2.96879 34.7185 2.811 34.842C2.96529 34.9621 3.11957 35.0856 3.27386 35.2057C3.2984 35.1714 3.31944 35.1302 3.33697 35.0925Z" fill="white"/>
<path d="M12.1766 13.1046C12.2748 12.8815 12.373 12.7614 12.373 12.6413C12.373 12.2948 10.9143 10.9703 10.5461 10.9565C10.5321 10.9565 10.5216 10.9634 10.3708 11.0046C10.746 11.907 11.5525 12.3771 12.1766 13.1046Z" fill="white"/>
<path d="M51.2209 48.9001C51.1578 49.0716 51.0737 49.2672 51.1122 49.4285C51.1368 49.528 51.3647 49.5829 51.5049 49.655C51.561 49.6138 51.6171 49.5726 51.6697 49.5314C51.6101 49.3187 51.561 49.1025 51.4769 48.9001C51.4664 48.8692 51.2314 48.8726 51.2209 48.9001Z" fill="white"/>
</svg>
