<svg width="199" height="28" viewBox="0 0 199 28" fill="none" xmlns="http://www.w3.org/2000/svg">
<path d="M198.928 12.8838C198.794 12.0927 198.478 11.3947 197.982 10.5726C197.366 9.54884 196.477 8.85082 195.34 8.47854C191.663 7.27898 188.623 8.35962 186.095 11.1569C186.389 10.8311 184.347 9.13003 184.094 8.96974C183.168 8.37513 182.082 8.04939 180.981 7.977C178.225 7.8012 176.173 9.32651 174.068 10.8725C173.96 10.2779 173.856 9.6781 173.748 9.08349C173.691 8.75258 173.603 8.38547 173.324 8.19933C172.998 7.98734 172.574 8.12695 172.202 8.23553C170.035 8.8715 167.941 7.67711 167.874 10.6553C167.833 12.4702 167.807 14.2902 167.796 16.1102C167.776 19.621 168.21 23.3231 167.905 26.8132C167.879 27.0924 168.019 27.1958 168.282 27.17C170.206 27.17 172.124 27.1751 174.047 27.1751C174.72 26.8959 174.399 26.3065 174.404 25.8722C174.43 22.3614 174.409 18.8454 174.399 15.3295C175.604 14.1403 176.969 13.0493 178.716 13.8352C180.35 14.5694 180.009 16.2912 180.04 17.7182C180.102 20.7482 180.107 23.7833 180.133 26.8132C180.107 27.0717 180.226 27.1906 180.485 27.1648C182.408 27.3044 184.326 27.2992 186.25 27.17C186.943 26.9114 186.622 26.3116 186.627 25.8773C186.648 22.3614 186.632 18.8454 186.622 15.3295C186.994 14.9986 187.346 14.6418 187.739 14.3419C189.492 13.0079 191.229 13.4112 192.222 15.3657C192.201 15.4794 192.232 15.5828 192.315 15.6656C192.325 19.3832 192.341 23.1008 192.351 26.8235C192.325 27.0717 192.423 27.2061 192.687 27.1751C194.605 27.1751 196.529 27.17 198.447 27.17C199.285 27.17 198.763 21.9477 198.763 21.2911C198.752 18.9954 198.825 16.6997 198.975 14.404C199.031 13.8352 199.011 13.344 198.928 12.8838Z" fill="white"/>
<path d="M125.91 8.13718C124.478 7.72871 123.971 8.25093 123.501 9.51771C122.358 12.6045 121.06 15.6293 119.716 18.9436C118.351 15.4224 117.125 12.2322 115.869 9.05236C115.688 8.58702 115.734 7.82695 114.866 7.97172C113.046 8.28196 111.226 8.59736 109.039 8.9748C111.96 12.6459 111.396 16.1411 109.023 19.6106C107.56 16.0739 106.107 12.5425 104.633 9.02134C104.437 8.55082 104.458 7.82178 103.604 7.95621C101.583 8.27678 99.5611 8.59736 97.3792 8.94378C99.9179 14.9364 102.369 20.7222 104.82 26.5028C104.83 26.9734 104.975 27.2991 105.538 27.1595C107.234 27.1595 108.935 27.1595 110.631 27.1647C110.879 27.206 111.024 27.0716 111.117 26.8648C112.022 24.688 112.927 22.5164 113.914 20.1483C114.923 22.5164 115.843 24.6725 116.758 26.8338C116.753 27.0457 116.825 27.1854 117.068 27.1595C118.878 27.3094 120.693 27.2888 122.503 27.1698C122.756 27.206 122.839 27.0561 122.854 26.8389C125.409 20.9239 127.968 15.0088 130.595 8.93344C128.888 8.64906 127.353 8.54565 125.91 8.13718Z" fill="white"/>
<path d="M94.1735 9.10384C90.7041 7.23729 87.6018 8.38514 84.5822 10.7429C84.5822 7.35104 84.5615 4.26941 84.5977 1.18261C84.608 0.344991 84.4271 -0.0427976 83.486 0.00373701C82.0228 0.0761242 80.5492 0.0554421 79.0859 0.00890752C78.2586 -0.016945 77.8709 0.174364 77.8709 1.1154C77.9019 9.4451 77.9019 17.7748 77.8709 26.0993C77.8657 26.999 78.1811 27.273 79.0497 27.2368C80.4561 27.18 81.878 27.1541 83.2792 27.242C84.3288 27.3092 84.6287 26.968 84.6029 25.9235C84.5356 22.8884 84.5718 19.8482 84.5822 16.8079C84.5873 15.1327 85.9007 13.8969 87.7155 13.84C89.4218 13.7883 90.2697 14.6259 90.3163 16.6218C90.3783 19.6052 90.3318 22.5885 90.3731 25.5668C90.3783 26.0735 90.0629 26.6836 90.6524 27.1024C92.4569 27.1334 94.2562 27.1334 96.0555 27.211C96.8983 27.2472 97.0948 26.9163 97.0845 26.1407C97.0328 22.0922 97.0276 18.0437 97.0069 13.9951C96.8053 11.9321 96.0814 10.1276 94.1735 9.10384Z" fill="white"/>
<path d="M142.704 8.19429C136.975 7.31014 131.991 9.78164 130.295 14.3575C127.725 21.2912 132.27 27.5062 139.963 27.6354C140.915 27.5372 141.887 27.532 142.818 27.3252C147.807 26.2187 150.822 22.2891 150.651 17.1858C150.501 12.703 147.119 8.8768 142.704 8.19429ZM140.605 22.5114C138.402 22.6045 136.577 20.7069 136.406 18.1424C136.179 14.7505 138.278 12.553 140.956 13.3803C142.652 13.9077 143.872 15.857 143.878 18.0545C143.888 20.8259 142.714 22.4235 140.605 22.5114Z" fill="white"/>
<path d="M43.4456 23.1784C42.4528 23.1267 42.1322 22.4597 41.791 21.741C41.7755 21.2963 41.7651 20.8517 41.7496 20.4018C41.7496 18.5921 41.7445 16.7825 41.7393 14.9728C41.791 14.8642 41.7858 14.7608 41.7289 14.6574C41.6462 10.9656 39.9348 8.9388 36.3516 8.1839C33.5078 7.58412 30.7519 7.93055 28.0271 8.80436C25.1678 9.71955 25.0954 9.84881 25.3643 12.8529C25.447 13.7887 25.7107 14.1765 26.75 13.7836C27.9547 13.3286 29.2163 12.977 30.4779 12.7391C31.755 12.5013 33.0838 12.4496 34.1903 13.3596C34.6764 13.7629 35.1159 14.3213 34.9297 14.9573C34.7487 15.5881 34.0662 15.2623 33.6112 15.3037C31.2483 15.5105 28.8802 15.7122 26.781 16.9634C24.3664 18.3957 23.4202 21.0171 24.2526 23.8506C24.9403 26.1928 26.9154 27.4906 29.6765 27.5578C31.6309 27.6044 33.3062 26.9529 34.8884 25.8929C35.1882 25.6913 35.5192 24.9209 36.0983 25.6809C37.5563 27.5837 39.6297 27.6871 41.7651 27.5061C43.156 27.3872 44.1074 27.4027 44.1591 25.774C44.1953 24.9053 44.6916 23.2456 43.4456 23.1784ZM34.5212 22.7803C33.4406 23.3232 32.3703 23.7989 31.1863 23.1525C30.4107 22.7286 30.1625 22.0202 30.2297 21.1671C30.3435 19.7452 31.3879 19.2333 32.5151 18.7938C32.5668 18.7731 32.6237 18.7628 32.6754 18.7473C35.1003 17.982 35.1831 18.0389 35.1831 20.6448C35.028 21.3118 35.576 22.2529 34.5212 22.7803Z" fill="white"/>
<path d="M163.789 7.95109C161.561 8.44229 160.32 10.0969 159.239 12.0772C158.831 11.1827 158.836 10.3502 158.774 9.53326C158.691 8.38541 158.438 7.60983 156.954 8.10103C156.007 8.41126 154.953 8.49916 153.95 8.5095C152.864 8.51467 152.667 8.98519 152.678 9.95725C152.719 15.3036 152.688 20.6447 152.714 25.991C152.714 26.3788 152.424 26.9114 153.034 27.1544C153.143 27.1544 153.257 27.1595 153.365 27.1595C155.175 27.1595 156.99 27.1595 158.8 27.1595C158.908 27.1544 159.017 27.1492 159.125 27.1389C159.751 26.8131 159.425 26.2392 159.43 25.7945C159.467 23.4885 159.446 21.1824 159.451 18.8764C159.456 16.8702 161.24 14.4659 163.179 14.6314C165.526 14.8279 165.418 13.4629 165.599 12.0255C165.692 11.3016 165.826 10.5829 165.925 9.85901C166.173 7.90455 165.759 7.51159 163.789 7.95109Z" fill="white"/>
<path d="M57.1422 7.93536C55.8289 8.19905 54.7637 8.92293 53.9365 9.96737C53.4297 10.6085 52.9747 11.291 52.4008 12.0925C52.2405 10.8722 52.0958 9.83294 51.9665 8.79366C51.9096 8.34383 51.9148 7.79058 51.2374 7.96121C49.5777 8.37485 47.7939 8.10599 46.2117 8.90741C46.191 9.02117 46.1703 9.13492 46.1548 9.2435C45.9842 15.0965 45.9946 20.9495 46.1497 26.8077C46.129 27.0973 46.2841 27.18 46.5426 27.1593C48.4661 27.1593 50.3895 27.1593 52.3129 27.1593C52.8817 27.0146 52.6852 26.544 52.6852 26.2028C52.6852 24.5896 52.68 22.9764 52.6697 21.3632C52.6593 19.9206 52.2974 18.2247 53.1454 16.9889C53.8124 16.022 54.5828 14.9828 55.7255 14.7191C56.3046 14.5846 56.9147 14.6777 57.4989 14.5588C58.7295 14.3158 58.8329 13.1059 58.864 12.0614C58.8846 11.3376 59.076 10.624 59.1949 9.90532C59.5206 7.93536 59.1277 7.53723 57.1422 7.93536Z" fill="white"/>
<path d="M21.3622 20.7069C14.3769 20.7637 7.39149 20.7637 0.406126 20.7792C0.307886 20.7224 0.209646 20.7275 0.116577 20.7896C0.116577 20.8775 0.126918 20.9654 0.1476 21.0481C0.1476 22.9767 0.1476 24.9053 0.1476 26.8339C0.235499 26.9373 0.323398 27.0407 0.411296 27.1441C3.93242 27.139 7.44837 27.139 10.9695 27.1338C13.9063 27.1286 16.8328 27.1958 19.7645 27.2837C20.1006 27.2941 20.4625 27.2941 20.7366 27.1028C21.6259 26.4668 21.8999 22.8112 22.1688 21.7771C22.3653 21.0119 22.2981 20.7017 21.3622 20.7069Z" fill="white"/>
<path d="M75.3734 21.7976C74.9908 21.8804 74.6134 21.9734 74.2256 22.0406C70.8182 22.6611 69.9289 21.9476 69.8565 18.5195C69.8462 18.0697 69.8565 17.6199 69.8565 17.1752C69.8565 13.5817 69.8617 13.4834 73.4086 13.6231C75.058 13.6903 75.4975 13.2249 75.4251 11.6066C75.2907 8.65936 75.389 8.65419 72.5348 8.65419C69.9806 8.65419 69.9806 8.65419 69.8772 6.17234C69.9341 6.06893 69.9341 5.96552 69.8875 5.86211C69.8875 5.62944 69.8927 5.39676 69.8927 5.15892C69.8048 4.48158 70.3167 3.72152 69.6031 3.13208C68.6983 3.13208 67.7935 3.13725 66.8886 3.13725C66.4285 3.13725 66.051 4.96244 65.8649 5.37091C65.4409 6.3016 64.8876 7.1961 64.019 7.78037C62.2714 8.94891 60.4462 8.72141 60.7771 11.3687C60.8236 11.7565 60.8184 12.1598 60.7771 12.5528C60.715 13.1112 60.896 13.5817 61.5423 13.5972C61.8474 13.6024 62.1524 13.5196 62.4575 13.5558C63.1865 13.6386 63.2072 14.44 63.2124 15.0036C63.2382 17.7026 62.9694 20.4068 63.4296 23.0954C63.7863 25.1843 64.9549 26.6321 66.992 27.1543C69.8358 27.8885 72.6744 27.8006 75.3838 26.4821C75.6009 26.4666 75.7561 26.389 75.725 26.1305C75.725 24.8896 75.725 23.6487 75.7199 22.4078C75.7561 22.1285 75.8957 21.7821 75.3734 21.7976Z" fill="white"/>
<path d="M20.9124 27.1389L21.052 27.1234C21.0985 27.0251 21.0985 26.9269 21.0571 26.8235C20.9641 26.9217 20.8658 27.02 20.7728 27.1234L20.9124 27.1389Z" fill="white"/>
<path d="M198.773 26.8286C198.675 26.9424 198.571 27.0561 198.473 27.1699C198.587 27.1699 198.7 27.1699 198.814 27.1647C198.799 27.0561 198.783 26.9424 198.773 26.8286Z" fill="white"/>
<path d="M0.142364 6.21403C0.116512 6.30192 0.111341 6.38982 0.126853 6.48289L0.261286 6.52426L0.40089 6.50357C7.08119 6.50357 13.7563 6.4984 20.4366 6.4984C20.6434 6.50357 20.752 6.41568 20.7469 6.20368C20.752 4.28542 20.752 2.36716 20.7572 0.448903C20.7986 0.345492 20.7934 0.242082 20.7417 0.138672C13.8649 0.143842 6.99329 0.149013 0.116512 0.159354C0.106171 0.252423 0.116512 0.345492 0.142364 0.438562C0.142364 2.36199 0.142364 4.28542 0.142364 6.21403Z" fill="white"/>
<path d="M1.04203 14.0579C1.07305 14.0734 1.0989 14.0941 1.12475 14.1096C2.20022 14.8024 2.94477 15.6142 3.90649 16.4311C8.82882 20.9502 16.8948 18.8819 18.901 12.5377C19.2629 11.3899 19.8524 10.149 19.0561 8.90803C18.9475 8.90286 18.8389 8.90286 18.7252 8.89769C17.2516 8.89769 15.7832 8.89769 14.3096 8.89252C14.0665 8.85115 13.9218 8.9649 13.8597 9.19241C13.7718 9.39406 13.6788 9.59054 13.6012 9.79736C12.2724 13.1065 10.0129 13.6287 7.39142 11.2348C5.33355 9.35786 2.82068 8.79428 0.121674 8.84598C0.0647988 8.9649 0.0699693 9.089 0.111333 9.21826C0.111333 9.93179 -0.354013 13.9596 0.618044 13.9958C0.711113 14.001 0.804182 13.9803 0.892081 13.9958C0.948957 14.0113 0.995491 14.032 1.04203 14.0579Z" fill="white"/>
<path d="M0.132077 27.1024L0.266511 27.1541L0.411285 27.1437C0.323386 27.0403 0.235488 26.9369 0.147589 26.8335C0.121736 26.9214 0.116566 27.0145 0.132077 27.1024Z" fill="white"/>
</svg>
