<svg width="225" height="60" viewBox="0 0 225 60" fill="none" xmlns="http://www.w3.org/2000/svg">
<path d="M0 31.1231C0 31.5066 0 31.89 0 32.2735C0.306768 32.5803 0.0536844 33.1248 0.460151 33.4315C0.575189 32.8257 0.529174 31.8517 0.37579 31.3915C0.314437 31.1998 0.268422 31.0081 0 31.1231Z" fill="white"/>
<path d="M27.6935 59.0158C27.6705 59.0465 27.7395 59.1538 27.7702 59.2305C28.3224 59.2305 28.8822 59.2305 29.4344 59.2305C29.1737 58.8701 27.9389 58.7167 27.6935 59.0158Z" fill="white"/>
<path d="M30.4774 58.8622C30.0096 58.9389 30.4007 59.1 30.462 59.2304C30.7611 59.2304 31.0602 59.2304 31.3593 59.2304C31.413 58.9696 31.8425 59.2457 31.8578 58.8546C31.3823 58.7932 30.9299 58.7856 30.4774 58.8622Z" fill="white"/>
<path d="M32.502 59.223C32.9698 59.223 33.4377 59.223 33.9131 59.223C33.9055 59.0236 34.1892 59.1693 34.2046 58.9162C33.6064 58.8549 33.0312 58.8702 32.502 59.223Z" fill="white"/>
<path d="M76.6076 14.6879C75.1121 14.7186 73.6243 14.7262 72.1288 14.6879C71.5843 14.6725 71.4002 14.7799 71.4155 15.3781C71.4539 17.7632 71.4232 20.1483 71.4385 22.5258C71.4385 22.9476 71.3312 23.0626 70.9094 23.0626C68.4782 23.0396 66.0471 23.0396 63.616 23.0626C63.1098 23.0703 63.0254 22.9016 63.0254 22.4414C63.0485 20.0333 63.0254 17.6329 63.0408 15.2247C63.0408 14.8029 62.9257 14.6802 62.5039 14.6879C60.9241 14.7109 59.3519 14.7186 57.7721 14.6879C57.2889 14.6802 57.1662 14.8106 57.1739 15.2861C57.1969 18.9443 57.1892 22.6025 57.1892 26.2684C57.1892 29.9342 57.1969 33.5924 57.1739 37.2506C57.1739 37.7415 57.3119 37.8565 57.7797 37.8488C59.3366 37.8181 60.8934 37.8181 62.4503 37.8488C62.9411 37.8565 63.0561 37.7108 63.0485 37.2353C63.0254 34.3593 63.0485 31.4911 63.0254 28.6151C63.0178 28.1013 63.1712 27.9786 63.6697 27.9863C66.0394 28.0093 68.4015 28.0246 70.7713 27.9786C71.3772 27.9709 71.4539 28.1703 71.4462 28.6918C71.4232 31.5217 71.4462 34.3517 71.4232 37.1816C71.4155 37.7261 71.5766 37.8488 72.0981 37.8412C73.6319 37.8028 75.1658 37.8105 76.6996 37.8412C77.1904 37.8488 77.2901 37.6954 77.2901 37.2276C77.2748 29.9266 77.2748 22.6332 77.2901 15.3321C77.2901 14.7876 77.1137 14.6802 76.6076 14.6879Z" fill="white"/>
<path d="M161.352 33.2091C157.686 33.2321 154.02 33.2091 150.347 33.2321C149.841 33.2321 149.641 33.1478 149.657 32.5879C149.703 31.2075 149.695 29.8193 149.657 28.4389C149.641 27.9174 149.772 27.764 150.316 27.7717C153.453 27.8023 156.582 27.7793 159.718 27.7947C160.133 27.7947 160.263 27.6873 160.255 27.2655C160.225 26.1841 160.217 25.0951 160.255 24.0138C160.278 23.4923 160.133 23.3389 159.596 23.3465C156.459 23.3772 153.33 23.3542 150.193 23.3696C149.779 23.3696 149.649 23.2622 149.664 22.8404C149.695 21.8434 149.71 20.8387 149.657 19.8417C149.634 19.3049 149.833 19.2282 150.301 19.2282C153.668 19.2435 157.042 19.2282 160.409 19.2512C160.9 19.2512 161.015 19.1208 160.999 18.6453C160.961 17.518 160.969 16.3906 160.999 15.2632C161.015 14.8107 160.869 14.7034 160.432 14.7034C155.102 14.7187 149.772 14.7187 144.441 14.7034C143.951 14.7034 143.843 14.8491 143.851 15.3169C143.874 18.9598 143.859 22.595 143.859 26.2378C143.859 29.896 143.859 33.5619 143.859 37.2201C143.859 37.5499 143.805 37.8183 144.319 37.8183C150.078 37.803 155.83 37.803 161.59 37.8106C161.92 37.8106 162.027 37.7263 162.019 37.3812C161.996 36.2078 161.981 35.0421 162.027 33.8687C162.05 33.3011 161.866 33.2091 161.352 33.2091Z" fill="white"/>
<path d="M100.098 33.2094C96.4554 33.24 92.8049 33.217 89.162 33.2324C88.6405 33.2324 88.4104 33.1634 88.4334 32.5498C88.4871 31.1694 88.4718 29.7812 88.4411 28.4008C88.4257 27.9023 88.5638 27.7642 89.07 27.7642C92.2067 27.7873 95.3357 27.7642 98.4724 27.7873C98.9172 27.7873 99.0552 27.6722 99.0399 27.2197C99.0092 26.1537 98.9939 25.0877 99.0399 24.0293C99.0629 23.4618 98.9095 23.3238 98.342 23.3238C95.2283 23.3545 92.1146 23.3315 89.0009 23.3468C88.5561 23.3468 88.4181 23.2318 88.4334 22.7793C88.4718 21.8436 88.4794 20.908 88.4334 19.9723C88.4027 19.3742 88.5408 19.1824 89.185 19.1901C92.5134 19.2284 95.8342 19.1978 99.1626 19.2208C99.6381 19.2208 99.7915 19.1134 99.7761 18.6226C99.7378 17.5182 99.7378 16.4062 99.7761 15.3018C99.7915 14.788 99.6304 14.6653 99.1319 14.6729C93.8479 14.6883 88.5561 14.6959 83.2721 14.6729C82.7352 14.6729 82.6585 14.857 82.6585 15.3248C82.6739 18.96 82.6662 22.6029 82.6662 26.2381C82.6662 29.8963 82.6662 33.5545 82.6585 37.2204C82.6585 37.5731 82.6508 37.7879 83.1417 37.7879C88.8552 37.7649 94.5688 37.7725 100.282 37.7802C100.673 37.7802 100.796 37.6805 100.788 37.2817C100.765 36.1543 100.75 35.027 100.796 33.8996C100.827 33.3628 100.673 33.2094 100.098 33.2094Z" fill="white"/>
<path d="M220.244 24.4661C218.825 24.075 217.376 23.8449 215.934 23.5919C214.745 23.3771 213.51 23.3848 212.36 22.963C211.263 22.5642 210.749 21.6669 211.064 20.6776C211.309 19.8953 211.892 19.4121 212.644 19.113C214.147 18.5149 215.612 18.8063 217.069 19.2971C218.257 19.7036 219.216 20.5012 220.221 21.2067C220.589 21.4675 220.773 21.4215 221.041 21.0994C221.87 20.1254 222.706 19.1591 223.572 18.2311C223.887 17.9013 223.795 17.7479 223.496 17.5025C220.995 15.3935 218.127 14.2585 214.852 14.2124C212.582 14.1818 210.389 14.5499 208.433 15.7846C205.925 17.3721 204.982 19.7496 205.228 22.6102C205.465 25.4325 207.283 26.9586 209.814 27.8099C210.987 28.2087 212.207 28.3851 213.426 28.5845C214.852 28.8146 216.317 28.8452 217.69 29.3361C218.472 29.6122 219.116 30.057 219.208 30.9619C219.293 31.8592 218.825 32.5035 218.096 32.9713C217.061 33.6538 215.888 33.8609 214.676 33.8072C212.598 33.7152 210.711 33.0556 209.1 31.7135C208.709 31.3837 208.472 31.3071 208.096 31.7749C207.39 32.6492 206.6 33.4621 205.849 34.3057C205.112 35.1186 205.12 35.111 205.964 35.7782C208.449 37.7645 211.371 38.355 214.469 38.4011C215.696 38.3857 216.931 38.2937 218.135 38.0253C221.271 37.3274 223.649 35.7168 224.646 32.5111C225.827 28.7225 224.055 25.5092 220.244 24.4661Z" fill="white"/>
<path d="M195.61 15.1249C195.488 14.7874 195.296 14.7491 194.989 14.7491C193.348 14.7567 191.707 14.7797 190.066 14.7414C189.544 14.7261 189.337 14.9024 189.161 15.3703C186.875 21.5593 184.574 27.7407 182.274 33.922C181.791 35.2258 181.315 36.5296 180.817 37.8793C182.795 37.8793 184.697 37.8717 186.591 37.887C186.944 37.887 187.059 37.749 187.151 37.4422C187.42 36.5065 187.726 35.5786 188.003 34.6429C188.095 34.3285 188.21 34.1598 188.601 34.1674C191.139 34.1905 193.67 34.1905 196.209 34.1674C196.561 34.1674 196.692 34.3055 196.776 34.6046C197.06 35.5632 197.359 36.5142 197.658 37.4652C197.719 37.6646 197.735 37.887 198.034 37.887C199.989 37.8793 201.945 37.887 203.947 37.887C203.901 37.7259 203.885 37.6262 203.847 37.5265C201.109 30.0491 198.356 22.587 195.61 15.1249ZM189.536 29.9494C190.457 26.805 191.369 23.6837 192.282 20.5623C192.328 20.5623 192.374 20.5623 192.42 20.57C193.386 23.6837 194.345 26.7974 195.319 29.9494C193.371 29.9494 191.484 29.9494 189.536 29.9494Z" fill="white"/>
<path d="M140.231 14.7339C138.529 14.7723 136.818 14.7646 135.116 14.7339C134.732 14.7262 134.602 14.8796 134.51 15.2094C134.264 16.1297 133.988 17.05 133.728 17.9703C132.478 22.2881 131.227 26.6058 129.939 31.0693C129.686 30.2027 129.464 29.4741 129.249 28.7455C127.937 24.2437 126.618 19.7419 125.307 15.2324C125.238 14.987 125.23 14.7416 124.854 14.7416C122.922 14.7569 120.981 14.7493 119.033 14.7493C119.041 14.8643 119.033 14.9333 119.049 14.987C121.618 22.4721 124.195 29.9573 126.749 37.4501C126.871 37.8105 127.055 37.8795 127.401 37.8795C129.042 37.8642 130.683 37.8565 132.324 37.8795C132.715 37.8872 132.861 37.7492 132.984 37.3887C133.735 35.157 134.518 32.9329 135.292 30.7088C137.071 25.6012 138.843 20.4858 140.638 15.3781C140.806 14.9333 140.852 14.7262 140.231 14.7339Z" fill="white"/>
<path d="M181.99 18.7527C181.959 17.5793 181.959 16.4136 181.99 15.2402C182.005 14.7724 181.836 14.688 181.407 14.688C179.635 14.711 177.871 14.6957 176.1 14.6957C172.35 14.6957 168.592 14.7033 164.841 14.688C164.343 14.688 164.128 14.757 164.151 15.3322C164.197 16.4596 164.19 17.5869 164.151 18.7143C164.136 19.1821 164.243 19.3355 164.742 19.3278C166.322 19.2972 167.894 19.3355 169.474 19.3048C170.018 19.2895 170.195 19.4045 170.187 19.9951C170.149 22.848 170.172 25.7009 170.172 28.5539C170.172 31.4068 170.187 34.2598 170.156 37.1127C170.149 37.6649 170.256 37.8873 170.869 37.8643C172.342 37.8106 173.814 37.8183 175.279 37.8643C175.839 37.8796 175.985 37.7416 175.985 37.1664C175.962 31.4222 175.977 25.6779 175.962 19.926C175.962 19.4582 176.062 19.3048 176.56 19.3125C178.178 19.3432 179.804 19.3048 181.422 19.3355C181.898 19.3355 181.997 19.1898 181.99 18.7527Z" fill="white"/>
<path d="M119.333 32.9253C116.779 32.9483 114.217 32.9177 111.663 32.9483C111.065 32.956 110.881 32.841 110.889 32.2044C110.919 26.6059 110.896 21.0151 110.919 15.4166C110.919 14.8107 110.743 14.6727 110.176 14.688C108.726 14.7263 107.277 14.7263 105.827 14.688C105.267 14.6727 105.076 14.7954 105.076 15.4089C105.106 19.0288 105.091 22.6409 105.091 26.2608C105.091 29.919 105.099 33.5772 105.083 37.2354C105.083 37.7032 105.152 37.895 105.697 37.895C110.26 37.8719 114.815 37.8719 119.379 37.8873C119.816 37.8873 119.969 37.7953 119.954 37.3274C119.923 36.0543 119.915 34.7736 119.954 33.5005C119.961 32.9943 119.777 32.9177 119.333 32.9253Z" fill="white"/>
<path d="M27.9235 31.6216C28.5907 31.5986 29.0892 31.0541 29.0816 30.3562C29.0739 29.666 28.5524 29.1138 27.9082 29.0985C27.2486 29.0908 26.6581 29.6967 26.6658 30.3715C26.6581 31.0541 27.2563 31.6446 27.9235 31.6216Z" fill="white"/>
<path d="M26.4894 27.7714C27.1719 27.7944 27.7471 27.2346 27.7548 26.5443C27.7625 25.8695 27.2333 25.3096 26.5737 25.2943C25.9372 25.2866 25.3543 25.8464 25.339 26.4983C25.316 27.1732 25.8375 27.7407 26.4894 27.7714Z" fill="white"/>
<path d="M24.1733 26.6059C24.1656 25.9233 23.6211 25.3865 22.9616 25.3941C22.2944 25.4095 21.7345 26.0077 21.7575 26.6979C21.7805 27.3651 22.2944 27.8713 22.9386 27.8713C23.6135 27.8789 24.181 27.2884 24.1733 26.6059Z" fill="white"/>
<path d="M29.9712 27.8788C30.6308 27.9018 31.1983 27.3573 31.206 26.6824C31.2136 25.9998 30.6921 25.417 30.0479 25.394C29.419 25.371 28.8208 25.9462 28.8055 26.6057C28.7902 27.2806 29.3193 27.8558 29.9712 27.8788Z" fill="white"/>
<path d="M31.3747 29.4283C30.6844 29.413 30.1323 29.9575 30.1246 30.6707C30.1169 31.3533 30.6384 31.8901 31.3057 31.8978C31.9882 31.9054 32.502 31.3993 32.502 30.7014C32.5097 29.9805 32.0342 29.436 31.3747 29.4283Z" fill="white"/>
<path d="M33.4684 28.6995C34.1279 28.6995 34.6648 28.1474 34.6571 27.4725C34.6494 26.7746 34.1203 26.2224 33.4684 26.2301C32.8165 26.2377 32.2643 26.8052 32.272 27.4648C32.2797 28.132 32.8242 28.6995 33.4684 28.6995Z" fill="white"/>
<path d="M27.3867 34.375C27.3943 35.0346 27.9465 35.5944 28.5984 35.5944C29.235 35.5944 29.7641 35.0729 29.7718 34.4211C29.7795 33.7308 29.258 33.1786 28.6061 33.171C27.9389 33.1633 27.379 33.7155 27.3867 34.375Z" fill="white"/>
<path d="M23.9202 24.2132C24.5951 24.2132 25.155 23.6687 25.155 23.0168C25.155 22.3419 24.6488 21.8051 24.0199 21.8204C23.3297 21.8357 22.7622 22.4186 22.7775 23.0935C22.7929 23.7147 23.299 24.2132 23.9202 24.2132Z" fill="white"/>
<path d="M33.223 34.5817C33.246 33.8761 32.7398 33.3086 32.0726 33.3162C31.4667 33.3162 30.8915 33.8761 30.8609 34.4973C30.8302 35.1338 31.367 35.7014 31.9959 35.7167C32.6478 35.732 33.2 35.2182 33.223 34.5817Z" fill="white"/>
<path d="M19.3494 25.1795C18.6515 25.1795 18.1299 25.7394 18.1453 26.4679C18.1606 27.1352 18.6898 27.6797 19.3033 27.6567C19.9245 27.6337 20.4767 27.0125 20.4537 26.3529C20.4384 25.6934 19.9475 25.1719 19.3494 25.1795Z" fill="white"/>
<path d="M34.7568 32.795C35.4623 32.795 35.9838 32.2352 35.9532 31.522C35.9225 30.8394 35.424 30.3332 34.7951 30.3409C34.1356 30.3562 33.6294 30.9008 33.6294 31.5987C33.6371 32.2889 34.1126 32.795 34.7568 32.795Z" fill="white"/>
<path d="M37.9318 28.3081C37.9318 27.5796 37.4563 27.035 36.8121 27.012C36.1449 26.9967 35.6234 27.5335 35.6311 28.2314C35.6311 28.9293 36.1449 29.4815 36.7891 29.4892C37.441 29.4892 37.9318 28.9907 37.9318 28.3081Z" fill="white"/>
<path d="M27.8621 24.2744C28.4986 24.2514 29.0355 23.7069 29.0278 23.0857C29.0201 22.4338 28.4986 21.9123 27.8621 21.9046C27.1719 21.8969 26.612 22.4798 26.635 23.1624C26.658 23.7989 27.2102 24.2974 27.8621 24.2744Z" fill="white"/>
<path d="M36.421 24.474C36.4287 23.7915 35.9072 23.2239 35.2706 23.2086C34.6034 23.1933 34.1432 23.6764 34.1432 24.382C34.1432 25.0799 34.6494 25.6244 35.309 25.6167C35.9302 25.6167 36.4133 25.1182 36.421 24.474Z" fill="white"/>
<path d="M38.1849 31.054C37.5407 31.0464 36.9962 31.6062 36.9885 32.2964C36.9808 32.9483 37.4486 33.4928 38.0392 33.5235C38.6604 33.5542 39.2279 32.9637 39.2432 32.2811C39.2509 31.6216 38.7677 31.0617 38.1849 31.054Z" fill="white"/>
<path d="M30.4543 23.1392C30.4543 23.8065 30.9452 24.328 31.5894 24.351C32.2489 24.374 32.7551 23.8755 32.7628 23.2006C32.7704 22.495 32.2643 21.9582 31.6047 21.9505C30.9682 21.9429 30.4543 22.472 30.4543 23.1392Z" fill="white"/>
<path d="M40.8998 29.459C40.9305 28.7458 40.4244 28.1706 39.7878 28.1629C39.1666 28.1553 38.6835 28.6768 38.6758 29.3823C38.6604 30.0726 39.1283 30.6247 39.7495 30.6401C40.363 30.6554 40.8692 30.1416 40.8998 29.459Z" fill="white"/>
<path d="M35.1478 34.1219C34.5113 34.1142 33.9284 34.6894 33.9284 35.349C33.9208 35.9932 34.4116 36.4917 35.0405 36.4917C35.7154 36.484 36.2292 35.9472 36.2139 35.2569C36.1985 34.6281 35.7384 34.1296 35.1478 34.1219Z" fill="white"/>
<path d="M20.216 21.9198C19.5411 21.9121 18.9583 22.4949 18.9583 23.1852C18.9583 23.7987 19.4414 24.2819 20.0549 24.2742C20.7222 24.2665 21.2667 23.722 21.2667 23.0471C21.2667 22.3952 20.8219 21.9198 20.216 21.9198Z" fill="white"/>
<path d="M38.7831 25.9156C39.4196 25.9156 39.8491 25.4785 39.8491 24.8266C39.8568 24.1287 39.3583 23.5382 38.7294 23.5151C38.1235 23.4921 37.6327 24.006 37.625 24.6579C37.6174 25.3558 38.1389 25.9156 38.7831 25.9156Z" fill="white"/>
<path d="M43.6607 30.5558C43.653 29.8579 43.2159 29.3364 42.6254 29.3287C42.0348 29.321 41.5287 29.8962 41.5133 30.5788C41.5057 31.2383 41.9888 31.8058 42.5563 31.8058C43.1929 31.8058 43.6684 31.2613 43.6607 30.5558Z" fill="white"/>
<path d="M28.0386 39.1911C28.6675 39.1757 29.1813 38.6466 29.1506 38.033C29.12 37.3965 28.5524 36.8673 27.9312 36.8826C27.31 36.898 26.8192 37.4195 26.8269 38.0484C26.8422 38.7002 27.3867 39.2141 28.0386 39.1911Z" fill="white"/>
<path d="M42.6177 26.5138C42.61 25.8159 42.1345 25.2637 41.5363 25.2484C40.9305 25.233 40.4626 25.7545 40.4626 26.4294C40.4626 27.1273 40.9995 27.7102 41.6284 27.6948C42.2036 27.6718 42.6254 27.1733 42.6177 26.5138Z" fill="white"/>
<path d="M31.1983 39.1681C31.8501 39.1834 32.3717 38.6773 32.3793 38.0254C32.387 37.3735 31.9268 36.8903 31.2903 36.875C30.6461 36.852 30.1092 37.3658 30.0939 38.0101C30.0786 38.6082 30.5924 39.1528 31.1983 39.1681Z" fill="white"/>
<path d="M21.9952 20.9843C22.6701 20.969 23.2453 20.4168 23.2376 19.7803C23.2299 19.1821 22.7774 18.7219 22.1946 18.7219C21.5197 18.7219 20.9062 19.3201 20.9138 19.9643C20.9292 20.5549 21.397 20.992 21.9952 20.9843Z" fill="white"/>
<path d="M16.7035 22.8251C16.09 22.7867 15.5301 23.3543 15.4918 24.0598C15.4534 24.681 15.8676 25.2025 16.4198 25.2255C17.0256 25.2562 17.6238 24.658 17.6392 23.9908C17.6622 23.3619 17.2634 22.8558 16.7035 22.8251Z" fill="white"/>
<path d="M36.9808 36.1923C36.9731 36.8212 37.441 37.335 38.0238 37.3274C38.645 37.3197 39.1665 36.7675 39.1819 36.1156C39.1972 35.4561 38.7754 34.9729 38.1772 34.9576C37.533 34.9422 36.9885 35.5021 36.9808 36.1923Z" fill="white"/>
<path d="M26.9035 19.466C26.8958 18.8294 26.4434 18.3923 25.8145 18.4076C25.1856 18.423 24.6334 18.9598 24.6181 19.581C24.6028 20.1869 25.0782 20.6547 25.6995 20.6547C26.3897 20.6547 26.9112 20.1485 26.9035 19.466Z" fill="white"/>
<path d="M41.9658 33.8762C41.9658 33.2166 41.5286 32.7104 40.9534 32.7104C40.3322 32.7104 39.7954 33.301 39.8031 33.9989C39.8031 34.6354 40.2172 35.0956 40.7847 35.1109C41.4289 35.1262 41.9658 34.5664 41.9658 33.8762Z" fill="white"/>
<path d="M38.2155 21.2603C38.2155 20.5854 37.6556 20.0025 37.0191 20.0179C36.4439 20.0332 36.0068 20.5164 36.0144 21.1146C36.0221 21.7818 36.5436 22.3186 37.1725 22.311C37.7707 22.311 38.2078 21.8585 38.2155 21.2603Z" fill="white"/>
<path d="M32.2643 20.4553C32.2643 21.0995 32.8165 21.6363 33.4531 21.621C34.0666 21.6057 34.5421 21.1148 34.5344 20.509C34.5191 19.8571 33.9899 19.3432 33.3457 19.3509C32.7322 19.3509 32.2643 19.8341 32.2643 20.4553Z" fill="white"/>
<path d="M29.6337 18.7144C29.0125 18.7144 28.4834 19.2282 28.468 19.8417C28.4527 20.4476 28.9895 20.9921 29.6031 20.9844C30.2473 20.9768 30.7458 20.4936 30.7458 19.8571C30.7381 19.1898 30.278 18.7144 29.6337 18.7144Z" fill="white"/>
<path d="M34.0742 39.6283C34.7031 39.636 35.2476 39.1068 35.2629 38.4703C35.2783 37.8567 34.8105 37.3736 34.2046 37.3582C33.5757 37.3506 33.0312 37.8721 33.0159 38.5163C33.0005 39.1222 33.476 39.6206 34.0742 39.6283Z" fill="white"/>
<path d="M44.5887 28.723C45.1485 28.723 45.555 28.2705 45.578 27.6187C45.601 26.8671 45.1409 26.2766 44.5273 26.2689C43.9751 26.2612 43.538 26.7751 43.5303 27.4499C43.515 28.1478 43.9905 28.7154 44.5887 28.723Z" fill="white"/>
<path d="M40.2709 38.9915C40.8844 38.9839 41.4596 38.3627 41.4443 37.7261C41.4289 37.1279 41.0071 36.6831 40.4703 36.6831C39.8491 36.6831 39.2739 37.3503 39.3122 38.0252C39.3352 38.5927 39.7417 38.9992 40.2709 38.9915Z" fill="white"/>
<path d="M43.2926 25.011C43.8448 25.0263 44.2666 24.5892 44.2742 23.9833C44.2896 23.2931 43.7681 22.6412 43.1775 22.6259C42.6484 22.6105 42.2189 23.0707 42.1959 23.6689C42.1882 24.3744 42.6867 24.9956 43.2926 25.011Z" fill="white"/>
<path d="M38.1312 39.076C38.1465 38.4855 37.7401 38.0407 37.1802 38.0254C36.536 38.0024 35.9762 38.5469 35.9608 39.2218C35.9455 39.8046 36.3443 40.2494 36.9041 40.2801C37.5407 40.2954 38.1159 39.7356 38.1312 39.076Z" fill="white"/>
<path d="M19.3571 19.9797C19.3724 19.3815 19.0196 18.952 18.4828 18.9213C17.8616 18.883 17.2327 19.5119 17.2021 20.1944C17.179 20.762 17.5548 21.1684 18.13 21.1914C18.7819 21.2068 19.3341 20.6623 19.3571 19.9797Z" fill="white"/>
<path d="M31.436 42.2895C32.0572 42.2971 32.5557 41.8293 32.5787 41.2311C32.6017 40.6329 32.1032 40.1114 31.5127 40.1038C30.8915 40.1038 30.37 40.6176 30.3776 41.2388C30.3853 41.837 30.8378 42.2818 31.436 42.2895Z" fill="white"/>
<path d="M28.2687 42.2357C28.9052 42.2587 29.4114 41.8139 29.4267 41.2233C29.442 40.5945 28.9435 40.073 28.3147 40.0653C27.6935 40.05 27.1796 40.5255 27.1796 41.116C27.1873 41.7142 27.6781 42.2127 28.2687 42.2357Z" fill="white"/>
<path d="M40.8154 22.8481C41.3906 22.8404 41.7817 22.4263 41.7894 21.8204C41.7971 21.1762 41.2142 20.532 40.6237 20.532C40.0868 20.532 39.665 20.9998 39.665 21.5903C39.6727 22.2882 40.1865 22.8557 40.8154 22.8481Z" fill="white"/>
<path d="M33.9285 17.8171C33.9515 18.4383 34.4884 18.9521 35.0789 18.9368C35.7001 18.9215 36.1142 18.492 36.0836 17.8784C36.0529 17.2649 35.5314 16.7511 34.9332 16.7434C34.358 16.7434 33.9055 17.2266 33.9285 17.8171Z" fill="white"/>
<path d="M30.4313 17.0041C30.4313 17.6406 30.8531 18.0854 31.4896 18.0931C32.1032 18.1084 32.617 17.633 32.6093 17.0578C32.6017 16.4902 32.0878 15.9611 31.5203 15.9381C30.9068 15.9151 30.4313 16.3829 30.4313 17.0041Z" fill="white"/>
<path d="M20.1547 18.2233C20.7913 18.2156 21.3818 17.6174 21.3741 16.9886C21.3664 16.421 20.9523 16.0222 20.4001 16.0529C19.7713 16.0836 19.2114 16.6895 19.2191 17.326C19.2191 17.8629 19.6102 18.231 20.1547 18.2233Z" fill="white"/>
<path d="M24.0582 17.2801C24.7255 17.2648 25.2393 16.751 25.2316 16.1067C25.224 15.5392 24.8328 15.1558 24.2653 15.1558C23.5828 15.1558 23.0229 15.7079 23.0459 16.3598C23.0689 16.8967 23.4984 17.2878 24.0582 17.2801Z" fill="white"/>
<path d="M27.8622 15.4703C27.2333 15.4856 26.7195 16.0071 26.7271 16.6207C26.7348 17.1959 27.2026 17.6177 27.8238 17.61C28.4374 17.6023 28.9282 17.1192 28.9205 16.521C28.9129 15.9458 28.422 15.4626 27.8622 15.4703Z" fill="white"/>
<path d="M46.1838 22.9322C45.67 22.9246 45.3172 23.3464 45.3019 23.9599C45.2865 24.6655 45.7927 25.3097 46.3679 25.325C46.8664 25.3327 47.2422 24.8879 47.2498 24.282C47.2498 23.5458 46.7743 22.9322 46.1838 22.9322Z" fill="white"/>
<path d="M35.0635 42.6194C35.6464 42.604 36.1909 42.0442 36.1909 41.4613C36.1909 40.8938 35.7537 40.449 35.1939 40.449C34.5497 40.4566 34.0205 40.9935 34.0358 41.63C34.0512 42.1975 34.5037 42.6347 35.0635 42.6194Z" fill="white"/>
<path d="M16.1974 20.5244C16.2127 19.9338 15.8829 19.5274 15.3844 19.4967C14.7709 19.466 14.1957 20.0872 14.1804 20.8081C14.165 21.3987 14.5025 21.7975 15.0086 21.7975C15.6068 21.7975 16.182 21.1839 16.1974 20.5244Z" fill="white"/>
<path d="M38.8138 17.3949C38.2693 17.3872 37.8858 17.786 37.8781 18.3689C37.8705 19.0591 38.3843 19.6036 39.0439 19.6113C39.5424 19.6189 39.9411 19.2125 39.9488 18.6756C39.9642 17.9931 39.435 17.4026 38.8138 17.3949Z" fill="white"/>
<path d="M38.415 42.4889C39.0285 42.4966 39.5577 41.9444 39.573 41.3002C39.5884 40.7096 39.2663 40.3415 38.7294 40.3185C38.1082 40.2955 37.5254 40.886 37.5177 41.5379C37.51 42.0671 37.9011 42.4889 38.415 42.4889Z" fill="white"/>
<path d="M28.7211 43.8692C28.6981 44.4214 29.1813 44.9199 29.7641 44.9352C30.37 44.9506 30.8378 44.5211 30.8378 43.9306C30.8378 43.363 30.3547 42.8875 29.7718 42.8875C29.235 42.8799 28.7441 43.3324 28.7211 43.8692Z" fill="white"/>
<path d="M29.7028 13.223C29.1046 13.2077 28.6138 13.6525 28.6061 14.2277C28.5984 14.7952 29.0969 15.2707 29.6798 15.263C30.2243 15.2554 30.6921 14.7876 30.6998 14.243C30.7075 13.6832 30.2703 13.2384 29.7028 13.223Z" fill="white"/>
<path d="M34.0435 43.7001C34.0512 43.1402 33.6601 42.7031 33.1309 42.6878C32.5097 42.6647 31.9805 43.1786 31.9805 43.7921C31.9882 44.3366 32.4023 44.7738 32.9315 44.7814C33.5067 44.7814 34.0359 44.2753 34.0435 43.7001Z" fill="white"/>
<path d="M44.8571 18.5454C44.8494 17.9242 44.2436 17.2646 43.6684 17.257C43.2159 17.2493 42.8784 17.6251 42.8861 18.1466C42.8938 18.7755 43.4843 19.4657 44.0288 19.481C44.5043 19.4964 44.8724 19.0822 44.8571 18.5454Z" fill="white"/>
<path d="M45.2405 37.9255C44.6807 37.9102 44.0672 38.6234 44.0825 39.2983C44.0978 39.7968 44.3049 40.1496 44.7497 40.1956C45.4323 40.211 45.9768 39.6051 46.0075 38.9072C46.0305 38.3703 45.693 37.9332 45.2405 37.9255Z" fill="white"/>
<path d="M37.694 15.6696C37.6787 15.0407 37.0881 14.4732 36.4899 14.5039C35.9914 14.5269 35.631 14.918 35.631 15.4318C35.631 16.0607 36.1985 16.6129 36.835 16.5822C37.3412 16.5669 37.7093 16.1758 37.694 15.6696Z" fill="white"/>
<path d="M33.2152 13.5531C32.6707 13.5684 32.2489 13.9979 32.2489 14.5347C32.2413 15.1176 32.7704 15.6314 33.3533 15.6161C33.9438 15.6007 34.3273 15.2173 34.3119 14.6574C34.3043 14.0669 33.7751 13.5377 33.2152 13.5531Z" fill="white"/>
<path d="M16.3584 18.3769C17.0333 18.3769 17.5624 17.8018 17.5548 17.0885C17.5471 16.5517 17.2327 16.2066 16.7572 16.2142C16.1743 16.2219 15.5684 16.9198 15.5838 17.5794C15.6068 18.0702 15.8215 18.3769 16.3584 18.3769Z" fill="white"/>
<path d="M26.3667 12.088C25.7608 12.0957 25.2546 12.5865 25.2623 13.1694C25.27 13.6832 25.6918 14.0743 26.2209 14.0667C26.8268 14.059 27.3406 13.5452 27.3253 12.9776C27.31 12.4485 26.9112 12.0803 26.3667 12.088Z" fill="white"/>
<path d="M46.6977 18.5838C46.1302 18.5991 46.0075 19.0132 45.9998 19.4657C45.9922 20.1636 46.5827 20.8692 47.1579 20.8385C47.7024 20.8078 47.8404 20.4167 47.8558 19.9489C47.8634 19.2433 47.2883 18.5684 46.6977 18.5838Z" fill="white"/>
<path d="M22.8081 12.4944C22.1869 12.5097 21.6194 13.0849 21.6271 13.6908C21.6348 14.1892 21.9645 14.5114 22.4784 14.5114C23.1226 14.5114 23.6901 13.9822 23.6901 13.3686C23.6901 12.8471 23.322 12.479 22.8081 12.4944Z" fill="white"/>
<path d="M36.2753 45.0272C36.8735 45.0349 37.441 44.4444 37.4333 43.8232C37.4256 43.317 37.0422 42.9566 36.5283 42.9719C35.9071 42.9872 35.4163 43.5011 35.424 44.1223C35.4316 44.6515 35.7844 45.0272 36.2753 45.0272Z" fill="white"/>
<path d="M43.3846 40.8397C42.8094 40.8167 42.2189 41.4533 42.2035 42.1128C42.1882 42.596 42.3646 42.9487 42.8938 42.9871C43.4766 43.0331 44.1439 42.3429 44.1208 41.691C44.1132 41.2155 43.9214 40.8551 43.3846 40.8397Z" fill="white"/>
<path d="M18.2834 14.78C18.2757 15.2938 18.5288 15.5776 19.0503 15.5852C19.6792 15.5929 20.3004 14.987 20.3004 14.3735C20.262 13.8904 20.0473 13.5606 19.5181 13.5452C18.8969 13.5376 18.291 14.1511 18.2834 14.78Z" fill="white"/>
<path d="M42.0042 16.5287C42.0042 15.8615 41.4443 15.2556 40.8308 15.2633C40.3399 15.2633 40.0485 15.593 40.0562 16.1452C40.0638 16.8124 40.6314 17.4106 41.2526 17.3723C41.7664 17.3416 42.0042 17.0348 42.0042 16.5287Z" fill="white"/>
<path d="M42.1115 14.5192C42.1039 15.194 42.679 15.8536 43.3002 15.8613C43.7681 15.8689 43.9828 15.5928 43.9981 15.2631C44.0058 14.5115 43.3769 13.7829 42.8018 13.7906C42.3569 13.7983 42.1192 14.059 42.1115 14.5192Z" fill="white"/>
<path d="M31.344 47.3738C31.9116 47.3661 32.3641 46.9213 32.3641 46.3768C32.3564 45.8706 31.9499 45.4565 31.4361 45.4488C30.8686 45.4411 30.3624 45.932 30.3854 46.4918C30.4007 47.0057 30.8072 47.3738 31.344 47.3738Z" fill="white"/>
<path d="M34.1355 47.1055C34.7183 47.0825 35.1938 46.607 35.1938 46.0395C35.1938 45.5257 34.818 45.1729 34.2889 45.1805C33.706 45.1882 33.2458 45.6637 33.2458 46.2466C33.2458 46.7757 33.6063 47.1208 34.1355 47.1055Z" fill="white"/>
<path d="M46.0688 17.5793C46.575 17.61 46.7207 17.2802 46.7744 16.843C46.7897 16.2142 46.1071 15.4089 45.5396 15.4396C45.0948 15.4626 44.9261 15.7693 44.9108 16.1758C44.8954 16.8354 45.4859 17.5486 46.0688 17.5793Z" fill="white"/>
<path d="M48.592 17.0577C48.1165 17.0653 48.0015 17.3951 47.9938 17.6405C47.9938 18.4995 48.5307 19.2204 49.0829 19.2434C49.612 19.2587 49.7194 18.8829 49.7271 18.4765C49.7347 17.8093 49.1212 17.05 48.592 17.0577Z" fill="white"/>
<path d="M28.7211 10.9223C28.7211 11.4361 29.1352 11.8273 29.672 11.8349C30.2012 11.8426 30.6307 11.4438 30.6384 10.9376C30.646 10.4161 30.2396 9.98666 29.7334 9.97132C29.2042 9.95598 28.7211 10.4161 28.7211 10.9223Z" fill="white"/>
<path d="M6.61085 35.4563C7.08633 35.372 7.07867 34.9272 7.15536 34.559C7.08633 34.1449 7.02498 33.7231 6.74122 33.3856C6.3731 32.9485 5.93596 33.0252 5.73656 33.5544C5.56017 33.9992 5.66754 34.4287 5.84393 34.8428C5.98964 35.1726 6.18137 35.533 6.61085 35.4563Z" fill="white"/>
<path d="M40.9151 13.1007C41.3446 13.139 41.59 12.9319 41.659 12.5485C41.7203 11.958 41.1605 11.2677 40.6006 11.1987C40.1405 11.145 39.8644 11.3444 39.8184 11.8122C39.7647 12.3721 40.3476 13.047 40.9151 13.1007Z" fill="white"/>
<path d="M20.6684 11.0372C20.6531 10.6154 20.4384 10.3547 19.9859 10.37C19.3954 10.3854 18.8048 10.9989 18.7972 11.5894C18.7895 12.0419 19.0426 12.2413 19.403 12.2413C20.0779 12.226 20.6915 11.6201 20.6684 11.0372Z" fill="white"/>
<path d="M36.9808 10.6158C36.9962 11.191 37.5254 11.7279 38.0852 11.7279C38.5147 11.7279 38.7678 11.5285 38.7754 11.076C38.7908 10.4624 38.2539 9.90259 37.6634 9.90259C37.1956 9.90259 36.9732 10.1403 36.9808 10.6158Z" fill="white"/>
<path d="M28.192 8.00822C27.6705 7.97755 27.1643 8.46071 27.195 8.9592C27.2257 9.47304 27.5631 9.70311 28.0386 9.73379C28.5448 9.76447 28.9896 9.32732 28.9973 8.79048C28.9512 8.338 28.6982 8.0389 28.192 8.00822Z" fill="white"/>
<path d="M47.7638 14.8029C47.7791 14.151 47.1426 13.3764 46.575 13.3611C46.1839 13.3457 46.0612 13.5758 46.0459 13.9209C46.0229 14.5728 46.6287 15.3704 47.1962 15.4011C47.595 15.4087 47.7714 15.1863 47.7638 14.8029Z" fill="white"/>
<path d="M1.05832 27.5186C1.20403 27.5263 1.25772 27.3882 1.3114 27.2732C1.5108 26.7747 1.56449 26.2455 1.54148 25.7163C1.53381 25.5093 1.54148 25.2102 1.32674 25.1642C1.00463 25.0875 1.04298 25.4556 0.927943 25.6396C0.874258 25.7163 0.920274 25.862 0.736213 25.8774C0.736213 25.6166 0.76689 25.3712 0.759221 25.1258C0.751551 24.8881 0.85892 24.6196 0.57516 24.3589C0.19937 25.1565 0.191701 25.9387 0.276062 26.813C0.621175 26.5983 0.513807 26.2148 0.76689 26.0001C0.835913 26.4372 0.697867 26.8437 0.843582 27.2348C0.897266 27.3422 0.897266 27.5033 1.05832 27.5186Z" fill="white"/>
<path d="M43.7681 11.4285C43.3846 11.4285 43.2389 11.6355 43.2235 11.9883C43.2082 12.6095 43.8447 13.3381 44.4276 13.3611C44.7957 13.3764 44.9875 13.177 45.0181 12.8319C45.0718 12.2184 44.3509 11.4285 43.7681 11.4285Z" fill="white"/>
<path d="M34.8565 8.90521C34.381 8.94356 34.151 9.24265 34.1663 9.71814C34.1816 10.2627 34.6571 10.6998 35.2093 10.6845C35.6695 10.6768 35.9762 10.37 35.9532 9.93288C35.9379 9.41905 35.3704 8.86686 34.8565 8.90521Z" fill="white"/>
<path d="M4.99262 33.5004C5.06164 33.3317 5.08465 33.14 5.09999 33.0709C5.11533 32.5111 5.03863 32.0969 4.80856 31.7288C4.54014 31.2993 4.16435 31.33 3.94194 31.7748C3.71186 32.2427 3.85758 33.255 4.21036 33.6384C4.51713 33.9682 4.81623 33.9222 4.99262 33.5004Z" fill="white"/>
<path d="M49.4433 14.7339C49.0138 14.4962 48.638 14.7032 48.661 15.1711C48.6917 15.7999 48.9831 16.3214 49.5353 16.6359C49.9801 16.889 50.3253 16.6435 50.3176 15.9993C50.2409 15.5315 49.9801 15.033 49.4433 14.7339Z" fill="white"/>
<path d="M25.3313 7.85435C24.7638 7.83902 24.2193 8.32984 24.2423 8.86669C24.2653 9.33451 24.549 9.53391 24.9939 9.54158C25.5537 9.54158 26.0599 9.08909 26.0522 8.56759C26.0369 8.12278 25.7991 7.86969 25.3313 7.85435Z" fill="white"/>
<path d="M54.3362 20.6544C54.1214 20.7235 54.0678 20.9229 54.0447 21.1146C53.9757 21.6438 54.1214 22.1269 54.4052 22.5717C54.5586 22.8172 54.781 23.0319 55.0878 22.9245C55.3562 22.8248 55.3945 22.5411 55.4022 22.219C55.4022 21.7511 55.2411 21.2756 54.9037 20.8692C54.758 20.6928 54.5662 20.5854 54.3362 20.6544Z" fill="white"/>
<path d="M6.35002 38.7002C6.68747 38.5928 6.65679 38.286 6.6798 38.0176C6.65679 37.4884 6.49574 37.0129 6.11228 36.6448C5.75183 36.2997 5.36837 36.4224 5.29168 36.9209C5.20731 37.4424 5.36837 37.9256 5.66747 38.355C5.82852 38.5698 6.01258 38.8075 6.35002 38.7002Z" fill="white"/>
<path d="M53.2778 17.7096C52.902 17.4412 52.6183 17.5869 52.5799 18.0394C52.5339 18.6145 52.718 19.1207 53.1244 19.5425C53.2931 19.7189 53.4925 19.8493 53.7456 19.7726C54.0294 19.6806 54.014 19.4275 54.014 19.0133C53.9527 18.6069 53.7763 18.07 53.2778 17.7096Z" fill="white"/>
<path d="M46.1916 5.6611C45.9692 5.71479 45.8464 5.52306 45.6777 5.4617C45.5474 5.41569 45.417 5.25463 45.2789 5.39268C45.1332 5.53839 45.2713 5.67644 45.3556 5.78381C45.6854 6.20561 46.0689 6.57373 46.5597 6.80381C46.6747 6.85749 46.8204 6.91118 46.9125 6.80381C47.0198 6.68877 46.8895 6.57373 46.8511 6.46637C46.7744 6.25163 46.437 6.17494 46.4983 5.82215C46.6594 5.92952 46.7821 6.01388 46.9048 6.09824C47.1272 6.24396 47.4416 6.54306 47.6104 6.38967C47.8558 6.15193 47.3649 5.98321 47.3343 5.72245C47.8404 5.84516 48.1089 6.42802 48.6994 6.45103C48.4616 5.99854 47.526 5.20862 47.1886 5.0629C46.9125 4.94787 46.9738 5.19328 46.9125 5.28531C47.0275 5.2393 47.0735 5.33899 47.1042 5.45403C47.1655 5.50005 47.2346 5.53839 47.2959 5.58441C47.1349 5.68411 47.0965 5.59975 47.0889 5.4617C46.9355 5.5614 46.8895 5.43869 46.8281 5.32366C46.5213 5.31599 46.3373 4.92486 45.9998 5.02456C45.9155 5.29298 46.3143 5.39268 46.1916 5.6611Z" fill="white"/>
<path d="M47.0888 5.46373C47.0972 5.46373 47.0972 5.46373 47.1055 5.45538C47.0972 5.45538 47.0972 5.44702 47.0888 5.44702C47.0888 5.44702 47.0888 5.45538 47.0888 5.46373Z" fill="white"/>
<path d="M21.121 9.18119C21.1133 9.59533 21.3357 9.8024 21.7422 9.81007C22.302 9.82541 22.8849 9.3039 22.9079 8.76706C22.9309 8.36059 22.7162 8.11518 22.325 8.09984C21.7575 8.06916 21.1286 8.62901 21.121 9.18119Z" fill="white"/>
<path d="M18.4674 9.41117C18.475 9.77929 18.6821 9.94801 19.0425 9.93268C19.6177 9.91734 20.2389 9.26546 20.2236 8.70561C20.2159 8.30681 19.9552 8.19944 19.6254 8.21478C19.1039 8.23779 18.4597 8.90501 18.4674 9.41117Z" fill="white"/>
<path d="M32.1723 7.14891C31.7198 7.21026 31.4437 7.47101 31.4667 7.96184C31.4897 8.45267 31.8809 8.79778 32.4024 8.79778C32.9085 8.79778 33.1079 8.49868 33.1539 8.09222C33.1309 7.56304 32.6401 7.08755 32.1723 7.14891Z" fill="white"/>
<path d="M41.2143 8.91293C40.8461 8.8976 40.6774 9.09699 40.6698 9.44978C40.6621 10.025 41.2526 10.6615 41.8201 10.6922C42.1883 10.7152 42.3723 10.5311 42.38 10.1707C42.3876 9.64918 41.7358 8.93594 41.2143 8.91293Z" fill="white"/>
<path d="M51.3759 14.8566C51.0538 14.7262 50.8468 14.7799 50.8007 15.171C50.7317 15.7232 51.1765 16.5668 51.6827 16.8199C52.0738 17.0116 52.3269 16.8506 52.3422 16.3981C52.3576 15.8613 51.8514 15.056 51.3759 14.8566Z" fill="white"/>
<path d="M4.38678 37.3275C4.6552 37.2661 4.69354 37.0054 4.71655 36.7676C4.74723 36.3381 4.63219 35.9317 4.44813 35.5482C4.32542 35.2798 4.1567 34.95 3.81926 35.019C3.45113 35.0881 3.52016 35.4715 3.48181 35.786C3.51249 36.2078 3.61986 36.6372 3.87294 37.013C4.00332 37.1818 4.1567 37.3812 4.38678 37.3275Z" fill="white"/>
<path d="M49.0138 13.1007C49.0368 12.4872 48.3696 11.6589 47.8558 11.5515C47.457 11.4672 47.3573 11.6972 47.3573 12.0117C47.3496 12.5102 47.9324 13.2541 48.4233 13.4151C48.7991 13.5378 48.9831 13.3921 49.0138 13.1007Z" fill="white"/>
<path d="M46.2758 11.5588C46.2528 10.9836 45.6776 10.278 45.2021 10.1707C44.8033 10.0786 44.5349 10.2397 44.5886 10.6461C44.6653 11.2597 45.0334 11.7122 45.6009 11.9346C45.9767 12.0803 46.2835 11.9806 46.2758 11.5588Z" fill="white"/>
<path d="M24.2806 5.99119C23.7975 5.96819 23.1993 6.50503 23.1763 6.96518C23.1609 7.36398 23.3834 7.54804 23.7591 7.56338C24.2806 7.57872 24.8328 7.08022 24.8482 6.60473C24.8712 6.20593 24.6564 6.00653 24.2806 5.99119Z" fill="white"/>
<path d="M5.92065 40.0271C5.57553 39.7587 5.29177 39.9044 5.30711 40.3415C5.33012 40.9474 5.5602 41.4842 6.02035 41.906C6.13538 42.0134 6.28877 42.1361 6.47283 42.0518C6.68757 41.9597 6.67223 41.7527 6.68757 41.5379C6.61854 40.9474 6.41914 40.4029 5.92065 40.0271Z" fill="white"/>
<path d="M54.8194 18.3231C54.5894 18.4074 54.6277 18.6222 54.6124 18.8139C54.6507 19.3738 54.8041 19.8953 55.2029 20.3094C55.3409 20.4551 55.4943 20.5855 55.7014 20.5011C55.8701 20.4321 55.9161 20.248 55.9161 20.0717C55.9161 19.4811 55.7091 18.9519 55.3256 18.5071C55.2029 18.3614 55.0265 18.2464 54.8194 18.3231Z" fill="white"/>
<path d="M3.28237 31.468C3.45109 31.1152 3.50478 30.7241 3.42042 30.356C3.32839 29.9572 3.40508 29.2899 2.81455 29.3436C2.30072 29.3896 2.43876 30.0032 2.40041 30.3099C2.38508 30.7931 2.40041 31.1766 2.62282 31.5063C2.8529 31.8591 3.10598 31.8361 3.28237 31.468Z" fill="white"/>
<path d="M33.9745 7.33342C33.9592 7.83959 34.4424 8.29207 34.9715 8.2844C35.3933 8.2844 35.5927 8.06966 35.6004 7.75523C35.5927 7.15703 35.1096 6.68921 34.6111 6.68921C34.1816 6.70455 33.9822 6.94229 33.9745 7.33342Z" fill="white"/>
<path d="M30.0096 6.22144C29.5187 6.22144 29.2043 6.46685 29.1583 6.97302C29.1199 7.4255 29.4651 7.76294 30.0172 7.77828C30.4084 7.76294 30.7151 7.54821 30.7688 7.07272C30.8225 6.63557 30.439 6.22144 30.0096 6.22144Z" fill="white"/>
<path d="M51.1304 13.8595C51.1227 13.2843 50.5092 12.4407 50.0491 12.2797C49.727 12.1646 49.5582 12.2643 49.5276 12.6018C49.4892 13.0849 50.1181 14.0052 50.5936 14.151C50.954 14.2583 51.1227 14.1279 51.1304 13.8595Z" fill="white"/>
<path d="M26.336 6.65038C26.3207 7.10286 26.5967 7.30993 27.0032 7.32527C27.4864 7.34827 27.9389 6.9188 27.9312 6.46632C27.9235 6.02917 27.6934 5.80677 27.264 5.79143C26.7885 5.77609 26.3513 6.19023 26.336 6.65038Z" fill="white"/>
<path d="M38.9442 6.78832C38.5991 6.74998 38.4227 6.9187 38.3997 7.24847C38.3613 7.74697 38.9442 8.35284 39.3813 8.38351C39.8185 8.42953 40.0256 8.30682 40.0409 7.95404C40.0562 7.47855 39.458 6.84201 38.9442 6.78832Z" fill="white"/>
<path d="M53.4236 15.4625C53.0938 15.2324 52.833 15.3321 52.856 15.777C52.879 16.4058 53.1781 16.912 53.6383 17.3261C53.7687 17.4412 53.922 17.5255 54.0984 17.4258C54.2748 17.3261 54.2672 17.1421 54.2518 16.8506C54.1828 16.3598 53.9451 15.823 53.4236 15.4625Z" fill="white"/>
<path d="M2.64584 32.8024C2.56915 32.6797 2.46178 32.5493 2.29305 32.58C2.15501 32.603 2.08599 32.718 2.05531 32.8484C1.90193 33.5386 1.98629 34.1905 2.36975 34.781C2.56148 35.0725 2.79922 35.0265 2.92193 34.6967C2.97561 34.5433 2.96794 34.3669 2.97561 34.3286C2.98328 33.7073 2.89892 33.2319 2.64584 32.8024Z" fill="white"/>
<path d="M38.1389 1.7268C38.3689 1.48906 38.4916 1.79583 38.6527 1.85718C38.9365 1.94921 39.1742 2.20996 39.527 2.08725C39.3506 1.75748 39.5577 1.4277 40.0178 1.26665C39.596 0.952214 39.0975 0.829507 38.6297 0.645447C38.3383 0.530409 38.2616 0.653116 38.0545 0.921538C37.7554 1.31267 38.2002 1.46605 38.1389 1.7268ZM39.0745 1.5274C39.0898 1.5044 39.1435 1.48139 39.1665 1.49673C39.2125 1.51207 39.2509 1.55808 39.2892 1.58109C39.2509 1.65778 39.1972 1.68079 39.1435 1.64244C39.1128 1.61176 39.0131 1.61176 39.0745 1.5274ZM38.0622 1.11327C38.1772 1.08259 38.2386 1.04424 38.2692 1.06725C38.3383 1.1056 38.4763 1.09026 38.4456 1.22831C38.4456 1.23597 38.3459 1.25898 38.3076 1.24364C38.2386 1.22064 38.1849 1.17462 38.0622 1.11327Z" fill="white"/>
<path d="M38.1396 1.75157C38.1396 1.74322 38.1396 1.74322 38.1396 1.73486L38.1312 1.74322L38.1396 1.75157Z" fill="white"/>
<path d="M44.0442 8.7748C44.0212 8.28397 43.2159 7.51705 42.7481 7.54006C42.495 7.54773 42.3647 7.68577 42.38 7.94652C42.4107 8.42968 43.1086 9.16592 43.5841 9.21194C43.8985 9.23495 44.0672 9.10457 44.0442 8.7748Z" fill="white"/>
<path d="M2.20104 29.1368C2.41578 28.5616 2.42345 27.9787 2.27006 27.3959C2.23172 27.2425 2.17803 27.0431 1.97096 27.0354C1.77157 27.0278 1.67187 27.1888 1.62585 27.3575C1.54916 27.6643 1.48781 27.9711 1.42645 28.2472C1.47247 28.5616 1.49548 28.8377 1.55683 29.0984C1.59517 29.2518 1.65653 29.4435 1.8636 29.4666C2.086 29.4819 2.13969 29.2978 2.20104 29.1368Z" fill="white"/>
<path d="M36.467 6.10604C36.1066 6.11371 35.9302 6.3131 35.9455 6.67356C35.9685 7.17205 36.5054 7.70123 36.9962 7.68589C37.349 7.67822 37.5407 7.49416 37.5254 7.11837C37.5023 6.65055 36.9348 6.09837 36.467 6.10604Z" fill="white"/>
<path d="M46.5904 9.77953C46.5827 9.30404 45.8004 8.45276 45.3096 8.40674C45.0795 8.38373 44.9415 8.47576 44.9185 8.71351C44.8648 9.20434 45.7698 10.186 46.2606 10.163C46.4983 10.14 46.5904 10.0096 46.5904 9.77953Z" fill="white"/>
<path d="M48.8067 11.3363C49.0598 11.4437 49.2745 11.39 49.2745 10.9298C49.2822 10.577 48.4769 9.61838 48.0168 9.5647C47.6946 9.52635 47.5643 9.71808 47.6486 9.98651C47.8327 10.5924 48.1931 11.0832 48.8067 11.3363Z" fill="white"/>
<path d="M32.9238 6.70448C33.2919 6.68147 33.5067 6.48207 33.5297 6.1753C33.5297 5.67681 33.1002 5.20898 32.6861 5.20898C32.2489 5.21665 32.0188 5.46974 32.0188 5.89921C32.0112 6.32869 32.4636 6.72748 32.9238 6.70448Z" fill="white"/>
<path d="M1.22701 30.448C1.05062 30.471 1.02761 30.6397 0.989269 30.7855C0.8819 31.2073 0.935584 31.6291 1.01228 32.0509C1.07363 32.3576 1.09664 32.8485 1.41107 32.8255C1.82521 32.7948 1.64882 32.2809 1.74852 31.9972C1.69483 31.5524 1.68716 31.1306 1.51844 30.7241C1.47243 30.5861 1.41107 30.425 1.22701 30.448Z" fill="white"/>
<path d="M28.3376 5.12447C28.3223 5.55394 28.6137 5.80703 29.1122 5.82236C29.4957 5.76868 29.8024 5.55394 29.8101 5.10913C29.8178 4.66432 29.5417 4.40356 29.0892 4.40356C28.6367 4.4189 28.353 4.718 28.3376 5.12447Z" fill="white"/>
<path d="M52.8714 14.182C52.8791 13.6912 52.2732 12.7863 51.8207 12.6099C51.5063 12.4872 51.3836 12.6175 51.3759 12.9166C51.3606 13.3614 52.0278 14.3508 52.4343 14.4965C52.7257 14.5885 52.8944 14.5118 52.8714 14.182Z" fill="white"/>
<path d="M3.61221 38.1251C3.45883 38.2018 3.44349 38.3629 3.45116 38.5162C3.4895 39.0761 3.65823 39.5899 3.99567 40.0424C4.11071 40.1881 4.24875 40.3722 4.46349 40.2878C4.69357 40.2035 4.60154 39.9657 4.62454 39.8047C4.62454 39.2985 4.34078 38.5546 4.04935 38.2785C3.93432 38.1635 3.80394 38.0331 3.61221 38.1251Z" fill="white"/>
<path d="M40.2939 5.93767C40.0102 5.96835 39.9258 6.14474 39.9948 6.38249C40.1559 6.93467 40.524 7.30279 41.0762 7.45617C41.3523 7.53286 41.5824 7.4255 41.59 7.17241C41.5824 6.59722 40.7694 5.88399 40.2939 5.93767Z" fill="white"/>
<path d="M6.03569 43.885C6.16606 43.8083 6.15073 43.6702 6.14306 43.4632C5.99734 42.9417 5.78261 42.3665 5.26877 41.9754C5.02336 41.7836 4.80862 41.8066 4.8393 42.1824C4.88531 42.8496 5.19975 43.3865 5.68291 43.839C5.77494 43.9157 5.90531 43.9617 6.03569 43.885Z" fill="white"/>
<path d="M26.1674 5.38525C26.6275 5.37758 27.0723 4.98645 27.0723 4.57231C27.0723 4.21953 26.8883 4.02013 26.5278 4.0278C26.06 4.0278 25.5768 4.49562 25.6152 4.90976C25.6382 5.2472 25.8606 5.36991 26.1674 5.38525Z" fill="white"/>
<path d="M54.5126 15.3015C54.3209 15.3706 54.3669 15.547 54.3899 15.6773C54.4819 16.2755 54.735 16.8047 55.1645 17.2342C55.2718 17.3415 55.4022 17.4259 55.5556 17.3492C55.7013 17.2802 55.6553 17.1345 55.6706 16.9581C55.5709 16.3906 55.3102 15.846 54.85 15.4089C54.758 15.3245 54.643 15.2479 54.5126 15.3015Z" fill="white"/>
<path d="M31.0603 5.59227C31.5205 5.5846 31.7429 5.36219 31.7352 4.96339C31.7275 4.4879 31.4208 4.21948 30.9683 4.21948C30.5925 4.21948 30.3394 4.47257 30.3317 4.86369C30.3317 5.36219 30.6462 5.55392 31.0603 5.59227Z" fill="white"/>
<path d="M36.7355 4.69501C36.6281 5.06313 36.8428 5.34689 37.0959 5.57697C37.349 5.81471 37.6635 5.9911 38.0086 5.84539C38.4074 5.67667 38.0853 5.33155 38.1313 5.0708C37.8245 4.91742 37.6404 4.57997 37.2647 4.51095C37.0422 4.46494 36.8122 4.44193 36.7355 4.69501Z" fill="white"/>
<path d="M38.1312 5.07219H38.1402L38.1312 5.06323V5.07219Z" fill="white"/>
<path d="M49.7501 9.90991C49.5507 9.90991 49.5277 9.94059 49.5277 10.1937C49.52 10.6462 50.2179 11.5818 50.6704 11.6968C50.8314 11.7352 51.0078 11.7889 51.0768 11.5434C51.1919 11.1293 50.2025 9.90991 49.7501 9.90991Z" fill="white"/>
<path d="M34.6801 4.18099C34.5114 4.19632 34.3503 4.34971 34.3503 4.65648C34.3503 5.08595 34.8718 5.57678 35.3243 5.56911C35.6311 5.56144 35.7921 5.38505 35.7998 5.10129C35.8075 4.70249 35.2246 4.16565 34.6801 4.18099Z" fill="white"/>
<path d="M45.9078 7.16464C45.6701 7.19531 45.647 7.3717 45.7161 7.54043C45.9538 8.10795 46.3603 8.52975 46.9278 8.7675C47.1042 8.84419 47.3113 8.82885 47.3419 8.62178C47.3649 8.13095 46.3143 7.11095 45.9078 7.16464Z" fill="white"/>
<path d="M2.08604 36.0159C1.86363 36.0849 1.948 36.338 1.92499 36.5604C1.971 37.0512 2.10138 37.565 2.37747 38.0252C2.44649 38.1479 2.53852 38.3089 2.71491 38.2629C2.90664 38.2092 2.93732 38.0175 2.92198 37.8488C2.88364 37.3196 2.75326 36.8058 2.50018 36.3303C2.41582 36.1692 2.30078 35.9468 2.08604 36.0159Z" fill="white"/>
<path d="M23.6748 4.02773C23.1917 4.05073 22.6548 4.56457 22.6395 4.99404C22.6318 5.33149 22.8389 5.36983 23.0613 5.38517C23.5598 5.36983 24.135 4.83299 24.135 4.41886C24.135 4.10442 23.9586 4.01239 23.6748 4.02773Z" fill="white"/>
<path d="M42.7481 6.28253C42.7864 6.712 43.6761 7.52494 44.0979 7.5096C44.2589 7.50193 44.3893 7.45591 44.3893 7.24118C44.42 6.80403 43.4076 5.89907 42.9705 5.96809C42.7788 5.99877 42.7328 6.1138 42.7481 6.28253Z" fill="white"/>
<path d="M20.9906 2.16447C21.0136 2.1568 21.0289 2.1568 21.0519 2.14147C21.236 2.02643 21.5888 2.01109 21.5121 1.71966C21.4507 1.46658 21.1286 1.68898 20.9062 1.56628C21.213 1.38222 21.6041 1.37455 21.8802 0.983418C21.1976 0.914395 20.6838 1.09079 20.216 1.47425C20.354 1.70432 20.5688 1.52793 20.6991 1.65831C20.4997 1.90372 19.8632 1.88838 20.0243 2.2335C20.193 2.58628 20.6608 2.2335 20.9906 2.16447Z" fill="white"/>
<path d="M50.8544 9.749C50.6704 9.90239 50.8084 10.1325 50.9081 10.3242C51.0998 10.654 51.3146 10.9684 51.6137 11.2061C51.7977 11.3519 51.9818 11.6816 52.2349 11.4899C52.4573 11.3212 52.2042 11.0758 52.1198 10.8687C52.0968 10.815 52.1045 10.7767 52.1198 10.746C52.0355 10.769 51.9895 10.654 51.9281 10.6003C51.721 10.3855 51.537 10.1555 51.3222 9.95607C51.1995 9.83336 51.0308 9.61096 50.8544 9.749Z" fill="white"/>
<path d="M39.481 5.40792C39.8184 4.96311 39.2432 4.641 38.9135 4.37258C38.6987 4.19619 38.4073 4.05047 38.1542 4.24987C37.9165 4.43393 38.1159 4.67935 38.2079 4.88641C38.2232 4.92476 38.2309 4.96311 38.2232 4.99378C38.2923 4.97845 38.3459 5.07048 38.415 5.11649C38.7447 5.33123 39.1512 5.84506 39.481 5.40792Z" fill="white"/>
<path d="M38.2233 4.98657C38.1926 4.99424 38.1619 5.00958 38.1312 5.07093L38.1389 5.0786C38.1926 5.05559 38.2156 5.02492 38.2233 4.98657Z" fill="white"/>
<path d="M4.35606 42.4349C4.44809 42.3658 4.47877 42.2585 4.45576 42.1511C4.34073 41.5376 4.10298 40.9777 3.70418 40.4945C3.62749 40.4025 3.52012 40.2875 3.38208 40.3565C3.2517 40.4179 3.25937 40.5636 3.27471 40.6939C3.37441 41.3152 3.61982 41.8673 4.04163 42.3352C4.11832 42.4195 4.21035 42.5346 4.35606 42.4349Z" fill="white"/>
<path d="M32.226 4.02013C32.226 4.50329 32.5327 4.73337 32.9392 4.8254C33.292 4.84073 33.5144 4.74103 33.5451 4.38058C33.5757 3.98179 33.1769 3.55231 32.7551 3.5293C32.4177 3.52163 32.226 3.69036 32.226 4.02013Z" fill="white"/>
<path d="M53.0631 12.3717C52.8177 12.2797 52.672 12.364 52.7333 12.6248C52.902 13.2767 53.2471 13.8212 53.7916 14.22C53.9757 14.3504 54.1598 14.312 54.1444 13.9976C54.1598 13.5988 53.4465 12.5174 53.0631 12.3717Z" fill="white"/>
<path d="M40.4626 4.34211C40.2555 4.36511 40.1405 4.47248 40.2478 4.7179C40.4703 5.2394 40.8614 5.58451 41.4136 5.71489C41.6053 5.7609 41.8737 5.76857 41.7817 5.40045C41.682 5.01699 40.8767 4.33444 40.4626 4.34211Z" fill="white"/>
<path d="M44.2826 4.41089L44.2742 4.41924V4.4276H44.2826C44.2826 4.4276 44.2826 4.41924 44.2826 4.41089Z" fill="white"/>
<path d="M44.152 3.54601C44.1604 3.53765 44.152 3.53765 44.1604 3.5293C44.1604 3.5293 44.152 3.5293 44.152 3.53765C44.1437 3.53765 44.1437 3.53765 44.152 3.54601Z" fill="white"/>
<path d="M44.7421 4.48804C45.2022 4.69511 45.2022 4.48804 45.0412 4.11225C45.2789 4.19661 45.4476 4.25796 45.624 4.31932C45.6854 4.40368 45.7697 4.44969 45.8618 4.40368C45.9155 4.373 45.8924 4.31932 45.8388 4.28864C45.463 3.82082 44.9491 3.56007 44.42 3.30698C44.2436 3.17661 44.0825 3.09992 44.0135 3.39901C44.1439 3.353 44.1822 3.39901 44.1439 3.52172C44.2282 3.42969 44.3049 3.53706 44.3893 3.54473C44.397 3.62142 44.4123 3.7518 44.3279 3.73646C44.2589 3.72879 44.1976 3.61375 44.1362 3.53706C44.0595 3.52172 43.9445 3.5524 44.0058 3.40668C43.7988 3.58307 43.6147 3.19962 43.4 3.39135C43.4306 3.70578 43.8294 3.7518 43.8908 4.04323C44.0902 4.09691 44.3279 4.10458 44.2743 4.41135C44.466 4.19661 44.6194 4.43435 44.7421 4.48804Z" fill="white"/>
<path d="M48.7607 9.05848C48.9755 9.17352 49.1288 9.15051 49.1442 8.92044C49.1365 8.4833 48.1395 7.50164 47.7484 7.47863C47.4953 7.47096 47.4416 7.586 47.549 7.79307C47.8251 8.33758 48.2162 8.76706 48.7607 9.05848Z" fill="white"/>
<path d="M0.943255 33.585C0.743856 34.4286 0.897239 35.2108 1.41874 35.9164C1.6028 35.0728 1.54912 34.2675 0.943255 33.585Z" fill="white"/>
<path d="M0.559906 28.1856C0.398853 28.1703 0.368177 28.3237 0.345169 28.4464C0.199455 29.175 0.199455 29.8959 0.544568 30.7932C0.966373 29.8882 0.874343 29.1213 0.720959 28.362C0.705621 28.293 0.62126 28.1933 0.559906 28.1856Z" fill="white"/>
<path d="M43.8754 5.33152C43.5916 5.32385 43.5533 5.51558 43.6683 5.69964C43.9751 6.19047 44.3816 6.58927 44.9337 6.78867C45.2328 6.89604 45.3325 6.75032 45.2635 6.46656C45.1791 6.11378 44.2358 5.35453 43.8754 5.33152Z" fill="white"/>
<path d="M7.18598 46.929C7.09395 45.9934 6.6338 45.4412 6.08929 44.9427C6.02027 44.8813 5.88989 44.82 5.8132 44.9197C5.76718 44.9734 5.75185 45.0884 5.77485 45.1574C6.0126 45.8553 6.38839 46.4612 7.18598 46.929Z" fill="white"/>
<path d="M55.1492 14.757C55.2335 14.8414 55.3486 14.9564 55.4713 14.8414C55.525 14.7877 55.5173 14.6343 55.4943 14.55C55.3102 13.9824 54.9881 13.4839 54.5816 13.0468C54.528 12.9854 54.4589 12.9394 54.4052 12.8857C54.1598 12.9011 54.1828 13.0621 54.2212 13.2002C54.3822 13.806 54.7197 14.3122 55.1492 14.757Z" fill="white"/>
<path d="M2.92192 40.3028C2.80688 39.6969 2.61515 39.1141 2.27004 38.5925C2.21635 38.5082 2.14733 38.4008 2.01695 38.4468C1.87891 38.4928 1.90958 38.6156 1.92492 38.7153C2.03229 39.3288 2.20868 39.9116 2.55379 40.4332C2.61515 40.5252 2.68417 40.6095 2.80688 40.5712C2.94492 40.5252 2.91425 40.4025 2.92192 40.3028Z" fill="white"/>
<path d="M49.904 8.01671C49.9124 8.01671 49.9124 8.01671 49.9124 8.01671V8.00835C49.904 8.00835 49.904 8 49.8957 8.00835C49.904 8.00835 49.904 8.00835 49.904 8.01671Z" fill="white"/>
<path d="M49.7731 7.87793V7.88689H49.782L49.7731 7.87793Z" fill="white"/>
<path d="M48.5383 7.25634C48.5 7.31769 48.546 7.46341 48.592 7.5401C48.7837 7.86988 49.0522 8.1383 49.3359 8.39138C49.543 8.56777 49.7654 8.83619 50.0338 8.7595C50.4019 8.6598 49.8344 8.33003 50.1105 8.14597C50.4556 8.3377 50.6704 8.77484 51.1995 8.77484C50.9004 8.13063 50.4173 7.73183 49.9265 7.3407C49.8268 7.26401 49.6964 7.14897 49.5967 7.23333C49.4356 7.37138 49.681 7.47875 49.6734 7.61679L49.658 7.60912C49.6504 7.61679 49.6504 7.61679 49.6504 7.62446C49.658 7.62446 49.6657 7.62446 49.6734 7.61679C49.7654 7.67815 49.8881 7.71649 49.7961 7.86988C49.9418 7.80852 49.9188 7.91589 49.9265 8.00025C50.0262 7.99258 50.0722 8.06161 50.1259 8.13063C49.9341 8.28401 49.9188 8.15364 49.9188 8.00792C49.7807 8.06161 49.7731 7.98491 49.7884 7.87755C49.635 7.84687 49.5046 7.80085 49.658 7.62446C49.2669 7.80085 49.1825 7.29469 48.8834 7.24867C48.7531 7.23333 48.6227 7.11063 48.5383 7.25634Z" fill="white"/>
<path d="M31.1293 3.64438C31.4437 3.64438 31.6585 3.45265 31.6355 3.1152C31.6048 2.7164 31.3671 2.50934 30.9452 2.48633C30.6461 2.52467 30.4468 2.6934 30.4698 3.03084C30.4851 3.43731 30.7382 3.64438 31.1293 3.64438Z" fill="white"/>
<path d="M13.0837 6.30559C12.5008 6.55867 12.056 6.98048 11.7186 7.50965C11.5958 7.70138 11.6802 7.81642 11.8106 7.83176C12.2324 7.79341 13.2677 6.82709 13.3214 6.50499C13.3598 6.30559 13.2984 6.21356 13.0837 6.30559Z" fill="white"/>
<path d="M27.8545 3.46036C28.261 3.41434 28.5677 3.24562 28.6061 2.80848C28.6368 2.50171 28.445 2.30998 28.1459 2.32532C27.7471 2.34833 27.4557 2.5554 27.3944 2.96953C27.3407 3.29931 27.6014 3.39134 27.8545 3.46036Z" fill="white"/>
<path d="M30.6998 56.8838C30.9913 56.8685 31.4744 56.8915 31.4667 56.5004C31.4591 56.0325 30.9606 56.2013 30.6385 56.1016C30.3547 56.2089 29.8255 56.0786 29.8332 56.508C29.8409 56.9682 30.3701 56.8992 30.6998 56.8838Z" fill="white"/>
<path d="M35.8995 2.61687C35.7231 2.69356 35.6848 2.81627 35.7692 2.97732C35.9992 3.41446 36.329 3.72123 36.8428 3.78259C37.0192 3.80559 37.1189 3.69822 37.1189 3.51416C37.1343 3.10003 36.2753 2.46349 35.8995 2.61687Z" fill="white"/>
<path d="M26.6275 56.0095C26.5815 56.0095 26.4741 56.0172 26.3667 56.0249C26.1673 56.0402 25.9603 56.0939 25.9373 56.3163C25.9219 56.5157 26.1137 56.5847 26.267 56.6537C26.3591 56.6998 26.4664 56.7381 26.5661 56.7534C26.9266 56.7994 27.287 56.8455 27.6015 56.6077C27.6935 56.5387 27.6935 56.416 27.6091 56.324C27.3637 56.0555 27.0263 56.0325 26.6275 56.0095Z" fill="white"/>
<path d="M24.1349 3.41422C24.5107 3.52158 25.2623 2.99241 25.2776 2.57061C25.2699 2.40955 25.1779 2.2485 24.9785 2.27918C24.5183 2.3482 24.1349 2.56294 23.9508 3.01542C23.8895 3.18414 23.9048 3.35286 24.1349 3.41422Z" fill="white"/>
<path d="M11.0143 7.2334L11.0053 7.24235H11.0143V7.2334Z" fill="white"/>
<path d="M11.013 7.24121C10.9746 7.37926 10.9133 7.46362 10.7599 7.37159C10.8059 7.50196 10.7062 7.49429 10.6219 7.49429L10.6295 7.48663H10.6219C10.6219 7.49429 10.6219 7.49429 10.6219 7.49429C10.3381 7.84708 10.0467 8.19219 9.77057 8.54497C9.70155 8.637 9.63253 8.79039 9.75523 8.88242C9.81659 8.92076 9.9623 8.89009 10.039 8.84407C10.5452 8.55264 10.9056 8.10783 11.2354 7.64768C11.4194 7.40226 11.2431 7.2949 11.013 7.24121Z" fill="white"/>
<path d="M34.0742 2.72402C34.0589 3.04613 34.5804 3.53696 34.9409 3.5523C35.1403 3.55996 35.332 3.54463 35.355 3.26854C35.3857 2.93109 34.8642 2.42493 34.4577 2.40192C34.2123 2.37891 34.0896 2.50162 34.0742 2.72402Z" fill="white"/>
<path d="M41.636 3.78989C41.5056 3.77455 41.4289 3.87425 41.4903 3.99696C41.7664 4.5338 42.2419 4.84824 42.7864 5.06298C42.9321 5.12433 43.1392 5.16268 43.1238 4.86358C43.1008 4.81756 43.0778 4.74854 43.0395 4.70253C42.6637 4.25771 42.2419 3.87425 41.636 3.78989Z" fill="white"/>
<path d="M4.24878 43.4319C4.29479 44.1988 4.69359 44.774 5.17675 45.3108C5.23044 45.3722 5.32247 45.4335 5.39149 45.3645C5.4375 45.3185 5.46051 45.2035 5.44517 45.1421C5.22277 44.4596 4.89299 43.846 4.24878 43.4319Z" fill="white"/>
<path d="M53.4466 11.6509C53.2549 10.8533 52.603 10.0711 51.9894 9.86401C51.8514 10.1938 52.2579 10.3778 52.2118 10.6769C52.672 10.9224 52.8177 11.5742 53.4466 11.6509Z" fill="white"/>
<path d="M52.2195 10.6843L52.2119 10.6768C52.1658 10.6919 52.1428 10.7146 52.1275 10.7449C52.1505 10.7373 52.1812 10.7222 52.2195 10.6843Z" fill="white"/>
<path d="M34.358 56.7383C34.7645 56.654 35.1939 56.6923 35.4547 56.3088C35.4854 56.2628 35.4624 56.1171 35.4164 56.0864C35.0406 55.8257 34.6418 55.9484 34.266 56.0634C34.0742 56.1248 33.7521 56.1938 33.8365 56.5082C33.8978 56.7613 34.1816 56.6923 34.358 56.7383Z" fill="white"/>
<path d="M38.6604 2.91594C38.5453 2.83924 38.392 2.8009 38.2769 2.75488C38.1005 2.76255 37.9395 2.73188 37.9701 2.97729C38.0085 3.28406 38.6834 3.88225 39.0822 3.9206C39.2202 3.93594 39.435 3.98195 39.4196 3.76722C39.3889 3.30706 38.9825 3.13834 38.6604 2.91594Z" fill="white"/>
<path d="M32.8088 3.14566C33.0695 3.12265 33.2766 3.03829 33.2612 2.76987C33.2306 2.33273 32.9315 2.08731 32.5173 2.02596C32.2336 1.98761 32.0879 2.16401 32.1185 2.45544C32.1645 2.89258 32.456 3.0613 32.8088 3.14566Z" fill="white"/>
<path d="M44.512 5.03256C44.604 4.76414 44.2436 4.67211 44.2742 4.43436C44.0595 4.38835 43.8371 4.35767 43.8908 4.0509C43.492 4.24263 43.2542 3.61376 42.8478 3.84383C43.1162 4.50338 43.8601 5.03256 44.512 5.03256Z" fill="white"/>
<path d="M43.8907 4.04321V4.05217H43.8997C43.8997 4.04321 43.8907 4.04321 43.8907 4.04321Z" fill="white"/>
<path d="M23.6671 56.4006C23.5137 56.4697 23.2146 56.3086 23.1762 56.623C23.1379 56.8991 23.4063 56.9682 23.598 57.0142C23.9815 57.1139 24.3726 57.2979 24.7638 57.0448C24.8558 56.9912 24.8481 56.8915 24.7868 56.8224C24.503 56.4927 24.0965 56.4543 23.6671 56.4006Z" fill="white"/>
<path d="M39.458 2.64759C39.2586 2.63992 39.2663 2.76263 39.3123 2.893C39.412 3.1921 40.3246 3.82097 40.6314 3.82097C40.8538 3.8133 40.8768 3.70594 40.8154 3.52954C40.7081 3.25345 39.7341 2.62458 39.458 2.64759Z" fill="white"/>
<path d="M46.9062 5.28564C46.8828 5.29335 46.8593 5.30106 46.8281 5.32417C46.8749 5.32417 46.8906 5.30876 46.9062 5.28564Z" fill="white"/>
<path d="M1.53385 38.286C1.61821 37.4271 1.35746 36.5682 0.881967 36.0083C0.874298 36.9056 1.0967 37.6265 1.53385 38.286Z" fill="white"/>
<path d="M42.0348 3.46042C42.2265 3.20734 41.797 3.11531 41.9657 2.90057C41.8047 3.00027 41.7587 2.92358 41.7817 2.75486C41.8814 2.75486 41.9734 2.75486 41.9811 2.88523C42.1881 2.87756 42.4106 2.92358 42.4796 2.63982C42.3109 2.73185 42.2035 2.65516 42.1191 2.50944C42.2418 2.55546 42.4336 2.3944 42.4872 2.63215C42.5486 2.4941 42.702 2.64749 42.748 2.5708C42.817 2.45576 42.702 2.3944 42.6253 2.34072C42.2725 2.11064 41.9121 1.90358 41.5056 1.7732C41.4366 1.75019 41.3599 1.72719 41.2909 1.70418C41.1912 1.59681 41.0531 1.53546 40.9304 1.61215C40.8767 1.64282 40.9841 1.73485 41.0761 1.73485C40.8614 1.83455 40.708 1.98027 40.708 2.23335C40.9151 2.02628 40.9841 2.26403 41.0915 2.36373C41.1912 2.3944 41.3522 2.38674 41.2218 2.5708C41.1681 2.50944 41.0378 2.50177 41.0838 2.37907C40.9074 2.4941 40.8 2.3944 40.708 2.24869C40.708 2.24102 40.708 2.24102 40.708 2.23335C40.708 2.23335 40.7003 2.23335 40.7003 2.24102L40.708 2.24869C40.5393 2.28704 40.2325 2.30237 40.4933 2.55546C40.9151 3.00027 41.4289 3.35305 42.0348 3.46042Z" fill="white"/>
<path d="M41.0762 2.38805C41.0845 2.38805 41.0845 2.38805 41.0929 2.37969C41.0929 2.37969 41.0929 2.37134 41.0845 2.37134C41.0845 2.37134 41.0845 2.37134 41.0762 2.37134C41.0762 2.37969 41.0762 2.38805 41.0762 2.38805Z" fill="white"/>
<path d="M29.1276 57.8271C29.4113 57.7888 29.8945 57.9191 29.9098 57.5434C29.9252 57.1906 29.4497 57.2059 29.1353 57.1982C28.8055 57.1906 28.2763 57.1215 28.2686 57.4897C28.261 57.8655 28.7825 57.8041 29.1276 57.8271Z" fill="white"/>
<path d="M14.6558 4.44971C13.9349 4.75647 13.3521 5.16294 12.8766 5.83016C13.6358 5.76114 14.4871 5.09392 14.6558 4.44971Z" fill="white"/>
<path d="M6.46509 47.2053C6.74118 47.9416 7.16298 48.5551 7.88389 48.9309C7.60013 48.1946 7.17832 47.5811 6.46509 47.2053Z" fill="white"/>
<path d="M29.6338 2.63209C29.9559 2.64743 30.1323 2.44803 30.1859 2.13359C30.1783 1.84216 30.0479 1.64276 29.7411 1.61209C29.3807 1.58141 29.1813 1.77314 29.1353 2.11058C29.0892 2.4787 29.3423 2.61675 29.6338 2.63209Z" fill="white"/>
<path d="M33.1922 57.6429C33.2842 57.5968 33.3916 57.5432 33.3762 57.4128C33.3609 57.2824 33.2459 57.2517 33.1462 57.2287C32.7857 57.1444 32.4253 57.152 32.0725 57.2671C31.9114 57.3207 31.689 57.3514 31.6967 57.5508C31.712 57.7809 31.9344 57.8116 32.1338 57.8039C32.1492 58.218 31.8041 58.011 31.6277 58.0877C31.4436 58.1644 31.1138 58.126 31.1445 58.3868C31.1675 58.6168 31.482 58.5938 31.6814 58.5785C31.9575 58.5632 32.2259 58.5171 32.4943 58.4788C32.64 58.4558 32.8241 58.4174 32.8087 58.2411C32.7934 58.1107 32.6247 58.103 32.502 58.0723C32.3639 58.034 32.0495 58.1797 32.1875 57.8116C32.5403 57.8499 32.8778 57.7962 33.1922 57.6429Z" fill="white"/>
<path d="M7.25507 10.6923C7.96063 10.3318 8.44379 9.77966 8.67387 9.02808C7.98364 9.3962 7.51582 9.95605 7.25507 10.6923Z" fill="white"/>
<path d="M37.8551 55.7717C37.5943 55.7793 37.3643 55.8944 37.1495 56.0171C37.0038 56.1014 36.8121 56.1781 36.8888 56.3852C36.9578 56.5846 37.1572 56.5386 37.3949 56.5463C37.556 56.5002 37.7861 56.4696 37.9931 56.3775C38.2002 56.2855 38.5146 56.1858 38.461 55.9327C38.3996 55.649 38.0775 55.764 37.8551 55.7717Z" fill="white"/>
<path d="M3.89592 43.6392C3.77321 42.8492 3.48178 42.1513 2.87592 41.6145C2.98328 42.4121 3.32073 43.087 3.89592 43.6392Z" fill="white"/>
<path d="M49.7811 7.88647C49.7811 7.87793 49.7811 7.87793 49.7896 7.87793C49.7811 7.87793 49.7811 7.87793 49.7811 7.87793C49.7725 7.87793 49.7811 7.88647 49.7811 7.88647Z" fill="white"/>
<path d="M26.6658 57.5127C26.3743 57.4206 26.0752 57.436 25.7838 57.459C25.6611 57.4666 25.5154 57.5127 25.4847 57.6507C25.4464 57.8117 25.6074 57.8654 25.7148 57.9038C25.9909 58.0035 26.2823 58.0878 26.474 58.0725C26.8115 58.0495 27.1566 58.1108 27.1873 57.8654C27.2256 57.6047 26.8805 57.5817 26.6658 57.5127Z" fill="white"/>
<path d="M11.0143 7.2334H11.0053V7.24235L11.0143 7.2334Z" fill="white"/>
<path d="M10.7453 7.36401C10.7453 7.36401 10.7453 7.37237 10.7369 7.37237C10.7453 7.38072 10.7453 7.37237 10.7536 7.38072C10.7536 7.37237 10.7536 7.37237 10.7453 7.36401C10.7536 7.36401 10.7536 7.36401 10.7453 7.36401Z" fill="white"/>
<path d="M10.7446 7.36376C10.7983 7.26406 10.8673 7.1797 11.0053 7.24105C11.2508 6.73488 11.9026 6.53548 12.0944 5.8606C11.3735 6.15969 10.9133 6.63518 10.4685 7.13368C10.2691 7.36376 10.4071 7.44045 10.6219 7.49413C10.5835 7.37143 10.6756 7.3791 10.7446 7.36376Z" fill="white"/>
<path d="M22.6471 57.3516C22.5934 57.4666 22.6855 57.5433 22.7852 57.5894C23.0613 57.7121 23.345 57.8271 23.6288 57.9421V57.9498C23.6288 57.9498 23.6364 57.9498 23.6364 57.9421H23.6288C23.8052 57.7351 24.1349 57.9882 24.319 57.7044C23.9125 57.2826 23.3834 57.2596 22.8619 57.2366C22.7852 57.2366 22.6701 57.2903 22.6471 57.3516Z" fill="white"/>
<path d="M36.5361 57.5973C36.6895 57.5359 36.9119 57.4899 36.8735 57.2905C36.8275 57.0834 36.5974 57.1678 36.4441 57.1448C36.3827 57.1524 36.3137 57.1448 36.2523 57.1601C35.8919 57.2291 35.263 57.2675 35.332 57.5973C35.4164 58.0344 35.9609 57.697 36.306 57.6893C36.3827 57.6816 36.4594 57.6356 36.5361 57.5973Z" fill="white"/>
<path d="M37.0421 1.9342C37.0655 1.91879 37.0889 1.91109 37.1202 1.88026C37.1202 1.88026 37.1202 1.88026 37.1202 1.87256H37.1124C37.0733 1.88797 37.0577 1.90338 37.0421 1.9342Z" fill="white"/>
<path d="M36.7278 1.79586C36.4977 1.64248 36.2753 1.49676 35.9992 1.42774C35.8688 1.39706 35.7385 1.37406 35.7308 1.56579C35.7154 1.8112 36.4057 2.34037 36.7661 2.4094C37.2876 2.5091 36.9809 2.10263 37.0422 1.93391C36.9118 2.01827 36.8198 1.85722 36.7278 1.79586Z" fill="white"/>
<path d="M41.9824 2.89307C41.9735 2.89307 41.9734 2.90202 41.9734 2.90202C41.9734 2.90202 41.9735 2.90202 41.9824 2.89307C41.9735 2.89307 41.9735 2.89307 41.9824 2.89307Z" fill="white"/>
<path d="M29.7258 58.3255C29.2273 58.2258 28.7288 58.1568 28.1459 58.4482C28.7058 58.8394 29.2196 58.709 29.7181 58.6936C29.8178 58.6936 29.9405 58.6476 29.9482 58.5249C29.9405 58.3945 29.8332 58.3485 29.7258 58.3255Z" fill="white"/>
<path d="M36.9117 1.38971C36.8504 1.61979 37.1648 1.6658 37.1111 1.87287C37.4946 1.90355 37.7247 2.27167 38.1004 2.32535C38.2001 2.34069 38.3229 2.38671 38.3689 2.25633C38.3919 2.19498 38.3535 2.09528 38.3152 2.02626C38.2615 1.92656 38.1081 1.88054 38.1235 1.73483C37.694 1.73483 37.4026 1.20565 36.9117 1.38971Z" fill="white"/>
<path d="M38.1402 1.75114L38.1312 1.74219L38.1402 1.75114Z" fill="white"/>
<path d="M23.7132 1.02925C23.8206 0.983237 23.9816 0.929553 23.9126 0.776169C23.8819 0.707146 23.7286 0.653462 23.6365 0.661131C23.1534 0.714815 22.6702 0.76083 22.2024 1.1903C22.8006 1.34369 23.2607 1.22098 23.7132 1.02925Z" fill="white"/>
<path d="M17.8079 3.46012C17.8616 3.57515 17.9843 3.55215 18.1377 3.55981C18.5441 3.46012 19.0043 3.34508 19.3034 2.94628C19.3494 2.88493 19.3034 2.76222 19.2037 2.74688C18.7052 2.68553 18.2987 2.8926 17.9229 3.19169C17.8462 3.25305 17.7465 3.33741 17.8079 3.46012Z" fill="white"/>
<path d="M33.637 58.3721C34.2276 58.5868 34.7797 58.5408 35.3933 58.119C34.6954 57.8736 34.1585 58.05 33.637 58.3721Z" fill="white"/>
<path d="M34.7338 1.98756C34.8795 1.98756 34.9792 1.93387 34.9868 1.78049C35.0099 1.53508 34.381 1.02891 34.0435 1.02124C33.9362 1.02891 33.8135 1.05959 33.8058 1.22831C33.7981 1.47372 34.427 1.98756 34.7338 1.98756Z" fill="white"/>
<path d="M39.8797 56.6612C39.8261 56.5461 39.7033 56.5615 39.6036 56.5615C39.2279 56.6382 38.8597 56.7302 38.53 56.9296C38.4379 56.9833 38.3306 57.0446 38.3612 57.1673C38.3996 57.3361 38.5606 57.313 38.6757 57.29C39.0515 57.2287 39.4196 57.1213 39.7417 56.9066C39.8261 56.8529 39.9411 56.7915 39.8797 56.6612Z" fill="white"/>
<path d="M25.1243 58.4178C25.6458 58.8013 26.221 58.7783 26.9726 58.7016C26.2977 58.2721 25.7225 58.2721 25.1243 58.4178Z" fill="white"/>
<path d="M17.4014 2.85449C18.1529 2.8008 18.6591 2.62441 19.1039 2.11058C18.36 2.08757 17.9919 2.24095 17.4014 2.85449Z" fill="white"/>
<path d="M31.1983 1.84986C31.4437 1.87287 31.5971 1.73482 31.6124 1.45873C31.5511 1.1673 31.3824 0.975574 31.0602 0.960236C30.7842 0.952566 30.6768 1.10595 30.6998 1.3667C30.7228 1.6658 30.9299 1.81918 31.1983 1.84986Z" fill="white"/>
<path d="M32.7704 1.6427C32.9698 1.65037 33.1462 1.6197 33.1232 1.42797C33.0772 1.04451 32.7781 0.875784 32.4483 0.783754C32.2029 0.714732 32.1339 0.906461 32.1645 1.06751C32.2182 1.41263 32.479 1.58135 32.7704 1.6427Z" fill="white"/>
<path d="M25.5691 0.0781431C24.9709 -0.0829098 24.4417 0.0244588 23.9662 0.346565C24.5568 0.522956 25.0859 0.400249 25.5691 0.0781431Z" fill="white"/>
<path d="M22.486 58.0878C23.0382 58.3945 23.5597 58.5326 24.1349 58.4405C24.0582 58.1184 23.6287 58.2795 23.6211 57.9497C23.299 58.2335 22.8848 57.7426 22.486 58.0878Z" fill="white"/>
<path d="M42.4259 56.0786C41.8277 56.048 41.3522 56.278 40.9764 56.7152C41.567 56.7382 42.0425 56.5005 42.4259 56.0786Z" fill="white"/>
<path d="M35.7844 58.533C36.3443 58.5713 36.8811 58.5407 37.487 58.1112C36.7431 58.0268 36.2369 58.1879 35.7844 58.533Z" fill="white"/>
<path d="M35.2552 0.216309C35.838 0.653452 36.3135 0.929543 36.9041 0.921874C36.4823 0.538415 35.9838 0.323677 35.2552 0.216309Z" fill="white"/>
<path d="M40.4167 57.2979C39.6958 57.3592 39.182 57.5049 38.7525 57.8884C39.297 57.85 39.8262 57.758 40.4167 57.2979Z" fill="white"/>
<path d="M35.8151 0.00168227C36.3903 0.178074 36.9578 0.354465 37.533 0.538525C37.0038 0.193412 36.444 -0.0213253 35.8151 0.00168227Z" fill="white"/>
<path d="M44.0224 3.40698H44.0135V3.41594L44.0224 3.40698Z" fill="white"/>
</svg>
