<svg width="61" height="63" viewBox="0 0 61 63" fill="none" xmlns="http://www.w3.org/2000/svg">
<path d="M28.5983 48.8466C30.5551 48.8466 32.5055 48.8466 34.4622 48.8402C34.8651 48.8402 35.2743 48.8786 35.6772 48.8019C36.0801 48.7251 36.2719 48.5077 36.2847 48.1048C36.2911 47.8363 36.2719 47.5613 36.2847 47.2927C36.3231 46.6533 36.0673 46.3655 35.3511 46.3655C27.3706 46.3783 19.3964 46.3719 11.4159 46.3719C11.3328 46.3719 11.2496 46.3719 11.1665 46.3719C10.6358 46.3847 10.2393 46.7364 10.1626 47.2608C10.1434 47.395 10.1434 47.5293 10.1434 47.6636C10.1434 50.6755 10.1434 53.681 10.1434 56.6929C10.1434 56.7952 10.1434 56.8911 10.1434 56.9934C10.0219 56.9103 9.96432 56.808 9.90677 56.7056C9.29288 55.6058 8.679 54.5123 8.06511 53.4124C7.2466 51.9544 6.42808 50.4901 5.60957 49.0321C5.27065 48.431 4.93813 47.8363 4.58642 47.2416C4.27948 46.7172 3.82546 46.4039 3.20518 46.3463C2.47619 46.2824 1.7472 46.3207 1.01821 46.3207C0.800791 46.3207 0.589768 46.3847 0.410718 46.5318C0.129353 46.762 0.0270386 47.0497 0.0270386 47.4078C0.0334332 51.948 0.0334332 56.4882 0.0334332 61.0284C0.0334332 61.1307 0.0334332 61.2395 0.0334332 61.3418C0.0526172 61.8597 0.461875 62.2498 0.99263 62.2498C1.40828 62.2498 1.82393 62.2562 2.23959 62.2562C2.62966 62.2562 2.96218 62.026 3.10926 61.6615C3.1796 61.4825 3.20518 61.3034 3.20518 61.1116C3.20518 57.9974 3.20518 54.8832 3.20518 51.769C3.20518 51.6475 3.186 51.526 3.24355 51.3533C3.55688 51.8969 3.84464 52.402 4.1324 52.9072C4.29866 53.195 4.45214 53.4891 4.6184 53.7769C5.14276 54.7041 5.67351 55.6377 6.19787 56.565C6.65189 57.3707 7.10591 58.1764 7.55993 58.9757C8.01395 59.7687 8.47437 60.5552 8.9156 61.3546C9.23533 61.9301 9.74051 62.2242 10.3608 62.2434C11.0258 62.2626 11.6909 62.2562 12.3559 62.237C12.8419 62.2242 13.2 61.9173 13.2959 61.4441C13.3279 61.2906 13.3343 61.1371 13.3343 60.9773C13.3343 57.0829 13.3343 53.1886 13.3343 49.2942C13.3343 49.1983 13.3407 49.1088 13.3343 49.0129C13.3279 48.8978 13.3727 48.8338 13.4942 48.8402C13.5581 48.8402 13.6221 48.8402 13.6796 48.8402C15.2527 48.8402 16.8194 48.8402 18.3925 48.8402C21.7944 48.8402 25.1964 48.8466 28.5983 48.8466Z" fill="white"/>
<path d="M29.0715 6.92261C28.7518 7.53011 28.4192 8.07365 28.1699 8.65556C28.253 8.71951 28.3233 8.68114 28.3937 8.66835C28.9116 8.57243 29.4232 8.44454 29.9476 8.38059C30.5806 8.30386 31.2073 8.24631 31.8468 8.34862C32.6333 8.47651 33.049 8.79625 33.2408 9.63394C33.3559 10.1391 33.4454 10.6507 33.5222 11.1623C33.6948 12.2749 33.8611 13.394 34.0849 14.5003C34.3151 15.6449 34.7499 16.7064 35.3319 17.704C35.7347 18.3882 36.2207 19.0085 36.7387 19.6096C37.0456 19.9613 37.3717 20.3002 37.6979 20.6327C38.3118 21.253 38.9896 21.803 39.661 22.3593C39.757 22.436 39.8657 22.5 39.9744 22.5575C40.0639 22.6023 40.1662 22.5895 40.2366 22.5192C40.3069 22.4424 40.3005 22.3401 40.2493 22.257C40.1982 22.1802 40.1342 22.1099 40.0703 22.046C39.7889 21.7518 39.4948 21.4704 39.2262 21.1699C38.088 19.8782 37.0776 18.4969 36.3102 16.9494C35.837 15.9902 35.5045 14.9927 35.2807 13.9503C35.0377 12.7993 34.9738 11.6227 34.7883 10.4653C34.686 9.81939 34.5837 9.16714 34.3087 8.56604C34.0018 7.8946 33.4966 7.45337 32.7612 7.28711C32.1345 7.14643 31.5015 7.14643 30.8684 7.21677C30.5678 7.24874 30.2737 7.28711 29.922 7.32548C30.0627 7.0633 30.1906 6.83948 30.3121 6.61567C30.4272 6.39186 30.619 6.20641 30.7085 5.91226C30.2161 5.91226 29.7685 5.91226 29.2889 5.91226C29.4616 5.59253 29.6214 5.31756 29.8005 5.04898C29.9604 4.80599 30.0946 4.5502 30.1778 4.26244C30.3185 3.75087 30.5231 3.26488 30.8364 2.82364C31.2329 2.26092 31.7445 1.83247 32.3839 1.60866C33.6437 1.15464 34.8523 1.30811 35.9969 2.01792C36.6172 2.40799 37.1224 2.93235 37.6275 3.45032C38.2286 4.0706 38.7338 4.77401 39.2901 5.43266C39.8657 6.11689 40.4732 6.76275 41.2085 7.28711C41.6498 7.60045 42.0782 7.92657 42.4939 8.27188C43.3124 8.95611 44.0925 9.69789 44.8215 10.4716C45.7423 11.4436 46.5992 12.4668 47.4113 13.5347C48.3258 14.7433 49.1507 16.0222 49.982 17.2947C50.5639 18.1772 51.1266 19.0788 51.6894 19.9741C52.0539 20.5624 52.3992 21.1699 52.7573 21.771C53.4543 22.9284 54.1065 24.1114 54.7524 25.2944C55.3151 26.324 55.8587 27.3663 56.3575 28.4278C56.7795 29.3167 57.2079 30.2055 57.5852 31.12C57.9369 31.9768 58.3142 32.8209 58.6276 33.6842C58.6915 33.8569 58.7555 34.0295 58.8386 34.2725C58.4933 34.1063 58.2631 33.9016 58.0201 33.7354C56.7411 32.8657 55.4686 31.9768 54.2216 31.056C52.8724 30.0648 51.5423 29.0481 50.2634 27.9674C49.1123 26.9954 47.9869 25.9915 46.919 24.9299C46.401 24.4184 45.9086 23.8812 45.4162 23.3441C44.3099 22.1355 43.306 20.8502 42.3596 19.5265C41.362 18.1324 40.4668 16.6681 39.6546 15.1525C39.3733 14.6282 39.0855 14.1102 38.8361 13.573C38.4524 12.7545 38.0304 11.9552 37.7043 11.1111C37.6339 10.9321 37.5316 10.8809 37.3973 10.9193C37.263 10.9576 37.2119 11.0472 37.2503 11.2454C37.3014 11.5204 37.359 11.7953 37.4229 12.0703C37.6339 12.9911 37.9281 13.8928 38.2798 14.7688C38.689 15.7792 39.1623 16.7576 39.7058 17.704C40.211 18.5865 40.7609 19.4433 41.362 20.2682C41.8608 20.9589 42.3724 21.6367 42.9159 22.2953C43.6769 23.2162 44.4762 24.1114 45.2947 24.9747C45.8702 25.5758 46.4649 26.1577 47.0596 26.7396C47.7375 27.3983 48.4345 28.0377 49.1507 28.658C50.2122 29.5725 51.2801 30.4805 52.3928 31.3374C53.0003 31.8042 53.6142 32.271 54.228 32.7314C54.3304 32.8082 54.4071 32.8977 54.4455 33.0256C54.5414 33.3325 54.6501 33.6395 54.7524 33.94C54.9315 34.4516 55.1169 34.9568 55.2959 35.4683C55.5837 36.2932 55.8587 37.1181 56.1528 37.9367C56.3639 38.5122 56.5557 39.0941 56.7411 39.6824C56.8562 40.0597 56.7411 40.2068 56.3447 40.2132C56.1145 40.2132 55.8843 40.2132 55.654 40.2132C55.2448 40.2132 55.0849 40.1108 54.9442 39.7336C54.8291 39.4202 54.714 39.1133 54.6117 38.7935C54.2408 37.5913 53.7548 36.4275 53.3903 35.2253C53.3584 35.123 53.32 35.0271 53.2816 34.9312C53.2241 34.8033 53.109 34.7905 52.9939 34.8097C52.8788 34.8289 52.8532 34.9184 52.8532 35.0207C52.8532 35.0846 52.8596 35.1486 52.8724 35.2061C53.0706 36.1653 53.2688 37.1181 53.4671 38.0773C53.6014 38.736 53.7293 39.401 53.8699 40.0597C53.9403 40.3794 53.838 40.6288 53.6078 40.8462C53.4031 41.0381 53.1985 41.2299 53.0003 41.4281C52.9427 41.4857 52.8916 41.5496 52.8148 41.5944C52.6038 41.7223 52.4375 41.6775 52.3352 41.4537C52.2969 41.3578 52.2649 41.2555 52.2457 41.1532C51.7597 39.0493 51.2865 36.9391 50.7494 34.8417C50.468 33.7482 50.1994 32.6419 49.9244 31.5484C49.8861 31.4077 49.8541 31.2606 49.7646 31.1455C49.707 31.0688 49.6239 31.024 49.5152 31.056C49.4257 31.0816 49.3745 31.1583 49.3681 31.2415C49.3553 31.3438 49.3617 31.4525 49.3745 31.5484C49.496 32.4245 49.6495 33.2941 49.7646 34.1702C49.8925 35.1166 50.0843 36.0502 50.2506 36.9902C50.4104 37.9303 50.5703 38.8703 50.7302 39.8103C50.8453 40.4817 50.9668 41.1596 51.0947 41.831C51.165 42.2147 51.2353 42.5984 51.4016 42.9692C51.6638 43.5576 52.4056 43.6727 52.8532 43.4105C53.0642 43.289 53.2369 43.1291 53.4031 42.9565C53.742 42.6175 54.0682 42.2722 54.4327 41.9525C54.7012 41.7159 55.0018 41.588 55.3663 41.6008C55.6477 41.6136 55.929 41.6008 56.2104 41.5944C56.5557 41.588 56.901 41.6072 57.2399 41.5752C57.8986 41.5113 58.2503 41.0253 58.1671 40.3794C58.1288 40.1108 58.052 39.8551 57.9561 39.5993C57.6684 38.7999 57.3806 37.9942 57.0928 37.1949C56.7923 36.3636 56.4917 35.5323 56.1976 34.701C56.1145 34.4708 55.9994 34.2533 55.9546 33.9912C56.2551 34.1127 56.479 34.3173 56.7156 34.4963C57.3934 34.9951 58.1224 35.4172 58.8642 35.8136C59.1455 35.9671 59.4525 36.0822 59.7658 36.1462C60.1815 36.2293 60.45 36.127 60.45 35.6154C60.4436 35.0655 60.2966 34.5475 60.1559 34.0295C59.8873 33.032 59.4908 32.0792 59.0944 31.1328C58.6851 30.148 58.2311 29.176 57.7707 28.2104C57.2911 27.2064 56.7859 26.2153 56.2615 25.2369C55.7244 24.2265 55.1617 23.2354 54.5925 22.2378C53.8188 20.8949 53.0131 19.5712 52.2009 18.2539C51.6894 17.4226 51.1394 16.6105 50.6151 15.7856C49.4448 13.9503 48.1787 12.1918 46.7399 10.5548C45.5249 9.17353 44.2204 7.8946 42.7497 6.79472C41.637 5.95702 40.6394 5.01701 39.7761 3.92992C39.1623 3.15617 38.5292 2.4016 37.7874 1.74295C37.1799 1.2058 36.5468 0.700621 35.7667 0.419257C34.8203 0.0803403 33.8675 -0.0987099 32.8635 0.112314C31.0666 0.483203 29.7749 1.4424 29.161 3.21372C29.0139 3.64855 28.8285 4.05781 28.5855 4.45428C28.1315 5.18966 27.703 5.93784 27.2682 6.67962C27.2298 6.74356 27.1467 6.80751 27.2234 6.92901C27.799 6.92261 28.4065 6.92261 29.0715 6.92261Z" fill="white"/>
<path d="M60.2007 54.4544C60.0344 53.7446 59.7019 53.1051 59.2735 52.5296C58.6532 51.6919 57.8666 51.0652 56.8627 50.7391C56.3191 50.5601 55.7628 50.4449 55.1873 50.4002C54.081 50.3107 53.0259 50.4769 52.0283 50.9501C50.7494 51.5576 49.8861 52.5616 49.3426 53.8597C48.8694 55.0043 48.7159 56.1873 48.9269 57.4023C49.1955 58.9562 49.8605 60.2991 51.1267 61.3031C52.0475 62.0321 53.109 62.3965 54.26 62.4669C55.1297 62.518 55.993 62.4029 56.8371 62.1344C58.0265 61.7571 58.9729 61.0792 59.6379 60.0305C59.8362 59.7236 59.9897 59.3911 60.0152 59.0202C60.0472 58.5662 59.8554 58.3615 59.4013 58.3615C58.8578 58.3551 58.3207 58.3679 57.7771 58.3551C57.3934 58.3423 57.1185 58.4958 56.9074 58.8028C56.7604 59.0202 56.5813 59.2056 56.3703 59.3591C55.3983 60.0817 53.7932 60.0881 52.7829 59.1033C52.3161 58.6429 52.0731 58.061 52.0155 57.3895C52.169 57.3384 52.2841 57.3576 52.3928 57.3576C54.7588 57.3576 57.1185 57.3576 59.4845 57.3576C60.0536 57.3576 60.3797 57.0826 60.4181 56.4303C60.4629 55.7589 60.3478 55.1066 60.2007 54.4544ZM56.4854 55.0363C55.1105 55.0363 53.7357 55.0363 52.3608 55.0363C52.0219 55.0363 52.0155 55.0363 52.0987 54.7166C52.3353 53.8213 52.8916 53.2138 53.7868 52.958C54.5606 52.7406 55.328 52.779 56.0505 53.1755C56.7731 53.5719 57.1312 54.1986 57.3039 55.0363C57.0034 55.0363 56.7412 55.0363 56.4854 55.0363Z" fill="white"/>
<path d="M25.3307 53.5913C24.8255 52.4275 24.0325 51.5386 22.8943 50.9759C21.8648 50.4707 20.7649 50.3045 19.6202 50.4004C18.5971 50.4835 17.6443 50.7585 16.7938 51.3596C15.8666 52.0118 15.1951 52.8751 14.7859 53.9238C14.351 55.0493 14.2168 56.2131 14.4086 57.4153C14.4981 57.9844 14.6644 58.528 14.8818 59.0587C15.0609 59.5 15.3166 59.9028 15.6108 60.2929C16.0904 60.926 16.6723 61.4311 17.3629 61.802C18.4053 62.3712 19.5371 62.5502 20.7073 62.4543C21.6985 62.3712 22.6449 62.1218 23.5146 61.6038C24.1604 61.2201 24.7104 60.7341 25.0877 60.0819C25.2859 59.7366 25.4586 59.3785 25.4713 58.9756C25.4841 58.5408 25.3179 58.3617 24.8766 58.3617C24.3267 58.3553 23.7704 58.3681 23.2204 58.3553C22.8623 58.3489 22.6001 58.4896 22.4083 58.7774C22.2996 58.9436 22.1781 59.0971 22.0246 59.225C21.5578 59.6215 21.0079 59.8005 20.4004 59.8581C18.8912 59.9987 17.5164 58.7966 17.4972 57.3578C17.6123 57.3578 17.7274 57.3578 17.8361 57.3578C20.151 57.3578 22.4595 57.3578 24.7743 57.3578C24.8894 57.3578 25.0045 57.3642 25.1196 57.3514C25.4841 57.313 25.7719 57.0764 25.8358 56.7503C25.8806 56.5265 25.919 56.3026 25.8998 56.0724C25.8358 55.2156 25.676 54.3842 25.3307 53.5913ZM17.5356 55.0237C17.4972 54.7423 17.5995 54.4993 17.7146 54.2819C18.1878 53.3675 18.9424 52.8879 19.9847 52.8431C20.605 52.8176 21.1805 52.9391 21.6985 53.278C22.3188 53.6872 22.6449 54.2755 22.7344 55.0237C20.9823 55.0237 19.2685 55.0237 17.5356 55.0237Z" fill="white"/>
<path d="M34.3279 55.5925C33.4071 55.2664 32.4415 55.0937 31.4951 54.8379C31.073 54.7228 30.6446 54.6333 30.2545 54.4287C29.8005 54.1857 29.6918 53.7317 29.9539 53.2968C30.1074 53.0474 30.3568 52.9451 30.6062 52.8492C31.0346 52.6893 31.4887 52.6893 31.9299 52.7341C32.6589 52.8108 33.2983 53.0602 33.6501 53.7892C33.746 53.981 33.9186 54.077 34.1488 54.1153C34.5709 54.1793 34.9993 54.1473 35.4214 54.1537C35.5876 54.1537 35.7539 54.1537 35.9202 54.1281C36.1759 54.0898 36.3038 53.9491 36.3614 53.7125C36.4445 53.3672 36.355 53.0538 36.2271 52.7405C35.8946 51.9667 35.2999 51.4424 34.5773 51.0587C33.8035 50.6494 32.9658 50.4576 32.0962 50.4C30.9323 50.3169 29.8069 50.4448 28.7454 50.9244C27.7094 51.3912 26.9996 52.1586 26.763 53.2904C26.5392 54.3264 26.7566 55.2472 27.5176 56.0145C28.0867 56.5901 28.7837 56.9418 29.5575 57.1528C30.5295 57.415 31.5078 57.6516 32.4862 57.9074C32.7292 57.9713 32.9658 58.0417 33.1832 58.1695C33.6117 58.4125 33.7268 58.873 33.471 59.2886C33.3303 59.5188 33.1257 59.6723 32.8763 59.7746C32.5374 59.9153 32.1793 59.9856 31.8148 59.9856C30.7916 59.9856 29.8708 59.7682 29.3337 58.7706C29.1802 58.4893 28.9244 58.3358 28.5855 58.355C28.3489 58.3678 28.1059 58.355 27.8693 58.355C27.5879 58.355 27.3066 58.3486 27.0252 58.355C26.7374 58.3614 26.5648 58.5021 26.4753 58.777C26.4241 58.9177 26.4177 59.0584 26.4369 59.2055C26.5072 59.9281 26.8589 60.5164 27.3769 60.9896C28.3169 61.8465 29.4616 62.2621 30.7085 62.4156C31.3096 62.4923 31.9107 62.4859 32.5118 62.422C33.3559 62.3261 34.168 62.1342 34.9226 61.7186C35.2871 61.5203 35.6324 61.2773 35.9074 60.964C36.4957 60.3054 36.777 59.5444 36.7578 58.6555C36.7451 57.9713 36.5532 57.3702 36.144 56.8267C35.658 56.2192 35.0313 55.8483 34.3279 55.5925Z" fill="white"/>
<path d="M0.474659 36.9397C1.0182 36.978 1.34433 36.6839 1.36991 36.1403C1.3763 35.9933 1.36991 35.8462 1.36991 35.7055C1.3763 35.2579 1.35073 34.8103 1.40188 34.3626C1.45304 33.8639 1.65767 33.4482 2.04774 33.1285C2.38666 32.8471 2.78313 32.6617 3.18599 32.489C4.2475 32.0414 5.31541 31.6001 6.38331 31.1717C7.20183 30.8392 8.00116 30.4619 8.82607 30.1486C9.48472 29.8992 10.1498 29.7649 10.8404 29.9503C11.9531 30.2573 12.925 30.8392 13.8203 31.5426C14.2487 31.8815 14.7028 32.2076 15.0417 32.6489C15.144 32.7832 15.2463 32.7512 15.3614 32.6617C15.5341 32.5146 15.7195 32.3739 15.8922 32.2268C15.9689 32.1629 16.0904 32.1437 16.1032 32.0158C15.5021 31.3124 14.7987 30.7433 14.0441 30.2125C13.2576 29.6562 12.4327 29.183 11.5246 28.8632C11.013 28.6842 10.4887 28.5755 9.93234 28.6586C9.59343 28.7098 9.26091 28.8057 8.92838 28.8824C8.32729 29.0231 7.84129 28.8313 7.44483 28.3836C7.02917 27.9168 6.63271 27.4372 6.22984 26.964C5.99324 26.6827 5.76943 26.4013 5.61596 26.0624C5.45609 25.6979 5.39854 25.3334 5.59038 24.9305C6.14671 25.3398 6.74141 25.6339 7.3617 25.8705C7.98198 26.1071 8.62144 26.2478 9.29288 26.3118C9.27369 25.9984 9.17778 25.7299 9.13941 25.4549C9.12022 25.3014 9.04349 25.2311 8.89002 25.1863C8.09708 24.9305 7.34891 24.5724 6.66468 24.0864C6.09555 23.6836 5.55201 23.2487 5.12996 22.6796C4.93173 22.4046 4.77826 22.1169 4.70792 21.7844C4.65036 21.5222 4.70792 21.2792 4.82941 21.0362C5.59038 21.5989 6.40889 21.9954 7.27217 22.2959C8.19939 22.6093 9.12022 22.6412 10.0347 22.2256C10.2777 22.1169 10.5334 22.0082 10.7892 21.9378C11.4159 21.7716 12.049 21.8163 12.6693 21.957C13.7883 22.2064 14.869 22.5837 15.9049 23.0633C16.3781 23.2807 16.7746 23.1912 16.9601 22.7244C16.9792 22.6796 17.0112 22.6349 17.0368 22.5901C17.1135 22.4814 17.088 22.4174 16.9601 22.3535C16.4549 22.0913 15.9497 21.8163 15.4253 21.5861C14.415 21.1385 13.3791 20.7676 12.2984 20.5438C11.6653 20.4159 11.0322 20.4159 10.4183 20.6333C10.1242 20.7356 9.84282 20.8699 9.54867 20.9786C9.1458 21.1321 8.74294 21.2344 8.30171 21.1577C7.29135 20.985 6.37052 20.595 5.52004 20.0322C5.3218 19.8788 5.12996 19.6933 4.98928 19.4695C4.80384 19.1753 4.8486 18.8812 5.11078 18.6574C5.19391 18.5806 5.29622 18.5231 5.39214 18.4655C5.70548 18.2673 6.05079 18.165 6.3961 18.0499C7.27217 17.7557 8.18021 17.647 9.08825 17.5383C9.29288 17.5127 9.53588 17.5511 9.68935 17.4552C9.862 17.3465 9.89398 17.0779 9.97711 16.8797C10.0411 16.7326 10.1562 16.5983 10.1498 16.4129C9.78527 16.3681 9.44635 16.4129 9.10743 16.4384C7.8285 16.5344 6.57515 16.7774 5.35378 17.1802C4.76547 17.3721 4.22192 17.647 3.73593 18.0371C3.22436 18.4464 2.94939 18.9323 3.27551 19.6485C3.37783 19.8724 3.4098 20.109 3.35865 20.352C3.30109 20.6077 3.24354 20.8571 3.18599 21.1129C3.10925 21.4454 3.10925 21.7716 3.23075 22.0977C3.38422 22.5134 3.60804 22.8842 3.87022 23.2296C4.44574 23.9905 4.32424 23.9969 4.17716 24.662C3.99172 25.4549 4.126 26.2159 4.52247 26.9321C4.82302 27.4692 5.21949 27.936 5.62875 28.39C6.01242 28.8121 6.3961 29.2341 6.79897 29.6754C5.73106 30.123 4.68873 30.5514 3.65919 30.999C2.97497 31.2932 2.26516 31.5554 1.61291 31.9263C0.634525 32.4826 0.0717958 33.3075 0.0206386 34.4458C-0.0113346 35.1172 0.0334279 35.795 0.00145469 36.4729C-0.00493995 36.6136 0.00784934 36.7798 0.0781905 36.8949C0.167716 37.01 0.346766 36.9269 0.474659 36.9397Z" fill="white"/>
<path d="M4.91896 8.84141C4.48412 8.8606 4.04929 8.89257 3.62085 8.98849C3.05812 9.11638 2.52097 9.30183 2.06055 9.66632C1.69606 9.96047 1.38911 10.2994 1.29319 10.7662C1.26122 10.9133 1.19727 10.9964 1.06938 11.0667C0.525837 11.3801 0.193315 11.8533 0.0782113 12.4672C-0.0177084 12.9787 0.00147555 13.4839 0.174131 13.9763C0.730465 15.5878 2.69362 16.1633 3.95976 15.3512C4.10684 15.2616 4.22194 15.268 4.36263 15.3C5.45611 15.543 6.40252 15.2936 7.1379 14.4175C7.20185 14.3344 7.2658 14.3024 7.36811 14.3024C8.46799 14.296 9.1778 13.6886 9.68297 12.7741C9.7661 12.627 9.79168 12.4608 9.7725 12.2881C9.75331 12.0963 9.61903 12.0387 9.47195 12.1538C9.408 12.205 9.35045 12.2625 9.2929 12.3265C9.10106 12.5567 8.86446 12.7166 8.60228 12.8445C8.10349 13.0939 7.57274 13.1834 7.02919 13.1834C6.79259 13.1834 6.64551 13.2601 6.51123 13.4456C6.25544 13.8037 5.92292 14.0531 5.48808 14.1618C4.96372 14.296 4.47133 14.2065 4.00452 13.9699C3.85105 13.906 3.74874 13.8996 3.62724 14.0275C3.60166 14.0594 3.56329 14.0786 3.53132 14.1042C2.87267 14.539 1.91348 14.328 1.54259 13.7077C1.13972 13.0299 1.34435 12.1794 2.04137 11.751C2.13729 11.6934 2.2396 11.6551 2.26518 11.5144C2.40586 10.8429 2.85349 10.4337 3.45459 10.1715C4.01731 9.92211 4.60562 9.83258 5.21951 9.90292C5.32182 9.91571 5.42414 9.92211 5.50087 9.82619C5.83979 9.40414 6.31299 9.23149 6.81817 9.12278C6.92049 9.10359 7.0228 9.0908 7.12511 9.07801C7.28498 9.04604 7.35532 8.93094 7.36172 8.79025C7.36811 8.64318 7.27859 8.53447 7.13151 8.4961C7.02919 8.47052 6.92688 8.44494 6.82456 8.43215C6.05081 8.29147 5.49448 7.85024 5.13638 7.17241C5.02127 6.95499 4.88699 6.88465 4.65678 6.86546C3.94697 6.79512 3.33948 6.48818 2.87267 5.93824C2.48899 5.45864 2.26518 4.90231 2.22681 4.28203C2.22042 4.10298 2.15008 4.03264 2.00939 3.94951C1.10775 3.39957 1.12693 2.06948 2.03497 1.53233C2.55933 1.22539 3.29472 1.3277 3.72956 1.78172C3.82547 1.87764 3.90221 1.95438 4.04929 1.91601C4.28589 1.84567 4.52249 1.87764 4.75909 1.88403C5.43053 1.89682 6.01244 2.14621 6.51762 2.58105C6.88851 2.90078 7.11232 3.32283 7.22743 3.80243C7.27219 4.00066 7.34253 4.10298 7.57913 4.14135C8.2186 4.25005 8.71099 4.58258 8.99875 5.19007C9.12664 5.45225 9.22895 5.72722 9.28011 6.01498C9.30569 6.15566 9.33766 6.30274 9.39521 6.43702C9.49113 6.64165 9.68937 6.64165 9.80447 6.44981C9.86202 6.36029 9.88121 6.25797 9.90039 6.15566C9.99631 5.69524 10.1434 5.24762 10.4951 4.9151C10.6358 4.78081 10.6869 4.63373 10.6869 4.44829C10.6997 3.91753 10.9171 3.46991 11.2497 3.06065C11.6845 2.53629 12.2344 2.24213 12.9123 2.20377C13.0913 2.19737 13.1808 2.13982 13.2768 1.98635C13.75 1.21899 14.5557 1.23817 15.1056 1.50675C15.8986 1.89043 16.084 3.02228 15.4765 3.66814C15.3103 3.8408 15.2719 3.98787 15.3294 4.21169C15.5149 4.79999 15.3614 5.33714 14.9586 5.81674C14.722 6.09811 14.415 6.26437 14.0761 6.38587C13.9482 6.43063 13.8715 6.49458 13.8395 6.64165C13.6604 7.44098 13.1617 7.97813 12.4455 8.33623C12.2792 8.41936 12.0938 8.47692 11.9531 8.60481C11.8188 8.71991 11.8508 8.91175 12.017 8.9757C12.0746 8.99488 12.1385 9.00128 12.2025 9.00128C12.8163 9.00767 13.4047 8.89257 13.9162 8.52807C14.2551 8.28508 14.5749 8.00371 14.6772 7.56888C14.7283 7.34506 14.8562 7.22357 15.0609 7.12765C15.6684 6.8207 16.0904 6.33471 16.3782 5.72722C16.5828 5.29878 16.5892 4.84476 16.5316 4.39074C16.5125 4.21808 16.5444 4.09658 16.6531 3.96229C17.1008 3.40596 17.2287 2.7601 17.0752 2.08227C16.8833 1.23817 16.3654 0.637078 15.5916 0.266188C15.1312 0.0423753 14.6324 -0.0599391 14.1336 0.0359806C13.475 0.157479 12.8803 0.432449 12.4646 0.988783C12.3687 1.11668 12.26 1.17423 12.1065 1.19341C11.6973 1.25096 11.3264 1.40444 10.9939 1.65383C10.2009 2.24853 9.7661 3.04147 9.67658 4.02624C9.67018 4.11577 9.6446 4.1989 9.63182 4.27563C9.55508 4.26924 9.54229 4.23087 9.5295 4.1925C9.36964 3.67454 9.00514 3.36759 8.49357 3.25888C8.27615 3.20773 8.18663 3.11181 8.10989 2.91997C7.91805 2.43397 7.66866 1.97356 7.28498 1.60906C6.64551 0.995178 5.87816 0.637078 4.97651 0.707419C4.61841 0.739392 4.33065 0.637078 4.0365 0.438843C3.40982 0.0167967 2.7256 -0.098307 1.99021 0.112716C1.35075 0.291767 0.83278 0.624288 0.46189 1.17423C0.142158 1.64743 0.0334488 2.17179 0.0270541 2.74092C0.0206595 3.39317 0.238078 3.93672 0.711282 4.37795C0.819991 4.48026 0.9287 4.56979 1.0438 4.66571C1.13972 4.74244 1.19727 4.83197 1.18449 4.95986C1.17809 5.0302 1.19088 5.10054 1.20367 5.17088C1.37632 6.16205 1.93266 6.89744 2.73199 7.46656C3.15404 7.76711 3.63364 7.93337 4.1516 7.98453C4.26671 7.99732 4.35623 8.02929 4.42018 8.15079C4.56725 8.43855 4.79107 8.64957 5.1108 8.76468C5.04685 8.86699 4.97651 8.84141 4.91896 8.84141Z" fill="white"/>
<path d="M44.6937 27.0729C44.3803 26.8555 44.0606 26.6508 43.7217 26.459C43.6577 26.5741 43.613 26.6636 43.5618 26.7531C43.2037 27.4565 42.82 28.1472 42.366 28.7994C41.5411 30.008 40.6011 31.1143 39.482 32.0607C38.8298 32.6106 38.1328 33.0966 37.4102 33.5506C36.1952 34.3244 34.8651 34.7017 33.4391 34.7784C32.9531 34.804 32.4607 34.804 31.9747 34.804C30.4656 34.804 28.9564 34.804 27.4409 34.804C27.1404 34.804 26.8398 34.8168 26.5393 34.836C25.3818 34.9063 24.25 35.1237 23.1437 35.4563C22.0566 35.7824 20.9823 35.8655 19.9016 35.4626C19.2685 35.226 18.6611 34.9383 18.1495 34.4203C18.1878 34.3947 18.2262 34.3756 18.2582 34.35C18.5587 34.1134 18.8657 33.8768 19.1662 33.6402C19.3261 33.5187 19.3261 33.4995 19.211 33.3396C19.1023 33.1862 18.9808 33.0455 18.8657 32.8984C18.7058 32.6874 18.7058 32.6874 18.4884 32.8408C17.0368 33.8704 15.63 34.9575 14.204 36.019C13.9226 36.2236 13.6476 36.4282 13.3343 36.6584C13.3343 36.2236 13.3343 35.8399 13.2959 35.4626C13.1936 34.4203 12.7332 33.6082 11.7996 33.0902C11.4735 32.9112 11.1345 32.7449 10.7892 32.6042C10.6166 32.5339 10.4823 32.5019 10.3288 32.6298C10.2841 32.6682 10.2201 32.6938 10.169 32.7257C9.91957 32.8792 9.66378 33.0391 9.4016 33.1989C10.0347 33.4675 10.655 33.6721 11.2177 34.0175C11.6781 34.3052 11.9722 34.6953 12.1129 35.2069C12.2856 35.8591 12.2856 36.5306 12.1257 37.1828C12.049 37.5089 11.9339 37.8415 11.6589 38.0781C11.1345 38.5257 10.5398 38.8262 9.86841 38.9861C9.45276 39.082 9.02432 39.1012 8.60227 39.114C8.2058 39.1204 7.98199 39.3186 7.93083 39.7087C7.91165 39.8622 7.92444 40.022 7.91804 40.1755C7.90525 40.3226 7.98199 40.3609 8.10988 40.3482C8.27614 40.3354 8.4424 40.2906 8.60866 40.3034C8.99874 40.3354 9.37602 40.2522 9.75331 40.1947C10.6805 40.054 11.4927 39.6511 12.2344 39.0884C13.2448 38.3211 14.2487 37.5473 15.2399 36.7608C15.8154 36.3003 16.4037 35.8527 16.9793 35.3923C17.0624 35.3284 17.1135 35.29 17.2159 35.3795C17.964 36.1021 18.8593 36.5689 19.8505 36.8695C20.5794 37.0933 21.3212 37.138 22.0694 37.0805C22.792 37.0293 23.4762 36.8183 24.1668 36.6137C25.1196 36.3387 26.0916 36.1852 27.0828 36.1725C29.2506 36.1405 31.412 36.198 33.5798 36.1405C34.4942 36.1149 35.3831 35.9806 36.2335 35.6481C37.5764 35.1237 38.8042 34.3947 39.9233 33.4803C41.3301 32.3357 42.5387 31.0184 43.5362 29.5028C43.8368 29.0424 44.1054 28.5564 44.3739 28.0768C44.521 27.8146 44.6489 27.5397 44.7576 27.2583C44.764 27.1816 44.7704 27.124 44.6937 27.0729Z" fill="white"/>
<path d="M43.2356 50.7903C42.7369 50.7839 42.2381 50.7903 41.7329 50.7903C41.6306 50.7903 41.5219 50.7839 41.4196 50.7903C41.2981 50.7967 41.2469 50.7519 41.2533 50.6304C41.2597 50.5601 41.2533 50.4833 41.2533 50.413C41.2533 49.3707 41.2469 48.3284 41.2533 47.2924C41.2533 46.7233 40.7609 46.346 40.3261 46.3716C39.9296 46.3972 39.5331 46.378 39.1367 46.378C38.5036 46.378 38.1583 46.7297 38.1519 47.3628C38.1519 47.7656 38.1519 48.1749 38.1519 48.5777C38.1519 49.2108 38.1519 49.8503 38.1519 50.4833C38.1519 50.8223 38.1903 50.7903 37.8258 50.7967C37.7107 50.7967 37.5956 50.7903 37.4805 50.7967C37.0904 50.8159 36.8602 51.0397 36.8474 51.4234C36.8346 51.7559 36.8346 52.0884 36.8474 52.4209C36.8602 52.7279 37.02 52.9069 37.3142 53.0028C37.4741 53.054 37.6403 53.0668 37.8066 53.0668C38.1967 53.0668 38.1455 53.0476 38.1455 53.3929C38.1455 54.2754 38.1455 55.1642 38.1455 56.0467C38.1455 56.91 38.1455 57.7732 38.1455 58.6365C38.1455 58.9371 38.1711 59.244 38.2478 59.5318C38.6571 61.0601 39.7889 62.0641 41.394 62.2111C41.9759 62.2623 42.5578 62.2303 43.1397 62.2303C43.5682 62.2303 43.8112 61.9873 43.824 61.5525C43.8367 61.22 43.8367 60.8874 43.824 60.5549C43.8112 60.0945 43.5554 59.8451 43.095 59.8451C42.8839 59.8451 42.6793 59.8259 42.4747 59.7876C41.8352 59.6661 41.4387 59.2824 41.3045 58.6493C41.2597 58.4575 41.2469 58.2592 41.2469 58.061C41.2469 56.6222 41.2469 55.1898 41.2533 53.751C41.2533 53.5336 41.1574 53.265 41.2981 53.1179C41.4515 52.9581 41.7329 53.0668 41.9567 53.0604C42.3916 53.0476 42.8328 53.0796 43.2676 53.0348C43.6641 52.9964 43.8815 52.7471 43.8879 52.3506C43.8943 52.05 43.8943 51.7495 43.8879 51.4425C43.8943 51.0397 43.6577 50.7967 43.2356 50.7903Z" fill="white"/>
<path d="M47.8398 54.3011C47.8398 52.031 47.8398 49.7609 47.8398 47.4908C47.8398 47.4268 47.8398 47.3629 47.8398 47.3054C47.8398 46.7618 47.373 46.3334 46.887 46.3653C46.4713 46.3973 46.0493 46.3973 45.64 46.3653C45.1348 46.327 44.6872 46.7746 44.6744 47.2606C44.668 47.4268 44.6552 47.5931 44.6552 47.7594C44.6552 51.4235 44.6552 55.0876 44.6552 58.7582C44.6552 59.4232 44.6489 60.0883 44.6552 60.7533C44.6552 61.0155 44.6616 61.2777 44.7 61.5334C44.7512 61.9107 45.1029 62.2496 45.4546 62.2496C45.9981 62.256 46.5353 62.2496 47.0788 62.2305C47.4113 62.2177 47.6352 62.0322 47.7567 61.7189C47.827 61.5398 47.8462 61.3608 47.8462 61.169C47.8398 58.8797 47.8398 56.5904 47.8398 54.3011Z" fill="white"/>
<path d="M41.0103 25.1352C40.7481 24.8922 40.4668 24.7579 40.2238 24.5725C40.0895 24.4637 39.968 24.4765 39.8209 24.5469C39.4564 24.7259 39.1239 24.9497 38.7914 25.1927C37.6851 25.9985 36.7387 26.9704 35.8946 28.0511C35.4981 28.5627 35.1592 29.1063 34.7883 29.6306C34.3599 30.2381 33.8227 30.7241 33.1513 31.0374C32.3903 31.4019 31.5718 31.6066 30.7597 31.8304C30.6446 31.8623 30.5871 31.824 30.5487 31.7153C30.4336 31.37 30.2673 31.0438 30.0883 30.7305C29.6918 30.0207 29.1802 29.4132 28.4704 28.9912C27.978 28.697 27.4537 28.6075 26.8846 28.7034C26.3154 28.8057 25.7847 28.9912 25.2475 29.2086C23.8855 29.7585 22.5618 30.3724 21.2828 31.095C21.1102 31.1909 20.9375 31.2868 20.7713 31.3891C20.7009 31.4275 20.669 31.4723 20.7393 31.5618C20.8992 31.7664 21.0462 31.9775 21.2061 32.1885C21.2764 32.2844 21.3404 32.2716 21.4427 32.2141C21.7305 32.0542 22.031 31.9071 22.3316 31.7664C23.1437 31.37 23.9686 31.0055 24.7999 30.6538C25.4522 30.3788 26.1108 30.1422 26.8142 30.0207C27.4473 29.912 27.9461 30.1294 28.3489 30.5706C28.7326 30.9927 29.0268 31.4851 29.2314 32.0286C29.2825 32.1565 29.2506 32.2013 29.1291 32.2205C28.8733 32.2588 28.6175 32.2908 28.3553 32.3292C27.6263 32.4315 26.8909 32.5018 26.1556 32.5338C25.644 32.5594 25.1388 32.5722 24.6272 32.5977C24.3779 32.6105 24.1924 32.7192 24.0837 32.9558C24.0198 33.0965 23.9814 33.25 23.9366 33.3971C23.8727 33.6465 23.8855 33.6784 24.1349 33.672C24.704 33.6529 25.2795 33.672 25.8486 33.6401C26.616 33.6017 27.3833 33.5633 28.1507 33.4802C29.2762 33.3651 30.3952 33.1988 31.4951 32.9111C32.6014 32.6233 33.6821 32.2396 34.6796 31.6705C34.8203 31.5874 34.9482 31.581 35.0953 31.6194C35.626 31.7792 36.1696 31.7536 36.7003 31.6449C37.7618 31.4211 38.7147 30.9415 39.5843 30.2893C39.8273 30.1038 40 29.8672 40 29.5603C40 29.3045 39.9552 29.0551 39.9296 28.7737C39.7122 28.8697 39.5779 29.0103 39.4245 29.1254C38.8809 29.5283 38.331 29.9248 37.7107 30.2061C37.116 30.4747 36.4829 30.5706 35.7795 30.4683C37.0712 28.2302 38.6443 26.3118 41.0103 25.1352Z" fill="white"/>
<path d="M16.2183 10.4464C15.6428 11.2265 14.9905 11.9364 14.3639 12.6717C13.6029 13.567 12.9059 14.5134 12.3367 15.5429C11.7804 16.5405 11.32 17.5892 10.8724 18.6443C10.7828 18.849 10.7125 19.0664 10.6358 19.271C10.7125 19.3477 10.7892 19.3158 10.8532 19.3094C11.1729 19.303 11.499 19.2838 11.8188 19.2902C12.0042 19.2966 12.1001 19.2326 12.1705 19.0664C12.5478 18.2223 12.9506 17.391 13.3855 16.5725C13.993 15.4214 14.7028 14.3343 15.5469 13.3432C16.1096 12.6781 16.6851 12.0195 17.2031 11.3161C17.8106 10.4976 18.2582 9.6023 18.5332 8.61753C18.693 8.03561 18.7953 7.44091 19.0192 6.87818C19.3709 5.97654 20.2277 5.36265 21.2509 5.37544C21.8072 5.38184 22.3124 5.5417 22.8112 5.75273C23.1245 5.88701 23.4506 5.98293 23.8024 6.00212C23.9942 6.01491 24.1988 5.96375 24.4354 6.00851C24.2116 6.29627 24.0134 6.55206 23.8151 6.80145C23.7192 6.91655 23.7384 6.99329 23.8599 7.07642C24.1285 7.25547 24.3843 7.44091 24.6528 7.62636C24.5186 7.74786 24.3587 7.77343 24.2244 7.85017C23.4634 8.2914 22.9647 8.95005 22.6066 9.73659C22.5682 9.81972 22.5426 9.91564 22.5234 10.0052C22.5042 10.1075 22.5106 10.229 22.6193 10.2801C22.7217 10.3249 22.8368 10.3249 22.9327 10.2226C23.0478 10.0883 23.1885 9.97959 23.2972 9.83891C23.7704 9.21223 24.4035 8.81576 25.126 8.5344C25.5929 8.34895 26.0661 8.16351 26.5521 8.01643C26.5137 7.88214 26.4114 7.84378 26.3346 7.77983C25.9446 7.48568 25.5545 7.19152 25.1644 6.89737C24.9854 6.76308 24.9854 6.75669 25.1005 6.58403C25.2667 6.33464 25.4394 6.08525 25.6056 5.83586C25.7911 5.56089 25.9765 5.28592 26.2003 4.95339C25.6312 4.95339 25.1324 4.95339 24.6337 4.95339C24.0837 4.95339 23.553 4.85108 23.067 4.60169C22.7472 4.43543 22.4211 4.32032 22.0758 4.22441C21.2189 3.9942 20.3748 4.06454 19.5755 4.42903C18.5907 4.88305 17.9512 5.6632 17.6443 6.71192C17.4589 7.35139 17.2734 7.99085 17.0752 8.62392C16.8769 9.26978 16.6276 9.89006 16.2183 10.4464Z" fill="white"/>
<path d="M19.7673 14.9164C19.7225 15.8692 19.4603 16.7197 18.8465 17.4743C18.3796 18.0434 17.9576 18.6509 17.5292 19.252C17.1838 19.7316 16.8577 20.2304 16.5891 20.7675C16.8897 20.9338 17.1838 21.0809 17.4716 21.2535C17.7466 21.4198 17.7466 21.3942 17.9128 21.1576C18.3796 20.4862 18.8592 19.8147 19.3197 19.1369C19.7161 18.555 20.151 17.9987 20.5027 17.3784C20.7776 16.886 21.0014 16.3808 21.059 15.8053C21.1038 15.3705 21.0974 14.9356 21.1421 14.5008C21.2572 13.3497 21.9351 12.4673 22.9966 12.1603C23.5337 12.0069 24.0645 12.0452 24.5952 12.1603C25.0045 12.2499 25.4202 12.2754 25.8294 12.1795C25.9893 12.1412 26.1364 12.0836 26.341 12.0133C26.2067 12.333 26.0916 12.608 25.9765 12.8829C25.8742 13.1259 25.8806 13.1195 26.1044 13.2282C26.373 13.3561 26.6671 13.4201 26.9421 13.5863C26.6799 13.8166 26.4433 14.0532 26.2323 14.3025C25.6887 14.9484 25.3178 15.6902 25.0237 16.4703C24.7871 17.0906 24.6848 17.7365 24.6912 18.3951C24.6912 18.9515 24.7615 19.5142 24.8638 20.0641C24.9022 20.2688 24.9725 20.467 25.0237 20.6652C25.0557 20.7803 25.1324 20.8059 25.2347 20.8059C25.3498 20.8123 25.4074 20.7483 25.4265 20.6396C25.4393 20.5757 25.4585 20.5181 25.4585 20.4542C25.4585 19.9938 25.5033 19.5398 25.548 19.0857C25.6376 18.1265 25.8742 17.1993 26.309 16.336C26.8845 15.2042 27.6647 14.2514 28.7454 13.5544C28.7965 13.5224 28.8605 13.4968 28.8605 13.4201C28.8413 13.3433 28.7646 13.337 28.7134 13.3178C28.3041 13.1387 27.8949 12.9661 27.4792 12.7934C27.0764 12.6208 27.0764 12.6208 27.2426 12.1987C27.4217 11.7575 27.6135 11.3162 27.7926 10.875C27.8629 10.696 27.8373 10.6704 27.6583 10.7088C27.2618 10.7919 26.8653 10.875 26.4689 10.9581C25.9765 11.0605 25.4841 11.0796 24.9789 11.0029C24.5697 10.939 24.1732 10.8111 23.7511 10.7855C22.1013 10.696 20.7712 11.5145 20.1446 13.0172C19.876 13.6311 19.7993 14.2706 19.7673 14.9164Z" fill="white"/>
<path d="M47.8653 9.36576C47.9229 9.28903 47.9868 9.22508 48.0444 9.14834C48.6199 8.40656 49.1187 7.62002 49.6047 6.82069C49.8413 6.43062 50.0971 6.05973 50.3912 5.64408C50.4807 5.84231 50.4424 5.98939 50.4488 6.13007C50.4935 6.83348 50.7301 7.42818 51.3888 7.77989C51.9323 8.06765 52.5206 8.10602 53.1153 8.0101C54.1001 7.85023 55.0593 7.56887 55.9993 7.24913C56.626 7.03811 57.2527 6.8079 57.873 6.59048C58.2439 6.46259 58.6147 6.3347 58.9856 6.20681C59.0624 6.18123 59.1519 6.16844 59.1519 6.05333C59.1519 5.64408 59.1519 5.23482 59.1519 4.79998C59.0112 4.83835 58.9089 4.86393 58.813 4.8959C58.3142 5.06856 57.8154 5.24761 57.3166 5.42666C56.3894 5.75279 55.4686 6.12367 54.5158 6.38586C53.953 6.53933 53.3967 6.70559 52.8148 6.75674C52.1178 6.8143 51.5934 6.48177 51.6318 5.71442C51.6446 5.47782 51.6446 5.23482 51.6893 4.99822C51.9131 3.83439 52.3672 2.74091 52.8596 1.66021C52.9043 1.5579 52.9938 1.46837 52.9555 1.3149C52.6102 1.3149 52.2585 1.32769 51.9132 1.3085C51.7277 1.30211 51.6382 1.37245 51.555 1.52592C51.1522 2.24212 50.7429 2.95193 50.2953 3.63616C49.739 4.48025 49.221 5.34353 48.6455 6.16844C48.0892 6.96137 47.5456 7.7607 46.9253 8.51527C47.1875 8.80303 47.4433 9.09079 47.7055 9.37216C47.7566 9.44889 47.8078 9.44889 47.8653 9.36576Z" fill="white"/>
<path d="M50.3145 48.8466C50.3657 48.8529 50.4168 48.8466 50.468 48.8466C51.8812 48.8466 53.2944 48.8466 54.7076 48.8466C55.7883 48.8466 56.869 48.8529 57.9497 48.8466C58.4677 48.8402 58.9857 48.8913 59.5036 48.8082C59.8937 48.7442 60.0919 48.5332 60.0983 48.1431C60.1047 47.7403 60.0983 47.331 60.0983 46.9282C60.0983 46.7555 60.06 46.602 59.9768 46.455C59.7914 46.1416 59.4908 46.0969 59.1647 46.1288C57.8474 46.2631 56.5237 46.4102 55.2064 46.5445C54.0106 46.666 52.8084 46.7747 51.6126 46.8898C51.1074 46.941 50.5959 46.9473 50.0971 47.0433C49.7901 47.1072 49.6175 47.3246 49.6239 47.638C49.6239 47.817 49.6367 47.9897 49.6303 48.1687C49.6047 48.6483 49.7262 48.7954 50.3145 48.8466Z" fill="white"/>
<path d="M11.1346 26.5358C10.866 26.5358 10.591 26.5485 10.3225 26.5549C10.1946 26.5549 10.1242 26.5997 10.1434 26.7404C10.169 26.8939 10.1818 27.0537 10.2265 27.2008C10.2713 27.3543 10.3736 27.4758 10.5399 27.5205C10.6933 27.5589 10.8468 27.5973 11.0003 27.6037C11.9403 27.6356 12.8739 27.5717 13.7948 27.3926C13.9738 27.3607 14.0761 27.3735 14.1848 27.5333C14.7539 28.3646 15.4893 29.0041 16.3974 29.4581C17.331 29.9249 18.3222 30.1104 19.3581 30.0272C20.1702 29.9633 20.9504 29.7587 21.7113 29.4517C22.2229 29.2471 22.7345 29.0489 23.2077 28.7675C23.3164 28.7035 23.3611 28.6332 23.3228 28.5181C23.2396 28.2431 23.1885 27.9554 23.0798 27.6868C22.9647 27.674 22.8943 27.7443 22.8176 27.7891C22.306 28.0897 21.7625 28.3263 21.2061 28.5181C20.3237 28.825 19.4348 29.0488 18.4884 28.9657C17.8106 28.9018 17.1711 28.6971 16.6276 28.3135C15.694 27.6548 15.0545 26.7532 14.5813 25.7236C14.2999 25.1097 13.9738 24.515 13.5901 23.9587C13.4047 23.6901 13.1617 23.4855 12.8739 23.3256C12.356 23.0507 11.8124 23.0762 11.2625 23.1594C10.6422 23.2489 10.0603 23.4855 9.48476 23.7285C9.15224 23.8692 9.14584 23.8692 9.24176 24.2145C9.34408 24.5854 9.56149 24.7261 9.94517 24.6429C10.0475 24.6238 10.1434 24.5854 10.2457 24.5534C10.6166 24.4447 10.9875 24.3488 11.3712 24.3168C11.8188 24.2784 12.2153 24.3871 12.5222 24.7389C12.9187 25.1929 13.1169 25.7492 13.3855 26.2608C13.3152 26.3375 13.2576 26.3503 13.1937 26.3567C12.503 26.4462 11.8252 26.5294 11.1346 26.5358Z" fill="white"/>
<path d="M33.8163 26.6571C33.5733 26.8873 33.3303 27.1111 33.049 27.2965C32.5182 27.6482 32.0834 27.5012 31.8788 26.9064C31.7764 26.5995 31.7445 26.2798 31.7125 25.96C31.6741 25.5572 31.7189 25.1543 31.6294 24.7387C31.5271 24.7387 31.4247 24.7259 31.3224 24.7387C30.2673 24.8729 29.2314 25.0968 28.2146 25.3845C27.492 25.5892 26.8078 25.8897 26.13 26.2094C25.5353 26.4844 24.9406 26.753 24.3778 27.0919C24.2563 27.1622 24.1988 27.2262 24.2627 27.386C24.3395 27.5907 24.3778 27.8081 24.429 28.0191C24.4802 28.211 24.4993 28.2174 24.6784 28.115C24.8894 27.9999 25.0812 27.8593 25.2987 27.7505C26.2067 27.2837 27.1339 26.8809 28.1059 26.5739C28.8413 26.3437 29.6087 26.2542 30.3696 26.1391C30.3824 26.1902 30.4016 26.2158 30.4016 26.2478C30.4144 26.6698 30.5103 27.0727 30.6446 27.4692C30.7661 27.8401 30.9579 28.1662 31.2457 28.4412C31.7253 28.8888 32.2624 28.9655 32.8571 28.7545C33.292 28.5946 33.6757 28.3388 34.021 28.0383C34.7372 27.418 35.3638 26.7018 35.9522 25.9664C36.3998 25.4101 36.8538 24.8538 37.295 24.291C37.5188 24.0033 37.7363 23.7155 37.9601 23.4278C38.0304 23.3382 38.0432 23.2615 37.9473 23.1848C37.7107 23.0057 37.4677 22.8331 37.2311 22.6604C36.6492 23.415 36.0736 24.1376 35.4789 24.841C34.9482 25.4677 34.411 26.0879 33.8163 26.6571Z" fill="white"/>
<path d="M52.0859 10.9197C51.4144 11.2522 50.7494 11.5911 50.0843 11.9364C49.8797 12.0388 49.8797 12.0579 50.0012 12.2306C50.1675 12.4672 50.3465 12.6974 50.5128 12.9404C50.5895 13.0555 50.6726 13.0683 50.8005 13.0171C51.2609 12.8317 51.7278 12.659 52.2074 12.5247C52.7893 12.3585 53.3712 12.2114 53.9723 12.1858C54.6949 12.1539 55.4239 12.173 56.1528 12.1283C57.0865 12.0707 58.0073 11.9237 58.9217 11.7254C59.1519 11.6743 59.1519 11.6743 59.1583 11.4441C59.1583 11.2778 59.1583 11.1115 59.1583 10.9453C59.1583 10.6064 59.1583 10.6064 58.8386 10.6703C58.1416 10.8046 57.451 10.9453 56.7476 11.0284C56.3767 11.0732 56.0058 11.1371 55.6285 11.086C55.507 11.0668 55.3471 11.0923 55.3215 10.9325C55.296 10.779 55.4494 10.7406 55.5581 10.6895C56.7603 10.1971 57.9561 9.69192 59.1711 9.2379C59.5228 9.10361 59.8681 8.96932 60.2135 8.83504C60.3222 8.79027 60.4181 8.75191 60.4117 8.59843C60.4053 8.21476 60.4117 7.83108 60.4117 7.39624C60.0472 7.49855 59.7402 7.63924 59.4333 7.75434C58.0712 8.27231 56.7284 8.82864 55.3919 9.40416C54.292 9.88376 53.1793 10.3761 52.0859 10.9197Z" fill="white"/>
<path d="M17.7977 27.0725C18.2326 27.3027 18.6866 27.3027 19.1598 27.3091C20.0231 27.3218 20.848 27.1492 21.6665 26.8806C22.7856 26.5161 23.8535 26.0301 24.883 25.4674C25.0109 25.3971 25.158 25.3715 25.2667 25.2372C25.2347 25.1093 25.1452 25.007 25.0685 24.8983C24.8255 24.553 24.608 24.489 24.2116 24.6297C24.1348 24.6553 24.0581 24.6936 23.9814 24.732C23.3611 25.0709 22.7088 25.3395 22.0502 25.5953C21.3276 25.8703 20.5986 26.1069 19.8248 26.1708C19.5243 26.1964 19.2238 26.1964 18.9232 26.158C18.3285 26.0877 18.1175 25.6656 18.418 25.1605C18.5203 24.9878 18.6418 24.8407 18.7953 24.7128C19.4987 24.1373 20.2981 23.7089 21.123 23.338C21.5898 23.1334 22.0566 22.9287 22.5234 22.7241C22.7088 22.641 22.7152 22.6218 22.6001 22.4555C22.4658 22.2701 22.3188 22.0974 22.1845 21.912C22.1141 21.8161 22.0374 21.7841 21.9223 21.8352C21.7177 21.9376 21.513 22.0335 21.2956 22.1102C20.4132 22.4363 19.6074 22.9095 18.8081 23.4019C18.4436 23.6257 18.1111 23.8943 17.8041 24.1885C17.5036 24.4762 17.2414 24.8024 17.0943 25.2052C16.813 25.9662 17.1007 26.7016 17.7977 27.0725Z" fill="white"/>
<path d="M35.9458 21.4516C35.658 21.1447 35.658 21.1447 35.2743 21.2918C35.2424 21.3046 35.2168 21.3173 35.1848 21.3237C33.7844 21.8737 32.3392 22.0591 30.8428 21.8993C29.8645 21.7905 28.8861 21.6115 27.8949 21.6051C26.9293 21.5987 25.9829 21.6754 25.0813 22.0527C24.7168 22.2062 24.3587 22.3661 24.0261 22.5899C23.9174 22.6602 23.9174 22.7242 23.9942 22.8137C24.1157 22.9672 24.2372 23.127 24.3587 23.2805C24.5249 23.4915 24.5249 23.4851 24.7935 23.3956C25.8614 23.0247 26.9485 22.8137 28.0931 22.8585C28.8413 22.8904 29.5831 23.0055 30.3249 23.0951C31.1114 23.191 31.898 23.2421 32.6845 23.1846C33.7012 23.1142 34.654 22.7753 35.5813 22.3725C35.869 22.251 36.1504 22.1231 36.4318 21.9376C36.2847 21.7202 36.0928 21.6115 35.9458 21.4516Z" fill="white"/>
<path d="M45.6784 18.7275C45.7743 18.9257 45.8767 19.1176 45.9918 19.303C46.7016 20.4668 47.4817 21.5795 48.3897 22.5963C48.9013 23.1718 49.4129 23.7473 49.982 24.2589C50.8261 25.0262 51.6638 25.8 52.591 26.4714C53.0642 26.8167 53.5183 27.1684 54.0042 27.4946C54.2217 27.6416 54.3687 27.6608 54.4519 27.5585C54.535 27.4562 54.4902 27.2963 54.3176 27.1301C54.0106 26.8359 53.6845 26.5545 53.384 26.254C51.9771 24.8536 50.5703 23.4467 49.2274 21.9888C48.377 21.0615 47.5393 20.1279 46.7271 19.1687C46.4778 18.8746 46.2348 18.5804 45.9854 18.2863C45.9086 18.1903 45.8127 18.1648 45.7104 18.2031C45.6081 18.2415 45.5889 18.3374 45.5953 18.4461C45.5761 18.542 45.6337 18.6316 45.6784 18.7275Z" fill="white"/>
<path d="M9.83007 8.54725C9.65102 8.56004 9.54231 8.79664 9.39523 8.92453C9.31849 8.98848 9.31849 9.06521 9.37605 9.14195C9.45918 9.25705 9.5551 9.37216 9.62544 9.50005C10.2777 10.5871 10.8916 11.687 11.3968 12.8508C11.4991 13.0938 11.6206 13.3304 11.7293 13.567C11.8252 13.5543 11.838 13.4839 11.87 13.4328C12.0554 13.1834 12.2281 12.9212 12.4199 12.6782C12.6245 12.4096 12.6309 12.416 12.4711 12.1155C12.4519 12.0771 12.4327 12.0451 12.4071 12.0068C11.7804 10.9005 11.0323 9.88373 10.2137 8.91814C10.105 8.77745 9.99633 8.54085 9.83007 8.54725Z" fill="white"/>
<path d="M32.8443 16.7328C32.806 16.6177 32.7228 16.6113 32.6269 16.6113C31.2201 16.6113 29.8133 16.6113 28.4128 16.6113C28.2786 16.6113 28.2082 16.6561 28.1507 16.7776C28.0483 16.995 27.9332 17.1996 27.8181 17.4107C27.6711 17.6792 27.6839 17.692 27.9908 17.6984C28.01 17.6984 28.0356 17.6984 28.0547 17.6984C28.8477 17.6984 29.6342 17.6984 30.4272 17.6984C31.2521 17.6984 32.0706 17.6984 32.8955 17.6984C32.9466 17.6984 32.9978 17.6984 33.049 17.692C33.1577 17.6856 33.196 17.6281 33.1577 17.5258C33.0426 17.2572 32.9403 16.995 32.8443 16.7328Z" fill="white"/>
<path d="M3.8894 12.1794C3.80627 12.2561 3.78709 12.3648 3.81906 12.4607C3.84464 12.5375 3.92777 12.5822 4.04927 12.5694C4.08124 12.563 4.14519 12.5503 4.20274 12.5247C5.35378 12.0771 6.54318 11.7317 7.70701 11.3161C8.24416 11.1242 8.24416 11.137 8.05871 10.6063C8.01395 10.4656 7.95 10.4336 7.80932 10.4592C6.54318 10.683 5.35378 11.0923 4.29866 11.8405C4.15798 11.9428 4.02369 12.0579 3.8894 12.1794Z" fill="white"/>
<path d="M6.56237 4.99182C5.9229 4.4163 5.16194 4.02623 4.39458 3.66174C4.27948 3.60418 4.17077 3.55303 4.05566 3.53384C3.88301 3.52105 3.81267 3.59779 3.81906 3.75766C3.82546 3.87276 3.8958 3.93671 3.98532 4.00705C4.38179 4.33957 4.77826 4.67849 5.17473 5.01101C5.72467 5.47142 6.27461 5.93184 6.81815 6.39225C7.27857 6.77593 7.15707 6.78872 7.54714 6.36028C7.72619 6.16204 7.7198 6.16844 7.54075 5.95741C7.25299 5.59931 6.90768 5.29877 6.56237 4.99182Z" fill="white"/>
<path d="M11.499 7.53669C11.5374 7.48553 11.5694 7.45995 11.595 7.42798C12.2408 6.42402 12.8867 5.42006 13.5325 4.4161C13.6476 4.24345 13.75 4.058 13.8523 3.87895C13.9098 3.78303 13.9354 3.68072 13.8459 3.59119C13.75 3.49527 13.6349 3.52085 13.5325 3.5848C13.4942 3.60398 13.4686 3.63596 13.4366 3.66153C12.7076 4.301 12.0298 4.98523 11.5438 5.83571C11.3328 6.2066 11.1218 6.5711 10.9555 6.96757C10.866 7.17859 10.866 7.17859 11.077 7.29369C11.2177 7.37043 11.352 7.44717 11.499 7.53669Z" fill="white"/>
<path d="M32.4671 4.76139C32.7421 4.63989 32.9978 4.48003 33.2217 4.269C33.3368 4.16029 33.4583 4.06437 33.5286 3.92369C33.6245 3.73825 33.5989 3.59757 33.4391 3.45688C33.1705 3.22028 32.8572 3.11157 32.4991 3.11157C32.109 3.11157 31.8532 3.30341 31.6805 3.62954C31.5974 3.7894 31.5718 3.96206 31.5782 4.13472C31.5527 4.76139 31.898 5.00439 32.4671 4.76139Z" fill="white"/>
<path d="M21.3468 7.86923C21.7369 7.81807 22.0758 7.63902 22.3444 7.34486C22.5682 7.09547 22.549 6.80771 22.3124 6.57751C22.1142 6.39206 21.884 6.28975 21.6218 6.30893C21.2061 6.30893 20.9631 6.48798 20.8225 6.87166C20.7649 7.03153 20.7777 7.19779 20.7713 7.36405C20.7457 7.74133 21.0399 7.90759 21.3468 7.86923Z" fill="white"/>
<path d="M24.64 14.0593C25.1068 13.5861 24.9789 13.1257 24.3395 12.9594C24.2883 12.9466 24.2372 12.9338 24.186 12.9274C23.7064 12.8635 23.3995 13.0745 23.2971 13.5413C23.278 13.6309 23.2843 13.7268 23.278 13.8227C23.278 13.8739 23.278 13.925 23.278 13.9762C23.2907 14.4494 23.5977 14.654 24.0325 14.4813C24.2627 14.3854 24.461 14.2383 24.64 14.0593Z" fill="white"/>
</svg>
