<svg width="210" height="50" viewBox="0 0 210 50" fill="none" xmlns="http://www.w3.org/2000/svg">
<path d="M65.8142 6.79547C67.4899 6.82561 68.7317 6.25296 69.2802 4.64353C71.2031 -1.01057 59.7261 -1.36018 62.529 5.28851C63.0956 6.63874 64.4519 6.77136 65.8142 6.79547Z" fill="white"/>
<path d="M137.274 6.97046C137.618 6.95841 137.98 6.89813 138.347 6.7836C143.917 4.99333 139.004 -2.41487 134.942 0.797965C132.12 3.02826 134.146 7.05485 137.274 6.97046Z" fill="white"/>
<path d="M208.282 1.31637C207.3 1.33445 206.317 1.3887 205.34 1.35856C203.032 1.29828 201.88 2.14218 202.212 4.64373C202.423 6.25919 202.254 7.92889 202.254 9.77341C202.254 9.20077 197.854 9.08021 197.348 9.13446C195.581 9.30927 193.96 9.97836 192.586 11.1056C189.71 13.4624 188.282 17.4288 188.872 21.0756C189.813 26.8924 195.153 30.7623 200.687 27.652C201.145 27.3928 201.7 26.573 202.146 27.1577C203.683 29.177 206.811 28.2186 208.927 28.0257C208.258 28.086 210.386 2.32904 208.849 1.35253C208.668 1.24403 208.481 1.23198 208.282 1.31637ZM202.779 18.6765C202.748 21.2926 201.567 23.9569 199.289 23.981C196.666 24.0051 195.075 22.1727 195.033 19.0261C194.991 15.7168 196.781 13.6192 199.584 13.6493C201.76 13.6734 202.809 16.1509 202.779 18.6765Z" fill="white"/>
<path d="M203.436 33.6858C198.589 33.716 192.115 33.945 191.253 33.9511C172.085 33.9511 152.904 34.3549 133.754 35.2169C132.753 35.1928 131.753 35.1144 130.758 35.1506C116.279 35.7293 101.8 36.2658 87.3216 36.9409C76.2484 37.4593 65.1633 37.9897 54.1143 38.8336C37.5016 40.1055 20.8949 41.4316 4.33042 43.2701C1.41295 43.5956 0.810163 44.7891 0.237519 47.0435C-0.238679 48.9061 -0.166345 49.6837 2.04587 49.093C3.58296 48.6831 5.17431 48.442 6.75963 48.2611C19.7255 46.7301 32.6913 45.199 45.6874 43.903C60.8835 42.39 76.0978 41.1483 91.318 39.991C105.055 38.9481 118.823 38.2489 132.579 37.405C156.159 36.1211 179.746 34.9818 203.363 34.4875C205.19 34.5117 207.022 34.5418 208.849 34.5659C208.849 34.367 208.849 34.1681 208.849 33.9752C208.849 33.728 206.456 33.6678 203.436 33.6858Z" fill="white"/>
<path d="M156.051 27.5735C156.871 27.1033 156.991 26.814 157.932 27.8026C159.089 29.0202 161.355 28.4475 163.013 28.1522C164.58 27.8749 163.712 26.1509 163.742 25.1141C163.857 21.6662 163.785 18.2063 163.785 14.7523C163.785 11.3948 163.785 8.04333 163.785 4.68583C163.785 1.01489 163.791 1.11736 160.162 1.34642C158.082 1.47903 157.371 2.3169 157.6 4.30005C157.751 5.5659 157.6 6.86188 157.636 8.14581C157.666 9.2067 157.498 9.89388 156.141 9.50207C148.166 7.19341 142.096 15.0296 144.55 22.9502C146.177 28.1944 151.247 30.3342 156.051 27.5735ZM154.664 13.607C158.703 13.5467 157.467 16.4883 157.648 18.6342C157.564 20.9791 158.498 23.9025 154.496 24.0111C151.922 24.0774 149.999 21.8049 150.083 18.7849C150.162 15.7409 152.048 13.6432 154.664 13.607Z" fill="white"/>
<path d="M85.0249 27.1996C85.676 26.9163 85.7543 27.0248 86.2667 27.5853C87.7134 29.1586 89.8231 28.3087 91.529 28.1339C93.0781 27.9711 92.2282 26.1628 92.2644 25.12C92.3789 21.672 92.3066 18.2121 92.3066 14.7581C92.3066 11.4006 92.3066 8.04915 92.3066 4.69165C92.3066 1.02071 92.3126 1.12318 88.6899 1.34621C86.6042 1.47279 85.8929 2.31066 86.1401 4.29382C86.2848 5.46321 86.128 6.66275 86.1763 7.84421C86.2245 9.12211 86.1521 9.78517 84.392 9.44761C77.5022 8.13354 72.1977 12.8172 72.5051 19.7431C72.8367 27.2779 77.9061 30.3099 85.0249 27.1996ZM83.078 13.6068C85.8749 13.5465 86.1823 14.0589 86.1823 18.8088C86.1823 23.1127 85.5976 24.0229 82.8489 24.0048C80.3956 23.9867 78.6053 21.8288 78.6174 18.8992C78.6234 15.8793 80.492 13.6611 83.078 13.6068Z" fill="white"/>
<path d="M6.07858 27.423C8.51985 28.3392 11.0395 28.8335 13.6556 28.9179C14.9515 28.8215 16.2536 28.8034 17.5375 28.6225C21.4435 28.062 24.1801 25.3735 24.6021 21.787C25.0421 17.9895 23.4387 15.5964 19.2554 14.0292C17.2301 13.2697 15.1143 12.7392 13.0829 11.9918C12.0341 11.606 10.9913 10.8766 11.359 9.59269C11.6664 8.50768 12.6067 7.94106 13.8665 7.86873C16.2596 7.73612 18.8395 8.13395 20.9733 9.23704C21.4676 9.49021 21.992 9.7916 22.5406 9.70119C24.4936 9.37568 24.4152 4.75234 22.4863 4.06517C18.6587 2.70891 14.7888 2.09407 10.7743 3.13688C7.48306 3.98681 5.44566 6.1508 5.12015 9.19485C4.71629 12.9381 5.91583 15.2167 9.42402 16.7417C11.582 17.682 13.8906 18.2908 16.127 19.0504C17.3024 19.4482 18.4477 19.9907 18.3753 21.4313C18.297 23.0347 16.8865 23.5049 15.6508 23.74C11.7508 24.4814 5.54813 19.3457 4.84287 25.0119C4.66204 26.4224 4.88507 26.9709 6.07858 27.423Z" fill="white"/>
<path d="M37.7548 28.8753C43.9514 28.8753 47.9056 25.0537 47.9297 19.056C47.9539 12.9197 44.1262 9.06185 38.014 9.06788C31.95 9.06788 27.8752 12.998 27.7787 18.9234C27.6823 24.9391 31.6245 28.8753 37.7548 28.8753ZM38.0983 13.7515C40.5818 13.8841 41.8597 15.6985 41.8537 19.0741C41.8477 22.1422 40.2322 24.3725 37.9778 24.4208C35.4943 24.475 33.8427 22.1061 33.9391 18.634C34.0296 15.3067 35.4762 13.6129 38.0983 13.7515Z" fill="white"/>
<path d="M169.909 28.0318C172.175 29.2675 174.665 29.388 176.63 27.7967C178.209 26.5188 178.993 26.344 180.53 27.8208C181.754 29.0022 183.875 29.1771 185.334 28.3633C186.594 27.6641 186.576 25.3253 185.901 24.62C184.297 22.9503 185.009 21.1661 184.84 19.4301C184.737 18.3511 184.858 17.26 184.816 16.175C184.653 12.1906 183.056 10.2678 179.162 9.33947C175.931 8.5679 172.857 9.35755 169.77 10.2256C167.775 10.7861 167.48 11.9375 168.137 13.6373C168.378 14.2642 168.625 14.8971 168.872 15.5421C170.295 15.0418 171.681 14.5415 173.073 14.0713C174.237 13.6795 175.467 13.6494 176.624 13.9508C177.878 14.2763 178.776 15.2709 178.643 16.5307C178.511 17.7905 177.215 17.2721 176.413 17.3263C174.707 17.4348 173.086 17.8327 171.494 18.4294C169.167 19.3035 167.6 20.8044 167.413 23.3542C167.257 25.3916 168.076 27.0311 169.909 28.0318ZM177.606 20.0931C179.162 19.7736 178.607 21.1058 178.595 21.0515C179.131 24.1378 177.588 24.831 175.798 25.0058C174.357 25.1444 173.116 24.3307 173.266 22.7996C173.52 20.28 175.852 20.4488 177.606 20.0931Z" fill="white"/>
<path d="M98.6179 28.1101C101.035 29.2916 103.531 29.3096 105.568 27.5254C106.888 26.3681 107.425 26.356 108.72 27.5977C110.113 28.9359 112.319 29.2614 114.007 28.2668C115.068 27.6399 115.08 25.4157 114.465 24.7285C112.488 22.5223 113.452 20.075 113.398 17.7784C113.235 11.2864 110.86 8.89941 104.236 9.08627C103.054 9.12244 101.843 9.30328 100.71 9.64083C95.0313 11.3226 95.7607 10.5932 97.4123 15.6687C98.3647 15.2467 99.0579 14.867 99.7993 14.6198C101.403 14.0833 103.036 13.5589 104.76 13.8603C106.189 14.1075 107.238 15.0418 107.153 16.4402C107.069 17.9532 105.592 17.1455 104.736 17.3504C103.295 17.694 101.795 17.8507 100.39 18.2908C97.9488 19.0563 96.1826 20.5874 95.9355 23.2577C95.7365 25.3976 96.6046 27.1276 98.6179 28.1101ZM106.123 20.0991C107.979 19.7495 106.888 21.4313 107.244 21.8472C107.551 24.3005 105.966 24.831 104.35 24.9997C102.922 25.1504 101.692 24.3849 101.819 22.8056C102.036 20.2257 104.393 20.4246 106.123 20.0991Z" fill="white"/>
<path d="M55.0425 28.2364C56.4349 28.4233 58.0443 28.809 57.8997 26.2593C57.6887 22.4316 57.8454 18.5798 57.8454 14.7401C57.8454 10.9968 57.8937 7.25353 57.8153 3.51025C57.7912 2.2866 58.3578 1.25584 56.6579 1.27996C55.7236 1.29201 54.7893 1.30407 53.855 1.31612C52.2576 1.34023 51.5885 2.03946 51.5765 3.58259C51.4921 11.1656 51.6307 18.7486 51.5162 26.3316C51.4559 29.5143 53.6983 28.0616 55.0425 28.2364Z" fill="white"/>
<path d="M118.323 24.2102C118.401 29.0325 117.352 28.1102 122.627 28.3092C124.254 28.3694 124.712 27.8511 124.646 26.326C124.537 23.9691 124.598 21.6062 124.622 19.2433C124.652 16.0425 126.496 14.403 129.679 14.7646C130.252 14.8309 131.114 15.2649 131.186 14.5356C131.355 12.9201 132.898 11.0937 131.723 9.80373C129.45 7.32027 126.34 10.1172 124.513 11.5819C124.7 10.7561 124.712 9.61687 123.905 9.36973C123.681 9.30342 123.44 9.32753 123.211 9.35164C121.138 9.59276 118.275 9.06834 118.275 11.805C118.407 15.9461 118.256 20.0812 118.323 24.2102Z" fill="white"/>
<path d="M64.3315 28.2669C65.3261 28.1825 66.3388 28.1764 67.3274 28.2729C68.5149 28.3874 68.9067 27.9594 68.8946 26.79C68.8645 22.7152 68.8705 18.6464 68.8705 14.5716C68.8705 13.4806 69.4371 10.1291 68.5812 9.44195C67.1706 8.30872 62.7221 9.55045 62.7462 11.5095C62.8065 16.6392 62.8125 21.7689 62.7402 26.8925C62.7281 28.1764 63.2526 28.3573 64.3315 28.2669Z" fill="white"/>
<path d="M139.131 9.5082C137.25 9.01995 133.995 9.62876 134.188 12.5281C134.453 16.4523 134.242 20.4125 134.242 24.3547C134.242 28.3633 134.242 28.2789 138.335 28.2909C141.572 28.2969 140.342 23.5832 140.354 21.2806C140.372 17.7061 140.391 14.1315 140.415 10.557C140.421 10.0808 139.884 9.70712 139.131 9.5082Z" fill="white"/>
</svg>
